<svg id="Grupo_1101857" data-name="Grupo 1101857" xmlns="http://www.w3.org/2000/svg" xmlns:xlink="http://www.w3.org/1999/xlink" width="273.544" height="193.656" viewBox="0 0 273.544 193.656">
  <defs>
    <clipPath id="clip-path">
      <rect id="Rectángulo_402456" data-name="Rectángulo 402456" width="273.544" height="193.656" fill="none"/>
    </clipPath>
    <clipPath id="clip-path-3">
      <rect id="Rectángulo_402453" data-name="Rectángulo 402453" width="42.863" height="134.601" fill="none"/>
    </clipPath>
  </defs>
  <g id="Grupo_1101856" data-name="Grupo 1101856" clip-path="url(#clip-path)">
    <g id="Grupo_1101855" data-name="Grupo 1101855">
      <g id="Grupo_1101854" data-name="Grupo 1101854" clip-path="url(#clip-path)">
        <path id="Trazado_892860" data-name="Trazado 892860" d="M141.142,303.8c-27.475-.551-63.507-2.363-82.18-2.4s-51.087.8-46.507,6.7,32.414,2.528,40.165,7.584,9.336,13.483,48.621,7.416,57.253-4.034,79.45,2.112,46.155-3.461,51.44-4.3,40.026-5.779,29.948-12.641c-13.619-9.273-93.371-3.914-120.936-4.466" transform="translate(-5.326 -133.601)" fill="#e6f1fe"/>
        <path id="Trazado_892861" data-name="Trazado 892861" d="M142.155,313.27c11.542-.077,32.429,0,30.9,1.621s-19.841,3.72-29.807,2.862-31.9-1.526-27.992-2.862,18.121-1.562,26.9-1.621" transform="translate(-50.886 -138.854)" fill="#a5e0e8"/>
        <path id="Trazado_892862" data-name="Trazado 892862" d="M278.964,312.459c12.2-.07,38.329-.3,36.38,2.245s-17.364,1.863-24.225,2.033-26.6,3.473-37.27,0,9.319-4.187,25.115-4.277" transform="translate(-111.191 -138.486)" fill="#a5e0e8"/>
        <rect id="Rectángulo_402428" data-name="Rectángulo 402428" width="78.959" height="43.539" transform="translate(194.585 115.779)" fill="#eef7fc"/>
        <rect id="Rectángulo_402429" data-name="Rectángulo 402429" width="78.959" height="23.501" transform="translate(194.585 88.461)" fill="#eef7fc"/>
        <rect id="Rectángulo_402430" data-name="Rectángulo 402430" width="78.959" height="23.501" transform="translate(194.585 61.982)" fill="#eef7fc"/>
        <rect id="Rectángulo_402431" data-name="Rectángulo 402431" width="3.051" height="18.864" transform="translate(269.113 93.098)" fill="#96e1e2"/>
        <rect id="Rectángulo_402432" data-name="Rectángulo 402432" width="3.051" height="18.864" transform="translate(265.557 93.098)" fill="#96e1e2"/>
        <rect id="Rectángulo_402433" data-name="Rectángulo 402433" width="3.051" height="18.864" transform="translate(260.329 93.098)" fill="#96e1e2"/>
        <rect id="Rectángulo_402434" data-name="Rectángulo 402434" width="3.051" height="18.864" transform="translate(195.706 93.098)" fill="#96e1e2"/>
        <rect id="Rectángulo_402435" data-name="Rectángulo 402435" width="3.051" height="18.864" transform="translate(199.187 93.098)" fill="#96e1e2"/>
        <rect id="Rectángulo_402436" data-name="Rectángulo 402436" width="3.051" height="18.864" transform="translate(195.706 66.619)" fill="#a5e0e8"/>
        <rect id="Rectángulo_402437" data-name="Rectángulo 402437" width="3.051" height="18.864" transform="translate(199.187 66.619)" fill="#a5e0e8"/>
        <rect id="Rectángulo_402438" data-name="Rectángulo 402438" width="3.051" height="18.864" transform="translate(202.73 66.619)" fill="#a5e0e8"/>
        <rect id="Rectángulo_402439" data-name="Rectángulo 402439" width="3.051" height="18.864" transform="translate(206.45 66.619)" fill="#a5e0e8"/>
        <rect id="Rectángulo_402440" data-name="Rectángulo 402440" width="78.959" height="23.501" transform="translate(194.585 35.503)" fill="#eef7fc"/>
        <rect id="Rectángulo_402441" data-name="Rectángulo 402441" width="70.927" height="134.601" transform="translate(79.331 23.199)" fill="#eef7fc"/>
        <rect id="Rectángulo_402442" data-name="Rectángulo 402442" width="70.927" height="134.601" transform="translate(0 23.199)" fill="#dbeefa"/>
        <path id="Trazado_892863" data-name="Trazado 892863" d="M85.078,178.7s4.32-30,1.326-52.691S72.38,95.314,64.864,97.388c-11.659,3.218-9.656,34.639-1.5,51.536,0,0-19.874-20.977-30.386-6.834-8.611,11.583,15.862,33.478,34.86,37.829Z" transform="translate(-13.828 -43.029)" fill="#d7e6ce"/>
        <path id="Trazado_892864" data-name="Trazado 892864" d="M104.247,126.076a.253.253,0,0,0-.313-.176c-4.188,1.177-8.312,6.136-9.521,7.687q-.7-4.19-1.509-8.514c0-.007,0-.014,0-.021q-.1-.548-.207-1.1c.286-.62,2.644-5.495,7.1-7.953a.254.254,0,0,0-.246-.445,18.966,18.966,0,0,0-7.008,7.578c-.635-3.294-1.32-6.626-2.061-9.977a.254.254,0,1,0-.5.11c.836,3.782,1.6,7.541,2.3,11.245-3.609-2.437-9.989-3.112-10.273-3.141a.254.254,0,0,0-.052.506c.071.007,7.076.748,10.462,3.36.6,3.21,1.157,6.376,1.668,9.478a33.475,33.475,0,0,0-12.1-2.506.254.254,0,1,0,0,.508c.069,0,6.907.032,12.2,2.608.527,3.235,1.007,6.4,1.442,9.463-1.6-.539-7.5-2.378-11.6-1.741a.254.254,0,0,0,.078.5c4.181-.654,10.546,1.443,11.6,1.8.522,3.71.981,7.274,1.382,10.651a24.049,24.049,0,0,0-9.989-1.85.254.254,0,0,0,.036.507,23.757,23.757,0,0,1,10.022,1.923c.4,3.413.744,6.627,1.037,9.6a15.908,15.908,0,0,0-8.4-2.553h-.005a.254.254,0,0,0-.006.508,15.389,15.389,0,0,1,8.477,2.714c1.2,12.334,1.506,20.3,1.512,20.467a.254.254,0,0,0,.254.245h.009a.254.254,0,0,0,.244-.263c-.006-.168-.317-8.164-1.519-20.541a.24.24,0,0,0-.011-.114c-.305-3.138-.668-6.556-1.1-10.2a.246.246,0,0,0-.015-.129c-.415-3.52-.894-7.249-1.442-11.136a.252.252,0,0,0-.014-.1c-.454-3.208-.955-6.522-1.509-9.916a.257.257,0,0,0-.016-.094c-.043-.265-.086-.529-.13-.8.551-.732,5.109-6.639,9.544-7.885a.254.254,0,0,0,.176-.313" transform="translate(-36.227 -50.071)" fill="#338501"/>
        <path id="Trazado_892865" data-name="Trazado 892865" d="M69.583,207.467c-.1-.975-.73-8.2,2.073-11.351a.254.254,0,1,0-.379-.337c-2.672,3-2.411,9.219-2.248,11.227-2.427-2.021-5.211-4.4-8.16-7.034-.055-1.014-.345-8.476,2.535-13.093a.254.254,0,1,0-.431-.269c-2.7,4.327-2.706,10.844-2.634,12.887-2.5-2.243-5.1-4.657-7.692-7.179.056-.967.533-7.544,3.344-11.646a.254.254,0,1,0-.419-.287c-2.643,3.858-3.269,9.638-3.4,11.468-1.915-1.876-3.815-3.809-5.657-5.77a26.791,26.791,0,0,1,.859-10.54.254.254,0,0,0-.489-.138,28.075,28.075,0,0,0-.955,10.055c-1.954-2.1-3.833-4.234-5.574-6.363a.254.254,0,0,0-.393.322c1.194,1.459,2.455,2.919,3.757,4.37-1.545.1-6.131.554-8.985,2.481a.254.254,0,0,0,.143.465.249.249,0,0,0,.142-.044c3.034-2.048,8.321-2.378,9.133-2.417.641.709,1.3,1.414,1.955,2.116a.161.161,0,0,0,.016.017c1.448,1.542,2.931,3.065,4.43,4.559-1.641.207-6.754,1.083-9.6,4.212a.254.254,0,0,0,.017.359.251.251,0,0,0,.171.066.254.254,0,0,0,.188-.083c3-3.293,8.86-4.01,9.689-4.1q.584.577,1.169,1.149a.247.247,0,0,0,.07.068c2.091,2.037,4.189,4,6.238,5.867-1.584.269-6.5,1.264-9.827,3.715a.254.254,0,1,0,.3.409c3.56-2.621,9.2-3.563,10.007-3.687q.74.671,1.469,1.322a.231.231,0,0,0,.041.036c1.855,1.657,3.644,3.213,5.323,4.646-1.666.2-6.535.975-9.206,3.276a.254.254,0,0,0,.332.385c2.861-2.467,8.618-3.129,9.4-3.209.988.84,1.939,1.637,2.832,2.379a.181.181,0,0,0,.03.024c4.8,3.985,8.076,6.468,8.162,6.533a.249.249,0,0,0,.153.052.254.254,0,0,0,.154-.457c-.086-.065-3.325-2.523-8.081-6.467" transform="translate(-15.344 -77.669)" fill="#338501"/>
        <path id="Trazado_892866" data-name="Trazado 892866" d="M105.754,190.687s-3.549-24.649-1.09-43.29,11.522-25.217,17.7-23.512c9.579,2.644,6.2,31.642-.5,45.524,0,0,18.06-20.417,26.7-8.8,7.074,9.516-13.031,27.5-28.64,31.08Z" transform="translate(-46.01 -54.799)" fill="#aecf9d"/>
        <path id="Trazado_892867" data-name="Trazado 892867" d="M120.591,187.961a.17.17,0,0,0,.164-.175.182.182,0,0,0-.175-.164,25.519,25.519,0,0,0-6.181,1.011c.157-2.381.363-5.208.63-8.358a21.586,21.586,0,0,1,6.929-1.844.17.17,0,0,0-.021-.339,21.84,21.84,0,0,0-6.875,1.8c.251-2.935.553-6.139.917-9.516a39.142,39.142,0,0,1,8.195-.755.181.181,0,0,0,.176-.162.17.17,0,0,0-.163-.177,39.132,39.132,0,0,0-8.171.742c.3-2.727.631-5.562,1.01-8.455a47.126,47.126,0,0,1,9.216-.943.169.169,0,0,0,.014-.339,47.345,47.345,0,0,0-9.183.926c.337-2.55.708-5.142,1.117-7.742a31.1,31.1,0,0,1,9.425-1.886.169.169,0,0,0,.164-.175.18.18,0,0,0-.175-.164,31.6,31.6,0,0,0-9.355,1.84c.482-3.037,1.014-6.082,1.6-9.079a32.443,32.443,0,0,1,8.153-1.735.169.169,0,1,0-.027-.337,33.149,33.149,0,0,0-8.05,1.685c.6-3.011,1.25-5.972,1.965-8.824a.17.17,0,0,0-.329-.082c-.64,2.554-1.23,5.194-1.775,7.879-.762-.993-3.408-4.234-6.538-5.707a.169.169,0,1,0-.144.306c3.391,1.6,6.224,5.343,6.592,5.844-.609,3.036-1.161,6.127-1.659,9.216a20.82,20.82,0,0,0-9.343-5.412.169.169,0,1,0-.077.33,20.55,20.55,0,0,1,9.353,5.5c-.033.205-.065.41-.1.615,0,.005,0,.011,0,.016-.364,2.311-.7,4.616-1.005,6.891a37.64,37.64,0,0,0-9.577-3.149.174.174,0,0,0-.191.145.169.169,0,0,0,.145.191,37.553,37.553,0,0,1,9.575,3.167q-.062.458-.121.914v0h0c-.345,2.63-.654,5.213-.93,7.71a24,24,0,0,0-8.487-2.459.171.171,0,0,0-.182.155.169.169,0,0,0,.155.182,23.6,23.6,0,0,1,8.474,2.482c-.026.239-.052.475-.077.712,0,.009-.007.017-.005.027l0,0c-.33,3.064-.611,5.987-.847,8.7a34.4,34.4,0,0,0-7.506-2.2.17.17,0,1,0-.053.335,33.978,33.978,0,0,1,7.528,2.217q-.034.394-.067.782c0,.01,0,.019,0,.03-.287,3.381-.5,6.4-.666,8.888a20.229,20.229,0,0,0-5.609-2.27.17.17,0,0,0-.076.331,19.714,19.714,0,0,1,5.66,2.322c-.279,4.364-.382,7.039-.385,7.135a.169.169,0,0,0,.163.175h.006a.17.17,0,0,0,.169-.164c0-.1.113-2.942.413-7.559a25.062,25.062,0,0,1,6.215-1.033" transform="translate(-47.473 -59.657)" fill="#e9f6f8"/>
        <path id="Trazado_892868" data-name="Trazado 892868" d="M157.1,197.9a23.378,23.378,0,0,0-6.553-2.54c1.239-1.328,2.424-2.629,3.519-3.874a.169.169,0,0,0-.255-.223c-.92,1.047-1.9,2.133-2.93,3.241a11.6,11.6,0,0,0-3.073-5.791.169.169,0,1,0-.228.251,11.639,11.639,0,0,1,3.019,5.846c-1.749,1.882-3.615,3.826-5.514,5.759-.283-1.235-1.446-5.761-3.7-7.825a.17.17,0,0,0-.229.251c2.319,2.121,3.489,7.141,3.647,7.862-1.449,1.472-2.912,2.935-4.352,4.357-.436-.978-2.288-4.739-5.533-6.289a.169.169,0,0,0-.146.306c3.259,1.556,5.125,5.562,5.421,6.239-1.65,1.627-3.262,3.194-4.782,4.658a11.536,11.536,0,0,0-4.639-4.181.169.169,0,0,0-.131.312,11.428,11.428,0,0,1,4.521,4.109c-5.457,5.247-9.638,9.076-9.724,9.155a.17.17,0,0,0,.114.295.166.166,0,0,0,.114-.045c.077-.07,3.409-3.121,8-7.5.571.113,4.3.916,5.956,2.869a.169.169,0,1,0,.258-.22c-1.6-1.88-4.884-2.712-5.916-2.934,1.667-1.593,3.491-3.354,5.379-5.2a26.491,26.491,0,0,1,6.392,3.961.169.169,0,0,0,.239-.008.169.169,0,0,0-.008-.24,26.511,26.511,0,0,0-6.363-3.968c1.543-1.514,3.124-3.085,4.7-4.674.661.161,5.131,1.294,7.606,3.077a.169.169,0,1,0,.2-.275c-2.376-1.711-6.409-2.8-7.527-3.082,1.957-1.981,3.892-3.982,5.713-5.928a24.008,24.008,0,0,1,6.631,2.536.169.169,0,1,0,.188-.282" transform="translate(-55.576 -83.632)" fill="#e9f6f8"/>
        <path id="Trazado_892869" data-name="Trazado 892869" d="M124.989,246.15c.007.468,0,1-.021,1.579s-.074,1.24-.149,1.952a65.789,65.789,0,0,1-1.85,9.9c-2.223,8.648-7.794,16.976-18.928,19.619h-.02a33.7,33.7,0,0,1-7.834.867c-16.482,0-24.085-10-26.782-20.487s-2.114-15.722-1.532-16.373,23.665-.827,28.314-.827,27.738.183,28.321.827a6.026,6.026,0,0,1,.481,2.941" transform="translate(-29.868 -107.44)" fill="#a5e0e8"/>
        <path id="Trazado_892870" data-name="Trazado 892870" d="M124.969,247.729c-.027.59-.075,1.24-.149,1.952-13.771-1.593-39.848.861-45.378,1.416.352,9.528,3.531,30.1,24.58,28.1a33.692,33.692,0,0,1-7.834.867c-16.482,0-24.085-10-26.783-20.487s-2.114-15.723-1.532-16.373,23.665-.827,28.314-.827,27.738.183,28.32.827a6.023,6.023,0,0,1,.482,2.941c-3.429-.258-14.5-.6-45.561,1.376-.014.454-.021,1.043-.021,1.735,5.191-.468,29.229-2.487,45.561-1.532" transform="translate(-29.868 -107.44)" fill="#6ecbe0"/>
        <path id="Trazado_892871" data-name="Trazado 892871" d="M253.315,64.785l-6.144-3.641a.342.342,0,0,0-.317-.017l-6.482,3a.342.342,0,0,1-.477-.385l1.565-6.968a.342.342,0,0,0-.083-.307l-4.853-5.239a.341.341,0,0,1,.219-.572l7.111-.665a.341.341,0,0,0,.266-.173l3.483-6.234a.342.342,0,0,1,.612.031l2.829,6.557a.342.342,0,0,0,.247.2l7.006,1.386a.341.341,0,0,1,.159.591l-5.361,4.718a.34.34,0,0,0-.114.3l.846,7.091a.341.341,0,0,1-.513.334" transform="translate(-104.803 -19.24)" fill="#ff960f"/>
        <path id="Trazado_892872" data-name="Trazado 892872" d="M279.214,48.819l-2.44-2.562a.169.169,0,0,0-.149-.051l-3.494.558a.169.169,0,0,1-.175-.248l1.682-3.112a.171.171,0,0,0,0-.158L273.029,40.1a.169.169,0,0,1,.181-.243l3.48.638a.168.168,0,0,0,.15-.047l2.5-2.505a.169.169,0,0,1,.287.1l.469,3.507a.168.168,0,0,0,.091.128l3.155,1.6a.169.169,0,0,1,0,.3l-3.19,1.529a.169.169,0,0,0-.094.126l-.549,3.5a.169.169,0,0,1-.29.09" transform="translate(-120.983 -16.796)" fill="#004f82"/>
        <path id="Trazado_892873" data-name="Trazado 892873" d="M106.54,2.771v33.22a2.774,2.774,0,0,1-2.779,2.779H96.47l.664,7.034a.541.541,0,0,1-.779.536L81.33,38.77H51.593a2.778,2.778,0,0,1-2.779-2.779V2.771A2.777,2.777,0,0,1,51.593,0h52.169a2.773,2.773,0,0,1,2.779,2.772" transform="translate(-21.638 0)" fill="#4aa9e5"/>
        <path id="Trazado_892874" data-name="Trazado 892874" d="M168.942,125.552c-.461,1-2.867,1.5-5.367,1.626a23.18,23.18,0,0,1-4.283-.149,3.331,3.331,0,0,1-1.857-.6,20.369,20.369,0,0,1-1.3-3.931c-3.152.522-4.039-1.511-3.964-3.11a2.214,2.214,0,0,1,.671-1.708,2.293,2.293,0,0,1,2.148.305v-.013c.033-.23.386-2.975.488-3.815.109-.875-1.382-2.908-.4-3.592s11.893-.2,11.893-.2c.779,3.625,2.771,13.452,1.972,15.194" transform="translate(-67.45 -48.844)" fill="#ffc99c"/>
        <path id="Trazado_892875" data-name="Trazado 892875" d="M165.763,100.686a17.607,17.607,0,0,1-1.1,3.172s-10.911-.488-11.893.2.508,2.717.4,3.592c-.1.84-.454,3.585-.488,3.815v.013a2.292,2.292,0,0,0-2.148-.305,2.214,2.214,0,0,0-.671,1.708c-.854-1.226-3.05-4.561-2.9-5.991A4.554,4.554,0,0,1,149,103.966s-.163-3.267.278-3.917,9.257-2.216,9.562-2.324,2.358-1.674,2.562-1.633.725,1.667.725,1.667,2.142-2.324,2.433-2.229a8.828,8.828,0,0,1,1.2,5.157" transform="translate(-65.138 -42.344)" fill="#001b41"/>
        <path id="Trazado_892876" data-name="Trazado 892876" d="M208.2,156.157c-3.883,4-11.338,11.6-11.873,11.6-.732,0-8.274-7.326-8.274-7.326l-1.226-12.334c.549.379,9.914,11.7,9.914,11.7l7.075-7.55Z" transform="translate(-82.815 -65.645)" fill="#fefefe"/>
        <path id="Trazado_892877" data-name="Trazado 892877" d="M132.235,165.294s-6.858,8.878-7.732,8.824c-.65-.041-11.968-5.232-17.721-7.9l2.744-5.72,13.507,6.154s6.424-11.548,6.966-12.307l.6.434Z" transform="translate(-47.333 -68.418)" fill="#fefefe"/>
        <path id="Trazado_892878" data-name="Trazado 892878" d="M173.567,184.293q0,1.606-.041,3.212a35.661,35.661,0,0,1-21.015,0,179.968,179.968,0,0,0-1.478-20.792c0-.007,0-.007-.007-.007V166.7c-1.193-9.332-2.65-15.607-2.548-15.8a34.509,34.509,0,0,1,7.014-3.605l.651,1.579.007.007,7.523,18.2.515-17.992.075-2.514-.013-.007c2.88.223,5.482.63,5.577.853a194.061,194.061,0,0,1,3.741,36.88" transform="translate(-65.814 -64.965)" fill="#004f82"/>
        <path id="Trazado_892879" data-name="Trazado 892879" d="M175.605,200.339q0,1.606-.041,3.212a35.661,35.661,0,0,1-21.015,0,179.965,179.965,0,0,0-1.478-20.792c.169.434,5.753,14.536,13.154,17.112a16.341,16.341,0,0,0,9.379.468" transform="translate(-67.852 -81.012)" fill="#002f47"/>
        <path id="Trazado_892880" data-name="Trazado 892880" d="M176.53,220.106c-.081,7.231-1.159,30.93-1.681,42.1-.169,3.619-.278,5.916-.278,5.916h-5.665s-.386-11.88-.779-22.581c-.325-8.553-.651-16.346-.8-16.732-.285-.739-2.128-.949-2.42.217-.183.739-1.762,16.475-2.873,27.758-.637,6.384-1.118,11.338-1.118,11.338h-5.665s.088-12.625.169-24.946c.061-10.931.122-21.632.1-23.069a35.661,35.661,0,0,0,21.015,0" transform="translate(-68.818 -97.566)" fill="#008d94"/>
        <path id="Trazado_892881" data-name="Trazado 892881" d="M155.42,261.542l6.615,13.608c-.637,6.383-1.118,11.338-1.118,11.338h-5.665s.088-12.626.169-24.946" transform="translate(-68.818 -115.933)" fill="#005b5b"/>
        <path id="Trazado_892882" data-name="Trazado 892882" d="M185.1,282.455c-.169,3.619-.278,5.916-.278,5.916h-5.665s-.386-11.88-.779-22.581Z" transform="translate(-79.07 -117.816)" fill="#005b5b"/>
        <path id="Trazado_892883" data-name="Trazado 892883" d="M173.867,145.767l-.075,2.514c-.19.556-.705,1.972-.969,2.033-.326.075-2.684-2.758-2.684-2.758l1.233-1.939.407-.637.142-.224,1.932,1Z" transform="translate(-75.417 -64.166)" fill="#f1e9f3"/>
        <path id="Trazado_892884" data-name="Trazado 892884" d="M166.126,147.546a27.079,27.079,0,0,1-2.033,3.016c-.176-.041-2.222-2.352-2.352-2.494l-.007-.007-.65-1.579.007-.007,2.053-1.742.183.176.806.759Z" transform="translate(-71.403 -64.155)" fill="#f1e9f3"/>
        <path id="Trazado_892885" data-name="Trazado 892885" d="M170.3,150.51l-.515,17.992-7.523-18.2c.129.142,2.176,2.453,2.352,2.494a27.074,27.074,0,0,0,2.033-3.015s2.358,2.833,2.683,2.758c.264-.061.779-1.478.969-2.033" transform="translate(-71.926 -66.395)" fill="#fefefe"/>
        <path id="Trazado_892886" data-name="Trazado 892886" d="M169.484,143.065l-.406.637-1.234,1.939-1.993-1.877-.806-.759L165,141.5l-.034-1.064a23.225,23.225,0,0,0,4.283.149l.169,1.769Z" transform="translate(-73.123 -62.251)" fill="#ffc99c"/>
        <path id="Trazado_892887" data-name="Trazado 892887" d="M169.417,142.354A10.248,10.248,0,0,1,165,141.5l-.033-1.064a23.221,23.221,0,0,0,4.283.149Z" transform="translate(-73.124 -62.251)" fill="#e89574"/>
        <path id="Trazado_892888" data-name="Trazado 892888" d="M106.9,164.058l-2.745,5.72c-1.979-.915-3.3-1.525-3.3-1.525l2.345-5.882Z" transform="translate(-44.705 -71.974)" fill="#f1e9f3"/>
        <path id="Trazado_892889" data-name="Trazado 892889" d="M224.048,154.8s-.929.969-2.318,2.392l-4.385-3.91,2.677-2.86.366.4,2.168,2.358,1.328,1.444Z" transform="translate(-96.342 -66.675)" fill="#f1e9f3"/>
        <path id="Trazado_892890" data-name="Trazado 892890" d="M179.569,306.349l-.265,4.142h13.124a2.363,2.363,0,0,0-.19-2.071c-.654-.926-7-2.07-7-2.07Z" transform="translate(-79.48 -135.794)" fill="#00264e"/>
        <path id="Trazado_892891" data-name="Trazado 892891" d="M192.429,313.788l.082.409h-5.282l-2.519-.409v.409H179.3v-.409Z" transform="translate(-79.48 -139.092)" fill="#004f82"/>
        <path id="Trazado_892892" data-name="Trazado 892892" d="M155.036,306.349l-.265,4.142h11.49a2.364,2.364,0,0,0-.191-2.071c-.653-.926-5.369-2.07-5.369-2.07Z" transform="translate(-68.605 -135.794)" fill="#00264e"/>
        <path id="Trazado_892893" data-name="Trazado 892893" d="M166.261,313.788l.082.409h-6.281l-1.393-.409v.409h-3.9v-.409Z" transform="translate(-68.605 -139.092)" fill="#004f82"/>
        <path id="Trazado_892894" data-name="Trazado 892894" d="M226.225,143.673a5.346,5.346,0,0,1-.725,1.877l-.007.013c-.454.874-.949,1.7-.949,1.7l-2.168-2.359s-.366-1.985-.515-2.711a49.011,49.011,0,0,1,.291-5.089c0-.143,1.071.4,1.186.949s.38,2.867.38,2.867.271.237.63.569c.725.671,1.823,1.749,1.877,2.182" transform="translate(-98.331 -60.765)" fill="#ffc99c"/>
        <path id="Trazado_892895" data-name="Trazado 892895" d="M227.5,149.06a9.957,9.957,0,0,0,.318-1.85,10.985,10.985,0,0,0-1.47-2.209c.725.671,1.823,1.748,1.877,2.182a5.334,5.334,0,0,1-.725,1.877" transform="translate(-100.334 -64.274)" fill="#e89574"/>
        <path id="Trazado_892896" data-name="Trazado 892896" d="M235.049,140.036c-.3.264-2.747,2.412-2.747,2.412l-4.424,4.2-1.328-1.443s1.762-2.941,1.681-3.592c-.055-.434-1.152-1.511-1.877-2.182l1.015-1.9,2.81-5.1s.58.45.514.835c-.055.331-1.063,3.409-1.486,4.754l3.962-4.749s.551.631.387,1.033c-.139.342-1.865,3.7-2.6,4.941l3.575-2.947s.387.625.188.961c-.145.246-1.163,1.5-2.354,3.031l2.8-1.235s.175.709-.115.973" transform="translate(-100.335 -58.705)" fill="#ffc99c"/>
        <path id="Trazado_892897" data-name="Trazado 892897" d="M101.417,157.665l-1.2,2.968s-.82-.651-1.579-1.342l-.041-.041a4.835,4.835,0,0,1-1.213-1.389,7.544,7.544,0,0,1,.983-2.683.055.055,0,0,0,.007-.021c.217-.434.386-.752.386-.752s-.562-2.27-.65-2.819.725-1.436.779-1.3a48.983,48.983,0,0,1,2.06,4.663c.115.732.468,2.717.468,2.717" transform="translate(-43.163 -66.61)" fill="#ffc99c"/>
        <path id="Trazado_892898" data-name="Trazado 892898" d="M98.6,163.157a4.835,4.835,0,0,1-1.213-1.389,7.55,7.55,0,0,1,.983-2.684,9.791,9.791,0,0,0-.59,2.725,3.116,3.116,0,0,0,.82,1.348" transform="translate(-43.163 -70.517)" fill="#e89574"/>
        <path id="Trazado_892899" data-name="Trazado 892899" d="M84.239,158.532c.37.143,3.42,1.292,3.42,1.292l5.618,2.379.736-1.818s-2.683-2.134-2.836-2.771a7.679,7.679,0,0,1,.991-2.7l-1.618-1.42-4.422-3.784s-.385.626-.188.963c.167.29,2.194,2.818,3.063,3.928l-5.379-3.053s-.293.784,0,1.1c.251.272,3.045,2.806,4.167,3.713l-4.383-1.5s-.143.721.163.966c.222.179,1.618,1,3.269,2.01l-3.051-.173s.085.725.449.871" transform="translate(-36.958 -66.36)" fill="#ffc99c"/>
        <rect id="Rectángulo_402443" data-name="Rectángulo 402443" width="93.176" height="2.506" transform="translate(116.325 108.539)" fill="#00c7d9"/>
        <rect id="Rectángulo_402444" data-name="Rectángulo 402444" width="90.708" height="6.238" transform="translate(117.56 111.045)" fill="#00c7d9"/>
        <path id="Trazado_892900" data-name="Trazado 892900" d="M211.16,199.459h90.708v2.367l-90.708-1.451Z" transform="translate(-93.6 -88.414)" fill="#008d94"/>
        <rect id="Rectángulo_402445" data-name="Rectángulo 402445" width="1.96" height="57.821" transform="translate(117.56 117.284)" fill="#00c7d9"/>
        <rect id="Rectángulo_402446" data-name="Rectángulo 402446" width="1.96" height="57.821" transform="translate(206.307 117.284)" fill="#00c7d9"/>
        <rect id="Rectángulo_402447" data-name="Rectángulo 402447" width="8.863" height="1.588" transform="translate(130.621 106.951)" fill="#008e8f"/>
        <rect id="Rectángulo_402448" data-name="Rectángulo 402448" width="17.949" height="1.588" transform="translate(139.483 106.951)" fill="#007a7c"/>
        <path id="Trazado_892901" data-name="Trazado 892901" d="M249.491,172.836H231.542l1.713,10.728H251.2Z" transform="translate(-102.635 -76.612)" fill="#007a7c"/>
        <path id="Trazado_892902" data-name="Trazado 892902" d="M249.558,174.107H232.944l1.487,9.312h16.614Z" transform="translate(-103.256 -77.176)" fill="#00264e"/>
        <rect id="Rectángulo_402449" data-name="Rectángulo 402449" width="1.471" height="36.668" transform="translate(173.668 134.943)" fill="#004e7d"/>
        <path id="Trazado_892903" data-name="Trazado 892903" d="M315.691,310.149c-10.859-3.9-19.346-3.9-30.2,0l-.817,1.346h31.839Z" transform="translate(-126.184 -136.181)" fill="#004e7d"/>
        <path id="Trazado_892904" data-name="Trazado 892904" d="M303.423,273.581v.833c2.23.766,7.99,2.8,7.57,3.3-.258.305-3.68.2-7.57-.081-.488-.041-.976-.081-1.47-.115-5.076-.42-10.383-1.091-10.261-1.545.143-.562,8-1.518,10.261-1.782V273.4c-2.569.278-11.893,1.356-12.51,2.6-.556,1.111,6.092,2.263,12.51,2.751.494.041.983.067,1.47.1,4.174.244,8,.183,9.359-.4,2.44-1.051-6.547-3.992-9.359-4.873" transform="translate(-128.286 -121.188)" fill="#004e7d"/>
        <path id="Trazado_892905" data-name="Trazado 892905" d="M319.079,222.173c-.542,3.7-5.171,10.511-15.248,10.511-8.831,0-12.47-3.429-13.012-4.866,3.219.129,8.505.291,11.975.149.6-.027,1.166-.068,1.715-.136h.02c8.532-.522,14.767-7.678,14.042-9.2a6.577,6.577,0,0,1,.508,3.537" transform="translate(-128.911 -96.914)" fill="#008493"/>
        <path id="Trazado_892906" data-name="Trazado 892906" d="M315.445,224.731c4.27-.508,6.906-2.392,7.143-7.651a16.18,16.18,0,0,0-.061-2.3,21.064,21.064,0,0,0-.474-2.961,6.277,6.277,0,0,1,7.435,3.721c.725,1.518-5.509,8.674-14.042,9.2" transform="translate(-139.826 -93.813)" fill="#005b5b"/>
        <path id="Trazado_892907" data-name="Trazado 892907" d="M318.265,144.139c-.935,1.62-2.162,3.551-2.86,3.91a3.09,3.09,0,0,1-.583.2,22.412,22.412,0,0,1-3.985.6c-2.142.149-4.276.047-4.635-.65-.38-.739.285-4.216.955-7.184.156-.691.312-1.362.461-1.958.44-1.877,3.131-4.175,3.131-4.175a11.016,11.016,0,0,0,7.516,9.251" transform="translate(-135.681 -59.791)" fill="#ffc99c"/>
        <path id="Trazado_892908" data-name="Trazado 892908" d="M327.538,155.995s-3.321,10.491-10.958,7.462v-.007c.664-2.3,1.491-4.934,1.9-6,.725-1.89,1.2-7.373.908-7.624a16.817,16.817,0,0,0-3.307-.623l.007-.007c.292-.271-.291-1.5-.312-1.721s.346-1.334.109-1.444a4.842,4.842,0,0,0-1.1-.115l-.156-1.1a3.12,3.12,0,0,0,.583-.2c.7-.359,1.925-2.29,2.86-3.91a11.015,11.015,0,0,1-7.516-9.251s-2.69,2.3-3.131,4.175c-.149.6-.3,1.267-.46,1.958,0,0-2.02-5.767-1.064-7.943s7.631-2.54,8.722-2.508,7.082,2.786,8.383,5.226-.2,17.68.021,20.947,4.52,2.69,4.52,2.69" transform="translate(-135.478 -56.352)" fill="#0066dc"/>
        <path id="Trazado_892909" data-name="Trazado 892909" d="M274.473,247.641c-.576,1.186-1.308,2.643-2.094,4.168-2.494,4.839-5.489,10.376-5.489,10.376l-2.779-.807s1.572-6.154,3.368-12.68c.2-.752.406-1.512.617-2.264.881.6,2.867,1.552,6.377,1.206" transform="translate(-117.072 -109.237)" fill="#ffc99c"/>
        <path id="Trazado_892910" data-name="Trazado 892910" d="M277.155,247.641c-.576,1.186-1.308,2.643-2.094,4.168l-.732-2.948s-2.805.474-4.168-.163c.2-.752.406-1.512.617-2.264.881.6,2.867,1.552,6.377,1.206" transform="translate(-119.754 -109.237)" fill="#e89574"/>
        <path id="Trazado_892911" data-name="Trazado 892911" d="M290.892,166.852c-.744.508-7.479,11.69-7.479,11.69l-11.672,2.151.218,1.806h12.307c1.035,0,5.01-3.649,5.01-3.649Z" transform="translate(-120.454 -73.96)" fill="#ffc99c"/>
        <path id="Trazado_892912" data-name="Trazado 892912" d="M315.4,173.465a8.707,8.707,0,0,1-.352,1.274c-.366.956-1.071,3.172-1.687,5.28-.075.244-.143.481-.21.718v.007c-.515,1.783-.942,3.375-1,3.877-.1.8,1.315,3.49,2.128,7.021a21.054,21.054,0,0,1,.474,2.962c-1.477-1.206-5.279-2.189-8.816-1.044-.861.278-2.324.63-4.08,1.03,0,0-1.606-.644-3.68-1.477.149-.454.42-1.3.7-2.277a31.018,31.018,0,0,0,1.071-4.649,60.823,60.823,0,0,0-.434-8.044s-1.721-2.514-1.613-3.395c.136-1.064,2.806-4.513,2.989-4.873a23.746,23.746,0,0,1,1.6-3.341c.122-.034,1.051-.163,2.2-.278.461-.041.963-.088,1.457-.122a.4.4,0,0,0,.027.088,2.778,2.778,0,0,0,2.033,1.742,6.253,6.253,0,0,0,3.679-.949,4.184,4.184,0,0,0,.766-.522l.291.041a14.642,14.642,0,0,1,3.016.583c.237.21-.041,3.978-.556,6.35" transform="translate(-132.046 -73.641)" fill="#004e7d"/>
        <path id="Trazado_892913" data-name="Trazado 892913" d="M318.341,166.533c-7.916,7.434-8.247.732-8.254-.278.46-.041.962-.088,1.457-.122a.451.451,0,0,0,.027.088,2.779,2.779,0,0,0,2.033,1.741,6.249,6.249,0,0,0,3.68-.949,4.175,4.175,0,0,0,.766-.522l.291.041" transform="translate(-137.451 -73.641)" fill="#002f47"/>
        <path id="Trazado_892914" data-name="Trazado 892914" d="M314.491,206.36a21.059,21.059,0,0,1,.474,2.961c-1.478-1.206-5.279-2.189-8.817-1.043-.86.278-2.324.63-4.079,1.03,0,0-1.606-.644-3.68-1.478.149-.454.42-1.3.7-2.277a6.876,6.876,0,0,0,3.958,1.085c5.008-.054,8.878-6.208,9.311-7.3-.1.8,1.314,3.49,2.128,7.021" transform="translate(-132.266 -88.36)" fill="#002f47"/>
        <path id="Trazado_892915" data-name="Trazado 892915" d="M327.46,178.779a8.71,8.71,0,0,1-.352,1.274c-.366.956-1.071,3.172-1.687,5.279l-.3-6.607-.013-.36,2.2-.244Z" transform="translate(-144.11 -78.956)" fill="#002f47"/>
        <path id="Trazado_892916" data-name="Trazado 892916" d="M346.127,170.888s-10.782,13.486-11.961,13.54-7.407-7.732-8.275-8.661a6.466,6.466,0,0,1-1.1-5.36c.549-1.931,2.3-2.935,3-2.569.61.312,7.007,11.073,7.007,11.073l9.474-9.711,1.193,1.085Z" transform="translate(-143.888 -74.364)" fill="#ffc99c"/>
        <path id="Trazado_892917" data-name="Trazado 892917" d="M303,218.338c-.163,3.612-1.457,5.639-3.639,6.709a10.962,10.962,0,0,1-3.5.942h-.021c-.549.068-1.118.109-1.714.135-3.47.143-8.756-.02-11.975-.149-1.681-.068-2.8-.122-2.8-.122a25.994,25.994,0,0,1-.542,4.934,19.872,19.872,0,0,1-1.166,2.691c-3.511.346-5.5-.6-6.377-1.206.99-3.571,1.993-7.062,2.785-9.515a12.131,12.131,0,0,1,1.383-3.409,28.556,28.556,0,0,1,4.344-1.139c.813-.176,1.687-.366,2.609-.556l.494-.1c1.837-.393,3.8-.8,5.577-1.186.244-.055.488-.109.719-.156.3-.068.583-.129.867-.19,1.755-.4,3.219-.752,4.08-1.03,3.537-1.145,7.339-.163,8.816,1.043a16.18,16.18,0,0,1,.061,2.3" transform="translate(-120.244 -95.073)" fill="#0066dc"/>
        <path id="Trazado_892918" data-name="Trazado 892918" d="M305.8,232.639a10.962,10.962,0,0,1-3.5.942h-.021c-.549.068-1.118.109-1.714.135-3.47.143-8.756-.02-11.975-.149-1.68-.068-2.8-.122-2.8-.122v-1.837s14.021,2.785,20.012,1.03" transform="translate(-126.681 -102.665)" fill="#004e7d"/>
        <line id="Línea_611" data-name="Línea 611" x1="0.007" transform="translate(182.7 120.963)" fill="none" stroke="#0f0f0f" stroke-miterlimit="10" stroke-width="1.217"/>
        <path id="Trazado_892919" data-name="Trazado 892919" d="M283.666,231.646c0,.2-.007.44-.021.718-.007.346-.027.739-.054,1.179-.325,5.429-1.613,17.356-1.613,17.356l-3.172.542s-.583-4.629-1.193-10.328c-.17-1.586-.346-3.26-.515-4.947-.081-.8-.163-1.6-.244-2.392,1.024.1,3.47.014,6.811-2.128" transform="translate(-122.721 -102.681)" fill="#ffc99c"/>
        <path id="Trazado_892920" data-name="Trazado 892920" d="M283.666,231.646c0,.2-.007.44-.021.718-1.057,1.383-3.639,4.236-6.546,3.8-.081-.8-.163-1.6-.244-2.392,1.024.1,3.47.014,6.811-2.128" transform="translate(-122.721 -102.681)" fill="#e89574"/>
        <path id="Trazado_892921" data-name="Trazado 892921" d="M291.69,213.128c-.284.061-.57.122-.867.19-.23.047-.474.1-.718.156-1.783.386-3.741.793-5.578,1.186l-.494.1c-.922.189-1.8.379-2.609.556a26.251,26.251,0,0,1,1.39,5.333,4.752,4.752,0,0,1,.02.494c-3.341,2.142-5.787,2.23-6.811,2.128-.109-1.159-.224-2.3-.326-3.408-.013-.176-.033-.352-.047-.529-.5-5.367-.827-9.738-.6-10.193.617-1.233,3.409-1.274,3.843-1.125.284.088,5.435,2.155,9.121,3.632,2.074.834,3.68,1.478,3.68,1.478" transform="translate(-121.887 -92.181)" fill="#0066dc"/>
        <path id="Trazado_892922" data-name="Trazado 892922" d="M292.227,217.245c-.284.061-.57.122-.867.19-.23.047-.474.1-.718.156-1.783.386-3.741.793-5.578,1.186l-.494.1c-.922.189-1.8.379-2.609.556a26.251,26.251,0,0,1,1.39,5.333,4.752,4.752,0,0,1,.02.494c-3.341,2.142-5.787,2.23-6.811,2.128-.109-1.159-.224-2.3-.326-3.408-.013-.176-.033-.352-.047-.529,3.944.407,4.439-5.435,4.439-5.435Z" transform="translate(-122.424 -96.298)" fill="#004e7d"/>
        <path id="Trazado_892923" data-name="Trazado 892923" d="M318.857,160.719c-.6.291-2.148,1-2.88.807a3.126,3.126,0,0,1-1.362-.786v-1.247a22.354,22.354,0,0,0,3.985-.6l.075.516.081.59Z" transform="translate(-139.459 -70.43)" fill="#ffc99c"/>
        <path id="Trazado_892924" data-name="Trazado 892924" d="M318.674,159.4a13.659,13.659,0,0,1-2.277,1.044,2.044,2.044,0,0,1-1.782-.143v-.813a22.42,22.42,0,0,0,3.985-.6Z" transform="translate(-139.459 -70.431)" fill="#e89574"/>
        <path id="Trazado_892925" data-name="Trazado 892925" d="M319.211,164.156l-.007.007a4.184,4.184,0,0,1-.766.522,6.253,6.253,0,0,1-3.679.949,2.778,2.778,0,0,1-2.033-1.742.431.431,0,0,1-.027-.088c-.095-.528.536-1.423.556-1.559s-.142-.583-.129-.894c.013-.224.427-.264.637-.271v.542a3.119,3.119,0,0,0,1.362.786c.732.19,2.284-.515,2.88-.806l-.1-.725a4.843,4.843,0,0,1,1.1.115c.237.109-.129,1.227-.109,1.444s.6,1.45.312,1.721" transform="translate(-138.605 -71.311)" fill="#004e7d"/>
        <path id="Trazado_892926" data-name="Trazado 892926" d="M263.384,274.085s-5.835,4.2-7.184,2.833c2.033-1.694,4.4-3.639,4.4-3.639Z" transform="translate(-113.565 -121.135)" fill="#ffc99c"/>
        <path id="Trazado_892927" data-name="Trazado 892927" d="M261.424,277.587a84.105,84.105,0,0,1-9.637,3.5c-.82.068-1.125-.712-.833-1.071.122-.156,1.41-1.24,2.874-2.46,1.348,1.369,7.183-2.833,7.183-2.833a14.9,14.9,0,0,1,.414,2.86" transform="translate(-111.191 -121.777)" fill="#0066dc"/>
        <path id="Trazado_892928" data-name="Trazado 892928" d="M282.332,266.231s-1.687,6.37-4.683,5.6c.671-2.243,1.511-5.062,1.511-5.062Z" transform="translate(-123.073 -118.011)" fill="#ffc99c"/>
        <path id="Trazado_892929" data-name="Trazado 892929" d="M282.963,268.766c-.047.305-4.358,6.052-5.082,6.445-1.139.624-1.877-.257-1.721-.691.054-.17.406-1.322.82-2.684,3,.766,4.683-5.6,4.683-5.6a14.88,14.88,0,0,1,1.3,2.534" transform="translate(-122.403 -118.012)" fill="#0066dc"/>
        <path id="Trazado_892930" data-name="Trazado 892930" d="M263.511,193.519a9.58,9.58,0,0,1-1.8.945c-.654.19-4.447.608-4.447.608s-.055-.59.4-.776,2.614-.777,2.614-.777h-7.116s-.617-.444-.454-.662a34.515,34.515,0,0,1,4.631-.558c.418-.036,5.952-.586,5.952-.586Z" transform="translate(-112.006 -84.981)" fill="#ffc99c"/>
        <path id="Trazado_892931" data-name="Trazado 892931" d="M362.157,163.63a7,7,0,0,1-1.1,2.1l-.007.007c-.068.095-.109.149-.109.149l-1.193-1.084s-.238-2.155-.238-2.514,1.2-4.161,1.274-4.358.413-.034.474.271c.047.257.013,2.426.007,3.219-.007.176-.007.284-.007.284a.021.021,0,0,0,.007.013,5.917,5.917,0,0,1,.895,1.911" transform="translate(-159.358 -69.966)" fill="#ffc99c"/>
        <path id="Trazado_892932" data-name="Trazado 892932" d="M368.246,165.861a13.844,13.844,0,0,1-2.392,1.823.133.133,0,0,1-.054.021c-.041,0-.1-.068-.183-.176a11.507,11.507,0,0,1-.745-1.3c-.041-.075-.61-.434-.6-.671a16.371,16.371,0,0,1,2.067-2.168l.021-.021a.624.624,0,0,0,.068-.061,3.2,3.2,0,0,1,.4-.339c.2.014.61.5.664.6s-.061.434-.061.481.82,1.647.82,1.809" transform="translate(-161.468 -72.238)" fill="#ffc99c"/>
        <path id="Trazado_892933" data-name="Trazado 892933" d="M365.209,166.453c.109.075.4,1.4.644,1.566a.135.135,0,0,1-.054.02c-.041,0-.1-.067-.183-.176a11.6,11.6,0,0,1-.745-1.3c-.041-.075-.61-.434-.6-.671a16.38,16.38,0,0,1,2.067-2.169,17.323,17.323,0,0,0-1.721,2.04c-.1.312.488.617.6.691" transform="translate(-161.468 -72.573)" fill="#e89574"/>
        <path id="Trazado_892934" data-name="Trazado 892934" d="M367.392,155.316c-.109.326-2.006,4.087-2.006,4.087l.067.217a17.126,17.126,0,0,0-2.155,2.25c-.007.237.562.6.6.671a11.51,11.51,0,0,0,.745,1.3l-1.911,1.234-.657-.6a8.082,8.082,0,0,0,1.22-2.256,6.15,6.15,0,0,0-.9-1.925s0-.109.007-.285c.854-.983,4.5-5.144,4.717-5.313.244-.19.38.3.271.623" transform="translate(-160.498 -68.551)" fill="#ffc99c"/>
        <path id="Trazado_892935" data-name="Trazado 892935" d="M321.722,31.793v33.22a2.774,2.774,0,0,0,2.779,2.779h7.292l-.664,7.034a.541.541,0,0,0,.779.536l15.024-7.57h29.737a2.778,2.778,0,0,0,2.779-2.779V31.793a2.777,2.777,0,0,0-2.779-2.772H324.5a2.773,2.773,0,0,0-2.779,2.772" transform="translate(-142.609 -12.864)" fill="#ffc263"/>
        <path id="Trazado_892936" data-name="Trazado 892936" d="M379.179,44.619H345.6a.69.69,0,0,0,0,1.379h33.578a.69.69,0,0,0,0-1.379" transform="translate(-152.888 -19.778)" fill="#fff"/>
        <path id="Trazado_892937" data-name="Trazado 892937" d="M378.684,61.778h-28.72a.689.689,0,1,0,0,1.378h28.72a.689.689,0,1,0,0-1.378" transform="translate(-154.822 -27.384)" fill="#fff"/>
        <path id="Trazado_892938" data-name="Trazado 892938" d="M379.179,78.936H345.6a.69.69,0,0,0,0,1.379h33.578a.69.69,0,0,0,0-1.379" transform="translate(-152.888 -34.99)" fill="#fff"/>
        <path id="Trazado_892939" data-name="Trazado 892939" d="M407.737,129.622v16.847H390.89a16.847,16.847,0,0,1,16.847-16.847" transform="translate(-173.269 -57.457)" fill="#00517f"/>
        <path id="Trazado_892940" data-name="Trazado 892940" d="M429.974,151.859a16.848,16.848,0,0,1-33.7,0h16.848V135.012a16.847,16.847,0,0,1,16.847,16.847" transform="translate(-175.658 -59.846)" fill="#ff960f"/>
        <path id="Trazado_892941" data-name="Trazado 892941" d="M99.151,52.3h-3.4a2.329,2.329,0,0,1-2.329-2.329V45.1a2.329,2.329,0,0,1,2.329-2.329h3.4A2.329,2.329,0,0,1,101.48,45.1v4.873A2.329,2.329,0,0,1,99.151,52.3" transform="translate(-41.409 -18.96)" fill="#004e7d"/>
        <path id="Trazado_892942" data-name="Trazado 892942" d="M102.7,22.568A10.022,10.022,0,1,1,92.679,12.546,10.022,10.022,0,0,1,102.7,22.568" transform="translate(-36.639 -5.561)" fill="#ff960f"/>
        <path id="Trazado_892943" data-name="Trazado 892943" d="M100.658,15.362a8.454,8.454,0,0,1,8.454,8.454" transform="translate(-44.618 -6.809)" fill="none" stroke="#fff" stroke-linecap="round" stroke-miterlimit="10" stroke-width="2.435"/>
        <rect id="Rectángulo_402450" data-name="Rectángulo 402450" width="9.025" height="1.054" transform="translate(51.527 25.974)" fill="#00264e"/>
        <rect id="Rectángulo_402451" data-name="Rectángulo 402451" width="0.508" height="8.75" transform="translate(52.935 17.224)" fill="#fefefe"/>
        <rect id="Rectángulo_402452" data-name="Rectángulo 402452" width="0.508" height="8.75" transform="translate(58.636 17.224)" fill="#fefefe"/>
        <path id="Trazado_892944" data-name="Trazado 892944" d="M101.188,31.912a5.922,5.922,0,0,1-5.192,0v-.435a6.776,6.776,0,0,0,5.192,0Z" transform="translate(-42.552 -13.953)" fill="#fefefe"/>
        <g id="Grupo_1101850" data-name="Grupo 1101850" transform="translate(0 23.199)" opacity="0.84" style="mix-blend-mode: multiply;isolation: isolate">
          <g id="Grupo_1101849" data-name="Grupo 1101849">
            <g id="Grupo_1101848" data-name="Grupo 1101848" clip-path="url(#clip-path-3)">
              <path id="Trazado_892945" data-name="Trazado 892945" d="M16.724,41.67l26.14,134.6H0V41.67Z" transform="translate(0 -41.67)" fill="#fff"/>
            </g>
          </g>
        </g>
        <g id="Grupo_1101853" data-name="Grupo 1101853" transform="translate(79.269 23.199)" opacity="0.5" style="mix-blend-mode: multiply;isolation: isolate">
          <g id="Grupo_1101852" data-name="Grupo 1101852">
            <g id="Grupo_1101851" data-name="Grupo 1101851" clip-path="url(#clip-path-3)">
              <path id="Trazado_892946" data-name="Trazado 892946" d="M159.106,41.67l26.14,134.6H142.382V41.67Z" transform="translate(-142.382 -41.67)" fill="#e9f6f8"/>
            </g>
          </g>
        </g>
      </g>
    </g>
  </g>
</svg>
