<svg xmlns="http://www.w3.org/2000/svg" xmlns:xlink="http://www.w3.org/1999/xlink" width="472" height="320.859" viewBox="0 0 472 320.859">
  <defs>
    <clipPath id="clip-path">
      <rect id="Rectángulo_402519" data-name="Rectángulo 402519" width="373.732" height="320.859" fill="none"/>
    </clipPath>
  </defs>
  <g id="Grupo_1103369" data-name="Grupo 1103369" transform="translate(2074 7642.091)">
    <rect id="Rectángulo_402213" data-name="Rectángulo 402213" width="472" height="320.332" transform="translate(-2074 -7641.564)" fill="#d6e6ce"/>
    <g id="Grupo_1101974" data-name="Grupo 1101974" transform="translate(-2025 -7642.091)">
      <g id="Grupo_1101973" data-name="Grupo 1101973" clip-path="url(#clip-path)">
        <path id="Trazado_893585" data-name="Trazado 893585" d="M373.711,40.053a2.512,2.512,0,0,0-2.438-2.524c-.877-.053-1.759-.021-2.638-.026-.161,0-.316.033-.389-.191a11.992,11.992,0,0,0-.69-1.667c-.087-.176-.018-.271.1-.386q.846-.834,1.681-1.68a2.548,2.548,0,0,0,.144-3.734c-.909-1-1.876-1.966-2.881-2.876a2.525,2.525,0,0,0-3.676.118c-.577.56-1.143,1.134-1.706,1.709a.328.328,0,0,1-.452.087,9.326,9.326,0,0,0-1.525-.634c-.24-.071-.3-.2-.3-.439.011-.818.005-1.635,0-2.452a2.47,2.47,0,0,0-.1-.782,2.65,2.65,0,0,0-2.183-1.835h-4.528a2.662,2.662,0,0,0-2.3,2.92c.042.689-.006,1.383.014,2.075a.454.454,0,0,1-.369.54,8.282,8.282,0,0,0-1.348.565.452.452,0,0,1-.639-.123c-.527-.557-1.073-1.1-1.623-1.631a2.94,2.94,0,0,0-1.4-.789V57.824a3.014,3.014,0,0,0,1.45-.839c.546-.54,1.091-1.08,1.625-1.631a.372.372,0,0,1,.517-.094,8.878,8.878,0,0,0,1.492.617.359.359,0,0,1,.286.409c-.01.818,0,1.635,0,2.453a2.542,2.542,0,0,0,2.563,2.638q1.979.041,3.961,0a2.54,2.54,0,0,0,2.572-2.627c.007-.817.012-1.635,0-2.452a.359.359,0,0,1,.276-.418,8.994,8.994,0,0,0,1.492-.616.4.4,0,0,1,.549.109c.643.655,1.276,1.323,1.967,1.925a2.451,2.451,0,0,0,3.154.029,29.8,29.8,0,0,0,3.157-3.129,2.5,2.5,0,0,0-.1-3.534c-.575-.615-1.181-1.2-1.787-1.788a.325.325,0,0,1-.077-.452,9.592,9.592,0,0,0,.632-1.527.347.347,0,0,1,.406-.281c.792.017,1.584,0,2.377.011a2.593,2.593,0,0,0,2.719-2.538c.02-1.345.026-2.691,0-4.036m-19.3,8.437a6.43,6.43,0,1,1,6.415-6.415,6.428,6.428,0,0,1-6.415,6.415" fill="#aecf9d"/>
        <path id="Trazado_893586" data-name="Trazado 893586" d="M.017,193.626a2.593,2.593,0,0,0,2.719,2.538c.793-.011,1.585.006,2.377-.011a.348.348,0,0,1,.406.281,9.608,9.608,0,0,0,.633,1.528.328.328,0,0,1-.077.452c-.606.585-1.212,1.172-1.788,1.787a2.5,2.5,0,0,0-.1,3.534,29.8,29.8,0,0,0,3.157,3.129,2.451,2.451,0,0,0,3.155-.029c.69-.6,1.323-1.27,1.966-1.925a.4.4,0,0,1,.549-.109,9.119,9.119,0,0,0,1.492.617c.223.068.279.2.276.417-.009.817,0,1.635,0,2.452a2.54,2.54,0,0,0,2.573,2.627q1.98.04,3.96,0a2.543,2.543,0,0,0,2.564-2.638c.006-.818.012-1.635,0-2.452a.36.36,0,0,1,.287-.41,8.9,8.9,0,0,0,1.491-.617.372.372,0,0,1,.517.1c.534.55,1.079,1.09,1.625,1.63a3.022,3.022,0,0,0,1.451.84V175.835a2.933,2.933,0,0,0-1.4.79c-.55.534-1.1,1.074-1.623,1.631a.451.451,0,0,1-.638.122,8.419,8.419,0,0,0-1.349-.565.452.452,0,0,1-.368-.54c.019-.691-.029-1.386.013-2.075a2.662,2.662,0,0,0-2.294-2.92H17.07a2.653,2.653,0,0,0-2.183,1.836,2.463,2.463,0,0,0-.1.781c0,.817-.01,1.634,0,2.452,0,.234-.056.368-.3.439a9.325,9.325,0,0,0-1.525.634.328.328,0,0,1-.452-.087c-.563-.575-1.129-1.148-1.706-1.709a2.526,2.526,0,0,0-3.676-.118c-1.005.91-1.972,1.871-2.881,2.876a2.548,2.548,0,0,0,.144,3.734q.836.845,1.681,1.68c.117.116.186.211.1.386a11.875,11.875,0,0,0-.689,1.668c-.074.223-.229.188-.39.19-.879.005-1.761-.027-2.638.026A2.512,2.512,0,0,0,.021,189.59c-.03,1.345-.023,2.691,0,4.036m12.894-2.014a6.424,6.424,0,1,1,6.415,6.415,6.432,6.432,0,0,1-6.415-6.415" fill="#aecf9d"/>
        <rect id="Rectángulo_402498" data-name="Rectángulo 402498" width="316.684" height="210.191" transform="translate(27.843)" fill="#4d94eb"/>
        <rect id="Rectángulo_402499" data-name="Rectángulo 402499" width="302.32" height="177.888" transform="translate(35.025 25.574)" fill="#fff"/>
        <rect id="Rectángulo_402500" data-name="Rectángulo 402500" width="32.039" height="0.37" transform="translate(262.223 147.081)"/>
        <rect id="Rectángulo_402501" data-name="Rectángulo 402501" width="0.37" height="16.697" transform="translate(262.052 147.103)"/>
        <rect id="Rectángulo_402502" data-name="Rectángulo 402502" width="0.37" height="16.697" transform="translate(278.057 130.574)"/>
        <path id="Trazado_893587" data-name="Trazado 893587" d="M262.237,178.31h0a12.038,12.038,0,1,1,12.038-12.038,12.039,12.039,0,0,1-12.038,12.038" fill="#4d94eb"/>
        <rect id="Rectángulo_402503" data-name="Rectángulo 402503" width="0.37" height="16.697" transform="translate(294.012 147.103)"/>
        <path id="Trazado_893588" data-name="Trazado 893588" d="M294.2,178.31h0a12.038,12.038,0,1,1,12.038-12.038A12.039,12.039,0,0,1,294.2,178.31" fill="#4d94eb"/>
        <rect id="Rectángulo_402504" data-name="Rectángulo 402504" width="32.039" height="0.37" transform="translate(72.515 147.081)"/>
        <rect id="Rectángulo_402505" data-name="Rectángulo 402505" width="0.37" height="16.697" transform="translate(72.344 147.103)"/>
        <rect id="Rectángulo_402506" data-name="Rectángulo 402506" width="0.37" height="16.697" transform="translate(88.349 130.574)"/>
        <path id="Trazado_893589" data-name="Trazado 893589" d="M72.529,178.31h0a12.038,12.038,0,1,1,12.038-12.038A12.039,12.039,0,0,1,72.529,178.31" fill="#4d94eb"/>
        <rect id="Rectángulo_402507" data-name="Rectángulo 402507" width="0.37" height="16.697" transform="translate(104.304 147.103)"/>
        <path id="Trazado_893590" data-name="Trazado 893590" d="M104.489,178.31h0a12.038,12.038,0,1,1,12.038-12.038,12.039,12.039,0,0,1-12.038,12.038" fill="#4d94eb"/>
        <rect id="Rectángulo_402508" data-name="Rectángulo 402508" width="190.052" height="0.453" transform="translate(87.738 108.974)"/>
        <rect id="Rectángulo_402509" data-name="Rectángulo 402509" width="0.37" height="16.698" transform="translate(216.107 100.076)"/>
        <rect id="Rectángulo_402510" data-name="Rectángulo 402510" width="0.37" height="16.697" transform="translate(248.235 109.059)"/>
        <rect id="Rectángulo_402511" data-name="Rectángulo 402511" width="0.37" height="16.697" transform="translate(151.213 101.597)"/>
        <rect id="Rectángulo_402512" data-name="Rectángulo 402512" width="0.37" height="8.928" transform="translate(117.24 109.051)"/>
        <rect id="Rectángulo_402513" data-name="Rectángulo 402513" width="0.37" height="16.697" transform="translate(217.733 71.219)"/>
        <rect id="Rectángulo_402514" data-name="Rectángulo 402514" width="0.37" height="16.698" transform="translate(152.056 71.071)"/>
        <rect id="Rectángulo_402515" data-name="Rectángulo 402515" width="0.37" height="16.697" transform="translate(183.66 63.78)"/>
        <path id="Trazado_893591" data-name="Trazado 893591" d="M183.845,64.244h0a12.038,12.038,0,1,1,12.038-12.038,12.039,12.039,0,0,1-12.038,12.038" fill="#ffc263"/>
        <path id="Trazado_893592" data-name="Trazado 893592" d="M183.845,102.255h0a12.038,12.038,0,1,1,12.038-12.038,12.039,12.039,0,0,1-12.038,12.038" fill="#338501"/>
        <path id="Trazado_893593" data-name="Trazado 893593" d="M216.292,102.255h0A12.038,12.038,0,1,1,228.33,90.217a12.039,12.039,0,0,1-12.038,12.038" fill="#338501"/>
        <path id="Trazado_893594" data-name="Trazado 893594" d="M151.4,102.255h0a12.038,12.038,0,1,1,12.038-12.038A12.039,12.039,0,0,1,151.4,102.255" fill="#338501"/>
        <path id="Trazado_893595" data-name="Trazado 893595" d="M216.292,140.266h0a12.038,12.038,0,1,1,12.038-12.038,12.039,12.039,0,0,1-12.038,12.038" fill="#4aa9e5"/>
        <path id="Trazado_893596" data-name="Trazado 893596" d="M248.42,140.266h0a12.038,12.038,0,1,1,12.038-12.038,12.039,12.039,0,0,1-12.038,12.038" fill="#4aa9e5"/>
        <rect id="Rectángulo_402516" data-name="Rectángulo 402516" width="0.37" height="16.697" transform="translate(277.42 109.059)"/>
        <path id="Trazado_893597" data-name="Trazado 893597" d="M278.242,140.266h0a12.038,12.038,0,1,1,12.038-12.038,12.039,12.039,0,0,1-12.038,12.038" fill="#4aa9e5"/>
        <path id="Trazado_893598" data-name="Trazado 893598" d="M151.4,140.266h0a12.038,12.038,0,1,1,12.038-12.038A12.039,12.039,0,0,1,151.4,140.266" fill="#ffc263"/>
        <path id="Trazado_893599" data-name="Trazado 893599" d="M118.013,140.266h0a12.038,12.038,0,1,1,12.038-12.038,12.039,12.039,0,0,1-12.038,12.038" fill="#ffc263"/>
        <rect id="Rectángulo_402517" data-name="Rectángulo 402517" width="0.37" height="8.928" transform="translate(87.736 109.051)"/>
        <path id="Trazado_893600" data-name="Trazado 893600" d="M88.509,140.266h0a12.038,12.038,0,1,1,12.038-12.038,12.039,12.039,0,0,1-12.038,12.038" fill="#ffc263"/>
        <rect id="Rectángulo_402518" data-name="Rectángulo 402518" width="65.715" height="0.37" transform="translate(152.169 71.026)"/>
        <path id="Trazado_893601" data-name="Trazado 893601" d="M295.274,14.674a5.266,5.266,0,1,1-5.266-5.266,5.266,5.266,0,0,1,5.266,5.266" fill="#74bef5"/>
        <path id="Trazado_893602" data-name="Trazado 893602" d="M312.39,14.674a5.267,5.267,0,1,1-5.266-5.266,5.266,5.266,0,0,1,5.266,5.266" fill="#87c7f5"/>
        <path id="Trazado_893603" data-name="Trazado 893603" d="M329.505,14.674a5.267,5.267,0,1,1-5.266-5.266,5.266,5.266,0,0,1,5.266,5.266" fill="#a7d8fa"/>
        <path id="Trazado_893604" data-name="Trazado 893604" d="M101.024,143.008c.275-.412-3.1-1.548-3.537-1.705a9.572,9.572,0,0,0-1.132-.3.187.187,0,0,0-.221.134.184.184,0,0,0,.134.22,18.257,18.257,0,0,1,4.508,1.724.185.185,0,0,0,.248-.074"/>
        <path id="Trazado_893605" data-name="Trazado 893605" d="M94.158,144.107c.259-2.738,2.119-4.715,4.176-6.382-2.053-1.151-4.817-2.9-3.506-4.894,2.1-2.73,9.492.947,12.007,2.159a24.61,24.61,0,0,1,3.849,2.5c1.853-.721,3.953-.011,5.424,1.9,1.981,2.676,2.491,6.124,3.182,9.306.805,4.463,2.345,8.745,3.543,13.11,1.329,4.919,2.8,9.841,5.381,14.269,1.6,2.763,3.39,5.632,6.175,7.347a10.836,10.836,0,0,0,5.69,1.394c1.256,0,2.513.036,3.772.026-1.252,4.321-2.122,8.745-3.167,13.121-.59,2.592-1.209,5.17-1.6,7.806-.353,2.334-.5,4.664-.619,7.016-1.438-.2-2.88-.4-4.321-.576-5.065-.633-10.286-1.256-14.848-3.706-7.805-4.107-11.741-12.379-12.761-20.843a145.575,145.575,0,0,1-1.441-15.073c-.117-6.048.386-13.224-4.511-17.669-.685-.6-1.468-1.107-2.181-1.682a1.429,1.429,0,0,1-.969.772c-1.707-.168-2.322-2.556-2.785-3.936a13.779,13.779,0,0,1-.5-5.96" fill="#eb9e92"/>
        <path id="Trazado_893606" data-name="Trazado 893606" d="M247.3,222.733c1.161-1.708,2.323-3.43,3.451-5.174.539.481,1.093.951,1.639,1.424a47.734,47.734,0,0,1,3.917,4.041c.412-.7.812-1.42,1.242-2.115,2.6-4.664,4.893-9.492,7.5-14.155,3.378-6.925,6.553-13.959,10.441-20.622,2.243-3.659,4.173-7.613,7.187-10.718,4.085-3.878,8.079-3.841,5.978,2.774a14.5,14.5,0,0,1-2.483,4.555,6.683,6.683,0,0,1,3.561,6.3c1.835.914,2.538,3.1,2.057,5.465,1.806,2.468.033,6.91-3.277,6.717a8.3,8.3,0,0,1-1.445-.077c-.306.794-.6,1.591-.892,2.389-1.245,3.138-2.214,6.371-3.248,9.582-3.094,9.557-10.223,35.494-20.818,37.865-8.344,1.3-15.229-6.022-20.191-11.789-1.115-1.326-2.17-2.709-3.219-4.1-.073-.1-.146-.189-.215-.284,3.153-3.866,5.989-7.973,8.811-12.08" fill="#eb9e92"/>
        <path id="Trazado_893607" data-name="Trazado 893607" d="M158.784,320.859a181.031,181.031,0,0,1,8.383-20.646c3.393-6.936,7.129-13.7,10.278-20.756,2.57-5.487,4.274-11.338,6.83-16.824q-.13-2.163-.32-4.318c-.168-1.712-.357-3.4-.663-5.094,3.674.1,7.347.124,11.025-.033,6.4-.156,12.83-.262,19.2-1.041,3.386-.429,6.747-1.107,10.1-1.766.706-.134,1.412-.269,2.119-.418a69.1,69.1,0,0,0,1.39,7.1q.159.655.313,1.311c.954.51,1.879,1.078,2.782,1.671,5.261,3.269,8.232,7.642,10.995,13.056a109.113,109.113,0,0,1,7.6,19.26c2.589,8.068,5.174,16.212,6.386,24.63.2,1.286.367,2.577.531,3.869Z" fill="#4b7db7"/>
        <path id="Trazado_893608" data-name="Trazado 893608" d="M233.154,318.737a.181.181,0,0,0,.162-.2c-.107-.887-.225-1.772-.341-2.656a131.843,131.843,0,0,0-3.264-17.086c-2.133-7.859-4.45-15.75-8.124-23.046a13.547,13.547,0,0,1-.608-1.292c-.076-.21-.429-.1-.34.128.273.706.659,1.365.98,2.05a96.44,96.44,0,0,1,5.7,15.118q1.914,6.133,3.287,12.42a114.121,114.121,0,0,1,1.962,11.425c.131.991.265,1.982.386,2.975a.184.184,0,0,0,.2.162"/>
        <path id="Trazado_893609" data-name="Trazado 893609" d="M187.585,262.365c3.018-.189,6-.526,9.008-.761,5.238-.365,10.522-.492,15.766-.9,3.906-.312,7.792-.893,11.7-1.152.4-.032.819-.059,1.223-.105a.182.182,0,0,0,.156-.2c-.073-.283-.447-.093-.652-.113-4.14.272-8.272.859-12.4,1.209-7.625.527-15.286.722-22.894,1.523-.641.048-1.271.1-1.911.139a.186.186,0,0,0-.181.185.183.183,0,0,0,.185.179"/>
        <path id="Trazado_893610" data-name="Trazado 893610" d="M110.908,137.862a1.249,1.249,0,0,0,.243.005,17.822,17.822,0,0,1,4.089,4.821c.163.384,1.627,2.733,1.065,2.887a.184.184,0,0,1-.21-.148,3.614,3.614,0,0,0-.195-.6,17.588,17.588,0,0,0-5.423-7.031c.143.026.286.049.431.066"/>
        <path id="Trazado_893611" data-name="Trazado 893611" d="M99.085,137.746c.924.5,1.769.9,2.245,1.162.79.382,1.58.754,2.385,1.107a.182.182,0,0,1-.126.341c-1.3-.579-2.593-1.179-3.853-1.843-.239-.144-.542-.311-.88-.5a1.291,1.291,0,0,0,.229-.27"/>
        <path id="Trazado_893612" data-name="Trazado 893612" d="M98.339,152.532a22.433,22.433,0,0,0,.7-5.529c.016-.511.023-1.046.022-1.579a.182.182,0,0,1,.364-.014c-.059,1.328.052,5.353-.8,7.392-.1-.088-.189-.179-.279-.27"/>
        <path id="Trazado_893613" data-name="Trazado 893613" d="M282.252,186.475a28.72,28.72,0,0,0,3.558-3.812,1.1,1.1,0,0,0,.324.142c-.48.626-.985,1.232-1.5,1.823a22.551,22.551,0,0,1-2.549,2.463.186.186,0,0,1-.256-.026c-.169-.27.289-.411.421-.59"/>
        <path id="Trazado_893614" data-name="Trazado 893614" d="M283.284,189.656a15.939,15.939,0,0,1,2.2-.727,6.179,6.179,0,0,1,3.867-.051.894.894,0,0,0-.022.368c-1.741-.7-3.814.016-5.517.592-.177.043-.529.33-.649.047a.185.185,0,0,1,.119-.229"/>
        <path id="Trazado_893615" data-name="Trazado 893615" d="M291.5,194.7a3.781,3.781,0,0,0-3.006-1.013,32.551,32.551,0,0,0-3.349.256.182.182,0,0,1-.064-.359c.373-.046.749-.069,1.122-.116,1.758-.128,3.9-.5,5.349.745.076.083.147.17.214.259a1.033,1.033,0,0,0-.266.228"/>
        <path id="Trazado_893616" data-name="Trazado 893616" d="M284.38,200.253a.181.181,0,0,1,.233-.108,15.129,15.129,0,0,0,2.521.653.847.847,0,0,0-.156.34,12.925,12.925,0,0,1-2.49-.652.181.181,0,0,1-.108-.233"/>
        <path id="Trazado_893617" data-name="Trazado 893617" d="M134.949,202.374c.55-6.5-.317-16.489,6.266-20.163,3.135-1.54,6.7-.659,10.045-.666,8.476.182,16.955,1.07,25.42.157,2.206-.2,4.405-.5,6.593-.845.313-.047.626-.1.94-.146.495.044.994.084,1.489.12a57.487,57.487,0,0,0,6.5.164,75.334,75.334,0,0,1,13.616.026c.761.08,1.522.156,2.287.247h.011a26.257,26.257,0,0,1,6.968.82c5.68,1.791,10.679,5.366,15.055,9.335a90.042,90.042,0,0,1,7.871,8.082c2.429,2.844,4.6,5.9,7,8.76,1.409,1.678,2.873,3.277,4.369,4.889,1.132,1.293,2.516,2.491,3.066,4.173,2.05,6.608-2.618,12.852-6.718,17.6-2.1,2.1-4.867,6.444-8,6.557-4.151-.149-7.424-3.815-10.1-6.845.032.579.065,1.162.105,1.741.168,5.355,1.915,12.557-2.752,16.489-3.128,2.41-8.156,1.558-11.938,2-4.846.408-9.674.965-14.534,1.1a41.354,41.354,0,0,1-8.028-.3,25.037,25.037,0,0,1-6.627-1.54c-3.1-1.467-5.02-4.489-6.957-7.187-3.215-5.013-4.78-10.864-7.54-16.125-.987-1.915-2.046-3.8-3.04-5.716-2.56-.28-5.123-.539-7.682-.713-5.425-.365-11.138-.106-16.056-2.793a14.576,14.576,0,0,1-7.489-9.237c-.78-3.28-.313-6.677-.146-9.99" fill="#ffc263"/>
        <path id="Trazado_893618" data-name="Trazado 893618" d="M226.99,230.747c.366-.049.012-.944.021-1.206-.338-1.908-.751-3.8-1.159-5.7a41.5,41.5,0,0,0-6.649-15.437.182.182,0,0,0-.3.211,40.683,40.683,0,0,1,5.773,12.036c.835,3.01,1.44,6.082,2.008,9.151.045.276.087.505.107.777a.181.181,0,0,0,.2.165"/>
        <path id="Trazado_893619" data-name="Trazado 893619" d="M166.134,222.873c.245-.176-.063-.459-.114-.668a45.77,45.77,0,0,1-1.89-4.82c-.623-1.838-1.094-3.681-1.608-5.544a.182.182,0,1,0-.355.081c.56,2.051,1.094,4.108,1.8,6.113a44.553,44.553,0,0,0,1.821,4.535c.064.15.135.4.346.3"/>
        <path id="Trazado_893620" data-name="Trazado 893620" d="M182.2,164.269c1.606-2.436,3.721-4.515,5.093-7.111a21.613,21.613,0,0,1,2.575-4.1h0c.014-.015.029-.033.044-.047.094-.113.193-.219.294-.328s.208-.211.314-.313a2.11,2.11,0,0,1,.2-.182c.051-.051.1-.1.153-.139.029-.025.058-.05.087-.072.073-.066.146-.124.223-.182a.05.05,0,0,1,.018-.015c.113-.091.229-.175.349-.258l.051-.022c.091-.044.186-.08.284-.117.117-.047.233-.091.35-.131s.215-.073.324-.109.244-.077.371-.109c.266-.077.539-.142.808-.2.31-.066.623-.117.936-.153.087-.011.175-.018.262-.026l.255-.021c.317-.022.634-.037.954-.044.127.044.255.091.382.146.1.04.2.08.292.127l.178.087a9.655,9.655,0,0,1,4.027,4.264c2.191,4.143,3.568,9.16,2.344,13.795-1.471,5.4-7.045,8.454-12.306,9.058a9.232,9.232,0,0,1-7.467-1.85,6.43,6.43,0,0,1-2.417-4.663,10.864,10.864,0,0,1,1.03-7.282" fill="#eb9e92"/>
        <path id="Trazado_893621" data-name="Trazado 893621" d="M181.682,202.793c.848-2.519,2.37-4.788,2.993-7.384.444-1.955-.426-3.793-1.173-5.566a24.041,24.041,0,0,1-1.6-5.432,12.562,12.562,0,0,1,2.207-9.455c1.889-2.443,4.445-4.26,6.48-6.568,6.9-7.3-2.548-11.181-.608-17.192l0,0a3.119,3.119,0,0,1,.1-.295c.036-.1.08-.2.124-.3.033-.077.069-.153.109-.233.025-.055.051-.109.08-.16.036-.073.076-.15.12-.222a1.091,1.091,0,0,1,.189-.182c.113-.121.226-.241.343-.354.1-.1.2-.2.309-.294.088-.084.179-.164.273-.244s.179-.157.273-.23a.269.269,0,0,1,.048-.04c.174-.145.356-.284.542-.415.113-.084.222-.164.339-.24s.2-.135.306-.2.218-.142.331-.208.226-.135.338-.2c.175-.051.354-.1.532-.149.073-.022.146-.04.215-.055.189-.051.378-.1.571-.135.088-.022.172-.04.259-.058l-.022.011a17.382,17.382,0,0,1,13.183,2.472c4.114,2.8,7.934,6.6,9.372,11.483,1.522,4.518-1.147,8.9-1.329,13.413-.273,4.922,1.456,9.779,3.99,13.955,1.376,2.264,3.066,4.325,4.34,6.659a22.291,22.291,0,0,1,2.687,11.512c-.208,6.2-4.078,11.876-9.189,15.193-3.419,2.072-7.551,2.589-11.462,2.986a32.176,32.176,0,0,1-12-1.617,19.39,19.39,0,0,1-10.922-7.132,12.553,12.553,0,0,1-2.356-13.118" fill="#21222b"/>
      </g>
    </g>
  </g>
</svg>
