<svg xmlns="http://www.w3.org/2000/svg" xmlns:xlink="http://www.w3.org/1999/xlink" width="89" height="89" viewBox="0 0 89 89">
  <defs>
    <clipPath id="clip-path">
      <rect id="Rectángulo_402420" data-name="Rectángulo 402420" width="65.051" height="65.051" fill="none"/>
    </clipPath>
  </defs>
  <g id="Grupo_1103357" data-name="Grupo 1103357" transform="translate(-441.237 -1576.68)">
    <circle id="Elipse_11647" data-name="Elipse 11647" cx="44.5" cy="44.5" r="44.5" transform="translate(441.237 1576.68)" fill="#aecd9e"/>
    <g id="Grupo_1101835" data-name="Grupo 1101835" transform="translate(454.793 1589.93)">
      <g id="Grupo_1101834" data-name="Grupo 1101834" clip-path="url(#clip-path)">
        <path id="Trazado_892767" data-name="Trazado 892767" d="M83.5,67.852a4.879,4.879,0,1,1,4.879-4.879A4.884,4.884,0,0,1,83.5,67.852m0-7.725a2.846,2.846,0,1,0,2.846,2.846A2.849,2.849,0,0,0,83.5,60.128" transform="translate(-50.97 -37.665)" fill="#101f2d"/>
        <path id="Trazado_892768" data-name="Trazado 892768" d="M81.448,89.021a3.738,3.738,0,0,1-3.761,3.151,3.815,3.815,0,0,1-3.761-3.151c-2.541.711-4.269,2.338-4.269,5.9a11.256,11.256,0,0,0,.2,1.931,3.059,3.059,0,0,0,3.049,2.338h9.453a3.17,3.17,0,0,0,3.049-2.338,11.256,11.256,0,0,0,.2-1.931c.1-3.557-1.626-5.184-4.167-5.9" transform="translate(-45.161 -57.716)" fill="#128209"/>
        <path id="Trazado_892769" data-name="Trazado 892769" d="M80.488,98.328H71.035a4.1,4.1,0,0,1-4.043-3.141c0-.015-.006-.031-.009-.046a12.143,12.143,0,0,1-.217-2.1c0-3.631,1.686-5.943,5.012-6.874a1.017,1.017,0,0,1,1.277.812,2.8,2.8,0,0,0,2.758,2.3,2.738,2.738,0,0,0,2.758-2.3,1.016,1.016,0,0,1,1.277-.812c3.362.941,5.013,3.264,4.909,6.9a12.037,12.037,0,0,1-.217,2.069c0,.021-.007.042-.012.062a4.19,4.19,0,0,1-4.04,3.126m-11.5-3.547A2.058,2.058,0,0,0,71.035,96.3h9.453a2.149,2.149,0,0,0,2.052-1.523,10.163,10.163,0,0,0,.184-1.729c.067-2.345-.706-3.788-2.483-4.582a4.742,4.742,0,0,1-4.428,2.854A4.882,4.882,0,0,1,71.4,88.457c-1.788.793-2.6,2.243-2.6,4.586a10.238,10.238,0,0,0,.185,1.738" transform="translate(-43.287 -55.842)" fill="#101f2d"/>
        <path id="Trazado_892770" data-name="Trazado 892770" d="M28.419,35.982a7.535,7.535,0,1,1,5.343-2.21,7.533,7.533,0,0,1-5.343,2.21m0-13.075a5.5,5.5,0,1,0,3.906,1.616,5.506,5.506,0,0,0-3.906-1.616" transform="translate(-13.528 -13.539)" fill="#101f2d"/>
        <path id="Trazado_892771" data-name="Trazado 892771" d="M128.713,136.135a7.553,7.553,0,0,1-5.344-12.9,7.4,7.4,0,0,1,10.694.007,7.553,7.553,0,0,1-5.35,12.89m0-13.143a5.362,5.362,0,0,0-3.892,1.67,5.524,5.524,0,1,0,7.8.014l-.014-.014a5.362,5.362,0,0,0-3.892-1.67" transform="translate(-78.552 -78.422)" fill="#101f2d"/>
        <path id="Trazado_892772" data-name="Trazado 892772" d="M28.429,136.27a7.557,7.557,0,0,1-5.343-12.89h0a7.557,7.557,0,1,1,5.343,12.891m0-13.061a5.484,5.484,0,0,0-3.906,1.608h0a5.547,5.547,0,1,0,3.906-1.608M23.8,124.1h0Z" transform="translate(-13.539 -78.563)" fill="#101f2d"/>
        <path id="Trazado_892773" data-name="Trazado 892773" d="M128.583,35.97a7.534,7.534,0,0,1-5.344-2.209,7.4,7.4,0,0,1,.007-10.694,7.557,7.557,0,1,1,5.336,12.9m0-13.074a5.5,5.5,0,0,0-3.906,1.615l-.014.014a5.371,5.371,0,0,0,0,7.784,5.524,5.524,0,1,0,3.92-9.413m-4.625.9h0Z" transform="translate(-78.423 -13.527)" fill="#101f2d"/>
        <path id="Trazado_892774" data-name="Trazado 892774" d="M154.523,80.453a1.017,1.017,0,0,1-.888-1.51,24.553,24.553,0,0,0,3.023-11.907,25.476,25.476,0,0,0-3.619-12.9A1.016,1.016,0,0,1,154.79,53.1a27.51,27.51,0,0,1,3.9,13.933,26.586,26.586,0,0,1-3.279,12.894,1.015,1.015,0,0,1-.889.523" transform="translate(-99.129 -34.104)" fill="#101f2d"/>
        <path id="Trazado_892775" data-name="Trazado 892775" d="M54.2,22.439a1.016,1.016,0,0,1-.5-1.9A27,27,0,0,1,67,17.052,26.593,26.593,0,0,1,79.9,20.331a1.017,1.017,0,0,1-.987,1.777A24.554,24.554,0,0,0,67,19.085,24.961,24.961,0,0,0,54.7,22.307a1.01,1.01,0,0,1-.5.133" transform="translate(-34.479 -11.055)" fill="#101f2d"/>
        <path id="Trazado_892776" data-name="Trazado 892776" d="M19.979,81.422a1.016,1.016,0,0,1-.885-.515A26.807,26.807,0,0,1,15.607,67.7a26.159,26.159,0,0,1,3.806-13.739,1.016,1.016,0,0,1,1.739,1.053A24.157,24.157,0,0,0,17.64,67.7a24.772,24.772,0,0,0,3.222,12.2,1.017,1.017,0,0,1-.883,1.518" transform="translate(-10.119 -34.667)" fill="#101f2d"/>
        <path id="Trazado_892777" data-name="Trazado 892777" d="M66.068,160.323a26.7,26.7,0,0,1-13.841-3.806,1.016,1.016,0,1,1,1.052-1.739,24.675,24.675,0,0,0,12.789,3.512,25.261,25.261,0,0,0,12.121-3.131,1.016,1.016,0,1,1,.966,1.788,27.271,27.271,0,0,1-13.087,3.375" transform="translate(-33.542 -100.253)" fill="#101f2d"/>
        <path id="Trazado_892778" data-name="Trazado 892778" d="M90.616,43.179A1.016,1.016,0,0,1,89.6,42.163V38.3a1.017,1.017,0,0,1,2.033,0v3.863a1.016,1.016,0,0,1-1.017,1.016" transform="translate(-58.09 -24.173)" fill="#101f2d"/>
        <path id="Trazado_892779" data-name="Trazado 892779" d="M90.616,136.826A1.016,1.016,0,0,1,89.6,135.81v-3.863a1.017,1.017,0,0,1,2.033,0v3.863a1.016,1.016,0,0,1-1.017,1.016" transform="translate(-58.09 -84.887)" fill="#101f2d"/>
        <path id="Trazado_892780" data-name="Trazado 892780" d="M42.164,91.633H38.3a1.016,1.016,0,1,1,0-2.033h3.862a1.016,1.016,0,1,1,0,2.033" transform="translate(-24.173 -58.091)" fill="#101f2d"/>
        <path id="Trazado_892781" data-name="Trazado 892781" d="M135.811,91.633h-3.862a1.016,1.016,0,1,1,0-2.033h3.862a1.016,1.016,0,1,1,0,2.033" transform="translate(-84.888 -58.091)" fill="#101f2d"/>
        <path id="Trazado_892782" data-name="Trazado 892782" d="M56.365,57.38a1.015,1.015,0,0,1-.719-.3L52.9,54.338A1.017,1.017,0,0,1,54.339,52.9l2.745,2.744a1.016,1.016,0,0,1-.719,1.735" transform="translate(-34.105 -34.105)" fill="#101f2d"/>
        <path id="Trazado_892783" data-name="Trazado 892783" d="M122.552,123.569a1.015,1.015,0,0,1-.719-.3l-2.744-2.744a1.017,1.017,0,0,1,1.438-1.438l2.744,2.744a1.016,1.016,0,0,1-.719,1.735" transform="translate(-77.017 -77.017)" fill="#101f2d"/>
        <path id="Trazado_892784" data-name="Trazado 892784" d="M53.62,123.569a1.016,1.016,0,0,1-.719-1.735l2.745-2.744a1.017,1.017,0,0,1,1.438,1.438l-2.745,2.744a1.015,1.015,0,0,1-.719.3" transform="translate(-34.105 -77.017)" fill="#101f2d"/>
        <path id="Trazado_892785" data-name="Trazado 892785" d="M119.809,57.38a1.016,1.016,0,0,1-.719-1.735l2.744-2.744a1.017,1.017,0,1,1,1.438,1.438l-2.744,2.744a1.015,1.015,0,0,1-.719.3" transform="translate(-77.017 -34.105)" fill="#101f2d"/>
        <path id="Trazado_892786" data-name="Trazado 892786" d="M86.917,9.5A6.607,6.607,0,1,1,80.311,2.89,6.594,6.594,0,0,1,86.917,9.5" transform="translate(-47.785 -1.874)" fill="#f2b966"/>
        <path id="Trazado_892787" data-name="Trazado 892787" d="M78.435,15.246a7.623,7.623,0,1,1,7.623-7.623,7.632,7.632,0,0,1-7.623,7.623m0-13.213a5.59,5.59,0,1,0,5.59,5.59,5.6,5.6,0,0,0-5.59-5.59" transform="translate(-45.91)" fill="#101f2d"/>
        <path id="Trazado_892788" data-name="Trazado 892788" d="M86.917,151.123a6.607,6.607,0,1,1-6.607-6.607,6.594,6.594,0,0,1,6.607,6.607" transform="translate(-47.785 -93.695)" fill="#f2b966"/>
        <path id="Trazado_892789" data-name="Trazado 892789" d="M78.435,156.872a7.623,7.623,0,1,1,7.623-7.623,7.632,7.632,0,0,1-7.623,7.623m0-13.213a5.59,5.59,0,1,0,5.59,5.59,5.665,5.665,0,0,0-5.59-5.59" transform="translate(-45.91 -91.821)" fill="#101f2d"/>
        <path id="Trazado_892790" data-name="Trazado 892790" d="M9.5,73.7A6.607,6.607,0,1,1,2.891,80.31,6.607,6.607,0,0,1,9.5,73.7" transform="translate(-1.874 -47.784)" fill="#64c4f6"/>
        <path id="Trazado_892791" data-name="Trazado 892791" d="M7.623,86.059a7.623,7.623,0,1,1,7.623-7.623,7.632,7.632,0,0,1-7.623,7.623m0-13.213a5.59,5.59,0,1,0,5.59,5.59,5.6,5.6,0,0,0-5.59-5.59" transform="translate(0 -45.911)" fill="#101f2d"/>
        <path id="Trazado_892792" data-name="Trazado 892792" d="M151.123,73.7a6.607,6.607,0,1,1-6.607,6.607,6.594,6.594,0,0,1,6.607-6.607" transform="translate(-93.695 -47.784)" fill="#64c4f6"/>
        <path id="Trazado_892793" data-name="Trazado 892793" d="M149.249,86.059a7.623,7.623,0,1,1,7.623-7.623,7.632,7.632,0,0,1-7.623,7.623m0-13.213a5.665,5.665,0,0,0-5.59,5.59,5.59,5.59,0,1,0,5.59-5.59" transform="translate(-91.821 -45.911)" fill="#101f2d"/>
        <path id="Trazado_892794" data-name="Trazado 892794" d="M90.616,104.238a1.016,1.016,0,0,1-1.017-1.016V96.107a1.017,1.017,0,0,1,2.033,0v7.115a1.016,1.016,0,0,1-1.017,1.016" transform="translate(-58.09 -61.651)" fill="#101f2d"/>
        <path id="Trazado_892795" data-name="Trazado 892795" d="M100.913,104.928H99.287a1.016,1.016,0,1,1,0-2.033h1.626a1.016,1.016,0,1,1,0,2.033" transform="translate(-63.712 -66.711)" fill="#101f2d"/>
      </g>
    </g>
  </g>
</svg>
