<svg xmlns="http://www.w3.org/2000/svg" xmlns:xlink="http://www.w3.org/1999/xlink" width="526.579" height="398.987" viewBox="0 0 526.579 398.987">
  <defs>
    <clipPath id="clip-path">
      <rect id="Rectángulo_402888" data-name="Rectángulo 402888" width="424.316" height="334.964" fill="none"/>
    </clipPath>
    <clipPath id="clip-path-3">
      <rect id="Rectángulo_402808" data-name="Rectángulo 402808" width="211.758" height="78.122" fill="none"/>
    </clipPath>
    <linearGradient id="linear-gradient" x1="-0.672" y1="2.552" x2="-0.667" y2="2.552" gradientUnits="objectBoundingBox">
      <stop offset="0" stop-color="#b9b8b8"/>
      <stop offset="1" stop-color="#f5f2e4"/>
    </linearGradient>
    <clipPath id="clip-path-4">
      <rect id="Rectángulo_402810" data-name="Rectángulo 402810" width="207.013" height="72.811" fill="none"/>
    </clipPath>
    <linearGradient id="linear-gradient-2" x1="-1.046" y1="1.238" x2="-1.039" y2="1.238" gradientUnits="objectBoundingBox">
      <stop offset="0" stop-color="#69ffe9"/>
      <stop offset="0.165" stop-color="#69ffe9"/>
      <stop offset="1" stop-color="#2749a8"/>
    </linearGradient>
    <clipPath id="clip-path-6">
      <path id="Trazado_895208" data-name="Trazado 895208" d="M305.234,125.348c-1.32,3.258,0,60.591,0,60.591l2.145,1.14H261.166a11.683,11.683,0,0,0-3.246-2.281c-1.211-.325-19.365,0-19.365,0s-5.831.217-7.7,5.43-1.54,11.619-1.21,12.488a20.3,20.3,0,0,0,2.53,3.257h132.31c2.971,0,3.466-4.56,3.3-7.981s-2.145-3.746-2.145-3.746l-7.826-2.6v-4.072l8.155.814s1.845,0,1.845-3.258-.661-24.648-1.184-25.327a3.19,3.19,0,0,0-1.595-.924l-2.448-22.042a3.169,3.169,0,0,0,.412-1.872c-.165-.9-.825-6.841-3.961-8.145-2.177-.9-26.661-2.832-41.849-2.832-6.674,0-11.551.373-11.955,1.366" transform="translate(-229.388 -123.982)" fill="none"/>
    </clipPath>
    <linearGradient id="linear-gradient-3" x1="-2.048" y1="2.207" x2="-2.039" y2="2.207" xlink:href="#linear-gradient"/>
    <clipPath id="clip-path-8">
      <path id="Trazado_895211" data-name="Trazado 895211" d="M357.606,185.772c-.257,0-2.746.007-6.859.016-6.525.014-17.142.036-29.447.06-37,.061-89.269.12-91.362-.076-3.225-.3-2.8,4.7-2.8,5.431s5.585.651,5.585.651H365.858c2.888,0,2.971-3.42,3.384-6.082s-1.069-3.14-1.069-3.14a17.662,17.662,0,0,0-3.288-.345c-5.416,0-5.659,3.486-7.278,3.486" transform="translate(-227.121 -182.286)" fill="none"/>
    </clipPath>
    <linearGradient id="linear-gradient-4" x1="-1.971" y1="11.248" x2="-1.962" y2="11.248" gradientUnits="objectBoundingBox">
      <stop offset="0" stop-color="#a6a6a5"/>
      <stop offset="0.01" stop-color="#a6a6a5"/>
      <stop offset="1" stop-color="#f5f2e4"/>
    </linearGradient>
    <clipPath id="clip-path-10">
      <path id="Trazado_895226" data-name="Trazado 895226" d="M332.776,179.244l7.826,2.6a11.723,11.723,0,0,0,.329-5.863l-8.155-.814Z" transform="translate(-332.776 -175.172)" fill="none"/>
    </clipPath>
    <linearGradient id="linear-gradient-5" x1="-38.682" y1="12.644" x2="-38.565" y2="12.644" gradientUnits="objectBoundingBox">
      <stop offset="0" stop-color="#fffaed"/>
      <stop offset="0.462" stop-color="#d9d5ca"/>
      <stop offset="1" stop-color="#ada9a2"/>
    </linearGradient>
    <clipPath id="clip-path-12">
      <path id="Trazado_895233" data-name="Trazado 895233" d="M332.776,179.244l1.83.609v-4.5l-1.83-.181Z" transform="translate(-332.776 -175.172)" fill="none"/>
    </clipPath>
    <linearGradient id="linear-gradient-6" x1="-116.071" y1="23.408" x2="-115.722" y2="23.408" gradientUnits="objectBoundingBox">
      <stop offset="0" stop-color="#f27b1f"/>
      <stop offset="1" stop-color="#e8e3d8"/>
    </linearGradient>
    <clipPath id="clip-path-14">
      <path id="Trazado_895235" data-name="Trazado 895235" d="M157.8,217.177H86.23L75.992,255.441H239.611l-10.237-38.264Z" transform="translate(-75.992 -217.177)" fill="none"/>
    </clipPath>
    <linearGradient id="linear-gradient-7" x1="-0.577" y1="1.704" x2="-0.569" y2="1.704" gradientUnits="objectBoundingBox">
      <stop offset="0" stop-color="#ff9f55"/>
      <stop offset="1" stop-color="#ffd255"/>
    </linearGradient>
    <clipPath id="clip-path-16">
      <rect id="Rectángulo_402825" data-name="Rectángulo 402825" width="163.618" height="2.257" fill="none"/>
    </clipPath>
    <linearGradient id="linear-gradient-8" x1="-0.577" y1="11.931" x2="-0.569" y2="11.931" gradientUnits="objectBoundingBox">
      <stop offset="0" stop-color="#e37e30"/>
      <stop offset="1" stop-color="#e8a12e"/>
    </linearGradient>
    <clipPath id="clip-path-18">
      <rect id="Rectángulo_402829" data-name="Rectángulo 402829" width="194.444" height="137.169" rx="5.51" fill="none"/>
    </clipPath>
    <linearGradient id="linear-gradient-9" x1="-0.409" y1="1.826" x2="-0.402" y2="1.826" xlink:href="#linear-gradient-7"/>
    <clipPath id="clip-path-20">
      <rect id="Rectángulo_402833" data-name="Rectángulo 402833" width="101.304" height="5.162" fill="none"/>
    </clipPath>
    <linearGradient id="linear-gradient-10" x1="-1.244" y1="15.577" x2="-1.232" y2="15.577" xlink:href="#linear-gradient-7"/>
    <clipPath id="clip-path-22">
      <rect id="Rectángulo_402835" data-name="Rectángulo 402835" width="68.6" height="68.6" fill="none"/>
    </clipPath>
    <clipPath id="clip-path-23">
      <path id="Trazado_895285" data-name="Trazado 895285" d="M247.412,156.9H194.073a7.63,7.63,0,0,1-7.631-7.631V95.934a7.63,7.63,0,0,1,7.631-7.631h53.339a7.63,7.63,0,0,1,7.631,7.631v53.339a7.63,7.63,0,0,1-7.631,7.631" transform="translate(-186.442 -88.303)" fill="none"/>
    </clipPath>
    <linearGradient id="linear-gradient-11" x1="-3.376" y1="3.284" x2="-3.358" y2="3.284" gradientUnits="objectBoundingBox">
      <stop offset="0" stop-color="#edf4ff"/>
      <stop offset="1" stop-color="#edfffe"/>
    </linearGradient>
    <clipPath id="clip-path-25">
      <path id="Trazado_895291" data-name="Trazado 895291" d="M50,88.3h53.339a7.63,7.63,0,0,1,7.629,7.631v53.339a7.63,7.63,0,0,1-7.629,7.631H50a7.63,7.63,0,0,1-7.631-7.631V95.934A7.63,7.63,0,0,1,50,88.3" transform="translate(-42.368 -88.303)" fill="none"/>
    </clipPath>
    <linearGradient id="linear-gradient-12" x1="-0.767" y1="3.284" x2="-0.749" y2="3.284" xlink:href="#linear-gradient-11"/>
    <clipPath id="clip-path-26">
      <rect id="Rectángulo_402843" data-name="Rectángulo 402843" width="91.162" height="91.162" fill="none"/>
    </clipPath>
    <clipPath id="clip-path-27">
      <path id="Trazado_895296" data-name="Trazado 895296" d="M188.944,170.383h-75.9a7.63,7.63,0,0,1-7.631-7.631v-75.9a7.631,7.631,0,0,1,7.631-7.631h75.9a7.631,7.631,0,0,1,7.631,7.631v75.9a7.63,7.63,0,0,1-7.631,7.631" transform="translate(-105.413 -79.221)" fill="none"/>
    </clipPath>
    <linearGradient id="linear-gradient-13" x1="-1.436" y1="2.595" x2="-1.423" y2="2.595" xlink:href="#linear-gradient-11"/>
    <clipPath id="clip-path-28">
      <rect id="Rectángulo_402850" data-name="Rectángulo 402850" width="21.539" height="21.541" fill="none"/>
    </clipPath>
    <linearGradient id="linear-gradient-14" x1="-1.145" y1="5.868" x2="-1.087" y2="5.868" gradientUnits="objectBoundingBox">
      <stop offset="0" stop-color="#ffa35f"/>
      <stop offset="1" stop-color="#e39155"/>
    </linearGradient>
    <clipPath id="clip-path-30">
      <rect id="Rectángulo_402854" data-name="Rectángulo 402854" width="21.539" height="21.539" fill="none"/>
    </clipPath>
    <linearGradient id="linear-gradient-15" x1="-0.477" y1="3.868" x2="-0.419" y2="3.868" xlink:href="#linear-gradient-14"/>
    <linearGradient id="linear-gradient-16" x1="-1.477" y1="3.868" x2="-1.419" y2="3.868" xlink:href="#linear-gradient-14"/>
    <linearGradient id="linear-gradient-17" x1="-2.477" y1="3.868" x2="-2.419" y2="3.868" xlink:href="#linear-gradient-14"/>
    <linearGradient id="linear-gradient-18" x1="-1.697" y1="4.868" x2="-1.639" y2="4.868" xlink:href="#linear-gradient-14"/>
    <linearGradient id="linear-gradient-19" x1="-0.697" y1="4.868" x2="-0.639" y2="4.868" xlink:href="#linear-gradient-14"/>
  </defs>
  <g id="Grupo_1103353" data-name="Grupo 1103353" transform="translate(-1866.518 4052.045)">
    <rect id="Rectángulo_402291" data-name="Rectángulo 402291" width="526.579" height="398.987" transform="translate(1866.518 -4052.045)" fill="#d6e6ce"/>
    <g id="Grupo_1102541" data-name="Grupo 1102541" transform="translate(1924.996 -4016.222)">
      <g id="Grupo_1102540" data-name="Grupo 1102540" clip-path="url(#clip-path)">
        <g id="Grupo_1102462" data-name="Grupo 1102462">
          <g id="Grupo_1102461" data-name="Grupo 1102461" clip-path="url(#clip-path)">
            <path id="Trazado_895201" data-name="Trazado 895201" d="M112.528,222A109.473,109.473,0,1,1,222,112.529,109.6,109.6,0,0,1,112.528,222" transform="translate(0.74 0.74)" fill="#63a6f9"/>
            <path id="Trazado_895202" data-name="Trazado 895202" d="M113.268,7.588A105.679,105.679,0,1,1,7.588,113.268,105.679,105.679,0,0,1,113.268,7.588m0-7.588A113.268,113.268,0,1,0,226.535,113.268,113.4,113.4,0,0,0,113.268,0" fill="#fff"/>
            <path id="Trazado_895203" data-name="Trazado 895203" d="M117.453,39.426s-2.939.507-2.939,2.455a26.544,26.544,0,0,0,.98,5.375l.979,3.673,2.858,2.445,1.056-1.45a5.055,5.055,0,0,1,2.2-1.16c3.643-.437,3.671-1.507,3.671-1.507l3.18-1.758s1.224-2.442,0-3.177-4.758-2.938-5.069-2.938-2.026-4.648-2.026-4.648l-3.59-4.9s-2.528,2.028-2.04,3.34,1.225,1.8.98,3.022Z" transform="translate(27.732 7.711)" fill="#aecf9d"/>
            <path id="Trazado_895204" data-name="Trazado 895204" d="M192.7,81.872a24.955,24.955,0,0,1-6.02,2.505c-7.381,2.256-9.431,3.076-17.631,4.51s-17.221-2.255-24.4,2.256-8.477,4.647-8.477,4.647l-3.486.686s-9.4-1.5-10.932-.073c-1.333,1.246.343.073-5.808,7.453s-4.067,4.317-6.151,7.38c-4.543,6.679-5.739,3.69-4.1,9.842s8.613,11.89,8.613,11.89,10.659.822,12.711,1.64,17.22,1.847,17.22,1.847,10.859,15.582,12.909,18.861,2.2,6.746,3.7,12.712c.246.98.443,1.8.6,2.494A105.449,105.449,0,0,0,193.469,94.7a106.611,106.611,0,0,0-.771-12.828" transform="translate(25.427 19.827)" fill="#aecf9d"/>
            <path id="Trazado_895205" data-name="Trazado 895205" d="M169.018,99.2c.98,2.207,1.717-5.392,4.659-5.637s.246-2.207-2.943-4-5.394-9.239-7.352-11.693,2.943-7.847,7.846-9.968,3.923,2.617,6.125,4.818-.488,4.17,1.471,7.967,2.209,4.539,4.384,3.313-.937-2.595-1.277-6.863c-.161-2.048-.161-4.166,3.025-1.522,3.12,2.586,4.594,11.662,3.963.7A105.86,105.86,0,0,0,97.15,7.251l15.943,8.026,8.762,3.56s12.875,1.642,14.243,2.738,1.369,4.384,2.74,5.1,6.844,5.859,14.239,7.775c4.33,1.125,5.938,5.735,6.525,9.356a4.8,4.8,0,0,0-2.108,3.662c0,.984,1.227,2.211.983,3.492s-3.431.925-5.638.3-.981-.112-2.207,0-3.185,1.6-4.9,3.853-5.394,2.166-8.336,2.671-2.206-1.241-6.128,0-5.641,9.79-4.167,13.468.732,5.888-.25,9.438-2.354,5.1-2.694,15.822c-.568,17.892,7.356,10.534,12.261,11.274s4.167-1.717,5.145-3.679-2.207-7.108-2.451-11.767-.493-5.641,0-6.9,2.7-3.646,4.656-5.857,7.113-2.447,8.829-2.447,11.768,9.807,14.953,14.218.488,5.641,1.471,7.844" transform="translate(23.527 1.756)" fill="#aecf9d"/>
            <path id="Trazado_895206" data-name="Trazado 895206" d="M17.15,61.385a2.2,2.2,0,0,0-.056.348c-.26,3.729-1.826,7.816-3.946,12.367-1.735,3.736-2.087,4.926-3.181,6.192a2.118,2.118,0,0,0-.265.4,105.844,105.844,0,0,0-3.817,28.235c0,2.094.068,4.174.189,6.239a2.012,2.012,0,0,0,.4.781l1.147,1.4a2.045,2.045,0,0,0,1.509.752c1.194.029,3.161.365,2.922,2.293-.337,2.753,1.556,5.664,1.466,6.848s2.894,1.487,2.708,6.146a24.528,24.528,0,0,0,.563,6.865,2.056,2.056,0,0,1,.063.673c-.083,1.107-.344,4.584-.569,7.519a10.828,10.828,0,0,0,2.222,7.3c1,1.559,1.384,2.028,1.416,5.541a2.17,2.17,0,0,0,.058.429,106.009,106.009,0,0,0,65.209,49.661,5.866,5.866,0,0,0,.652-1.983v-.019c.08-1.033.715-5.841.847-6.837a1.676,1.676,0,0,0,.017-.361c-.045-1.033-.256-6.275.23-8.026.539-1.937-.975-2.832-4.482-9.038s.029-5.544.712-9.453.393-5.12,1.358-7.428,0,0-.645-2.028-10.34-11.617-12.688-15.609-4.273-1.113-7.791-1.776,0,0-7.939-1.11c-3.977-.554-4.141.555-5.468.311-1.742-.318-3.2.345-5.959-.447s-6.622,3.323-8.909,2.032a13.253,13.253,0,0,1-3.616-2.971c-1.04-.96-4.415-1.26-5.781-5.267s.073-3.369-.968-6.905-.677-4.118-1.045-4.536-2.888-2.395-1.359-6.939c.713-2.115-.625-.939-.266-5.664s3.769-1.433,5.509-3.468,4.042-1.1,6.248-4.1,6.544-2.679,10.288-6.33,7.34-3.908,7.675-4.683l11.679-8.719c.057-.045.109-.087.16-.135a4.782,4.782,0,0,0,.441-6.947c-3.277-3.809,1.493-4.045-3.277-3.809A11.767,11.767,0,0,0,54.8,81.211a2.053,2.053,0,0,1-2.949-.667,28.319,28.319,0,0,0-1.51-2.411c-.978-1.354-3.277-4.49-4.126-5.646a2.037,2.037,0,0,0-.817-.655c-.837-.376-2.528-1.109-3.569-1.455a2.081,2.081,0,0,1-1.309-1.262c-.3-.838-.584-1.676-.838-2.489a2.052,2.052,0,0,1,.992-2.433l9.321-4.97A2.046,2.046,0,0,1,52.731,60a13.91,13.91,0,0,0,3.645,4.326c2.31,1.632,6.411,2.315,7.827,2.509a2.043,2.043,0,0,0,.914-.092c.749-.243,2.279-.611,2.538.375a14.19,14.19,0,0,0,5.2,7.355,2.054,2.054,0,0,0,3.221-1.051l3.119-10.606a2.065,2.065,0,0,1,.322-.645l6.444-8.716a5.548,5.548,0,0,0,.6-5.572l-1.156-2.564a4.42,4.42,0,0,0-3.687-2.585l-3.3-.247-12.591-.283a2.05,2.05,0,0,1-1.569-.79c-.627-.795-1.866-1.66-3.623.462l-1.93,2.332a2.041,2.041,0,0,1-1.758.737l-8.729-.754a1.976,1.976,0,0,1-.456-.089c-.617-.2-2.406-.776-3.576-1.077a2.05,2.05,0,0,1-1.25-.955c-.352-.576-.988-1.267-1.006-1.913-.14-8.167,6.115-15.238,7.833-17.021A106.258,106.258,0,0,0,17.15,61.385" transform="translate(1.425 5.603)" fill="#aecf9d"/>
            <rect id="Rectángulo_402805" data-name="Rectángulo 402805" width="17.604" height="4.507" transform="translate(307.476 212.598)" fill="#3d414a"/>
          </g>
        </g>
        <g id="Grupo_1102464" data-name="Grupo 1102464" transform="translate(142.393 135.562)">
          <g id="Grupo_1102463" data-name="Grupo 1102463" clip-path="url(#clip-path-3)">
            <rect id="Rectángulo_402807" data-name="Rectángulo 402807" width="211.758" height="78.122" transform="translate(0)" fill="url(#linear-gradient)"/>
          </g>
        </g>
        <g id="Grupo_1102466" data-name="Grupo 1102466" transform="translate(144.767 138.218)">
          <g id="Grupo_1102465" data-name="Grupo 1102465" clip-path="url(#clip-path-4)">
            <rect id="Rectángulo_402809" data-name="Rectángulo 402809" width="160.54" height="217.167" transform="translate(-29.924 57.14) rotate(-62.359)" fill="url(#linear-gradient-2)"/>
          </g>
        </g>
        <g id="Grupo_1102468" data-name="Grupo 1102468">
          <g id="Grupo_1102467" data-name="Grupo 1102467" clip-path="url(#clip-path)">
            <path id="Trazado_895207" data-name="Trazado 895207" d="M296.777,116.7H227.12l4.136,6.42h65.52Z" transform="translate(55.002 28.262)" fill="#fff"/>
          </g>
        </g>
        <g id="Grupo_1102470" data-name="Grupo 1102470" transform="translate(284.94 154.007)">
          <g id="Grupo_1102469" data-name="Grupo 1102469" clip-path="url(#clip-path-6)">
            <rect id="Rectángulo_402812" data-name="Rectángulo 402812" width="138.966" height="81.991" transform="translate(-0.404 0)" fill="url(#linear-gradient-3)"/>
          </g>
        </g>
        <g id="Grupo_1102472" data-name="Grupo 1102472">
          <g id="Grupo_1102471" data-name="Grupo 1102471" clip-path="url(#clip-path)">
            <path id="Trazado_895209" data-name="Trazado 895209" d="M347.415,156.608l-37.529-3.44a8.225,8.225,0,0,1-6.985-5.254,11.62,11.62,0,0,1-.681-3.088c-.5-5.781,1.486-11.486,5.446-11.483,1.488,0,37.3,1.222,37.3,1.222Z" transform="translate(73.172 32.292)" fill="#454a54"/>
            <path id="Trazado_895210" data-name="Trazado 895210" d="M309.07,152.538s-3.93-10.258.525-15.225c2.026-2.258,34.393-.61,34.393-.61l2.137,19.231Z" transform="translate(74.461 32.965)" fill="#b8b8b8"/>
          </g>
        </g>
        <g id="Grupo_1102474" data-name="Grupo 1102474" transform="translate(282.124 226.431)">
          <g id="Grupo_1102473" data-name="Grupo 1102473" clip-path="url(#clip-path-8)">
            <rect id="Rectángulo_402814" data-name="Rectángulo 402814" width="142.941" height="9.649" transform="translate(-0.407 0)" fill="url(#linear-gradient-4)"/>
          </g>
        </g>
        <g id="Grupo_1102476" data-name="Grupo 1102476">
          <g id="Grupo_1102475" data-name="Grupo 1102475" clip-path="url(#clip-path)">
            <path id="Trazado_895212" data-name="Trazado 895212" d="M329.123,187.4a11.994,11.994,0,1,1-11.992-11.835A11.914,11.914,0,0,1,329.123,187.4" transform="translate(73.896 42.517)" fill="#3d414a"/>
            <path id="Trazado_895213" data-name="Trazado 895213" d="M317.114,185.467a1.943,1.943,0,1,1-1.943-1.917,1.93,1.93,0,0,1,1.943,1.917" transform="translate(75.855 44.451)" fill="#ada9a2"/>
            <path id="Trazado_895214" data-name="Trazado 895214" d="M316.5,195.439a8.659,8.659,0,1,1,8.772-8.658,8.726,8.726,0,0,1-8.772,8.658m0-17.133a8.476,8.476,0,1,0,8.587,8.475,8.542,8.542,0,0,0-8.587-8.475" transform="translate(74.524 43.136)" fill="#ada9a2"/>
            <path id="Trazado_895215" data-name="Trazado 895215" d="M316.426,185.356a1.367,1.367,0,1,1-1.368-1.349,1.358,1.358,0,0,1,1.368,1.349" transform="translate(75.968 44.562)" fill="#3d414a"/>
            <path id="Trazado_895216" data-name="Trazado 895216" d="M332.386,187.925v.016a14.3,14.3,0,0,1-1.35,6.066H304.289a14.248,14.248,0,0,1-1.35-6.007v-.075a14.725,14.725,0,0,1,29.447,0" transform="translate(73.364 41.991)" fill="#26292e"/>
            <path id="Trazado_895217" data-name="Trazado 895217" d="M259.9,187.925v.016a14.3,14.3,0,0,1-1.35,6.066H231.8A14.248,14.248,0,0,1,230.45,188v-.075a14.725,14.725,0,0,1,29.447,0" transform="translate(55.809 41.991)" fill="#26292e"/>
            <path id="Trazado_895218" data-name="Trazado 895218" d="M329.123,187.4a11.994,11.994,0,1,1-11.992-11.835A11.914,11.914,0,0,1,329.123,187.4" transform="translate(73.896 42.517)" fill="#3d414a"/>
            <path id="Trazado_895219" data-name="Trazado 895219" d="M317.114,185.467a1.943,1.943,0,1,1-1.943-1.917,1.93,1.93,0,0,1,1.943,1.917" transform="translate(75.855 44.451)" fill="#ada9a2"/>
            <path id="Trazado_895220" data-name="Trazado 895220" d="M316.5,195.439a8.659,8.659,0,1,1,8.772-8.658,8.726,8.726,0,0,1-8.772,8.658m0-17.133a8.476,8.476,0,1,0,8.587,8.475,8.542,8.542,0,0,0-8.587-8.475" transform="translate(74.524 43.136)" fill="#ada9a2"/>
            <path id="Trazado_895221" data-name="Trazado 895221" d="M316.426,185.356a1.367,1.367,0,1,1-1.368-1.349,1.358,1.358,0,0,1,1.368,1.349" transform="translate(75.968 44.562)" fill="#3d414a"/>
            <path id="Trazado_895222" data-name="Trazado 895222" d="M256.634,187.4a11.994,11.994,0,1,1-11.993-11.835A11.915,11.915,0,0,1,256.634,187.4" transform="translate(56.341 42.517)" fill="#3d414a"/>
            <path id="Trazado_895223" data-name="Trazado 895223" d="M244.625,185.467a1.943,1.943,0,1,1-1.943-1.917,1.93,1.93,0,0,1,1.943,1.917" transform="translate(58.301 44.451)" fill="#ada9a2"/>
            <path id="Trazado_895224" data-name="Trazado 895224" d="M244.013,195.439a8.659,8.659,0,1,1,8.773-8.658,8.726,8.726,0,0,1-8.773,8.658m0-17.133a8.476,8.476,0,1,0,8.588,8.475,8.543,8.543,0,0,0-8.588-8.475" transform="translate(56.969 43.136)" fill="#ada9a2"/>
            <path id="Trazado_895225" data-name="Trazado 895225" d="M243.937,185.356a1.367,1.367,0,1,1-1.368-1.349,1.358,1.358,0,0,1,1.368,1.349" transform="translate(58.413 44.562)" fill="#3d414a"/>
          </g>
        </g>
        <g id="Grupo_1102478" data-name="Grupo 1102478" transform="translate(413.365 217.594)">
          <g id="Grupo_1102477" data-name="Grupo 1102477" clip-path="url(#clip-path-10)">
            <rect id="Rectángulo_402816" data-name="Rectángulo 402816" width="10.663" height="9.391" transform="translate(-2.216 0.842) rotate(-20.799)" fill="url(#linear-gradient-5)"/>
          </g>
        </g>
        <g id="Grupo_1102480" data-name="Grupo 1102480">
          <g id="Grupo_1102479" data-name="Grupo 1102479" clip-path="url(#clip-path)">
            <path id="Trazado_895227" data-name="Trazado 895227" d="M232.224,182.133l-3.876,1.668-.534,8.247,2.309,1.318s-.207-6.436,2.1-11.233" transform="translate(55.17 44.108)" fill="#3d414a"/>
            <rect id="Rectángulo_402817" data-name="Rectángulo 402817" width="2.089" height="2.062" transform="translate(282.817 228.931)" fill="#cf7923"/>
            <path id="Trazado_895228" data-name="Trazado 895228" d="M337.15,188.787l-8.059-.593-.021-.127c-1.771-10.731-14.736-10.7-14.861-10.7l-.159,0-2.479-43.912.332.01,2.461,43.575c1.506.032,13.228.612,15.012,10.84l7.446.547v-4.389l3.086.081c-.012-2.216-.158-25.384-1.006-27.489-.9-2.246-3.3-21.542-3.406-22.36l.338.011c.025.2,2.486,20.021,3.375,22.23.909,2.256,1.026,26.734,1.03,27.775v.169l-3.087-.082Z" transform="translate(75.454 32.321)" fill="#a8a59c"/>
            <path id="Trazado_895229" data-name="Trazado 895229" d="M344.582,131.729l-50.5-2.568.017-.325,50.5,2.568Z" transform="translate(71.218 31.201)" fill="#a8a59c"/>
            <path id="Trazado_895230" data-name="Trazado 895230" d="M311.64,174.7l-19.077-1.226.022-.324,18.953,1.217a16.333,16.333,0,0,1,15.645-1.2l-.132.3a15.944,15.944,0,0,0-15.363,1.2Z" transform="translate(70.851 41.589)" fill="#a8a59c"/>
            <path id="Trazado_895231" data-name="Trazado 895231" d="M334.844,155.967c-.01-.142-1.05-14.192-1.43-17.894-.2-1.912-.749-2.546-1.062-2.755a2.067,2.067,0,0,0-1.118-.128l-.119-.945a2.662,2.662,0,0,1,1.8.292c.8.538,1.3,1.7,1.483,3.443.381,3.714,1.421,17.778,1.431,17.92Z" transform="translate(80.187 32.503)" fill="#3d414a"/>
            <path id="Trazado_895232" data-name="Trazado 895232" d="M335.047,148.179l-4.281.3L330,137.7l4.225-.443Z" transform="translate(79.917 33.24)" fill="#3d414a"/>
            <rect id="Rectángulo_402818" data-name="Rectángulo 402818" width="2.861" height="4.724" transform="translate(389.916 188.47)" fill="#a8a59c"/>
          </g>
        </g>
        <g id="Grupo_1102482" data-name="Grupo 1102482" transform="translate(413.365 217.594)">
          <g id="Grupo_1102481" data-name="Grupo 1102481" clip-path="url(#clip-path-12)">
            <rect id="Rectángulo_402820" data-name="Rectángulo 402820" width="3.554" height="5.021" transform="matrix(0.916, -0.401, 0.401, 0.916, -1.72, 0.753)" fill="url(#linear-gradient-6)"/>
          </g>
        </g>
        <g id="Grupo_1102484" data-name="Grupo 1102484">
          <g id="Grupo_1102483" data-name="Grupo 1102483" clip-path="url(#clip-path)">
            <path id="Trazado_895234" data-name="Trazado 895234" d="M48.086,35.994a9.744,9.744,0,1,0-19.487,0c0,.186.006.37.016.554H28.6c0,7.418,9.744,19.044,9.744,19.044s9.744-11.625,9.744-19.044H48.07c.01-.184.016-.368.016-.554m-9.744,6.313a6.312,6.312,0,1,1,6.313-6.313,6.312,6.312,0,0,1-6.313,6.313" transform="translate(6.926 6.357)" fill="#e64646"/>
          </g>
        </g>
        <g id="Grupo_1102486" data-name="Grupo 1102486" transform="translate(94.395 269.771)">
          <g id="Grupo_1102485" data-name="Grupo 1102485" clip-path="url(#clip-path-14)">
            <rect id="Rectángulo_402822" data-name="Rectángulo 402822" width="163.619" height="38.264" fill="url(#linear-gradient-7)"/>
          </g>
        </g>
        <g id="Grupo_1102488" data-name="Grupo 1102488">
          <g id="Grupo_1102487" data-name="Grupo 1102487" clip-path="url(#clip-path)">
            <path id="Trazado_895236" data-name="Trazado 895236" d="M85.472,225.358h9.366a.564.564,0,0,1,.614.632l-.907,4.074a.607.607,0,0,1-.614.434H84.4a.562.562,0,0,1-.61-.65l1.067-4.073a.613.613,0,0,1,.61-.417" transform="translate(20.289 54.576)" fill="#fff"/>
            <path id="Trazado_895237" data-name="Trazado 895237" d="M96.349,225.358h7.08l-.943,5.14H95.272Z" transform="translate(23.072 54.576)" fill="#fff"/>
            <path id="Trazado_895238" data-name="Trazado 895238" d="M104.86,225.358h7.08l-.74,5.14-7.216.007Z" transform="translate(25.182 54.576)" fill="#fff"/>
            <path id="Trazado_895239" data-name="Trazado 895239" d="M113.371,225.358h7.08l-.539,5.14H112.7Z" transform="translate(27.292 54.576)" fill="#fff"/>
            <path id="Trazado_895240" data-name="Trazado 895240" d="M121.881,225.358h7.08l-.337,5.14H121.41Z" transform="translate(29.402 54.576)" fill="#fff"/>
            <path id="Trazado_895241" data-name="Trazado 895241" d="M130.392,225.358h7.08l-.134,5.14-7.216.007Z" transform="translate(31.512 54.576)" fill="#fff"/>
            <path id="Trazado_895242" data-name="Trazado 895242" d="M200.83,225.358H190.21l1.144,5.14h10.823Z" transform="translate(46.064 54.576)" fill="#fff"/>
            <path id="Trazado_895243" data-name="Trazado 895243" d="M188.74,225.358h-7.08l.943,5.14h7.215Z" transform="translate(43.993 54.576)" fill="#fff"/>
            <path id="Trazado_895244" data-name="Trazado 895244" d="M180.19,225.358h-7.08l.74,5.14,7.216.007Z" transform="translate(41.922 54.576)" fill="#fff"/>
            <path id="Trazado_895245" data-name="Trazado 895245" d="M171.64,225.358h-7.08l.539,5.14h7.215Z" transform="translate(39.852 54.576)" fill="#fff"/>
            <path id="Trazado_895246" data-name="Trazado 895246" d="M163.089,225.358h-7.08l.337,5.14h7.215Z" transform="translate(37.781 54.576)" fill="#fff"/>
            <path id="Trazado_895247" data-name="Trazado 895247" d="M154.539,225.358h-7.08l.134,5.14,7.216.007Z" transform="translate(35.711 54.576)" fill="#fff"/>
            <path id="Trazado_895248" data-name="Trazado 895248" d="M138.89,225.358h7.08l.118,5.14h-7.2Z" transform="translate(33.635 54.576)" fill="#fff"/>
            <path id="Trazado_895249" data-name="Trazado 895249" d="M82.853,232.579h14.8l-.843,5.3H81.729Z" transform="translate(19.793 56.324)" fill="#fff"/>
            <path id="Trazado_895250" data-name="Trazado 895250" d="M204.185,232.579H185.9l1.041,5.3h18.636Z" transform="translate(45.019 56.324)" fill="#fff"/>
            <path id="Trazado_895251" data-name="Trazado 895251" d="M184.378,232.579h-7.315l.834,5.3h7.454Z" transform="translate(42.88 56.324)" fill="#fff"/>
            <path id="Trazado_895252" data-name="Trazado 895252" d="M175.544,232.579h-7.315l.625,5.3h7.454Z" transform="translate(40.74 56.324)" fill="#fff"/>
            <path id="Trazado_895253" data-name="Trazado 895253" d="M166.71,232.579h-7.315l.416,5.3h7.454Z" transform="translate(38.601 56.324)" fill="#fff"/>
            <path id="Trazado_895254" data-name="Trazado 895254" d="M157.876,232.579h-7.315l.207,5.3h7.454Z" transform="translate(36.462 56.324)" fill="#fff"/>
            <path id="Trazado_895255" data-name="Trazado 895255" d="M81.124,240.187H96.25l-1.1,5.267h-15.4Z" transform="translate(19.312 58.167)" fill="#fff"/>
            <path id="Trazado_895256" data-name="Trazado 895256" d="M96.278,240.187h7.562l-.9,5.267h-7.7Z" transform="translate(23.065 58.167)" fill="#fff"/>
            <path id="Trazado_895257" data-name="Trazado 895257" d="M105.37,240.187h56.718l.212,5.267H104.543Z" transform="translate(25.317 58.167)" fill="#fff"/>
            <path id="Trazado_895258" data-name="Trazado 895258" d="M153.917,240.187h7.562l.415,5.267h-7.7Z" transform="translate(37.275 58.167)" fill="#fff"/>
            <path id="Trazado_895259" data-name="Trazado 895259" d="M163.05,240.187h7.564l.62,5.267h-7.7Z" transform="translate(39.486 58.167)" fill="#fff"/>
            <path id="Trazado_895260" data-name="Trazado 895260" d="M172.182,240.187h7.562l.829,5.267h-7.7Z" transform="translate(41.698 58.167)" fill="#fff"/>
            <path id="Trazado_895261" data-name="Trazado 895261" d="M181.315,240.187h7.562l1.036,5.267h-7.7Z" transform="translate(43.91 58.167)" fill="#fff"/>
            <path id="Trazado_895262" data-name="Trazado 895262" d="M190.448,240.187h15.126l1.38,5.267h-15.4Z" transform="translate(46.121 58.167)" fill="#fff"/>
            <path id="Trazado_895263" data-name="Trazado 895263" d="M149.044,232.579h-7.257v5.3h7.4Z" transform="translate(34.337 56.324)" fill="#fff"/>
            <path id="Trazado_895264" data-name="Trazado 895264" d="M140.262,232.579h-7.315l-.209,5.3h7.454Z" transform="translate(32.146 56.324)" fill="#fff"/>
            <path id="Trazado_895265" data-name="Trazado 895265" d="M131.469,232.579h-7.315l-.417,5.3h7.454Z" transform="translate(29.966 56.324)" fill="#fff"/>
            <path id="Trazado_895266" data-name="Trazado 895266" d="M122.676,232.579H115.36l-.625,5.3h7.454Z" transform="translate(27.786 56.324)" fill="#fff"/>
            <path id="Trazado_895267" data-name="Trazado 895267" d="M113.882,232.579h-7.315l-.833,5.3h7.454Z" transform="translate(25.606 56.324)" fill="#fff"/>
            <path id="Trazado_895268" data-name="Trazado 895268" d="M105.089,232.579H97.774l-1.042,5.3h7.454Z" transform="translate(23.426 56.324)" fill="#fff"/>
            <path id="Trazado_895269" data-name="Trazado 895269" d="M85.42,223.652l1.2-4.589H90.06l-1.122,4.589Z" transform="translate(20.686 53.051)" fill="#fff"/>
            <path id="Trazado_895270" data-name="Trazado 895270" d="M92.134,219.063h6.875l-.961,4.589h-7Z" transform="translate(22.05 53.051)" fill="#fff"/>
            <path id="Trazado_895271" data-name="Trazado 895271" d="M100.4,219.063h6.875l-.781,4.589h-7Z" transform="translate(24.096 53.051)" fill="#fff"/>
            <path id="Trazado_895272" data-name="Trazado 895272" d="M108.669,219.063h6.875l-.6,4.589h-7Z" transform="translate(26.142 53.051)" fill="#fff"/>
            <path id="Trazado_895273" data-name="Trazado 895273" d="M116.937,219.063h6.875l-.42,4.589h-7Z" transform="translate(28.188 53.051)" fill="#fff"/>
            <path id="Trazado_895274" data-name="Trazado 895274" d="M125.2,219.063h6.875l-.24,4.589h-7Z" transform="translate(30.234 53.051)" fill="#fff"/>
            <path id="Trazado_895275" data-name="Trazado 895275" d="M133.472,219.063h6.875l-.06,4.589h-7Z" transform="translate(32.28 53.051)" fill="#fff"/>
            <path id="Trazado_895276" data-name="Trazado 895276" d="M141.74,219.063h6.875l.12,4.589h-7Z" transform="translate(34.326 53.051)" fill="#fff"/>
            <path id="Trazado_895277" data-name="Trazado 895277" d="M150.043,219.063h6.875l.3,4.589h-7Z" transform="translate(36.336 53.051)" fill="#fff"/>
            <path id="Trazado_895278" data-name="Trazado 895278" d="M158.345,219.063h6.875l.481,4.589h-7Z" transform="translate(38.347 53.051)" fill="#fff"/>
            <path id="Trazado_895279" data-name="Trazado 895279" d="M166.648,219.063h6.875l.662,4.589h-7Z" transform="translate(40.358 53.051)" fill="#fff"/>
            <path id="Trazado_895280" data-name="Trazado 895280" d="M174.951,219.063h6.875l.841,4.589h-7Z" transform="translate(42.368 53.051)" fill="#fff"/>
            <path id="Trazado_895281" data-name="Trazado 895281" d="M183.254,219.063h6.875l1.022,4.589h-7Z" transform="translate(44.379 53.051)" fill="#fff"/>
            <path id="Trazado_895282" data-name="Trazado 895282" d="M191.557,219.063h6.875l1.2,4.589h-7Z" transform="translate(46.39 53.051)" fill="#fff"/>
          </g>
        </g>
        <g id="Grupo_1102490" data-name="Grupo 1102490" transform="translate(94.395 308.035)">
          <g id="Grupo_1102489" data-name="Grupo 1102489" clip-path="url(#clip-path-16)">
            <rect id="Rectángulo_402824" data-name="Rectángulo 402824" width="163.618" height="2.257" transform="translate(0)" fill="url(#linear-gradient-8)"/>
          </g>
        </g>
        <g id="Grupo_1102492" data-name="Grupo 1102492">
          <g id="Grupo_1102491" data-name="Grupo 1102491" clip-path="url(#clip-path)">
            <rect id="Rectángulo_402826" data-name="Rectángulo 402826" width="22.518" height="68.395" transform="translate(165.436 188.732)" fill="#ffae55"/>
          </g>
        </g>
        <g id="Grupo_1102494" data-name="Grupo 1102494" transform="translate(79.473 84.51)">
          <g id="Grupo_1102493" data-name="Grupo 1102493" clip-path="url(#clip-path-18)">
            <rect id="Rectángulo_402828" data-name="Rectángulo 402828" width="194.444" height="137.169" transform="translate(0)" fill="url(#linear-gradient-9)"/>
          </g>
        </g>
        <g id="Grupo_1102496" data-name="Grupo 1102496">
          <g id="Grupo_1102495" data-name="Grupo 1102495" clip-path="url(#clip-path)">
            <rect id="Rectángulo_402830" data-name="Rectángulo 402830" width="180.351" height="105.518" transform="translate(86.346 91.229)" fill="#fff"/>
            <path id="Trazado_895283" data-name="Trazado 895283" d="M198.129,170.3c0,3.463,3.161,6.272,7.061,6.272s7.061-2.809,7.061-6.272-3.161-6.272-7.061-6.272-7.061,2.807-7.061,6.272" transform="translate(47.982 39.723)" fill="#ffae55"/>
          </g>
        </g>
        <g id="Grupo_1102498" data-name="Grupo 1102498" transform="translate(126.043 254.547)">
          <g id="Grupo_1102497" data-name="Grupo 1102497" clip-path="url(#clip-path-20)">
            <rect id="Rectángulo_402832" data-name="Rectángulo 402832" width="101.304" height="5.162" transform="translate(0 0)" fill="url(#linear-gradient-10)"/>
          </g>
        </g>
        <g id="Grupo_1102515" data-name="Grupo 1102515">
          <g id="Grupo_1102514" data-name="Grupo 1102514" clip-path="url(#clip-path)">
            <path id="Trazado_895284" data-name="Trazado 895284" d="M75.8,149.313H75.79c.037.017.042.019.009,0" transform="translate(18.354 36.159)" fill="#323657"/>
            <g id="Grupo_1102503" data-name="Grupo 1102503" transform="translate(231.593 109.688)" opacity="0.95">
              <g id="Grupo_1102502" data-name="Grupo 1102502">
                <g id="Grupo_1102501" data-name="Grupo 1102501" clip-path="url(#clip-path-22)">
                  <g id="Grupo_1102500" data-name="Grupo 1102500" transform="translate(0 0)">
                    <g id="Grupo_1102499" data-name="Grupo 1102499" clip-path="url(#clip-path-23)">
                      <rect id="Rectángulo_402834" data-name="Rectángulo 402834" width="68.6" height="68.6" transform="translate(0 0)" fill="url(#linear-gradient-11)"/>
                    </g>
                  </g>
                </g>
              </g>
            </g>
            <path id="Trazado_895286" data-name="Trazado 895286" d="M210.318,108.677a6.121,6.121,0,0,1-2.293-.424,5.848,5.848,0,0,1-1.835-1.147,5.513,5.513,0,0,1-1.235-1.693,5,5,0,0,1,0-4.181,5.259,5.259,0,0,1,1.235-1.693,6.041,6.041,0,0,1,1.835-1.129,6.371,6.371,0,0,1,4.569,0,5.966,5.966,0,0,1,1.852,1.129,5.259,5.259,0,0,1,1.235,1.693,5,5,0,0,1,0,4.181,5.513,5.513,0,0,1-1.235,1.693,5.78,5.78,0,0,1-1.852,1.147,6.166,6.166,0,0,1-2.276.424m-3.845,13.053,9.949-11.607,9.172-12.065,2.151,1.906-9.631,11.394-9.49,12.278Zm3.845-15.417a1.947,1.947,0,0,0,.97-.247,2.95,2.95,0,0,0,1.34-1.6,3.4,3.4,0,0,0,.2-1.147,3.114,3.114,0,0,0-.742-2.1,2.252,2.252,0,0,0-1.764-.865,1.96,1.96,0,0,0-.97.247,3,3,0,0,0-1.34,1.587,3.258,3.258,0,0,0-.194,1.129,3.185,3.185,0,0,0,.74,2.117,2.239,2.239,0,0,0,1.764.882m13.618,17.428a6.121,6.121,0,0,1-2.293-.424,6,6,0,0,1-1.835-1.129,5.278,5.278,0,0,1-1.235-1.676,5.034,5.034,0,0,1,0-4.2,5.513,5.513,0,0,1,1.235-1.694,5.835,5.835,0,0,1,1.835-1.147,6.212,6.212,0,0,1,6.438,1.147,5.171,5.171,0,0,1,1.235,1.694,5.058,5.058,0,0,1-1.235,5.873,6.244,6.244,0,0,1-1.852,1.129,6.121,6.121,0,0,1-2.293.424m0-2.364a1.947,1.947,0,0,0,.97-.247,2.944,2.944,0,0,0,.794-.652,2.976,2.976,0,0,0,.547-.935,3.4,3.4,0,0,0-.017-2.31,3.475,3.475,0,0,0-.547-.953,2.445,2.445,0,0,0-.794-.635,2.107,2.107,0,0,0-.953-.23,1.957,1.957,0,0,0-.97.247,2.972,2.972,0,0,0-.794.653,2.9,2.9,0,0,0-.547.952,3.384,3.384,0,0,0-.2,1.147,3.114,3.114,0,0,0,.742,2.1,2.252,2.252,0,0,0,1.764.865" transform="translate(49.524 23.73)" fill="#4badcc"/>
            <path id="Trazado_895287" data-name="Trazado 895287" d="M203.515,126.088h-6.191V119.9h1.14v5.047h5.051Z" transform="translate(47.787 29.037)" fill="#4badcc"/>
            <path id="Trazado_895288" data-name="Trazado 895288" d="M233.212,126.088h-6.191v-1.14h5.049V119.9h1.142Z" transform="translate(54.978 29.037)" fill="#4badcc"/>
            <path id="Trazado_895289" data-name="Trazado 895289" d="M198.465,100.4h-1.142V94.213h6.192v1.14h-5.051Z" transform="translate(47.786 22.816)" fill="#4badcc"/>
            <path id="Trazado_895290" data-name="Trazado 895290" d="M233.212,100.4H232.07V95.353h-5.049v-1.14h6.191Z" transform="translate(54.978 22.816)" fill="#4badcc"/>
            <g id="Grupo_1102508" data-name="Grupo 1102508" transform="translate(52.628 109.688)" opacity="0.95">
              <g id="Grupo_1102507" data-name="Grupo 1102507">
                <g id="Grupo_1102506" data-name="Grupo 1102506" clip-path="url(#clip-path-22)">
                  <g id="Grupo_1102505" data-name="Grupo 1102505" transform="translate(0 0)">
                    <g id="Grupo_1102504" data-name="Grupo 1102504" clip-path="url(#clip-path-25)">
                      <rect id="Rectángulo_402836" data-name="Rectángulo 402836" width="68.599" height="68.6" transform="translate(0 0)" fill="url(#linear-gradient-12)"/>
                    </g>
                  </g>
                </g>
              </g>
            </g>
            <rect id="Rectángulo_402838" data-name="Rectángulo 402838" width="31.761" height="2.209" transform="translate(247.971 162.35)" fill="#3f8bc0"/>
            <rect id="Rectángulo_402839" data-name="Rectángulo 402839" width="21.729" height="2.209" transform="translate(247.973 167.652)" fill="#3f8bc0"/>
            <rect id="Rectángulo_402840" data-name="Rectángulo 402840" width="16.028" height="2.209" transform="translate(67.958 161.613)" fill="#3f8bc0"/>
            <rect id="Rectángulo_402841" data-name="Rectángulo 402841" width="23.728" height="2.209" transform="translate(67.959 166.915)" fill="#3f8bc0"/>
            <path id="Trazado_895292" data-name="Trazado 895292" d="M63.765,106.5a2.952,2.952,0,0,0-.448-.334,5.366,5.366,0,0,0-.79-.412,6.793,6.793,0,0,0-1.011-.343,4.432,4.432,0,0,0-1.107-.14,2.482,2.482,0,0,0-1.493.369,1.22,1.22,0,0,0-.492,1.036,1.076,1.076,0,0,0,.184.642,1.589,1.589,0,0,0,.537.447,4.461,4.461,0,0,0,.887.352q.537.158,1.24.334.913.246,1.66.527a4.528,4.528,0,0,1,1.266.7,2.928,2.928,0,0,1,.8,1.011,3.346,3.346,0,0,1,.281,1.448,3.609,3.609,0,0,1-.378,1.714,3.187,3.187,0,0,1-1.019,1.15,4.407,4.407,0,0,1-1.476.641,7.372,7.372,0,0,1-1.749.2,9.409,9.409,0,0,1-2.776-.421,8.6,8.6,0,0,1-2.46-1.195l1.072-2.092a3.382,3.382,0,0,0,.571.414,8.637,8.637,0,0,0,.975.509,7.633,7.633,0,0,0,1.247.431,5.657,5.657,0,0,0,1.406.175q2,0,2-1.282a1.05,1.05,0,0,0-.229-.686,1.927,1.927,0,0,0-.65-.492,6.189,6.189,0,0,0-1.02-.386c-.4-.118-.842-.246-1.334-.388a11.248,11.248,0,0,1-1.555-.535,4.053,4.053,0,0,1-1.1-.686,2.566,2.566,0,0,1-.66-.913,3.162,3.162,0,0,1-.22-1.238,3.886,3.886,0,0,1,.352-1.687,3.424,3.424,0,0,1,.975-1.23,4.433,4.433,0,0,1,1.45-.748,6.023,6.023,0,0,1,1.775-.255,6.877,6.877,0,0,1,2.425.414,9.007,9.007,0,0,1,1.933.975Z" transform="translate(13.421 24.979)" fill="#4badcc"/>
            <path id="Trazado_895293" data-name="Trazado 895293" d="M67.276,115.262a3.488,3.488,0,0,1-1.247-.22,2.982,2.982,0,0,1-1-.615,2.877,2.877,0,0,1-.66-.922,2.8,2.8,0,0,1-.237-1.16,2.549,2.549,0,0,1,.291-1.2,2.773,2.773,0,0,1,.807-.94,4.033,4.033,0,0,1,1.24-.6,5.394,5.394,0,0,1,1.581-.22,6.768,6.768,0,0,1,1.2.106,4.851,4.851,0,0,1,1.045.3v-.527a1.848,1.848,0,0,0-.518-1.406,2.156,2.156,0,0,0-1.538-.492,4.09,4.09,0,0,0-1.441.263,6.694,6.694,0,0,0-1.44.774l-.72-1.494a6.8,6.8,0,0,1,3.83-1.176,4.486,4.486,0,0,1,3.084.975,3.574,3.574,0,0,1,1.1,2.82v2.863a.828.828,0,0,0,.132.528.574.574,0,0,0,.43.175v2a5.238,5.238,0,0,1-1.036.123,1.565,1.565,0,0,1-1.029-.3,1.282,1.282,0,0,1-.447-.79l-.053-.509a4.1,4.1,0,0,1-1.493,1.23,4.3,4.3,0,0,1-1.881.421m.668-1.722a3.074,3.074,0,0,0,1.133-.211,2.056,2.056,0,0,0,.835-.561.849.849,0,0,0,.386-.668v-1.055a5.877,5.877,0,0,0-.913-.255,5.007,5.007,0,0,0-.949-.1,2.511,2.511,0,0,0-1.493.412,1.241,1.241,0,0,0-.58,1.046,1.255,1.255,0,0,0,.457.992,1.656,1.656,0,0,0,1.124.4" transform="translate(15.531 25.603)" fill="#4badcc"/>
            <path id="Trazado_895294" data-name="Trazado 895294" d="M72.746,102.935H75.1v9.874a1.163,1.163,0,0,0,.246.791.884.884,0,0,0,.7.281,1.8,1.8,0,0,0,.466-.07,3.14,3.14,0,0,0,.483-.176l.317,1.792a4.545,4.545,0,0,1-1.107.352,6.057,6.057,0,0,1-1.143.123,2.356,2.356,0,0,1-1.713-.589,2.233,2.233,0,0,1-.606-1.678Z" transform="translate(17.617 24.928)" fill="#4badcc"/>
            <path id="Trazado_895295" data-name="Trazado 895295" d="M81.626,115.263a5.123,5.123,0,0,1-2-.378,4.521,4.521,0,0,1-2.5-2.539,4.848,4.848,0,0,1-.343-1.81,5.127,5.127,0,0,1,.334-1.853,4.534,4.534,0,0,1,.966-1.529,4.622,4.622,0,0,1,1.538-1.046,5.122,5.122,0,0,1,2.028-.386,5,5,0,0,1,2.012.386,4.64,4.64,0,0,1,1.51,1.037,4.393,4.393,0,0,1,.949,1.51,5.018,5.018,0,0,1,.325,1.792c0,.153,0,.3-.009.44a1.918,1.918,0,0,1-.043.352H79.273a2.736,2.736,0,0,0,.263.966,2.366,2.366,0,0,0,1.3,1.176,2.477,2.477,0,0,0,.878.159,2.714,2.714,0,0,0,1.327-.343,1.815,1.815,0,0,0,.852-.906l2.021.563a4.11,4.11,0,0,1-1.626,1.73,5.038,5.038,0,0,1-2.662.677m2.39-5.553a2.449,2.449,0,0,0-.764-1.661,2.461,2.461,0,0,0-2.53-.456,2.291,2.291,0,0,0-.729.465,2.439,2.439,0,0,0-.519.72,2.537,2.537,0,0,0-.236.932Z" transform="translate(18.593 25.603)" fill="#4badcc"/>
            <g id="Grupo_1102513" data-name="Grupo 1102513" transform="translate(130.941 98.406)" opacity="0.95">
              <g id="Grupo_1102512" data-name="Grupo 1102512">
                <g id="Grupo_1102511" data-name="Grupo 1102511" clip-path="url(#clip-path-26)">
                  <g id="Grupo_1102510" data-name="Grupo 1102510" transform="translate(0 0)">
                    <g id="Grupo_1102509" data-name="Grupo 1102509" clip-path="url(#clip-path-27)">
                      <rect id="Rectángulo_402842" data-name="Rectángulo 402842" width="91.162" height="91.162" transform="translate(0 0)" fill="url(#linear-gradient-13)"/>
                    </g>
                  </g>
                </g>
              </g>
            </g>
            <path id="Trazado_895297" data-name="Trazado 895297" d="M130.958,120.881h-6.191v-6.187h1.14v5.046h5.051Z" transform="translate(30.215 27.776)" fill="#4badcc"/>
            <path id="Trazado_895298" data-name="Trazado 895298" d="M160.655,120.881h-6.191v-1.142h5.049v-5.046h1.142Z" transform="translate(37.407 27.776)" fill="#4badcc"/>
            <path id="Trazado_895299" data-name="Trazado 895299" d="M125.908,91.184h-1.14V85h6.191v1.142h-5.051Z" transform="translate(30.215 20.584)" fill="#4badcc"/>
            <path id="Trazado_895300" data-name="Trazado 895300" d="M160.655,91.184h-1.142V86.138h-5.049V85h6.191Z" transform="translate(37.407 20.584)" fill="#4badcc"/>
            <path id="Trazado_895301" data-name="Trazado 895301" d="M160.873,121.1H129.465V89.693h31.408Zm-28.484-2.924h25.561V92.616H132.389Z" transform="translate(31.353 21.721)" fill="#4badcc"/>
            <rect id="Rectángulo_402844" data-name="Rectángulo 402844" width="24.102" height="3.654" transform="translate(164.461 118.318)" fill="#4badcc"/>
            <path id="Trazado_895302" data-name="Trazado 895302" d="M161.847,147.762a10.046,10.046,0,1,1,10.047-10.047,10.058,10.058,0,0,1-10.047,10.047m0-18.148a8.1,8.1,0,1,0,8.1,8.1,8.111,8.111,0,0,0-8.1-8.1" transform="translate(36.762 30.918)" fill="#4badcc"/>
            <path id="Trazado_895303" data-name="Trazado 895303" d="M160.262,140.348l-4.564-4.564,1.374-1.375,3.19,3.189,4.471-4.471,1.375,1.375Z" transform="translate(37.706 32.24)" fill="#4badcc"/>
            <rect id="Rectángulo_402845" data-name="Rectángulo 402845" width="6.16" height="1.142" transform="translate(173.432 152.186)" fill="#4badcc"/>
            <rect id="Rectángulo_402846" data-name="Rectángulo 402846" width="35.843" height="2.209" transform="translate(144.359 164.879)" fill="#3f8bc0"/>
            <rect id="Rectángulo_402847" data-name="Rectángulo 402847" width="16.992" height="2.209" transform="translate(144.359 170.181)" fill="#3f8bc0"/>
            <path id="Trazado_895304" data-name="Trazado 895304" d="M274.243,153.527s1.1-2.058,1.281-2.366A5.622,5.622,0,0,1,277.666,150a6.529,6.529,0,0,1,2.863-.379,1,1,0,0,1,.549.632,1.927,1.927,0,0,1,.056.976,1.173,1.173,0,0,1,.3,1.093,1.019,1.019,0,0,1,.111,1.13.856.856,0,0,1,.137.934,7.732,7.732,0,0,0-1.179.7,16.352,16.352,0,0,1-4.172,1.52s-2-.181-2.086-3.079" transform="translate(66.414 36.223)" fill="#eea886"/>
            <path id="Trazado_895305" data-name="Trazado 895305" d="M276.886,152.08a5.719,5.719,0,0,1-.3,1.481c-.2.313,2.25,1.32,2.25,1.32s-.532-2.635-1.948-2.8" transform="translate(66.979 36.83)" fill="#cf8c6c"/>
            <path id="Trazado_895306" data-name="Trazado 895306" d="M278.582,155.976c-.087.036-.178.071-.272.107l-.144.055-.148.056c.07.24.14.458.206.646l.631-.017h0c-.083-.225-.18-.513-.273-.845m-.482-1.57c.068.143.129.286.183.425.014.035.026.07.039.1s.027.075.04.111a7.781,7.781,0,0,1-.132-2.226.56.56,0,0,1-.026.056l-.014.022-.014.021-.006.009-.015.017-.005.006-.019.02a.689.689,0,0,1-.137.108l-.029.017a1.072,1.072,0,0,1-.165.077l-.045.017h0l-.046.014a.348.348,0,0,1-.039.011.523.523,0,0,1-.063.016h0c0,.125,0,.252,0,.378l.012.014.053.066.052.067.071.1c.017.026.034.05.05.076l.01.015c.019.029.036.057.053.087.055.089.106.183.152.277.017.031.031.062.047.093m12.763,2.227-.029-.164-.165-.947a13.125,13.125,0,0,0-.879-2.59,8.834,8.834,0,0,0-3.348-4.026,5.864,5.864,0,0,0-3.679-.725,8.42,8.42,0,0,0-1.745.4,5.482,5.482,0,0,0-1.718.915,4.341,4.341,0,0,0-.947,1.061,4.313,4.313,0,0,0-.324.615,5.062,5.062,0,0,0-.3.966,6.448,6.448,0,0,0-.127,1.1c0,.125,0,.252,0,.378a8.875,8.875,0,0,0,.111,1.214c.037.237.082.467.132.686.055.242.114.471.176.683.07.24.14.458.206.646l.014.038c.1.293.2.513.246.631l.042.1.1.206,6.171-.139,6.227-.142Zm-1.082.607-2.349-.021-8.452-.072c-.03-.072-.066-.163-.1-.268-.007-.019-.014-.037-.021-.057h0c-.083-.225-.18-.513-.273-.845-.015-.052-.03-.1-.043-.159-.031-.116-.061-.236-.091-.359s-.06-.271-.087-.412h0a7.781,7.781,0,0,1-.132-2.226h0c0-.05.01-.1.016-.15v0a4.679,4.679,0,0,1,.333-1.261,3.753,3.753,0,0,1,1.058-1.412h0l.046-.039a4.89,4.89,0,0,1,1.525-.807,7.858,7.858,0,0,1,1.375-.338,5.347,5.347,0,0,1,3.56.616,5.538,5.538,0,0,1,1.129.887l0,0a13.491,13.491,0,0,1,3.136,6.169c.015.076.029.149.04.221a4.9,4.9,0,0,1,.067.544Zm-11.552-4.422a.56.56,0,0,1-.026.056l-.014.022-.014.021-.006.009-.015.017-.005.006-.019.02a.689.689,0,0,1-.137.108l-.029.017a1.072,1.072,0,0,1-.165.077l-.045.017h0l-.046.014a.348.348,0,0,1-.039.011c-.02.006-.042.011-.063.016h0c0,.125,0,.252,0,.378l.012.014.053.066.052.067.071.1c.017.025.034.051.05.076l.01.015c.019.029.036.057.053.087.055.089.106.183.152.277l.047.093c.068.143.129.286.183.425.014.035.026.07.039.1s.027.075.04.111a7.781,7.781,0,0,1-.132-2.226m.353,3.158c-.087.036-.178.071-.272.107l-.144.055-.148.056c.07.24.14.458.206.646l.631-.019c-.083-.225-.18-.513-.273-.845" transform="translate(67.227 35.875)" fill="#23344a"/>
            <path id="Trazado_895307" data-name="Trazado 895307" d="M305.972,181.752l-29.2,3.8-4.951-26.743,30.529-5.222Z" transform="translate(65.828 37.195)" fill="#eb4747"/>
            <path id="Trazado_895308" data-name="Trazado 895308" d="M290.016,157.233V157.2c0-.016-.006-.153-.026-.381-.007-.092-.019-.2-.034-.32a14.657,14.657,0,0,0-.41-2.15,10.167,10.167,0,0,0-2.035-4.038l0,0a6.416,6.416,0,0,0-.756-.734A6.206,6.206,0,0,0,283,148.175a9,9,0,0,0-1.842.114,5.041,5.041,0,0,0-3.31,1.827q-.134.171-.253.358a5.46,5.46,0,0,0-.607,1.312,7.24,7.24,0,0,0-.283,1.3c-.01.072-.017.145-.025.219s-.015.152-.021.226h0c-.022.293-.031.584-.029.863,0,.094,0,.189,0,.282a12.61,12.61,0,0,0,.225,1.971c.016.084.032.16.047.23h0c.048.221.084.359.093.388l.063.231,1.658,0,7.18.014,4.128.007Zm-11.544-.361-.924,0,0-.009c-.022-.1-.051-.24-.081-.4h0a12.53,12.53,0,0,1-.171-1.34c-.025-.332-.037-.687-.029-1.056.006-.253.022-.513.052-.775,0-.036.007-.072.012-.108a6.946,6.946,0,0,1,.186-.964c0-.016.01-.032.014-.05.017-.065.037-.129.058-.193a4.835,4.835,0,0,1,.535-1.159.5.5,0,0,1,.027-.042,3.927,3.927,0,0,1,.719-.82,3.883,3.883,0,0,1,.666-.463,5.148,5.148,0,0,1,1.719-.575,8.361,8.361,0,0,1,1.564-.112,5.633,5.633,0,0,1,3.533,1.256c2.176,1.787,2.8,5.03,2.97,6.457.017.147.03.273.04.379l-10.25-.021Z" transform="translate(66.992 35.882)" fill="#23344a"/>
            <path id="Trazado_895309" data-name="Trazado 895309" d="M302.333,185.787l-34.084-2.625,2.739-27.612,31.67-.932Z" transform="translate(64.963 37.444)" fill="#faa146"/>
            <path id="Trazado_895310" data-name="Trazado 895310" d="M220.332,168.739s.279-2.318.312-2.673a5.637,5.637,0,0,0-1.087-2.181,6.537,6.537,0,0,0-2.125-1.955,1,1,0,0,0-.814.2,1.934,1.934,0,0,0-.606.766,1.176,1.176,0,0,0-.872.723,1.021,1.021,0,0,0-.74.863s-.617.155-.648.684a7.8,7.8,0,0,1,.564,1.251,16.28,16.28,0,0,0,2.54,3.641s1.745,1,3.477-1.322" transform="translate(51.765 39.212)" fill="#eea886"/>
            <path id="Trazado_895311" data-name="Trazado 895311" d="M223.05,165.005a4.505,4.505,0,0,0-2.821-1.522h0a6.231,6.231,0,0,0-.838-.073c-.214,0-.422,0-.627.007h0a6.718,6.718,0,0,0-3.282.939h0a5.787,5.787,0,0,0-1.211,1,8.9,8.9,0,0,0-2.01,4.884,14.337,14.337,0,0,0-.1,2.3c.012.28.03.446.031.465l.032.311,10.711-1.52,1.545-.22.03-.226c0-.036.031-.243.05-.571a10.482,10.482,0,0,0-.544-4.1,5.591,5.591,0,0,0-.966-1.671m.9,5.862c0,.068-.009.128-.012.18l-2.166.308-9,1.277c0-.052,0-.111-.009-.175-.042-1.248.039-4.611,1.949-6.687.118-.127.24-.247.366-.36h0a5.99,5.99,0,0,1,4.2-1.395h.1a4.843,4.843,0,0,1,1.878.389,3.748,3.748,0,0,1,1.334.994,4.611,4.611,0,0,1,.621.944,9.52,9.52,0,0,1,.737,4.526" transform="translate(51.377 39.573)" fill="#23344a"/>
            <path id="Trazado_895312" data-name="Trazado 895312" d="M201.683,200.947l2.236-28.774,4.991,28.372-3.452-.6Z" transform="translate(48.842 41.696)" fill="#ba3838"/>
            <path id="Trazado_895313" data-name="Trazado 895313" d="M208.489,201.415l29.648-5.212-4.851-27.617-29.867,4.245Z" transform="translate(49.263 40.827)" fill="#e64646"/>
            <path id="Trazado_895314" data-name="Trazado 895314" d="M235.721,175.845a3.934,3.934,0,0,0-.125-.451,3.586,3.586,0,0,0-.95-1.469,4.566,4.566,0,0,0-1.369-.866,7.068,7.068,0,0,0-1.421-.44,5.471,5.471,0,0,0-1.114-.1,4.756,4.756,0,0,0-1.986.472,5.236,5.236,0,0,0-.5.281,7.741,7.741,0,0,0-2.482,2.779l0,.006q-.021.034-.037.067a11.8,11.8,0,0,0-.593,1.253,8.572,8.572,0,0,0-.3.841l-.23.909-.035.139-.046.181-.1.415,3.768.368,1.39.135h0l2.471.242,2.64.257.092-.164c.006-.01.02-.036.042-.078.037-.071.1-.186.165-.338.026-.052.051-.109.078-.17a7.381,7.381,0,0,0,.652-4.272m-1.183,4.233c-.029.062-.055.118-.078.165l-.025.051-1.753-.116-5.026-.334-.238-.015h0l-1.95-.13-.611-.04c.007-.058.017-.119.03-.181.007-.045.017-.091.027-.137s.02-.086.031-.129a9.335,9.335,0,0,1,.527-1.493,10.64,10.64,0,0,1,2.5-3.6c.03-.027.061-.053.093-.08h0a4.566,4.566,0,0,1,.747-.513c.053-.03.108-.057.163-.084a4.2,4.2,0,0,1,1.371-.394l.042,0h.006a4.883,4.883,0,0,1,1.573.111,6.566,6.566,0,0,1,1.12.365,3.424,3.424,0,0,1,2.042,2.038,3.948,3.948,0,0,1,.2,1.13,8.024,8.024,0,0,1-.789,3.394" transform="translate(54.349 41.78)" fill="#23344a"/>
            <path id="Trazado_895315" data-name="Trazado 895315" d="M215.452,200.476l24.3,3.161,4.134-22.27-25.4-4.346Z" transform="translate(52.177 42.87)" fill="#eb4747"/>
            <path id="Trazado_895316" data-name="Trazado 895316" d="M211.467,199.77l7.964-22.733-3.015,23.292-2.579-.96Z" transform="translate(51.212 42.874)" fill="#ad3434"/>
            <path id="Trazado_895317" data-name="Trazado 895317" d="M235.7,174.329a.145.145,0,0,0-.016-.022,4.117,4.117,0,0,0-2.949-1.794,7.437,7.437,0,0,0-1.533-.1,5.753,5.753,0,0,0-1.219.184h0c-.143.038-.283.082-.42.132h0c-.112.041-.221.084-.329.133l-.012.006a4.911,4.911,0,0,0-1.073.652l-.067.055a5.272,5.272,0,0,0-.642.625c-.083.093-.163.19-.237.287l-.007.01a7,7,0,0,0-.585.9v0a9.675,9.675,0,0,0-.851,2.153c-.071.261-.129.511-.175.744-.039.186-.07.363-.1.525v.007c-.052.322-.081.589-.1.78-.005.067-.01.125-.012.173-.006.086-.009.135-.009.144v.03l-.009.242,2.607,0h.829l3.466-.007,2.508,0,1.38,0,.052-.193c0-.015.019-.065.039-.148.164-.684.735-3.529-.533-5.505m-7.289-.347a4.509,4.509,0,0,1,.732-.491l.029-.015a4.874,4.874,0,0,1,2.179-.539,6.886,6.886,0,0,1,1.3.093,4.365,4.365,0,0,1,1.431.477,3.3,3.3,0,0,1,1.175,1.1c.068.108.132.22.19.333a7.764,7.764,0,0,1,.287,4.707h-.768l-.532,0-1.6,0-5.661.01-1.235,0h-.031c.019-.221.058-.563.132-.976a7.976,7.976,0,0,1,2.373-4.712" transform="translate(54.574 41.753)" fill="#23344a"/>
            <path id="Trazado_895318" data-name="Trazado 895318" d="M213.376,202.868l5.4-24.563.923,25.281-2.948-1.128Z" transform="translate(51.674 43.181)" fill="#b06e2a"/>
            <path id="Trazado_895319" data-name="Trazado 895319" d="M216.25,168.956s1.819,1.615,2.755,1.643,1.415-2.544,1.415-2.544l-.809-1.578Z" transform="translate(52.37 40.317)" fill="#eea886"/>
            <path id="Trazado_895320" data-name="Trazado 895320" d="M273.3,154.265a8.087,8.087,0,0,0,1.311-1.6c.4-.745,2.212,3.179,2.212,3.179a7.959,7.959,0,0,0-3.252.793c-.993.7-.271-2.369-.271-2.369" transform="translate(66.124 36.948)" fill="#eea886"/>
            <path id="Trazado_895321" data-name="Trazado 895321" d="M279.665,149.709s-2.687,1.115-2.561,1.57a.741.741,0,0,0,.448.545l-.9.961s-.235.971.892.944c0,0-.313.884.771.728,0,0,.053.676.569.692a9.654,9.654,0,0,0,2.215-.773s.316-.328-.106-.934a7.528,7.528,0,0,0-.414-2.233s.34-1.2-.632-1.6c0,0-.171.051-.284.1" transform="translate(66.993 36.232)" fill="#db9c7c"/>
            <path id="Trazado_895322" data-name="Trazado 895322" d="M275.4,150.816a9.9,9.9,0,0,1,3.038.724c.237.128.443.294.415.563s-.455.568-1.32.542a7.324,7.324,0,0,0-2,.338s-.882-.286-.137-2.166" transform="translate(66.621 36.524)" fill="#eea886"/>
            <path id="Trazado_895323" data-name="Trazado 895323" d="M217.948,165.4a5.735,5.735,0,0,0-.6,1.385c-.019.369-2.6-.211-2.6-.211s1.949-1.852,3.2-1.174" transform="translate(52.005 40.02)" fill="#cf8c6c"/>
            <path id="Trazado_895324" data-name="Trazado 895324" d="M217.608,162.176s1.559,2.456,1.194,2.756a.742.742,0,0,1-.681.189l.184,1.3a.757.757,0,0,1-1.273.261s-.251.9-1.05.153c0,0-.432.523-.863.24a9.674,9.674,0,0,1-1.368-1.9s-.07-.455.624-.708a1.014,1.014,0,0,1,.748-.857,1.088,1.088,0,0,1,.865-.728s.421-1.181,1.445-.947c0,0,.112.139.176.243" transform="translate(51.764 39.208)" fill="#db9c7c"/>
            <path id="Trazado_895325" data-name="Trazado 895325" d="M219.97,165.418a9.884,9.884,0,0,0-2.9-1.153c-.267-.031-.533-.014-.663.222s.047.725.77,1.2a7.318,7.318,0,0,1,1.44,1.424s.886.272,1.356-1.7" transform="translate(52.398 39.778)" fill="#eea886"/>
            <path id="Trazado_895326" data-name="Trazado 895326" d="M246.939,252.945c-1.391.417-1.809,2.782-2.99,3.478s-6.955,1.181-7.164-.626,2.421-3.43,3.6-4.333a22.491,22.491,0,0,0,4.38-5.057s.478.753,1.892.522,1.648-.606,1.648-.606a8.169,8.169,0,0,0,.578,2.936,2.9,2.9,0,0,1-1.948,3.686" transform="translate(57.34 59.653)" fill="#faa146"/>
            <path id="Trazado_895327" data-name="Trazado 895327" d="M254.3,253.284c-1.073.978-1.277,2.537-2.46,3.232a6.175,6.175,0,0,1-1.807.544c-1.443.258-3.276.314-4.172-.209a.988.988,0,0,1-.539-.748c-.209-1.807,2.471-3.833,3.653-4.738a9.774,9.774,0,0,0,2.082-3.038c.374-.743.687-1.443.9-1.9h0a.809.809,0,0,0,.243.255,1.98,1.98,0,0,0,1.517.216,3.5,3.5,0,0,0,1.7-.6l.017-.016.017-.017.005-.006,0,0h0c.234,1.13.6,2.284.74,2.827.487,1.878-.881,3.272-1.9,4.2" transform="translate(59.408 59.638)" fill="#faa146"/>
            <path id="Trazado_895328" data-name="Trazado 895328" d="M246.187,136.994a6.034,6.034,0,0,1,6.144,3.889c1.628,4.361,3.161,5.79,3.353,8.082.776,9.269,5.1,7.172,3.887,12.515s-2.06,6.151-2.06,6.151l-10.349-2.03-10.483.035s4.1-2.048,3.187-6.411-3.187-11.511-1.9-16.381,5.524-5.479,8.223-5.851" transform="translate(57.317 33.173)" fill="#223247"/>
            <path id="Trazado_895329" data-name="Trazado 895329" d="M218.644,203.61l26.217-.918.479-24.483H217.746Z" transform="translate(52.732 43.157)" fill="#faa146"/>
            <path id="Trazado_895330" data-name="Trazado 895330" d="M306.895,179.795l-10.5-26.207,3.622,28.165,3.057-1.791Z" transform="translate(71.78 37.195)" fill="#ad3434"/>
            <path id="Trazado_895331" data-name="Trazado 895331" d="M303.292,184.923l-7.278-30.3-.325,31.167,3.543-1.355Z" transform="translate(71.608 37.445)" fill="#b06e2a"/>
            <path id="Trazado_895332" data-name="Trazado 895332" d="M239.731,189.643s-3.806,13.266-4.471,16.651-2.523,19.783-2.722,22.572,6.215,15.861,6.565,16.8c1.355,3.65,6.888,16.887,6.888,16.887s3.575,2.124,3.175-.989c-1.216-9.448-1.786-11.786-2.637-16.691-1.864-10.74-5.714-12.15-5.125-13.716,5.957-15.84,7.157-26.589,7.955-27.518s.906.473,1.37,2.532-.188,16.224.648,21.691c.456,2.976,1.482,9.652,1.814,13.5s2.071,21.67,2.071,21.67.229.665,2.886-.8c.44-.245,2.546-15.751,2.614-20.331s-1.96-5.236-.335-14.1c3.483-19.007,3-22.282-1.06-35.944-9.936-33.427-19.635-2.211-19.635-2.211" transform="translate(56.314 42.72)" fill="#eea886"/>
            <path id="Trazado_895333" data-name="Trazado 895333" d="M290.006,156.392c-.159-.164-9.817,7.232-10.871,7.842-2.072,1.2-4.328,1.137-6.67,1.279-2.627.16-5.611-.118-8.19.4-1.337.268-1.494.617-2.191,2.04-1.894,3.869-2.508,8.679-2.76,12.935-.262,4.437,1.441,7.519,3.228,11.433.606,1.33,1.465,2.7.286,3.917-1.061,1.093-3.141,1.315-4.533,1.5-3.421.447-8.662.72-11.955-.637-4.03-1.662-3.308-6.734-3.739-10.276a63.784,63.784,0,0,0-2.091-8.218,13.832,13.832,0,0,1-.6-5.632c-1.256,3.569-2.315,9.668-5.7,11.932-2.618,1.753-4.957-.6-6.838-2.236q-5.355-4.658-10.71-9.318l2.283-2.108a7.365,7.365,0,0,1,.547-.52c.666-.534.59-.729,1.281-.258.461.314,1.7,1.46,2.087,1.825,1.293,1.2,2.428,1.933,3.722,3.135,1.124,1.046,3.051,3.472,4.776,2.625,1.328-.652,1.689-3.351,2.145-4.556,1.267-3.348,2.544-6.718,4.054-9.965,1.616-3.474,5.195-5.32,8.664-6.7,3-1.2,7.024-.958,10.072-.183,2.139.545,2.9.578,5.032,1.169,2.033.565,3.936,1.289,6,1.715a38.317,38.317,0,0,0,7.31.7A6.094,6.094,0,0,0,279,158.8c2.182-1.514,5.374-4.129,7.77-5.34,1.539-.778,2.066,1.729,3.241,2.935" transform="translate(52.474 37.128)" fill="#f0ddd5"/>
            <path id="Trazado_895334" data-name="Trazado 895334" d="M248.149,151.655s-.363,4.509.506,5.861-.743,3.184-4.063,2.556-3.127-2.509-3.127-2.509a13.777,13.777,0,0,0,.658-5.01c-.272-2.227,6.026-.9,6.026-.9" transform="translate(58.476 36.631)" fill="#eea886"/>
            <path id="Trazado_895335" data-name="Trazado 895335" d="M250.5,156.205s-2.994,6.993-6.873,8.455a9.436,9.436,0,0,1-2.795-8.426s4.936-2.529,9.668-.03" transform="translate(58.281 37.562)" fill="#eea886"/>
            <path id="Trazado_895336" data-name="Trazado 895336" d="M246.2,139.054s5.982.863,5.107,9.694-6.155,8.131-6.508,8.124-5.3.184-5.725-10.593c0,0-.2-7.969,7.126-7.224" transform="translate(57.897 33.663)" fill="#eea886"/>
            <path id="Trazado_895337" data-name="Trazado 895337" d="M245.634,142.527s2.795,2.939,4.093,4.427,1.448,4.361,1.448,4.361a6.889,6.889,0,0,0,1.272-5.782c-.914-3.11-3.078-9.164-8.556-7.3s-5.682,10.043-5.039,14.1c0,0,2.46-8.957,6.782-9.8" transform="translate(57.782 33.391)" fill="#223247"/>
            <path id="Trazado_895338" data-name="Trazado 895338" d="M242.41,153.233a5.017,5.017,0,0,0,5.151-.742,3.784,3.784,0,0,1-2.733,1.745,2.642,2.642,0,0,1-2.419-1" transform="translate(58.705 36.929)" fill="#a77860"/>
            <path id="Trazado_895339" data-name="Trazado 895339" d="M229.979,172.563a2.053,2.053,0,0,1-.714.822c-2.734,1.476-3.21,4.959-3.305,6.191l-.58-.006c.479-6.42,4.6-7.007,4.6-7.007" transform="translate(54.581 41.79)" fill="#23344a"/>
            <path id="Trazado_895340" data-name="Trazado 895340" d="M230.155,172.591s-4.417.21-5.662,6.906l.453.071s.866-4.935,4.39-6.259a2.045,2.045,0,0,0,.819-.718" transform="translate(54.366 41.797)" fill="#23344a"/>
            <path id="Trazado_895341" data-name="Trazado 895341" d="M259.831,186.473s6.041,12.511,1.98,37.894c0,0-12.321-1.154-30.8-2.474,0,0,8.406-34.144,8.642-36.314s20.178.894,20.178.894" transform="translate(55.945 44.754)" fill="#f0ddd5"/>
            <path id="Trazado_895342" data-name="Trazado 895342" d="M243.284,245.633a2.68,2.68,0,0,0,3.322-.383l.127,1.332s-2.725,2.453-3.448-.183Z" transform="translate(58.917 59.393)" fill="#eea886"/>
            <path id="Trazado_895343" data-name="Trazado 895343" d="M251.35,245.469s1.03.93,2.587-.461l.2,1.554s-2.652,2.714-3.375.078Z" transform="translate(60.728 59.334)" fill="#eea886"/>
            <path id="Trazado_895344" data-name="Trazado 895344" d="M243.536,246.175s-1.42,1.693-1.281,1.971,3.235.9,3.7.243a13.347,13.347,0,0,0,1.025-2.032s-2.707,1.2-3.448-.183" transform="translate(58.665 59.617)" fill="#db8d3d"/>
            <path id="Trazado_895345" data-name="Trazado 895345" d="M251.064,246.147s-1.323,1.865-1.184,2.143,2.884.723,3.354.062a17.554,17.554,0,0,0,1.119-2.066s-2.548,1.245-3.289-.139" transform="translate(60.512 59.61)" fill="#db8d3d"/>
            <path id="Trazado_895346" data-name="Trazado 895346" d="M237.829,184.606s7.257,2.689,17.737-3.236c0,0,.42.855.888,2.03,0,0-9.555,5.9-18.445,3.01a6.448,6.448,0,0,1-.18-1.8" transform="translate(57.589 43.923)" fill="#ff4d4d"/>
            <path id="Trazado_895347" data-name="Trazado 895347" d="M236.459,164.233a23.51,23.51,0,0,0-.927,6.09s-.272,1.027-.707,2.247c-.12-5.83,1.633-8.337,1.633-8.337" transform="translate(56.867 39.773)" fill="#b0a39c"/>
            <path id="Trazado_895348" data-name="Trazado 895348" d="M117.769,179.949l13.316,7.32,13.372-21.044-16.173-5.618Z" transform="translate(28.521 38.895)" fill="#292c47"/>
            <path id="Trazado_895349" data-name="Trazado 895349" d="M118.449,179.2,130.9,186.04l12.506-19.679-15.126-5.254Z" transform="translate(28.685 39.016)" fill="#fff"/>
            <path id="Trazado_895350" data-name="Trazado 895350" d="M114.778,173.559s2.318-1.108,3.335-1.688,3.635-1.374,3.846-1.563,7.757-.655,8.214-1.05.9.925-1.053,1.354-4.677,1.476-4.826,2.24,2.009.945,2.227,1.575-.061.489-.37.624-2.566-1.114-3.559-.76-2.51-.137-3.271.124-4.461,1.505-4.461,1.505Z" transform="translate(27.796 40.972)" fill="#eea886"/>
            <path id="Trazado_895351" data-name="Trazado 895351" d="M129.439,182.547s1.948-1.753,2.889-2.486,2.71-2.889,2.971-3.015,3.637-7.056,4.187-7.334-.52-1.211-1.686.466-3.212,3.833-3.991,3.676-.108-2.261-.617-2.713-.483-.132-.732.107.052,2.853-.67,3.65-.848,2.419-1.39,3.035-3.155,3.616-3.155,3.616Z" transform="translate(30.816 40.976)" fill="#eea886"/>
            <path id="Trazado_895352" data-name="Trazado 895352" d="M96.333,255.425s-.421,2.924-.473,3.363-4.685-.258-4.685-.258l-.375-3.481s4.955-.036,5.534.376" transform="translate(21.989 61.766)" fill="#424773"/>
            <path id="Trazado_895353" data-name="Trazado 895353" d="M96.049,257.8a12.511,12.511,0,0,0,2.888,2.529c1.419.768,3.65,1.072,4.489,1.867.606.574,2.207,3.043-3.689,2.994s-8.739.349-9.37-.6.913-6.99.913-6.99a12.5,12.5,0,0,0,4.769.2" transform="translate(21.848 62.384)" fill="#292c47"/>
            <path id="Trazado_895354" data-name="Trazado 895354" d="M123.056,255.425s-.421,2.924-.473,3.363-4.685-.258-4.685-.258l-.375-3.481s4.955-.036,5.534.376" transform="translate(28.461 61.766)" fill="#424773"/>
            <path id="Trazado_895355" data-name="Trazado 895355" d="M122.772,257.8a12.511,12.511,0,0,0,2.888,2.529c1.42.768,6.643,1.4,7.483,2.194.606.574,1.614,2.883-6.683,2.667-5.894-.153-8.739.349-9.37-.6s.913-6.99.913-6.99,1.317.537,4.769.2" transform="translate(28.319 62.384)" fill="#292c47"/>
            <path id="Trazado_895356" data-name="Trazado 895356" d="M100.31,194.876s-4.353,6.916-4.028,13.168S94.7,221.121,94.05,227.652c-.729,7.28-3.713,24.516-3.821,28.411s.463,16.33.463,16.33l5.972.137s5.016-30.133,6.314-33.207,7.741-24.994,7.957-27.453-10.626-16.993-10.626-16.993" transform="translate(21.848 47.194)" fill="#292c47"/>
            <path id="Trazado_895357" data-name="Trazado 895357" d="M121.685,196.045s3.281,17.135,3.713,20.96.722,18.517.939,20.91,1.443,31.293,2.6,34.847H121.3s-5.861-21.011-5.861-30.952-4.528-21.613-7.451-28.171-9.613-6.714-11.409-18.884c0,0,22.673-2.569,25.106,1.291" transform="translate(23.389 46.961)" fill="#292c47"/>
            <path id="Trazado_895358" data-name="Trazado 895358" d="M104.9,148.169s5.843-2.182,8.537,2.266,2.433,13.351-.512,14.446-7.369.522-8.877-2.261-2.869-6.807-2.8-9.5,2.12-4.18,3.654-4.956" transform="translate(24.519 35.753)" fill="#eea886"/>
            <path id="Trazado_895359" data-name="Trazado 895359" d="M111.971,162.764a5.048,5.048,0,0,0,.159,2.355c.4.776-7.57.8-7.57.8a52.484,52.484,0,0,0-1.874-7.8c-1.226-3.571,9.285,4.646,9.285,4.646" transform="translate(24.844 38.074)" fill="#eea886"/>
            <path id="Trazado_895360" data-name="Trazado 895360" d="M103.1,160.571s.55.908,2.8.555,4.986-3.34,5.923-3.668.947-.878.947-.878l.588.857,1,.063s-.908-2.673.462-3.764-1.422-8.65-8.626-6.134c0,0-5.531,1.525-5.33,4.672s1.006,6.73,2.245,8.3" transform="translate(24.424 35.622)" fill="#3a3f47"/>
            <path id="Trazado_895361" data-name="Trazado 895361" d="M112.4,163.929s-.025-1.484-.7-1.627-7.428-.791-8.254-.467v1.729s1.591.98,8.952.365" transform="translate(25.051 39.17)" fill="#e2d2ca"/>
            <path id="Trazado_895362" data-name="Trazado 895362" d="M110.737,154.032c-.125-.528-1.468-2.036-1.981-.421s.776,3.786,1.5,3.6.8-1.842.486-3.18" transform="translate(26.309 37.025)" fill="#eea886"/>
            <path id="Trazado_895363" data-name="Trazado 895363" d="M132.236,177.626h-.011c.046.021.053.022.011,0" transform="translate(32.021 43.016)" fill="#323657"/>
            <path id="Trazado_895364" data-name="Trazado 895364" d="M94.654,219.02a61.907,61.907,0,0,0,9.694,1.729c6.11.673,21.377-.245,21.473-.965s-3.284-26.881-3.092-28.228.3-6.146.3-6.146a33.793,33.793,0,0,0,3.032,9.616c.585,1.058,2.545,4.375,3.489,3.62,4.574-3.652,11.657-17.413,12.106-17.528-.378-.164-3.356-1.535-3.775-1.676-.366-.122-3.666,3.372-5.666,5.538-.891.965-1.524,1.667-1.524,1.667-.576-1.3-2.679-9.482-3.333-12.314-1.474-6.387-1.247-6.653-1.247-6.653-4.471-1.352-11.255-4.1-11.255-4.1l-8.954-.365s-8.217,1.809-11.453,3.271c-.307.139-.308,7.33-1.15,9.217l2.683,5.659s1.549,11.212,1.871,16.2c.148,2.288-3.2,21.465-3.2,21.465" transform="translate(22.594 39.525)" fill="#e64646"/>
            <path id="Trazado_895365" data-name="Trazado 895365" d="M93.134,184.4a3.531,3.531,0,0,0,1.985,1.671,2.555,2.555,0,0,0,1.433.144l.35-.065,6.135-1.138s1.343-15.461-8.381-19.165c-.257.084-3.671,11.63-1.523,18.553" transform="translate(22.384 40.162)" fill="#e64646"/>
            <path id="Trazado_895366" data-name="Trazado 895366" d="M94.594,183.648h0a2.555,2.555,0,0,0,1.433.144l.35-.065-.6-7.9Z" transform="translate(22.908 42.581)" fill="#e64646"/>
            <path id="Trazado_895367" data-name="Trazado 895367" d="M123.4,182.4l.75,3.175a25.073,25.073,0,0,0,.774-4.842c-.891.965-1.524,1.667-1.524,1.667" transform="translate(29.884 43.769)" fill="#a13131"/>
            <path id="Trazado_895368" data-name="Trazado 895368" d="M103.522,148.491s-7.658-.883-.13,11.907Z" transform="translate(24.237 35.957)" fill="#3a3f47"/>
            <path id="Trazado_895369" data-name="Trazado 895369" d="M135.494,164.894l.778-1.338-6.13-2.115-.778,1.33Z" transform="translate(31.328 39.097)" fill="#292c47"/>
          </g>
        </g>
        <g id="Grupo_1102517" data-name="Grupo 1102517" transform="translate(24.656 208.567)">
          <g id="Grupo_1102516" data-name="Grupo 1102516" clip-path="url(#clip-path-28)">
            <rect id="Rectángulo_402849" data-name="Rectángulo 402849" width="21.539" height="21.541" transform="translate(0)" fill="url(#linear-gradient-14)"/>
          </g>
        </g>
        <g id="Grupo_1102519" data-name="Grupo 1102519">
          <g id="Grupo_1102518" data-name="Grupo 1102518" clip-path="url(#clip-path)">
            <rect id="Rectángulo_402851" data-name="Rectángulo 402851" width="5.007" height="2.504" transform="translate(32.921 208.567)" fill="#ffc59c"/>
          </g>
        </g>
        <g id="Grupo_1102521" data-name="Grupo 1102521" transform="translate(10.278 251.648)">
          <g id="Grupo_1102520" data-name="Grupo 1102520" clip-path="url(#clip-path-30)">
            <rect id="Rectángulo_402853" data-name="Rectángulo 402853" width="21.539" height="21.539" transform="translate(0)" fill="url(#linear-gradient-15)"/>
          </g>
        </g>
        <g id="Grupo_1102523" data-name="Grupo 1102523">
          <g id="Grupo_1102522" data-name="Grupo 1102522" clip-path="url(#clip-path)">
            <rect id="Rectángulo_402855" data-name="Rectángulo 402855" width="5.007" height="2.503" transform="translate(18.543 251.648)" fill="#ffc59c"/>
          </g>
        </g>
        <g id="Grupo_1102525" data-name="Grupo 1102525" transform="translate(31.817 251.648)">
          <g id="Grupo_1102524" data-name="Grupo 1102524" clip-path="url(#clip-path-30)">
            <rect id="Rectángulo_402857" data-name="Rectángulo 402857" width="21.539" height="21.539" transform="translate(0)" fill="url(#linear-gradient-16)"/>
          </g>
        </g>
        <g id="Grupo_1102527" data-name="Grupo 1102527">
          <g id="Grupo_1102526" data-name="Grupo 1102526" clip-path="url(#clip-path)">
            <rect id="Rectángulo_402859" data-name="Rectángulo 402859" width="5.007" height="2.503" transform="translate(40.084 251.648)" fill="#ffc59c"/>
          </g>
        </g>
        <g id="Grupo_1102529" data-name="Grupo 1102529" transform="translate(53.356 251.648)">
          <g id="Grupo_1102528" data-name="Grupo 1102528" clip-path="url(#clip-path-30)">
            <rect id="Rectángulo_402861" data-name="Rectángulo 402861" width="21.539" height="21.539" fill="url(#linear-gradient-17)"/>
          </g>
        </g>
        <g id="Grupo_1102531" data-name="Grupo 1102531">
          <g id="Grupo_1102530" data-name="Grupo 1102530" clip-path="url(#clip-path)">
            <rect id="Rectángulo_402863" data-name="Rectángulo 402863" width="5.007" height="2.503" transform="translate(61.623 251.648)" fill="#ffc59c"/>
          </g>
        </g>
        <g id="Grupo_1102533" data-name="Grupo 1102533" transform="translate(36.551 230.109)">
          <g id="Grupo_1102532" data-name="Grupo 1102532" clip-path="url(#clip-path-30)">
            <rect id="Rectángulo_402865" data-name="Rectángulo 402865" width="21.539" height="21.539" transform="translate(0)" fill="url(#linear-gradient-18)"/>
          </g>
        </g>
        <g id="Grupo_1102535" data-name="Grupo 1102535">
          <g id="Grupo_1102534" data-name="Grupo 1102534" clip-path="url(#clip-path)">
            <rect id="Rectángulo_402867" data-name="Rectángulo 402867" width="5.007" height="2.503" transform="translate(44.816 230.109)" fill="#ffc59c"/>
          </g>
        </g>
        <g id="Grupo_1102537" data-name="Grupo 1102537" transform="translate(15.01 230.109)">
          <g id="Grupo_1102536" data-name="Grupo 1102536" clip-path="url(#clip-path-30)">
            <rect id="Rectángulo_402869" data-name="Rectángulo 402869" width="21.539" height="21.539" transform="translate(0)" fill="url(#linear-gradient-19)"/>
          </g>
        </g>
        <g id="Grupo_1102539" data-name="Grupo 1102539">
          <g id="Grupo_1102538" data-name="Grupo 1102538" clip-path="url(#clip-path)">
            <rect id="Rectángulo_402871" data-name="Rectángulo 402871" width="5.007" height="2.503" transform="translate(23.277 230.109)" fill="#ffc59c"/>
            <path id="Trazado_895370" data-name="Trazado 895370" d="M75.327,180.031s-.734,2.884-.833,3.318-4.622-.761-4.622-.761l0-3.527s4.92.494,5.451.97" transform="translate(16.921 43.364)" fill="#666fb3"/>
            <path id="Trazado_895371" data-name="Trazado 895371" d="M74.921,182.356a12.535,12.535,0,0,0,2.591,2.843c1.327.922,6.442,2.113,7.19,3,.539.64,1.289,3.061-6.92,1.955-5.832-.785-8.71-.586-9.234-1.6s1.663-6.905,1.663-6.905,1.247.678,4.71.709" transform="translate(16.581 43.99)" fill="#2d314f"/>
            <rect id="Rectángulo_402872" data-name="Rectángulo 402872" width="197.365" height="2.075" transform="translate(88.416 334.764) rotate(-84.444)" fill="#b3dcff"/>
            <rect id="Rectángulo_402873" data-name="Rectángulo 402873" width="197.364" height="2.075" transform="translate(55.013 331.522) rotate(-84.444)" fill="#b3dcff"/>
            <rect id="Rectángulo_402874" data-name="Rectángulo 402874" width="2.074" height="33.56" transform="matrix(0.096, -0.995, 0.995, 0.096, 74.676, 140.065)" fill="#b3dcff"/>
            <rect id="Rectángulo_402875" data-name="Rectángulo 402875" width="2.075" height="33.56" transform="translate(73.169 155.598) rotate(-84.47)" fill="#b3dcff"/>
            <rect id="Rectángulo_402876" data-name="Rectángulo 402876" width="2.074" height="33.56" transform="matrix(0.096, -0.995, 0.995, 0.096, 71.661, 171.13)" fill="#b3dcff"/>
            <rect id="Rectángulo_402877" data-name="Rectángulo 402877" width="2.074" height="33.56" transform="translate(70.154 186.663) rotate(-84.467)" fill="#b3dcff"/>
            <rect id="Rectángulo_402878" data-name="Rectángulo 402878" width="2.075" height="33.56" transform="translate(68.646 202.197) rotate(-84.47)" fill="#b3dcff"/>
            <rect id="Rectángulo_402879" data-name="Rectángulo 402879" width="2.075" height="33.56" transform="translate(67.139 217.729) rotate(-84.47)" fill="#b3dcff"/>
            <rect id="Rectángulo_402880" data-name="Rectángulo 402880" width="2.074" height="33.56" transform="translate(65.632 233.261) rotate(-84.467)" fill="#b3dcff"/>
            <rect id="Rectángulo_402881" data-name="Rectángulo 402881" width="2.075" height="33.56" transform="translate(64.124 248.794) rotate(-84.47)" fill="#b3dcff"/>
            <rect id="Rectángulo_402882" data-name="Rectángulo 402882" width="2.074" height="33.56" transform="matrix(0.096, -0.995, 0.995, 0.096, 62.617, 264.326)" fill="#b3dcff"/>
            <rect id="Rectángulo_402883" data-name="Rectángulo 402883" width="2.075" height="33.56" transform="translate(61.109 279.86) rotate(-84.47)" fill="#b3dcff"/>
            <rect id="Rectángulo_402884" data-name="Rectángulo 402884" width="2.074" height="33.56" transform="matrix(0.096, -0.995, 0.995, 0.096, 59.602, 295.392)" fill="#b3dcff"/>
            <rect id="Rectángulo_402885" data-name="Rectángulo 402885" width="2.074" height="33.56" transform="matrix(0.096, -0.995, 0.995, 0.096, 58.095, 310.924)" fill="#b3dcff"/>
            <rect id="Rectángulo_402886" data-name="Rectángulo 402886" width="2.074" height="33.56" transform="matrix(0.096, -0.995, 0.995, 0.096, 56.587, 326.457)" fill="#b3dcff"/>
            <path id="Trazado_895372" data-name="Trazado 895372" d="M111.646,90.486a3.077,3.077,0,0,1-.727.668s-.564.214-.956.39a2.845,2.845,0,0,0-.3.148,5.657,5.657,0,0,1-1.6.846c-.773.222-4.264,1.019-4.264,1.019l-.812-2.073-.583-1.673s3.233-4.189,3.929-4.479a1.807,1.807,0,0,1,.2-.072,7.161,7.161,0,0,1,1.481-.134c.123-.022,1.354-.161,1.621.1a1.212,1.212,0,0,1,.419,1.1,2.9,2.9,0,0,1,.744,1.407,1.8,1.8,0,0,1,.486,1.512s.6.738.357,1.246" transform="translate(24.8 20.601)" fill="#eea886"/>
            <path id="Trazado_895373" data-name="Trazado 895373" d="M80.463,116.831a48.118,48.118,0,0,1,5.462-3.028c6.726-3.365,15.033-9.468,16.612-10.349,2.428-1.354,10.1-10.725,10.1-10.725-.4-1.411-4.031-4.243-4.031-4.243S96.974,99.5,94.433,100.854c-2.185,1.166-12.978,2.343-15.951,2.65-.483.05-.76.076-.76.076-3.105,4.236,1.007,14.368,2.741,13.251" transform="translate(18.549 21.429)" fill="#e64646"/>
            <path id="Trazado_895374" data-name="Trazado 895374" d="M83.545,131.409s3.291,12.218,4.158,16.585c.756,3.806,2.277,13.941,2.493,16.351s-9.714,25.734-10.746,29.948L70.4,192.841s9.545-24.276,7.056-29.671c-3.7-8.023-4.186-7.781-7.1-14.391s-9.595-6.766-11.388-19.028c0,0,22.149-2.232,24.578,1.657" transform="translate(14.28 31.268)" fill="#2d314f"/>
            <path id="Trazado_895375" data-name="Trazado 895375" d="M66.536,83.278s6.007-2.243,8.776,2.329,2.5,13.726-.524,14.851-7.576.538-9.126-2.324-2.95-7-2.883-9.761,2.18-4.3,3.758-5.1" transform="translate(15.203 20.035)" fill="#eea886"/>
            <path id="Trazado_895376" data-name="Trazado 895376" d="M73.46,97.855a5.055,5.055,0,0,0,.158,2.35c.4.775-7.555.8-7.555.8a52.467,52.467,0,0,0-1.869-7.783c-1.225-3.565,9.267,4.637,9.267,4.637" transform="translate(15.522 22.357)" fill="#eea886"/>
            <path id="Trazado_895377" data-name="Trazado 895377" d="M64.612,95.666s.549.906,2.791.554,4.976-3.334,5.911-3.661.945-.877.945-.877l.585.856.995.062s-.907-2.667.461-3.755-1.42-8.634-8.608-6.123c0,0-5.521,1.523-5.321,4.662s1,6.718,2.241,8.282" transform="translate(15.103 19.91)" fill="#d88a51"/>
            <path id="Trazado_895378" data-name="Trazado 895378" d="M72.229,89.139c-.125-.527-1.465-2.032-1.978-.42s.775,3.779,1.493,3.594.8-1.838.484-3.174" transform="translate(16.985 21.31)" fill="#eea886"/>
            <path id="Trazado_895379" data-name="Trazado 895379" d="M53.387,118.77a3.541,3.541,0,0,0,1.579,2.062,2.569,2.569,0,0,0,1.37.45l.357.012,6.242.212s4.641-15-4.063-20.717c-.27.026-6.088,10.752-5.484,17.98" transform="translate(12.918 24.409)" fill="#e64646"/>
            <path id="Trazado_895380" data-name="Trazado 895380" d="M68.548,188.552c.525,1.017,3.4.819,9.234,1.6a26.736,26.736,0,0,0,3.836.283l.34-3.509a26.284,26.284,0,0,1-4.444-1.73,12.493,12.493,0,0,1-2.592-2.843c-3.462-.03-4.71-.709-4.71-.709s-2.187,5.889-1.663,6.905" transform="translate(16.581 43.99)" fill="#2d314f"/>
            <path id="Trazado_895381" data-name="Trazado 895381" d="M73.232,98.412s-4.9-1.139-7.659-.207l-.416.386s-.84,1.609,2.319,1.746,8.124.368,5.756-1.925" transform="translate(15.755 23.694)" fill="#e64646"/>
            <path id="Trazado_895382" data-name="Trazado 895382" d="M57.293,190.889s-.734,2.884-.834,3.318-4.622-.761-4.622-.761l0-3.527s4.92.494,5.451.97" transform="translate(12.554 45.993)" fill="#666fb3"/>
            <path id="Trazado_895383" data-name="Trazado 895383" d="M60.993,129.627a95.3,95.3,0,0,0-2.137,13.609c-.451,6.292-1.273,13.193-1.925,19.774-.728,7.336-2.8,19.2-2.912,23.119s-3.412,21.076-3.412,21.076l8.449.97s5.49-30.308,6.786-33.406,7.726-25.185,7.942-27.664-12.792-17.479-12.792-17.479" transform="translate(12.256 31.392)" fill="#2d314f"/>
            <path id="Trazado_895384" data-name="Trazado 895384" d="M56.887,193.213a12.507,12.507,0,0,0,2.591,2.843c1.327.922,6.442,2.113,7.188,3,.54.64,1.291,3.062-6.919,1.955-5.832-.785-8.71-.586-9.234-1.6s1.663-6.905,1.663-6.905,1.247.678,4.71.709" transform="translate(12.213 46.619)" fill="#2d314f"/>
            <path id="Trazado_895385" data-name="Trazado 895385" d="M85.857,154.133c.72-.1-1.786-21.554-1.595-22.9.128-.9.108-7.869.056-12.216l.784-4.4c.436-.317,1.022-.684,1.722-1.088,1.089-.629,2.456-1.347,3.975-2.105-.176-1.038-.3-1.857-.347-2.335a8.786,8.786,0,0,0-4.446-6.772,7.26,7.26,0,0,0-1.012-.506c-.559-.237-1.108-.467-1.641-.686C79.81,99.669,75.31,98.3,75.31,98.3H68.079a61.438,61.438,0,0,0-8.783,2.442,6.134,6.134,0,0,0-1.185.651L59.093,122v.014l0,.027c.442,2.9.909,6.32,1.063,8.719.065.979-1.056,6.238-1.64,11.064l-2.046,11.551s1.183,4.785,29.381.754" transform="translate(13.677 23.806)" fill="#e64646"/>
          </g>
        </g>
      </g>
    </g>
  </g>
</svg>
