<svg xmlns="http://www.w3.org/2000/svg" xmlns:xlink="http://www.w3.org/1999/xlink" width="526.579" height="398.987" viewBox="0 0 526.579 398.987">
  <defs>
    <clipPath id="clip-path">
      <rect id="Rect치ngulo_402804" data-name="Rect치ngulo 402804" width="407.365" height="360.179" fill="none"/>
    </clipPath>
  </defs>
  <g id="Grupo_1103352" data-name="Grupo 1103352" transform="translate(-227.974 -7555.955)">
    <rect id="Rect치ngulo_402284" data-name="Rect치ngulo 402284" width="526.579" height="398.987" transform="translate(227.974 7555.955)" fill="#d6e6ce"/>
    <g id="Grupo_1102460" data-name="Grupo 1102460" transform="translate(280 7577.866)">
      <g id="Grupo_1102459" data-name="Grupo 1102459" clip-path="url(#clip-path)">
        <path id="Trazado_895110" data-name="Trazado 895110" d="M245,91.779l.479.178a5.1,5.1,0,0,0,1.369,1.812l.64.445a1.835,1.835,0,0,1,.872,1.475,6.918,6.918,0,0,1-2.009,1.244A4.041,4.041,0,0,1,245,98.906l-.623-.142a4.453,4.453,0,0,1-.87-1.582c-.249-.64-1.617-.835-2.08-1.636a2.465,2.465,0,0,1,.48-1.155c.356-.444.693-.355,1.244-.427.515-.906.835-1.723,1.849-2.186" transform="translate(-50.306 -19.124)" fill="#dde7f1"/>
        <path id="Trazado_895111" data-name="Trazado 895111" d="M195.1,115.239l.178.373a11.651,11.651,0,0,1,.48,2.826c.568,2.772,3.856,4.088,6.22,4.994a16.344,16.344,0,0,0,5.012,1.172c0,1.707-.551,2.7-.959,4.3l-1.209-.266c-1.937-1.085-3.767-2.275-5.58-3.537-1.493-1.031-3.377-2.862-5.226-3.022l-.355-.017a10.363,10.363,0,0,1,.569-2.471c.373-1.439.6-2.915.871-4.354" transform="translate(-40.351 -24.012)" fill="#f7a99d"/>
        <path id="Trazado_895112" data-name="Trazado 895112" d="M195.608,111.064l2.311,3.981.16.231a11.455,11.455,0,0,0,7.464,4.674l1.191.142.338.533.284,3.093a16.241,16.241,0,0,1-5.012-1.173c-2.364-.906-5.652-2.221-6.221-4.994a11.756,11.756,0,0,0-.48-2.825l-.178-.374-.124-.2Z" transform="translate(-40.702 -23.142)" fill="#f68870"/>
        <path id="Trazado_895113" data-name="Trazado 895113" d="M43.839,72.545l.782-.142a5.055,5.055,0,0,1,2.2,2.773c.3.621,2.15,1.279,2.79,2.008.071.266.267.515.231.8-.106,1.084-2.968,1.493-3.306,2.488-.373,1.1-.6,2.186-1.706,2.737-1.475-.3-2.274-2.274-3.146-3.448A7.664,7.664,0,0,1,39.2,78.748c-.515-.427-.408-.711-.408-1.333.764-1.066,2.115-.959,3.022-1.777a4.862,4.862,0,0,0,.533-1.048,6.137,6.137,0,0,1,1.493-2.044" transform="translate(-8.081 -15.086)" fill="#dde7f1"/>
        <path id="Trazado_895114" data-name="Trazado 895114" d="M138.87,56.4l.178.444c-1.457,2.1-4.177,3.8-6.025,5.67L126.7,69.123a73.276,73.276,0,0,1-8.175,8.264c-2.381,1.76-4.532,4.514-6.629,6.647l-10.059,9.918-9.01,8.8-.64-.64,9.223-8.993,16.618-16.227a12.017,12.017,0,0,1-1.582-1.848Z" transform="translate(-19.208 -11.751)" fill="#d93942"/>
        <path id="Trazado_895115" data-name="Trazado 895115" d="M477.91,143.244a2.451,2.451,0,0,1,.64-.2c2.346-.32,2.044,2.684,2.933,3.768.533.64,2.186.621,2.932,1.422a2.122,2.122,0,0,1,.6,1.51c-.906,1.155-2.274,1.333-3.626,1.689-.249.355-.213.231-.337.587a10.974,10.974,0,0,1-1.529,3.181,1.516,1.516,0,0,1-.427.16c-1.723.214-2.346-1.689-2.861-2.915a7.107,7.107,0,0,0-.338-.817c-.711-.622-2.257-.481-3.075-1.191a1.265,1.265,0,0,1-.337-1.119c.2-2.1,2.577-1.635,3.7-2.631.054-.053.267-.888.3-1a4.035,4.035,0,0,1,1.422-2.452" transform="translate(-98.449 -29.802)" fill="#dde7f1"/>
        <path id="Trazado_895116" data-name="Trazado 895116" d="M411.561,113.05c2.932-2.133,3.075-5.67,4.479-8.744.6,1.12,1.3,2.773,2.523,3.306.782.338,3.661-.373,4.462-.747l.284-.142.835.177a7.73,7.73,0,0,1-1.9,2.435l.071.177a2.2,2.2,0,0,1,.035,1.831c-.728,1.617-2.541,4.07-4.23,4.6a11.837,11.837,0,0,1-1.386.267,3.6,3.6,0,0,0-1.76,1.191,40.536,40.536,0,0,1-3.412-4.354" transform="translate(-85.755 -21.734)" fill="#f7b79d"/>
        <path id="Trazado_895117" data-name="Trazado 895117" d="M60.1,132.391a1.593,1.593,0,0,1,.444.853l-8.5,8.317L29.853,163.3a5.1,5.1,0,0,1,.729,1.457,4.4,4.4,0,0,1-.64,3.448,5.331,5.331,0,0,1-3.288,2.346,5.033,5.033,0,0,1-3.554-.835,4.582,4.582,0,0,1-1.919-3.217,4.427,4.427,0,0,1,.941-3.5A5.409,5.409,0,0,1,25.784,161a4.315,4.315,0,0,1,3.43,1.244l.214.177L51.163,141.1Z" transform="translate(-4.403 -27.586)" fill="#5584b9"/>
        <path id="Trazado_895118" data-name="Trazado 895118" d="M337.336,7.322a2.759,2.759,0,0,1,1.653-.071c1.653,1.351,1.689,3.253,2.168,5.19a14.989,14.989,0,0,1,3.981.959,2.754,2.754,0,0,1,1.3,1.955c-.5,2.114-2.648,2.1-4.479,2.594-.124.036-.924.231-.959.267-.018.018-.142.835-.142.925-.249,1.688-.48,3-1.848,4.123l-.711.089a1.859,1.859,0,0,1-1.528-.747c-1.138-1.155-.906-2.7-.942-4.23a12.84,12.84,0,0,1-4.319-1.315,2.987,2.987,0,0,1-1.439-1.937,3.164,3.164,0,0,1,.5-1.013c1.244-1.51,2.915-1.546,4.71-1.67l.142-.711c.32-1.671.374-3.413,1.92-4.408" transform="translate(-68.775 -1.492)" fill="#dde7f1"/>
        <path id="Trazado_895119" data-name="Trazado 895119" d="M207.443,132.144l1.209.267,2.9,3.466c-.267.871-1.049,2.772-.959,3.625a9.484,9.484,0,0,0,.6,1.724l1.44,3.892a99.325,99.325,0,0,1,2.772,10.059c.888,5.047.622,10.415.408,15.515a58.638,58.638,0,0,1-2.7-7.483,17.268,17.268,0,0,1-.818-2.63l-4.39-20.012c-.3-1.209-.711-1.209-1.689-1.8a6.21,6.21,0,0,1,.249-2.417,29.531,29.531,0,0,1,.978-4.212" transform="translate(-42.958 -27.534)" fill="#d93942"/>
        <path id="Trazado_895120" data-name="Trazado 895120" d="M244.088,235.887a1.863,1.863,0,0,1,1.279-.107,17.047,17.047,0,0,1,2.791,1.262c2.417,1.138,5.332,2.257,6.807,4.656a2.526,2.526,0,0,1,.213,2.115,3.026,3.026,0,0,1-1.422,1.813c-1.155.089-2.826-1.085-4.017-1.493.925.64,2.684,1.546,2.9,2.612a3.58,3.58,0,0,1-1.12,1.76,8.03,8.03,0,0,1-1.279.355l-.978-1.191c-.124.568.427,1.012.427,1.617a4.051,4.051,0,0,1-1.244.6,2.657,2.657,0,0,1-1.973-.551,12.3,12.3,0,0,1-2.594-2.755c-.622-.818-1.457-1.617-2.008-2.47-1.049-1.653-1.422-4.426-1.848-6.328a28.367,28.367,0,0,0,4.07-1.9" transform="translate(-50.012 -49.114)" fill="#f7a99d"/>
        <path id="Trazado_895121" data-name="Trazado 895121" d="M147.354,242.017l5.083.373a8.928,8.928,0,0,0-.267,2.471c.16,1.262,2.328,2.381,3.27,3.163,1.369,1.12,2.364,3.43,3.216,4.959a8.243,8.243,0,0,1,1.351,2.986,1.312,1.312,0,0,1-.534.586,2.921,2.921,0,0,1-2.381.054,12.951,12.951,0,0,1-2.452-3.928l-.018,5.3a2.589,2.589,0,0,1-.888,2.274,4.186,4.186,0,0,1-1.76,0l-.213-.106a19.592,19.592,0,0,1-2.044.142,2.47,2.47,0,0,1-.5-.764l-.124-.284c-.249.444-.249.568-.693.835a11.707,11.707,0,0,1-1.867-.818c-1.031-.444-2.044-.534-2.808-1.475-1.191-1.44.444-6.807,1.119-8.282.658-1.44,1.991-2.773,2.4-4.284a14.622,14.622,0,0,0,.107-3.2" transform="translate(-29.86 -50.428)" fill="#f7b79d"/>
        <path id="Trazado_895122" data-name="Trazado 895122" d="M311.762,101.573l.747-.231.693,4.194c1.191,3.341,2.684,6.132,6.025,7.749a15.806,15.806,0,0,0,4.728,1.351c.249,1.049.5,2.808,1.439,3.413l-.053.6-.089-.018a20.535,20.535,0,0,1-.48,4.017,5.5,5.5,0,0,1-3.163,3.537c-5.67-1.8-9.438-5.26-13.543-9.384l.515-.888c1.547-2.666,2.506-6.825,1.813-9.864l-.07-.267a21.542,21.542,0,0,1,1.368-3.519l.249-.355Z" transform="translate(-64.19 -21.116)" fill="#fa9a6b"/>
        <path id="Trazado_895123" data-name="Trazado 895123" d="M314.456,106.641c1.191,3.341,2.684,6.131,6.025,7.749a15.824,15.824,0,0,0,4.728,1.351c.249,1.048.5,2.808,1.439,3.412l-.053.6-.089-.017a6.372,6.372,0,0,0-2.239-.889c-3.644-1.244-7.305-3.163-9.047-6.789l-.142-.32-.551-1.262a4.884,4.884,0,0,1-.071-3.839" transform="translate(-65.445 -22.22)" fill="#f68870"/>
        <path id="Trazado_895124" data-name="Trazado 895124" d="M146.567,54.935l.747-.178a18.517,18.517,0,0,1-1.1,3.8,137.693,137.693,0,0,1-7.251,19.23,68.587,68.587,0,0,1-4.354,8.229c-2.915-2.933-5.865-6.469-9.153-8.976a71.772,71.772,0,0,0,8.175-8.264l6.327-6.612c1.848-1.866,4.568-3.59,6.025-5.669l-.177-.445a2.53,2.53,0,0,0,.764-1.119" transform="translate(-26.14 -11.409)" fill="#e36355"/>
        <path id="Trazado_895125" data-name="Trazado 895125" d="M120.343,74.781,111,64.721l32.559-9.739a2.931,2.931,0,0,1-.764,1.138Z" transform="translate(-23.128 -11.456)" fill="#fa9a6b"/>
        <path id="Trazado_895126" data-name="Trazado 895126" d="M228.577,206.489c-.48-1.9-.2-4.354-.231-6.327L228.1,186.85l-1-24.757-.427-12.156c-.036-1.333-.48-3.786.106-4.906,2.008,7.589,2.969,15.64,4.017,23.424.355,2.666.445,5.67,1.066,8.282.818,3.483,2.133,7.056,3.253,10.468l4.674,15.071c1.351,4.284,2.9,8.656,3.874,13.027l-8.193,3.057Z" transform="translate(-47.191 -30.22)" fill="#1d6aa9"/>
        <path id="Trazado_895127" data-name="Trazado 895127" d="M193.276,106.692c-3.874-3.767-6.647-8.015-7.536-13.436-.515-3.163-.6-7.073,1.51-9.721.658-.818,2.168-2.026,3.341-1.724.515.125.533.374,1.119.285a9.8,9.8,0,0,1,.214-2.275,4.69,4.69,0,0,1,2.364-3.092c6.255-3.573,16.635-.178,23.015,1.688a11.055,11.055,0,0,0,2.275-1.883,23.827,23.827,0,0,1-.355,4.638,9.184,9.184,0,0,1-4.426,6.683c-5.527,2.239-10.521,1.457-16.031-.2a24.464,24.464,0,0,1-.533,3.607c-.32,1.138-.853,2.221-1.226,3.341a26.325,26.325,0,0,0-.818,3.5c-1.28-1.723-1.92-4.852-4.443-5.082a2.761,2.761,0,0,0-1.973.764,3.865,3.865,0,0,0-1.119,3.092,4.66,4.66,0,0,0,1.742,3.484,4.872,4.872,0,0,0,2.879,1.155,4.072,4.072,0,0,1,.284,2.08Z" transform="translate(-38.638 -15.661)" fill="#304373"/>
        <path id="Trazado_895128" data-name="Trazado 895128" d="M194.387,106.868a4.046,4.046,0,0,0-.284-2.08,4.866,4.866,0,0,1-2.879-1.155,4.75,4.75,0,0,1-1.742-3.483,3.888,3.888,0,0,1,1.119-3.093,2.925,2.925,0,0,1,1.973-.764c2.524.231,3.163,3.359,4.443,5.083a29.522,29.522,0,0,1,.817-3.5c.391-1.119.925-2.2,1.226-3.341a22.266,22.266,0,0,0,.534-3.607c5.51,1.67,10.5,2.435,16.031.2.018,1.795-.017,3.626.124,5.42.481,5.865,1.457,11.765-3.128,16.4a10.108,10.108,0,0,1-5.083,2.595,8.375,8.375,0,0,0-1.582.355c-.124.142-.106.355-.142.533l-.338-.533-1.191-.142a11.455,11.455,0,0,1-7.464-4.674l-.16-.231Z" transform="translate(-39.482 -18.946)" fill="#f7b79d"/>
        <path id="Trazado_895129" data-name="Trazado 895129" d="M217.963,100.5l.6-.143c.462.32.675.427.818,1.013a1.919,1.919,0,0,1-.408,1.51,1.423,1.423,0,0,1-.942,0,1.584,1.584,0,0,1-.338-.586,2.072,2.072,0,0,1,.267-1.8" transform="translate(-45.339 -20.91)" fill="#132128"/>
        <path id="Trazado_895130" data-name="Trazado 895130" d="M208.5,100.526c.747-.071.693-.053,1.279.427a2.658,2.658,0,0,1,.2,1.048c-.036.729-.036.765-.587,1.244l-.55.142c-.622-.249-.64-.214-.925-.8a2.964,2.964,0,0,1,.587-2.061" transform="translate(-43.322 -20.94)" fill="#091e46"/>
        <path id="Trazado_895131" data-name="Trazado 895131" d="M150.236.125c2.879-.32,5.847-.124,8.211,1.76a9.78,9.78,0,0,1,3.306,6.22c.017.089-.036.2.017.249a8.37,8.37,0,0,0,1.4.32,9.2,9.2,0,0,1,5.332,3.092c1.493,1.92,1.422,4.39,1.138,6.682l-24.792-.124-18.591-.036a12.354,12.354,0,0,1,.249-2.915,6.693,6.693,0,0,1,3.27-4.478c2.114-1.155,4.727-.64,6.9.053a19.01,19.01,0,0,1,1.085-2.63,3.749,3.749,0,0,1,2.417-1.955,4.111,4.111,0,0,1,3.092.747l.214.124.6-1.493A9.924,9.924,0,0,1,150.236.125" transform="translate(-26.308 0)" fill="#fff"/>
        <path id="Trazado_895132" data-name="Trazado 895132" d="M86.133,112.654l9.01-8.8c.978,2.008,2.168,3.91,3.039,5.954a23.963,23.963,0,0,1,.178,17.008A23.158,23.158,0,0,1,68.058,141a21.649,21.649,0,0,1-7.891-5.367l8.5-8.317.214.533a19.015,19.015,0,0,0,3.786,2.061,12.623,12.623,0,0,0,9.17-.817,11.666,11.666,0,0,0,5.651-7.429,11.543,11.543,0,0,0-1.351-9.01" transform="translate(-12.537 -21.64)" fill="#dde7f1"/>
        <path id="Trazado_895133" data-name="Trazado 895133" d="M391.561,53.927a3.9,3.9,0,0,1,.711.587,10.419,10.419,0,0,1,.338,1.795c.657,2.915,1.439,5.865,3.767,7.927a6.018,6.018,0,0,0,1.813,1.316,29.256,29.256,0,0,0,6.149,13.2,30.922,30.922,0,0,0,20.883,11.09A29.522,29.522,0,0,0,446.9,83.11a31.4,31.4,0,0,0,9.65-15.036,35.57,35.57,0,0,0,.925-6.416,5.857,5.857,0,0,1,3.7,2.791,29.334,29.334,0,0,0,2.595,3.626c-3.341,10.948-8.85,19.6-19.23,25.095-4.728,2.506-9.473,3.395-14.716,4.016l-5.119.036-4.834-.8-.836-.178c-8.6-2.808-15.533-6.931-20.971-14.342-6.061-8.246-8.051-17.915-6.5-27.974" transform="translate(-81.483 -11.237)" fill="#e36355"/>
        <path id="Trazado_895134" data-name="Trazado 895134" d="M391.693,45.983c.906-8.353,6.949-17.168,13.4-22.322a37.661,37.661,0,0,1,27.974-7.571A36.412,36.412,0,0,1,456.989,29.4a37.972,37.972,0,0,1,7.3,28.774l-.373,1.955a29.255,29.255,0,0,1-2.6-3.626,5.951,5.951,0,0,0-3.7-2.791c-.2-8.9-2.577-16.1-9.082-22.376a29.909,29.909,0,0,0-21.1-8.389,30.683,30.683,0,0,0-20.74,9.029c-5.457,5.741-8.94,13.471-8.709,21.469l.355,4.177a6.476,6.476,0,0,1-1.813-1.315c-2.328-2.044-3.11-5.012-3.768-7.927a10.679,10.679,0,0,0-.337-1.8,4.134,4.134,0,0,0-.746-.6" transform="translate(-81.615 -3.293)" fill="#f68870"/>
        <path id="Trazado_895135" data-name="Trazado 895135" d="M454.869,365.721c2.221-3.607,9.17-14.325,13.205-15.391a2.925,2.925,0,0,1,2.488.355,3.7,3.7,0,0,1,1.119,2.559c-.622,2.9-8.922,7.767-11.445,9.793-1.689,1.369-3.235,2.915-4.8,4.425l-.089.018-4.532,4.816c4.017-1.991,13.525-7.038,18.11-5.705a2.482,2.482,0,0,1,1.422,1.085,1.738,1.738,0,0,1-.249,1.635c-1.564,2.08-13.294,4.141-16.173,4.585-1.084.16-2.932.036-3.892.409-.462.177-3.52,4-4.088,4.709a35.069,35.069,0,0,1,11.179-3.359,7.041,7.041,0,0,1,3.093-.2,2.4,2.4,0,0,1,1.066.906,1.16,1.16,0,0,1-.143,1.191c-.853,1.51-3.75,2.381-5.332,2.755a47.444,47.444,0,0,1-11.214.853,27.008,27.008,0,0,1-3,4.3l-1.333,1.6a27.785,27.785,0,0,1,9.295-2.915,7.571,7.571,0,0,1,3.342.178,2.68,2.68,0,0,1,1.582,1.191,1.278,1.278,0,0,1,.16.978c-.551,1.208-3.128,1.937-4.372,2.274a30.582,30.582,0,0,1-6.949,1.085,33.038,33.038,0,0,1-3.75-.178,5.8,5.8,0,0,0-1.066-.089,10.722,10.722,0,0,0-1.138,1.724,29.094,29.094,0,0,1-3.892,5.278,33.607,33.607,0,0,1,10.059-3.465,9.581,9.581,0,0,1,3.892-.107,2.1,2.1,0,0,1,1.226.978c.071.657.142.853-.266,1.4a5.739,5.739,0,0,1-2.2,1.244,26.644,26.644,0,0,1-10.024,2.168l-3.484-.142-2.985,5.883c3.252-1.208,7.056-2.844,10.539-3.181a4.388,4.388,0,0,1,2.1.177,2.813,2.813,0,0,1,.888.765c.107.728.285,1.084-.195,1.742a5.619,5.619,0,0,1-2.2,1.332,25.085,25.085,0,0,1-9.4,1.973,13.106,13.106,0,0,1-2.2-.2l-.481-.053-.284-.036-2.2,4.781a55.348,55.348,0,0,1,9.331-2.808,8.058,8.058,0,0,1,3.626-.017c.64.213.746.6.959,1.191a3.255,3.255,0,0,1-1.653,1.92,23.481,23.481,0,0,1-8.886,3.412,10.169,10.169,0,0,1-3.341.355,4.1,4.1,0,0,1-1.013-.373l-.675-.249a6.539,6.539,0,0,0-.747,1.085l-.781,1.937c-.231.444-.178.444-.693.6l-.444-.337c-.124-1.049.675-2.2,1.155-3.11a22.692,22.692,0,0,0,.746-2.382,4.816,4.816,0,0,0-.32-.924,32.076,32.076,0,0,1-.906-3.163,34.512,34.512,0,0,1-.64-10.806,2.843,2.843,0,0,1,1.172-2.221,2.294,2.294,0,0,1,1.12.444c1.546,1.209,1.955,2.879,2.274,4.709.391,2.346.125,4.852.231,7.234a56.714,56.714,0,0,1,2.719-6.647,13.544,13.544,0,0,0,1.3-2.595c.036-.835-.782-2.559-1.013-3.43-.835-3.181-1.67-9.277-.23-12.352a1.4,1.4,0,0,1,.977-.835,4.051,4.051,0,0,1,2.062,1.156c1.937,2.15,1.4,8.424,1.137,11.179l3.43-5.847a9.979,9.979,0,0,0,1-1.689,5.54,5.54,0,0,0-.338-1.191,29.292,29.292,0,0,1-.675-3c-.64-3.751-.64-9.864,1.795-13.064a2.608,2.608,0,0,1,2.008-1,2.178,2.178,0,0,1,1.191,1.191c2.008,3.857-.071,10.219-1.262,14.094l.373-.107a56.316,56.316,0,0,1,3.91-6.5c.444-.64,1.9-2.061,2.08-2.684.213-.746-.444-2.968-.5-3.963-.2-3.928.374-10.362,3.146-13.383a2.258,2.258,0,0,1,1.795-.142,2.053,2.053,0,0,1,1.3,1.191c1.529,3.537-.568,8.158-1.723,11.552Z" transform="translate(-87.884 -72.971)" fill="#20acae"/>
        <path id="Trazado_895136" data-name="Trazado 895136" d="M309.271,98.75c-2.648-3.857-5.9-8.6-6.185-13.436-.124-2.274-.231-4.8,1.422-6.594a2.944,2.944,0,0,1,2.524-1.191h.284l.391-.017h.249c2.186-5.1,9.97-4.3,14.556-4.408a8.05,8.05,0,0,0,3.625-.533A3.093,3.093,0,0,0,327.72,70.6c.284-1.209-.427-2.062-1.031-3.022,3.164.835,6.5,2.435,8.246,5.332a6.334,6.334,0,0,1,.782,4.994c-.693,2.364-2.524,3.59-4.585,4.656l.32,5.118c-.017,2.631,1.066,5.154.978,7.855a12.71,12.71,0,0,1-1.582,8.923,7.346,7.346,0,0,1-4.888,3.092,14.633,14.633,0,0,1-3.057.089,16.353,16.353,0,0,1-4.727-1.351c-3.341-1.653-4.835-4.443-6.025-7.784l-.693-4.195-.747.231.161.338-.249.355a22.578,22.578,0,0,0-1.351,3.519" transform="translate(-63.14 -14.081)" fill="#935740"/>
        <path id="Trazado_895137" data-name="Trazado 895137" d="M327.507,105.98c.391-.142.231-.142.622-.089,1.653.267,3.306-.124,4.888.177.106.711-.054.765-.427,1.351a3.079,3.079,0,0,1-1.689.818,3.392,3.392,0,0,1-2.648-.711,2.118,2.118,0,0,1-.747-1.546" transform="translate(-68.241 -22.057)" fill="#fefefe"/>
        <path id="Trazado_895138" data-name="Trazado 895138" d="M311.784,99.893l-1.244-.32a3.614,3.614,0,0,1-1.937-2.115,3.8,3.8,0,0,1-.177-3.075,2.087,2.087,0,0,1,1.369-1.013,2.618,2.618,0,0,1,2.186.32c1.1,1.066.728,4.532.551,5.989Z" transform="translate(-64.212 -19.436)" fill="#f7b79d"/>
        <path id="Trazado_895139" data-name="Trazado 895139" d="M335.21,99.459c-1.315.978-3-.6-4.532-.355-1.6.267-3.5.142-5.029.551-1.013.267-1.511,2.026-2.471,2.381a3.726,3.726,0,0,1-2.666-.036,7.331,7.331,0,0,1-3.465-4.07,9.888,9.888,0,0,1,.32-7.536,4.279,4.279,0,0,1,2.7-2.221,17.26,17.26,0,0,1,3.839-.249A34.675,34.675,0,0,0,333.912,86.5l.32,5.118c0,2.613,1.066,5.137.978,7.838" transform="translate(-65.938 -18.024)" fill="#f7b79d"/>
        <path id="Trazado_895140" data-name="Trazado 895140" d="M395.132,115.352a44.708,44.708,0,0,0,3.395,4.354l-8.335,9.438-6.683,6.451c-6.255,5.918-12.8,11.552-21.415,13.489-5.865,1.315-10.593-.107-16.049-2.1-.587-2.382-1.066-4.816-1.866-7.145-2.275-6.594-6.274-13.508-11.464-18.217l11.232,4.158c4.567,1.813,9.259,3.946,14.182,4.532,4.532.534,8.886-.924,13.045-2.559a121.436,121.436,0,0,0,15.746-7.855,86.024,86.024,0,0,1,8.211-4.55" transform="translate(-69.326 -24.035)" fill="#ed852f"/>
        <path id="Trazado_895141" data-name="Trazado 895141" d="M246.179,13.609a15.931,15.931,0,0,1,10.29,2.364l.284.2c4.692,3.146,6.665,7.624,7.944,12.9a10.757,10.757,0,0,1,5.812-3.395,10.078,10.078,0,0,1,8.033,1.937c3.306,2.524,4.3,6.1,4.781,10.024l-34.976-.053-36.5-.018.2-2.719a9.857,9.857,0,0,1,10.628-8.6c3.395.409,5.03,2.133,7.073,4.656.569-.959.729-2.755,1.049-3.874a24.823,24.823,0,0,1,2.986-6.558,8.622,8.622,0,0,1,.675-.978,16.452,16.452,0,0,1,11.73-5.883" transform="translate(-44.141 -2.82)" fill="#fff"/>
        <path id="Trazado_895142" data-name="Trazado 895142" d="M57.384,132.771c-3.022-4.318-5.4-7.944-6.114-13.311A23.763,23.763,0,0,1,72.313,92.588a22.545,22.545,0,0,1,16.209,4.23c1.493,1.138,2.666,2.577,4.159,3.7l.16.125-9.224,8.992.64.64a11.828,11.828,0,0,1-4.283,16.439,12.8,12.8,0,0,1-9.171.818,19.055,19.055,0,0,1-3.786-2.061l-.213-.534c-.054-.426-.2-.515-.445-.853Z" transform="translate(-10.642 -19.257)" fill="#dde7f1"/>
        <path id="Trazado_895143" data-name="Trazado 895143" d="M69.432,127.274a6.684,6.684,0,0,1-3.022-4.105,12.772,12.772,0,0,1,1.066-9.615,11.222,11.222,0,0,1,6.683-5.243,12.32,12.32,0,0,1,9.188.96c1.3.728,2.932,2.061,3.359,3.572l.64.64a11.828,11.828,0,0,1-4.284,16.44,12.8,12.8,0,0,1-9.17.818,19.055,19.055,0,0,1-3.786-2.061l-.213-.534a1.738,1.738,0,0,0-.462-.871" transform="translate(-13.733 -22.469)" fill="#fefefe"/>
        <path id="Trazado_895144" data-name="Trazado 895144" d="M63.527,193.65a19.054,19.054,0,0,1,10.788,2.381c4.158,2.311,6.309,6.363,7.554,10.788a1.29,1.29,0,0,0,.639-.054c2.631-.568,5.136-.781,7.625.481,3.483,1.759,5.083,4.816,6.309,8.335a13.094,13.094,0,0,1,.5,4.158l-35.333.071-31.972-.16a18.011,18.011,0,0,1,1.546-6.167,11.361,11.361,0,0,1,6.772-6.061c3.519-1.226,6.629.427,9.739,1.9.712-3.075,1.547-6.4,3.5-8.957a18.07,18.07,0,0,1,12.334-6.718" transform="translate(-6.175 -40.343)" fill="#fff"/>
        <path id="Trazado_895145" data-name="Trazado 895145" d="M399.971,59.459l-.355-4.177a30.3,30.3,0,0,1,29.449-30.5,29.909,29.909,0,0,1,21.1,8.389c6.5,6.291,8.886,13.489,9.082,22.376a35.572,35.572,0,0,1-.924,6.416A31.531,31.531,0,0,1,448.668,77a29.544,29.544,0,0,1-21.682,6.735A30.923,30.923,0,0,1,406.1,72.646a29.35,29.35,0,0,1-6.131-13.187" transform="translate(-83.264 -5.163)" fill="#fefefe"/>
        <path id="Trazado_895146" data-name="Trazado 895146" d="M430.7,33.357a22.414,22.414,0,0,1,15,4.8,21.287,21.287,0,0,1,8.406,14.521,23.334,23.334,0,0,1-4.674,17.5c-4.3,5.4-10.2,8.051-16.938,8.852-5.438.123-11.374-1.476-15.587-5.03a23.238,23.238,0,0,1-8.442-16.44,22.594,22.594,0,0,1,5.528-16.244c4.354-5.137,10.094-7.448,16.706-7.963" transform="translate(-85.096 -6.947)" fill="#f68870"/>
        <path id="Trazado_895147" data-name="Trazado 895147" d="M431.822,42.1a16.5,16.5,0,0,1,10.4,2.772,15.07,15.07,0,0,1,6.4,9.3,16.212,16.212,0,0,1-2.328,12.743,16.845,16.845,0,0,1-11.144,7,15.584,15.584,0,0,1-10.894-2.7,16.752,16.752,0,0,1-6.842-11.428,15.664,15.664,0,0,1,3.128-11.374A16.916,16.916,0,0,1,431.822,42.1" transform="translate(-86.946 -8.762)" fill="#fefefe"/>
        <path id="Trazado_895148" data-name="Trazado 895148" d="M434.467,50.627a10.6,10.6,0,0,1,5.99,1.706,9.259,9.259,0,0,1,3.519,5.812,9.922,9.922,0,0,1-2.026,7.517,8.755,8.755,0,0,1-6.5,3.182,9.815,9.815,0,0,1-6.4-2.115,8.713,8.713,0,0,1-3.377-6.007,9.237,9.237,0,0,1,2.008-6.7,9.786,9.786,0,0,1,6.789-3.395" transform="translate(-88.684 -10.549)" fill="#f68870"/>
        <path id="Trazado_895149" data-name="Trazado 895149" d="M50.1,441.646l.017,4.479,66.417-1.333,61.582-.889,29.733-.071,43.045.071,102.3.054.284-.3-.267-1.635,20.4.551,22.625,1.387c3.7.373,7.624.586,11.126,1.883a34.831,34.831,0,0,1-8.869,1.617l-12.316.942-40.468,1.653-101.446,2.133-88.276.018-20.581-.3-86.374-2.275-26.445-1.208c-6.114-.338-12.281-.534-18.341-1.386-1.138-.16-3.537-.374-4.248-1.3l.267-.374c2.755-.959,5.9-1.048,8.8-1.368,13.6-1.493,27.37-1.493,41.037-2.346" transform="translate(0 -92.024)" fill="#86b66c"/>
        <path id="Trazado_895150" data-name="Trazado 895150" d="M32.271,339.343l-2.915-16.28,11.89,6.719c3.608,1.955,7,4.3,10.433,6.522.8.515,2.7,1.439,3.146,2.168l.586.373a22.585,22.585,0,0,1,5.083,3.892c.658,1.937,1.848,3.714,2.666,5.58l.142.214,19.337,14.733,4.283,37.358-3.216-.036-1.76-.089a4.661,4.661,0,0,0-.249,2.275,48.422,48.422,0,0,1-.018,6.007l.124,2.08H74.588l-20.652.07-2.133-.142a10.525,10.525,0,0,1-3.235-1.848,70.949,70.949,0,0,1-18.146-18.554l2.595-.054.355-.036a38.529,38.529,0,0,1,5.9,0,7.975,7.975,0,0,1,1.617.089,14.553,14.553,0,0,1,2.168,1.955l7.571,6.309.214-.071-7.8-6.611-.355-.267a5.6,5.6,0,0,1-1.422-1.546,10.721,10.721,0,0,1-.693-2.719l-.959-6.629-.444-2.719-.658-3.981a15.2,15.2,0,0,0,.267,2.559l1.6,12.494-8.815-8.015-.107.177,5.332,5.083c1.066.978,2.791,2.1,3.555,3.288l-.321.32a34.348,34.348,0,0,0-4.869-.036,22.078,22.078,0,0,1-4.959.054,58.9,58.9,0,0,1-5.616-9.651c1.4-.373,3,.107,4.39-.3a26.812,26.812,0,0,1-4.621-.214,44.282,44.282,0,0,1-3.7-8.459l-1.475-2.844c6.558,1.048,13.027,2.328,19.088,5.1l.213.284c1.724.2,3.733,1.848,5.119,2.844a4.352,4.352,0,0,0,1.742,1.013c-3.146-5.439-5.154-11.588-7.287-17.471l-2.186-7.269a36.253,36.253,0,0,1-1.173-3.945c-.942-3.217-1.795-6.487-2.417-9.775" transform="translate(-3.995 -67.315)" fill="#20acae"/>
        <path id="Trazado_895151" data-name="Trazado 895151" d="M34.952,339.343l-2.915-16.28,11.89,6.719-.035,1.191a3.294,3.294,0,0,0-.3.888l-1.8,6.914-3.572-6.256-4.105-6.4-.214.32a81.291,81.291,0,0,0,5.421,8.886A25.309,25.309,0,0,1,41.848,340h-1.76c-.5-.338-.942-.214-1.51-.214a1.922,1.922,0,0,0-1.3-.213,4.638,4.638,0,0,0-2.328-.231" transform="translate(-6.675 -67.315)" fill="#027380"/>
        <path id="Trazado_895152" data-name="Trazado 895152" d="M46.663,331.549c3.607,1.955,7,4.3,10.432,6.522.8.515,2.7,1.44,3.146,2.168l-.711,2.08-5.012,14.787-7.607-12.387c-.444-.871-1.723-2.488-1.742-3.395-.036-1.937.889-4.675,1.4-6.594a9.421,9.421,0,0,0,.284-1.724l-.249-.249Z" transform="translate(-9.412 -69.084)" fill="#047d87"/>
        <path id="Trazado_895153" data-name="Trazado 895153" d="M63.441,342.977a22.6,22.6,0,0,1,5.083,3.892c.657,1.937,1.848,3.714,2.665,5.58l.142.213c.178,1.636,1.92,4.106,2.737,5.634l-.959,2.986-3.8,15.089-.427,2.222L57.63,360.038a15.15,15.15,0,0,1,.64-2.648l3.11-8.9c.587-1.689,1.084-4.071,2.061-5.51" transform="translate(-12.008 -71.465)" fill="#047d87"/>
        <path id="Trazado_895154" data-name="Trazado 895154" d="M71.654,383.7l-.178-.711.356-1.529,4.656-18.056,6.5,15.213c2.755,6.522,5.6,13.045,7.891,19.746,1.173,3.465,2.1,7.055,3.022,10.592l-1.76-.089a4.661,4.661,0,0,0-.249,2.275,48.424,48.424,0,0,1-.017,6.007L92,419.23H84.788a50.258,50.258,0,0,0-4.692-5.971l1.973.2a32.788,32.788,0,0,0,5.119.178,5.5,5.5,0,0,0,1.955-.142l.267-.107c-.124-.5.017-.3-.391-.568-.8.427-3.412.32-4.337.16-.959-.16-1.99-.053-2.968-.142a9.824,9.824,0,0,1-2.221-.213,8.014,8.014,0,0,1-1.209-1.244L75.493,408.3l-7.536-8.353,13.756.924,7.18,11.712.213-.213L72.525,385.107Z" transform="translate(-14.16 -75.722)" fill="#027380"/>
        <path id="Trazado_895155" data-name="Trazado 895155" d="M35.719,343.619a4.758,4.758,0,0,1,2.311.213,1.915,1.915,0,0,1,1.3.214,2.4,2.4,0,0,1,1.511.213H42.6c1.369,1.848,2.4,4.088,3.59,6.078l5.457,8.922a58.817,58.817,0,0,1-8.976-1.546l-1.742-.213c.284.213.622.568.959.587a5.042,5.042,0,0,1,1.44.284l.551.071,5.971,1.191c1.262.267,2.257.017,3.057,1.226l.426.764L63.516,378.56a19.509,19.509,0,0,1-2.489-.071c-4.407-.551-8.85-.658-13.24-1.386l-.765-.054-.213.32.32.32a10.72,10.72,0,0,1,1.848.142c1.3.178,2.595.2,3.91.444,3,.6,6.292.462,9.331.853a11,11,0,0,1,1.742.089,4.912,4.912,0,0,1,.853.942l.089.231,9.561,15.729L63.071,395.5a11.5,11.5,0,0,1-2.381-.2,8.538,8.538,0,0,1-1.191-1.209l-4.835-4.958c-1.119-1.156-2.24-2.311-3.252-3.555l-2.151-2.808c-.089-.124-.408-.621-.533-.657-3.146-5.439-5.154-11.588-7.287-17.471l-2.186-7.269a36.079,36.079,0,0,1-1.173-3.945c-.889-3.253-1.742-6.523-2.364-9.811" transform="translate(-7.443 -71.591)" fill="#047d87"/>
        <path id="Trazado_895156" data-name="Trazado 895156" d="M119.922,379.826a5.622,5.622,0,0,1,3,.658l4.39,1.475,4.55,1.279a131.043,131.043,0,0,0,13.791,2.9,154.3,154.3,0,0,0,25.61,1.386l14.325-.249a11.338,11.338,0,0,1-.2,2.2c-1.6,1.848-1.226,4.176-1.4,6.522l-.178,1.386c1.3.835,4.088.5,5.687.5l1.724,33.128-61.582.889-66.416,1.333-.017-4.479-.125-6.025,20.652-.07h7.216l-.124-2.08a48.414,48.414,0,0,0,.017-6.007,4.685,4.685,0,0,1,.249-2.275l1.76.089,3.216.036.338-.089,1.653.036,11.374-.107c3.91-4.976,7.411-10.255,8.478-16.582a2.83,2.83,0,0,0,1.617.267,1.406,1.406,0,0,0,.871-.534c.8-.978.427-2.435.249-3.573-.515-2.808-1.546-5.936-1.67-8.762a3.63,3.63,0,0,1,.213-1.848c.249-.462.214-.249.285-.782l.036-.32Z" transform="translate(-13.145 -79.131)" fill="#e36355"/>
        <path id="Trazado_895157" data-name="Trazado 895157" d="M175.658,402.281l16.475-.249a66.059,66.059,0,0,1,9.188-.054c1.3.835,4.088.5,5.688.5l1.723,33.128-61.582.888-.213-9.295,29.7-.161Z" transform="translate(-30.617 -83.725)" fill="#f68870"/>
        <path id="Trazado_895158" data-name="Trazado 895158" d="M132.117,379.826a5.622,5.622,0,0,1,3,.658l4.39,1.475,4.55,1.279a131.043,131.043,0,0,0,13.791,2.9,154.3,154.3,0,0,0,25.61,1.386l14.325-.249a11.337,11.337,0,0,1-.2,2.2c-1.6,1.848-1.226,4.176-1.4,6.522l-.178,1.386a66.188,66.188,0,0,0-9.189.053l-16.475.249h-5.332l1.351,14.325-44.751.267c3.91-4.977,7.411-10.255,8.478-16.582a2.815,2.815,0,0,0,1.617.267,1.4,1.4,0,0,0,.871-.534c.8-.977.427-2.434.249-3.572-.515-2.808-1.546-5.936-1.67-8.762a3.617,3.617,0,0,1,.213-1.848c.249-.462.213-.249.284-.782l.036-.32Z" transform="translate(-25.34 -79.131)" fill="#d6e6ce"/>
        <path id="Trazado_895159" data-name="Trazado 895159" d="M147.81,217.823l-2.293-.408.017-25.042c.036-4.585-.355-10.006.711-14.485l.089-.355a87.655,87.655,0,0,1,4.5-12.175,135.97,135.97,0,0,1,12.3-23.6c2.826-4.265,5.99-8.584,10.059-11.748a32.683,32.683,0,0,1,7.642-4.105,40.473,40.473,0,0,1,3.874,5.421,136.256,136.256,0,0,1,10.184,17.843c1.511,3.235,2.772,6.967,4.639,9.971l.106.177a18.72,18.72,0,0,0,.818,2.631,58.588,58.588,0,0,0,2.7,7.482c.2-5.082.48-10.468-.409-15.515a72.714,72.714,0,0,0-.764-8.318,155.188,155.188,0,0,0-3.217-18.7,31.727,31.727,0,0,1,6.061,3.644c2.9,2.346,4.639,6.9,5.047,10.522-.569,1.119-.143,3.572-.107,4.9l.427,12.156,1,24.757.249,13.312c.035,1.955-.249,4.425.23,6.327a5.1,5.1,0,0,0-.16,2.488l.107,4.675a5.983,5.983,0,0,1-.017,1.386c-.16.427-.853.782-1.226,1.013l-.089.64c-.568-.587-.942-.284-1.689-.178a112.4,112.4,0,0,1-30.6.2l-6.5-1.155a24.316,24.316,0,0,0-3.874-.835c-1.156-.942-.729-2.257-.569-3.608.818-6.575,2.471-13.294,2.719-19.923a41.958,41.958,0,0,0-.515-5.563L167.7,168.842c-1.973,3.519-4.425,7.2-5.9,10.966-1.351,3.465-1.706,7.7-2.363,11.356l-3.182,17.879-1.3,7.038a7.028,7.028,0,0,1-.515,2.044c-.089.106-.249.124-.374.2l-1.191-.089Z" transform="translate(-30.316 -26.234)" fill="#70a7d6"/>
        <path id="Trazado_895160" data-name="Trazado 895160" d="M173.358,174.341l11.392-21.878-1.582,34a65.893,65.893,0,0,0,12.316,10.469,28.283,28.283,0,0,0,3.857,2.008c.817.338,3.145.872,3.625,1.423a5.323,5.323,0,0,1-2.417-.3c-6.753-2.115-12.956-7.464-17.292-12.9l-.018,16.386v4.3a5.02,5.02,0,0,0,.267,2.417,47.819,47.819,0,0,0,21.825,3.59c2.311-.177,5.332-.977,7.571-.587a19.558,19.558,0,0,1-5.9,1.28,43.851,43.851,0,0,1-19.656-1.9c-1.227-.445-2.737-1.582-3.945-1.76a56.5,56.5,0,0,0,.249,7.376l-6.5-1.155a24.229,24.229,0,0,0-3.874-.835c-1.156-.942-.729-2.258-.569-3.608.818-6.575,2.471-13.294,2.719-19.923a41.953,41.953,0,0,0-.515-5.563Z" transform="translate(-35.941 -31.768)" fill="#5584b9"/>
        <path id="Trazado_895161" data-name="Trazado 895161" d="M286.341,173.2a21.582,21.582,0,0,0-2.2,4.07,14.971,14.971,0,0,0,.374,3.11l1.457,13.561,1.6,18.607a6.537,6.537,0,0,1-2.221.925L278.5,215.7l-2.719-7.464a216.044,216.044,0,0,1-7.749-25.486,44.642,44.642,0,0,1-1.138-4.728,28.624,28.624,0,0,1,.534-6.5,93.176,93.176,0,0,1,8.5-28.276,56.351,56.351,0,0,1,6.309-10.575c3.679-4.622,8.122-6.914,13.33-9.384a11.42,11.42,0,0,1,2.879-1.351,4.5,4.5,0,0,0-.32.978c-.267,1.8,1.191,4.07,2.31,5.4,1.9,2.257,5.758,5.705,8.9,5.67,1.369-.018,2.559-1.92,3.323-2.879,1.369.355,2.524,1.191,3.946,1.51a2.531,2.531,0,0,0,1.209-.515c.959-.924,1.226-2.915,1.172-4.177a6.459,6.459,0,0,0-2.221-4.958l.053-.6a9.673,9.673,0,0,1,2.2.675c5.19,4.71,9.189,11.624,11.464,18.217.8,2.328,1.279,4.763,1.866,7.145l1.369,15.2.337,25.593.089,10.735a10.77,10.77,0,0,1-.018,2.4c-.017.053-.408.6-.427.622l-.373.355a51.908,51.908,0,0,1-12.3,3.252,31.032,31.032,0,0,1-4.6.534,101.245,101.245,0,0,1-25.611.07l-1.013-.337c-.142-.178-.338-.3-.427-.5-.444-1.013-.32-3.5-.427-4.638l-1.439-17.453a91.218,91.218,0,0,0-1.173-11.019" transform="translate(-55.6 -25.406)" fill="#fab244"/>
        <path id="Trazado_895162" data-name="Trazado 895162" d="M291.474,180.969l4.9-12.6c1.013-2.915,1.564-6.452,2.862-9.171l1.848,10.841,2.915,17.1c1.866,8.816,4.087,18.217,11.747,23.9l5.812,3.8a101.239,101.239,0,0,1-25.61.07l-1.013-.337c-.142-.178-.338-.3-.427-.5-.444-1.013-.32-3.5-.427-4.638l-1.439-17.453a91.224,91.224,0,0,0-1.173-11.019" transform="translate(-60.733 -33.171)" fill="#ed852f"/>
        <path id="Trazado_895163" data-name="Trazado 895163" d="M161.988,233.037a22.551,22.551,0,0,1,3.873.835l6.5,1.155a112.409,112.409,0,0,0,30.6-.195c.747-.125,1.138-.409,1.689.177l3.288,44.929a251.011,251.011,0,0,1-.64,25.343l-1.208,23.8-.819,17.809c-.123,2.648.036,5.492-.336,8.121-2.648.427-5.973.089-8.692,0l.73.321.142,1.351-14.325.249a154.2,154.2,0,0,1-25.61-1.386,134.77,134.77,0,0,1-13.79-2.9l-4.55-1.279-4.39-1.475a5.8,5.8,0,0,0-3-.658l-.427.3-.036.32c-.07.533-.035.32-.283.782a3.614,3.614,0,0,0-.214,1.848c.125,2.826,1.155,5.954,1.67,8.763a19.662,19.662,0,0,0-2.487.621c-3.5-2.044-5.119-5.563-7.145-8.922a66.078,66.078,0,0,1-3.447-5.936l-.126-.285a6.826,6.826,0,0,1-.515-4.194,17.379,17.379,0,0,1,6.879-.959l1.137-1.226-.675-1.262a2.134,2.134,0,0,1,.161-1.884,59.1,59.1,0,0,0,4.389-4.8l5.564-6.38,9.418-10.753,15.214-18.892c.729-.941,2.311-2.505,2.737-3.572a4.67,4.67,0,0,0-.053-1l-.16-3.235-1.209-20.19c-.48-11.552-1.883-23.816.143-35.35" transform="translate(-24.659 -48.557)" fill="#304373"/>
        <path id="Trazado_895164" data-name="Trazado 895164" d="M127.974,368.637l1.155,1.209a19.252,19.252,0,0,0,2.435,2.221c.462.355,1.529.818,1.67,1.333l-.621.782a14.046,14.046,0,0,0-1.476,2.612c-2.026-1.191-4.372-2.631-5.527-4.746a4.355,4.355,0,0,1,1.226-2.186Z" transform="translate(-26.173 -76.811)" fill="#fa9a6b"/>
        <path id="Trazado_895165" data-name="Trazado 895165" d="M134.882,363.617l.818-3.767a3.555,3.555,0,0,0,2.274-.089c2.95-1.315,5.723-3.892,8.193-5.954,7.874-6.522,15.2-13.524,22.518-20.651l9.864-9.971a44.063,44.063,0,0,0,4.745-5.563c3-4.621,4.284-10.592,6.4-15.64l2.115,5.492a13.855,13.855,0,0,1,.959,2.346c.16,1.244-.427,3.252-.551,4.567a22.864,22.864,0,0,0,.089,4.124l1.351,10.361,3.554,24.028,1.528,10.575c.214,1.547.143,4.675.96,5.9l.728.32.142,1.351-14.325.249a154.2,154.2,0,0,1-25.61-1.387,134.586,134.586,0,0,1-13.792-2.9l-4.55-1.279-4.39-1.476a6.032,6.032,0,0,0-3.022-.64" transform="translate(-28.105 -62.923)" fill="#aecf9d"/>
        <path id="Trazado_895166" data-name="Trazado 895166" d="M163.9,233.037a22.551,22.551,0,0,1,3.873.835l6.5,1.155a112.409,112.409,0,0,0,30.6-.195c.747-.125,1.138-.409,1.689.177l3.288,44.929a251.02,251.02,0,0,1-.64,25.343l-1.208,23.8-.819,17.809c-.123,2.648.036,5.492-.336,8.121-2.648.427-5.973.089-8.692,0-.816-1.226-.746-4.354-.959-5.9l-1.529-10.575-3.554-24.028-1.351-10.362a22.82,22.82,0,0,1-.089-4.123c.124-1.316.711-3.324.551-4.568a12.959,12.959,0,0,0-.96-2.346l-2.114-5.474.017-.409c.124-2.274,1.4-5.154,2.1-7.357l3.378-11.321c2.595-9.881,4.549-20.03,6.256-30.089a77.08,77.08,0,0,1-16.814.658c-3.038-.142-6.149-.249-9.153-.675-1.973,6.558-2.577,13.33-3.021,20.136l-1.386,25.681c-.3,3.7-.319,8.406-1.742,11.836a14.325,14.325,0,0,1-2.684,3.448L160.4,305.1l-23.371,28.169-3.856,4.14c-1.174,1.138-3.2,2.613-3.661,4.177l-1.155-1.208-.676-1.262a2.134,2.134,0,0,1,.161-1.884,58.791,58.791,0,0,0,4.389-4.8l5.563-6.38,9.42-10.753,15.214-18.892c.728-.942,2.31-2.506,2.737-3.572a4.781,4.781,0,0,0-.053-1l-.16-3.235-1.209-20.19c-.462-11.588-1.866-23.851.161-35.385" transform="translate(-26.571 -48.557)" fill="#1d2f5d"/>
        <path id="Trazado_895167" data-name="Trazado 895167" d="M326.172,374.54c8.584-1.3,16.76-3.981,24.9-6.913l9.935,51.327.427-.036a17.449,17.449,0,0,0,3.856.124c1.742,0,4.3.32,5.936-.213l.48.106,8.425.107c-.462.924-1.28,2.061-1.156,3.11l.445.337c.515-.142.461-.142.693-.6l.782-1.937,13.347,3.767c1.031.338,3.2.765,3.821,1.671l.036,1.191.267,1.635-.285.3-102.3-.053-43.045-.071L223,428.462l-1.724-33.128c-1.6,0-4.39.338-5.687-.5l.178-1.386c.177-2.328-.2-4.674,1.4-6.522a11.273,11.273,0,0,0,.2-2.2l-.142-1.351-.729-.32c2.719.089,6.043.427,8.691,0a49.8,49.8,0,0,0,6.487-.622l7.66-1.4c1.12-.249,3.11-1.013,4.177-.942a2.86,2.86,0,0,1,.515.161,4.791,4.791,0,0,1,2.364-2.222l2.257-5.83,7.358,3.324a14.119,14.119,0,0,0-2.719,4.585l.053.3a19.619,19.619,0,0,1,2.862,3.536l.373-.2c3.163.48,7.109-.177,10.326-.391l18.945-1.723a200.555,200.555,0,0,0,26.8-4.141c.107,2.008.124,11.712.818,12.779l.711.177h3l4.709-.071,2.311-.249Z" transform="translate(-44.922 -76.601)" fill="#f8c55b"/>
        <path id="Trazado_895168" data-name="Trazado 895168" d="M225.229,387.114l-.284,3.679,8.424,3.413c2.062.817,4.639,1.4,6.469,2.648l.089.462a4.613,4.613,0,0,1,.142,2.026c-1.759.408-4.123.124-5.971.124l-12.8-.053c-1.6,0-4.39.337-5.687-.5l.178-1.386c.177-2.328-.2-4.675,1.4-6.522a11.217,11.217,0,0,0,.2-2.2l-.142-1.351-.729-.321c2.719.071,6.061.409,8.709-.017" transform="translate(-44.927 -80.661)" fill="#1d2f5d"/>
        <path id="Trazado_895169" data-name="Trazado 895169" d="M225.473,387.114l-.284,3.679a5.854,5.854,0,0,1-5.03,1.724,4.464,4.464,0,0,1-2.7-1.51,11.339,11.339,0,0,0,.2-2.2l-.143-1.351-.728-.321c2.7.071,6.043.409,8.691-.017" transform="translate(-45.17 -80.661)" fill="#f7a99d"/>
        <path id="Trazado_895170" data-name="Trazado 895170" d="M215.814,400.209a32.129,32.129,0,0,0,5.225.178H235.72a13.008,13.008,0,0,0,3.714-.249l.32-.089.2-.071a4.616,4.616,0,0,1,.142,2.027c-1.759.408-4.123.124-5.971.124l-12.8-.054c-1.6,0-4.39.338-5.687-.5Z" transform="translate(-44.931 -83.342)" fill="#091e46"/>
        <path id="Trazado_895171" data-name="Trazado 895171" d="M251.109,373.4l7.357,3.323a14.139,14.139,0,0,0-2.718,4.585l.053.3a19.62,19.62,0,0,1,2.861,3.537l6.434,9.01a28.348,28.348,0,0,1-4.922-.071,29.614,29.614,0,0,1-5.332.089c-4.177,0-8.389.106-12.547-.178-1.831-1.244-4.408-1.848-6.469-2.648l-8.425-3.413.284-3.679a49.673,49.673,0,0,0,6.487-.622l7.66-1.4c1.119-.249,3.11-1.013,4.177-.942a2.879,2.879,0,0,1,.515.16,4.782,4.782,0,0,1,2.364-2.221Z" transform="translate(-47.382 -77.803)" fill="#d6e6ce"/>
        <path id="Trazado_895172" data-name="Trazado 895172" d="M255.665,373.4l7.357,3.323a14.139,14.139,0,0,0-2.718,4.585l.053.3a19.62,19.62,0,0,1,2.861,3.537l6.434,9.01a28.348,28.348,0,0,1-4.922-.071c-4.621-3.643-10.362-6.114-15.462-9.029l1.795-3.589a4.791,4.791,0,0,1,2.364-2.222Z" transform="translate(-51.939 -77.803)" fill="#1d2f5d"/>
        <path id="Trazado_895173" data-name="Trazado 895173" d="M256.76,373.4l7.357,3.323a14.139,14.139,0,0,0-2.718,4.585l.053.3a10.811,10.811,0,0,1-1.937,2.471,5.571,5.571,0,0,1-1.369-1.44,13.929,13.929,0,0,0-3.448-3.323l-.178-.089Z" transform="translate(-53.033 -77.803)" fill="#f68870"/>
        <path id="Trazado_895174" data-name="Trazado 895174" d="M262.123,441.26l-.017-.284-1.636-11.037,56.428-.64,2.364,11.961-9.58-.036a27.426,27.426,0,0,0-4.531.107Z" transform="translate(-54.273 -89.451)" fill="#fab244"/>
        <path id="Trazado_895175" data-name="Trazado 895175" d="M336.866,374.54c8.584-1.3,16.76-3.981,24.9-6.913l9.935,51.327a28.014,28.014,0,0,1-5.6.089l-11.588.177-2.133-11.837-58.72.587-.267-15.586-20.047.551-6.434-9.01.374-.2c3.163.48,7.109-.178,10.325-.391l18.945-1.724a200.438,200.438,0,0,0,26.8-4.141c.106,2.008.124,11.712.817,12.779l.711.178h3l4.709-.071,2.31-.249Z" transform="translate(-55.616 -76.601)" fill="#d6e6ce"/>
        <path id="Trazado_895176" data-name="Trazado 895176" d="M342.739,396.412l4.709-.071c-.017,1.085-.355,3.359.054,4.3l10.628,5.314a22.984,22.984,0,0,1,3.91,2.257l-.053.906c-.853.534-4.461.142-5.634.16l-18.093.284.427-5.385c.054-.622.036-1.582.5-2.044l.142-.107c.3-.124.586-.266.871-.408.444-1.9-.107-2.95-.409-4.763l-.071-.427Z" transform="translate(-70.482 -82.584)" fill="#304373"/>
        <path id="Trazado_895177" data-name="Trazado 895177" d="M343.02,396.412l4.709-.071c-.017,1.085-.355,3.359.054,4.3-.569,1.617-2.115,2.6-3.644,3.359l-.2.089c-.23-.8-.23-1.316-1.031-1.742a7.126,7.126,0,0,0-3.305-.337c.3-.124.586-.267.871-.408.444-1.9-.107-2.95-.409-4.763l-.071-.427Z" transform="translate(-70.763 -82.584)" fill="#f7b79d"/>
        <path id="Trazado_895178" data-name="Trazado 895178" d="M37.7,344.528c-2.275-.818-5.065-4-6.487-5.971A91.521,91.521,0,0,1,25.1,329.44a60.889,60.889,0,0,1-6.647-38.815A52.385,52.385,0,0,1,88.26,250.529c4.994,1.937,9.757,4.55,14.609,6.825l24.4,10.5c4.319,1.617,8.709,3.341,13.277,4.105l.32-.551,1.208,20.19.161,3.235a6.369,6.369,0,0,1,.053,1c-.427,1.066-2.008,2.612-2.737,3.572L124.338,318.3l-9.42,10.753-5.563,6.38c-1.422,1.6-2.825,3.359-4.39,4.8a2.129,2.129,0,0,0-.16,1.884l.675,1.262-1.138,1.226a17.742,17.742,0,0,0-6.878.959,6.8,6.8,0,0,0,.515,4.194l.124.285c.959,2.026,2.293,4.016,3.448,5.936,2.027,3.341,3.644,6.86,7.145,8.922a17.564,17.564,0,0,1,2.488-.622c.177,1.138.551,2.595-.249,3.573a1.4,1.4,0,0,1-.871.533,2.823,2.823,0,0,1-1.617-.266c-1.048,6.345-4.568,11.623-8.478,16.582L88.6,384.8l-1.653-.036-.337.089L82.324,347.5,62.987,332.763l-.142-.214c-.817-1.866-2.008-3.66-2.665-5.58a23.148,23.148,0,0,0-5.083-3.892l-.587-.373c-.462-.729-2.346-1.653-3.146-2.168-3.448-2.221-6.842-4.568-10.432-6.522l-11.89-6.719,2.915,16.28c.621,3.288,1.475,6.558,2.4,9.757a32.669,32.669,0,0,0,1.173,3.945Z" transform="translate(-3.68 -51.529)" fill="#aecf9d"/>
        <path id="Trazado_895179" data-name="Trazado 895179" d="M128.563,352.2c.267-1.333.2-3,.587-4.248.16-.533,1.3-1.51,1.724-1.937l7.251-6.718a59.657,59.657,0,0,1-.249,8.922l-5.563,6.381c-1.422,1.6-2.826,3.359-4.39,4.8a13.5,13.5,0,0,0,.124-2.239,3.782,3.782,0,0,0,.213-1.955l.214-.32a5,5,0,0,1,.106-1.706,1.325,1.325,0,0,0-.017-.978" transform="translate(-26.655 -70.698)" fill="#047d87"/>
        <path id="Trazado_895180" data-name="Trazado 895180" d="M133.168,311.456c1.066.906,1.848,11.268,2.044,13.561l.533,7.961-8.779,8.122,4.283-20.509c.374-1.9,1.191-4.141,1.28-6.043l-.178.374-.2.728-5.811,26.464-5.776-6.558a32.175,32.175,0,0,0-3.875-3.91l-.444-1.049,1.973-2.221,10.841-12.406a38.2,38.2,0,0,1,4.105-4.514" transform="translate(-24.222 -64.897)" fill="#047d87"/>
        <path id="Trazado_895181" data-name="Trazado 895181" d="M69.838,304,82.9,310.685l5.439,24.188L69.3,322.148Z" transform="translate(-14.441 -63.344)" fill="#20acae"/>
        <path id="Trazado_895182" data-name="Trazado 895182" d="M70.952,343.636l-.017-.249-1.653-15.924c5.883,3.573,11.658,7.233,17.2,11.3a12.443,12.443,0,0,1,2.008,1.457,10.4,10.4,0,0,1,.621,2.329l3.928,21.042-7.571-6.061-7.34-5.4c-1.191-.888-2.862-2.559-4.284-2.968l-.249.053c-.8-1.866-1.99-3.643-2.648-5.58" transform="translate(-14.436 -68.232)" fill="#20acae"/>
        <path id="Trazado_895183" data-name="Trazado 895183" d="M92.105,341.631c-.889-3.483-1.3-7.163-2.026-10.682l-1.156-5.42a6.233,6.233,0,0,1-.32-2.186,11.654,11.654,0,0,1,1.564-2.488l4.408-6.575,6.38-10.344-.124-.2L88.267,323.058l-4.124-18.27a16.209,16.209,0,0,1-.8-3.128,11.836,11.836,0,0,1,1.138-2.275l6.611-11.747-.142-.2a40.727,40.727,0,0,0-2.737,4.354l-4.994,9.188-8.5-34.23a2.878,2.878,0,0,0-.373-.906L82.97,302l-12.9-6.754a149.253,149.253,0,0,1,1.6-15.657l2.452-15.569a175.083,175.083,0,0,1,17.346,23.193c3.395,5.26,6.718,10.521,9.633,16.066,2.665,5.065,5.385,9.775,7.447,15.16l-1.973,2.222.444,1.048-.231.142,9.882,11.072a12.714,12.714,0,0,0-.2,3.573c.089.427.177.568.035.959a5,5,0,0,0-.106,1.706l-.214.321a3.791,3.791,0,0,1-.213,1.955,13.433,13.433,0,0,1-.124,2.24,2.129,2.129,0,0,0-.16,1.884l.675,1.262-1.138,1.226a17.74,17.74,0,0,0-6.878.959,6.8,6.8,0,0,0,.515,4.194l.124.285c.959,2.026,2.293,4.016,3.448,5.936,2.027,3.341,3.644,6.86,7.144,8.922a17.622,17.622,0,0,1,2.488-.622c.178,1.138.551,2.6-.249,3.573a1.4,1.4,0,0,1-.871.533,2.823,2.823,0,0,1-1.617-.266c-1.048,6.344-4.568,11.623-8.478,16.582l-11.374.107-1.653-.036a46.889,46.889,0,0,0-.462-6.1l-1.742-15.782c-1.031-8.246-1.83-16.51-3.519-24.7" transform="translate(-14.6 -55.012)" fill="#20acae"/>
        <path id="Trazado_895184" data-name="Trazado 895184" d="M114.075,337.094l9.881,11.073a12.762,12.762,0,0,0-.2,3.571c.089.427.178.57.036.96a5,5,0,0,0-.106,1.707l-.214.32a3.8,3.8,0,0,1-.213,1.955,13.5,13.5,0,0,1-.124,2.239,2.131,2.131,0,0,0-.16,1.885l.675,1.261-1.138,1.227a17.74,17.74,0,0,0-6.878.959,6.805,6.805,0,0,0,.515,4.2l.124.284c.959,2.026,2.293,4.017,3.448,5.935,2.027,3.341,3.644,6.86,7.144,8.922a17.588,17.588,0,0,1,2.488-.621c.178,1.137.551,2.594-.249,3.572a1.406,1.406,0,0,1-.871.534,2.83,2.83,0,0,1-1.617-.267c-1.049,6.345-4.568,11.623-8.478,16.582l-11.374.107c-.143-1.848-.675-3.59-.942-5.4l-.782-7.376c-.249-2.862-.142-5.794-.142-8.655a136.331,136.331,0,0,1,2.061-23.887l3.483,2.08,4.443,3.039a4.256,4.256,0,0,0,1.084.674l.3-.212-9.206-6.079a112.1,112.1,0,0,1,5.438-17.345c.427-1.013.765-2.506,1.564-3.235" transform="translate(-21.854 -70.239)" fill="#07918e"/>
        <path id="Trazado_895185" data-name="Trazado 895185" d="M128.884,393.956A21.811,21.811,0,0,1,126,391.113c-2.1-2.648-3.75-5.705-5.58-8.531-1.44-2.2-3.448-4.532-4.426-6.967a4.757,4.757,0,0,1-.3-2.541,9.429,9.429,0,0,1,2.186-1.653,6.805,6.805,0,0,0,.515,4.194l.124.284c.96,2.027,2.293,4.017,3.448,5.936,2.026,3.341,3.643,6.86,7.144,8.922a17.56,17.56,0,0,1,2.488-.622c.177,1.138.551,2.595-.249,3.573a1.409,1.409,0,0,1-.871.533,2.96,2.96,0,0,1-1.6-.284" transform="translate(-24.097 -77.391)" fill="#091e46"/>
        <path id="Trazado_895186" data-name="Trazado 895186" d="M325.162,224.336l.444,3.5.338,2.79,5.758,40.38c.942,6.522,2.434,13.276,2.719,19.869a77.119,77.119,0,0,1-.551,9.26l-2.2,20.367-2.968,23.9-1.973,15.569-2.311.249-4.709.071h-3l-.711-.178c-.676-1.048-.711-10.752-.818-12.778a201.014,201.014,0,0,1-26.8,4.14L269.427,353.2c-3.216.231-7.144.889-10.325.391l-.374.2a19.649,19.649,0,0,0-2.861-3.537l-.054-.3a14.131,14.131,0,0,1,2.719-4.586l-7.357-3.323-2.257,5.83a4.941,4.941,0,0,0-2.364,2.221,1.932,1.932,0,0,0-.515-.16c-1.066-.071-3.057.693-4.177.942l-7.66,1.4a46.831,46.831,0,0,1-6.487.621c.374-2.612.231-5.456.338-8.121l.818-17.809,1.208-23.8a251.151,251.151,0,0,0,.64-25.343,183.028,183.028,0,0,0,19.106-2.7,262.9,262.9,0,0,0,28.4-7.944l.693-20.3a4.44,4.44,0,0,1-2.044-.142c-2.328-.835-3-7.323-3.821-9.561l-.089-.231,6.487-1.9c.053,1.1.053,2.985.746,3.856l.853.036,1.173-8.193.373-2.578a101.2,101.2,0,0,0,25.61-.071,26.849,26.849,0,0,0,4.6-.533,49.6,49.6,0,0,0,12.352-3.235" transform="translate(-47.448 -46.744)" fill="#304373"/>
        <path id="Trazado_895187" data-name="Trazado 895187" d="M290.85,250.082a4.419,4.419,0,0,1-2.044-.143c-2.328-.835-3-7.322-3.821-9.561l-.089-.231,6.487-1.9c.053,1.1.053,2.986.746,3.857l.853.036.249.106c2.346.8,6.363-.747,8.425.782l.213.534a2.983,2.983,0,0,1-1.9,1.315l-.177.036a3.043,3.043,0,0,0,1.422.337l.213.374c-.213.551-.267,1-.835,1.279a11.782,11.782,0,0,1-2.435.515,33.194,33.194,0,0,0-4.834,1.529,8.446,8.446,0,0,0-2.471,1.138" transform="translate(-59.363 -49.642)" fill="#f7a99d"/>
        <path id="Trazado_895188" data-name="Trazado 895188" d="M283.48,302.386c.64.6.5,1.155.534,1.99a11.968,11.968,0,0,1-.231,3.377,58.142,58.142,0,0,1-3.395,8.335,270.406,270.406,0,0,1-15.2,29.734,103.08,103.08,0,0,1-7.98,12.1l-.533.213-.249-.2a.506.506,0,0,1-.16-.355,49.114,49.114,0,0,1,2.809-4.888l16.67-32.239a175.978,175.978,0,0,0,7.731-18.075" transform="translate(-53.398 -63.007)" fill="#1d2f5d"/>
        <path id="Trazado_895189" data-name="Trazado 895189" d="M339.514,224.685l.444,3.5c-2.648.888-5.083,2.221-7.8,3.075a78.226,78.226,0,0,1-22.661,3.305,35.417,35.417,0,0,1-6.718-.373l-.427-.071c-1.706-.32-4.728-1.262-5.67-2.791l-.089-.213.374-2.577a101.236,101.236,0,0,0,25.61-.071,26.841,26.841,0,0,0,4.6-.534,50.462,50.462,0,0,0,12.334-3.252" transform="translate(-61.8 -46.817)" fill="#1d2f5d"/>
        <path id="Trazado_895190" data-name="Trazado 895190" d="M326.048,268.1a27.651,27.651,0,0,1,.818-4.674l1.759-7.945,2.4-10.859a41.122,41.122,0,0,1,2.061-7.429c.125,8.033-1.99,16.1-1.563,24.153a104.454,104.454,0,0,0,4.265,23.957c1,3.323,2.772,6.718,3.2,10.148a95.917,95.917,0,0,1,.213,10.61l.178,18.554.818,38.6h-3l-.711-.178c-.675-1.048-.711-10.752-.817-12.779l-.374-14.289-.124-26.908.036-9.58a33.257,33.257,0,0,1,.284-5.953,3.05,3.05,0,0,0,.089-.391,9.18,9.18,0,0,0-.6-1.547l-1.51-3.82Z" transform="translate(-67.937 -49.422)" fill="#1d2f5d"/>
        <path id="Trazado_895191" data-name="Trazado 895191" d="M265.924,356.457l2.541,1.031,25.149-34.212c4.177-6.291,8.548-12.885,11.392-19.9,3.519-8.709,5.332-18.146,7.961-27.139l7.376,19.709,1.511,3.821a7.952,7.952,0,0,1,.6,1.546,1.045,1.045,0,0,1-.089.391,33.266,33.266,0,0,0-.285,5.954l-.035,9.58.124,26.908.373,14.289a200.881,200.881,0,0,1-26.8,4.141L276.8,364.295c-3.217.231-7.145.888-10.326.391l-.373.2a19.629,19.629,0,0,0-2.862-3.537l-.053-.3a14.481,14.481,0,0,1,2.737-4.585" transform="translate(-54.839 -57.557)" fill="#aecf9d"/>
        <path id="Trazado_895192" data-name="Trazado 895192" d="M230.763,289.481a183.22,183.22,0,0,0,19.105-2.7,262.876,262.876,0,0,0,28.4-7.946l-.3,11.482c-.053,2.274.214,4.975-.408,7.144a178.02,178.02,0,0,1-7.731,18.094l-16.67,32.239c-.409.711-2.791,4.408-2.809,4.888a.723.723,0,0,0,.16.355l.249.2.462.462-2.257,5.83a4.943,4.943,0,0,0-2.364,2.222,1.89,1.89,0,0,0-.515-.161c-1.066-.07-3.057.693-4.177.942l-7.66,1.4a46.809,46.809,0,0,1-6.487.622c.373-2.612.231-5.457.337-8.122l.818-17.808,1.209-23.8a251.27,251.27,0,0,0,.64-25.344" transform="translate(-47.457 -58.1)" fill="#aecf9d"/>
        <path id="Trazado_895193" data-name="Trazado 895193" d="M411.228,107.606l4.835.8,5.118-.036.036,47.6a71.811,71.811,0,0,1,8.744.16c9.952,1.138,18.732,6.238,25.823,13.151,16.351,15.978,23.318,39.668,23.584,62.044.231,19.887-6.149,41.712-20.314,56.143a116.642,116.642,0,0,1-8.869,8.442,107.091,107.091,0,0,1-18.607,11.979,87.371,87.371,0,0,1-14.307,6.238A102.159,102.159,0,0,1,407,316.451a32.126,32.126,0,0,1-7.43,6.522l.071,41.783-.48-.106c-1.635.533-4.194.213-5.936.213a17.456,17.456,0,0,1-3.857-.124l-.427.036-9.935-51.327c-8.14,2.932-16.315,5.616-24.9,6.913l2.968-23.9,2.186-20.349a73.747,73.747,0,0,0,.551-9.26c-.284-6.594-1.76-13.347-2.719-19.87L351.335,206.6,351,203.809l-.444-3.5.374-.356c.017-.017.408-.568.426-.621a11.986,11.986,0,0,0,.018-2.4l-.089-10.735-.338-25.593-1.369-15.2c5.457,1.991,10.184,3.413,16.049,2.1,8.62-1.937,15.16-7.571,21.416-13.489l6.682-6.451,8.336-9.437a3.514,3.514,0,0,1,1.759-1.191,11.973,11.973,0,0,0,1.386-.266c1.689-.534,3.52-2.986,4.23-4.6a2.2,2.2,0,0,0-.036-1.83l-.071-.178a8.213,8.213,0,0,0,1.9-2.452" transform="translate(-72.84 -22.421)" fill="#aecf9d"/>
        <path id="Trazado_895194" data-name="Trazado 895194" d="M384.394,356.62l-8.229-38.3c-.2-.871-.853-2.861-.426-3.519l.355.16,1,4.337,15.64-2.506c-.728,1.066-12.476,7.536-14.573,8.762l6.5,30.835,2.079,10.2,4.728,23.815,2.435,12.459a33.114,33.114,0,0,1,.888,5.065l-.426.036Z" transform="translate(-78.262 -65.594)" fill="#304373"/>
        <path id="Trazado_895195" data-name="Trazado 895195" d="M455.339,276.939a10.875,10.875,0,0,1,4.479.231l2.31.888c4.39,2.186,5.83,6.008,7.3,10.362a8.512,8.512,0,0,1,2.595-.906,6.861,6.861,0,0,1,5.367,1.83,6.51,6.51,0,0,1,2.2,4.5,1.871,1.871,0,0,1-.658,1.457,2.649,2.649,0,0,1-1.884.6c-2.274.16-4.709-.107-7-.124l-16.582-.036-16.191.017c-2.133.018-4.6.391-6.7,0a1.744,1.744,0,0,1-.729-1.066,5.206,5.206,0,0,1,.64-3.554,8.018,8.018,0,0,1,4.443-3.733c3.146-.941,5.029-.07,7.7,1.44a20.966,20.966,0,0,1,2.684-5.794,15.17,15.17,0,0,1,10.024-6.114" transform="translate(-89.545 -57.678)" fill="#fff"/>
        <path id="Trazado_895196" data-name="Trazado 895196" d="M419.272,108.607l5.119-.036.036,47.595.017,50.225v14.219a48.456,48.456,0,0,1-.16,7.357,11.622,11.622,0,0,1-3.2,6.576,10.394,10.394,0,0,1-7.874,3.27,9.188,9.188,0,0,1-5.438-1.742,3.218,3.218,0,0,1-.3-1.4,31.04,31.04,0,0,1-4.674-4.23c-1.973-2.257-3.537-4.816-6.1-6.5a18.627,18.627,0,0,0-5.172-2.151,14.542,14.542,0,0,0-4.39-.337c-4.692.053-9.242,1.351-13.987,1.386a15.926,15.926,0,0,1-4.763-.444,11.526,11.526,0,0,1-3.412-1.511l.071-.462c.711-.054,1.742.64,2.453.906a15.343,15.343,0,0,0,2.524.587c6.736,1.208,13.667-1.92,20.491-1.085a16.852,16.852,0,0,1,4.017,1.191,14.1,14.1,0,0,1,4.105,2.559c1.866,1.706,6.86,8.744,9.26,8.957l.177-.16a1.977,1.977,0,0,1,1.386-.747,15.414,15.414,0,0,1,2.488.747,6.713,6.713,0,0,0,4.923-1.262,5.725,5.725,0,0,0,2.328-4.141l.071-70.379Z" transform="translate(-76.049 -22.623)" fill="#5584b9"/>
        <path id="Trazado_895197" data-name="Trazado 895197" d="M393.59,355.394l-.427-.871a19.322,19.322,0,0,1-1.848-5.758l-.053-.374a16.564,16.564,0,0,1,.231-5.918l.089-.408a15.813,15.813,0,0,1,7.163-10.166,15.493,15.493,0,0,1,12.032-1.635,14.491,14.491,0,0,1,8.886,6.434c2.381,4.017,2.488,8.816,1.3,13.241a42.591,42.591,0,0,1-6.132,12.813,32.143,32.143,0,0,1-7.429,6.523l.071,41.783-.48-.107c-1.635.534-4.195.213-5.936.213a17.459,17.459,0,0,1-3.857-.124,32.733,32.733,0,0,0-.888-5.065l-2.435-12.459L389.147,369.7l-2.079-10.2c2.506-1.3,4.6-1.884,6.522-4.105" transform="translate(-80.652 -68.705)" fill="#f68870"/>
        <path id="Trazado_895198" data-name="Trazado 895198" d="M402.088,341.408l.587-.07a3.408,3.408,0,0,1,.888.693c1.209,1.474,2.95,6.575,2.382,8.478-.2.674-.409.693-1,.977-.569-.053-.8.018-1.227-.355-1.635-1.386-2.648-4.8-2.737-6.932a3.607,3.607,0,0,1,1.1-2.791" transform="translate(-83.551 -71.123)" fill="#fefefe"/>
        <path id="Trazado_895199" data-name="Trazado 895199" d="M418.878,341.426a2.619,2.619,0,0,1,.818.108,1.727,1.727,0,0,1,.427.587c.781,2.008.249,4.957-.587,6.859a4.1,4.1,0,0,1-2.435,2.559,1.486,1.486,0,0,1-1.191-.462c-.64-1.244-.32-2.418.017-3.7.515-1.867,1.173-4.941,2.95-5.955" transform="translate(-86.585 -71.141)" fill="#fefefe"/>
        <path id="Trazado_895200" data-name="Trazado 895200" d="M393.585,362.149c3.146,5.314,7.553,11.108,13.311,13.721l.071,41.836c-1.635.534-4.194.213-5.936.213a17.458,17.458,0,0,1-3.857-.124,32.823,32.823,0,0,0-.889-5.065l-2.434-12.459-4.728-23.815-2.08-10.2c2.524-1.3,4.621-1.884,6.54-4.105" transform="translate(-80.647 -75.46)" fill="#d6e6ce"/>
      </g>
    </g>
  </g>
</svg>
