<svg xmlns="http://www.w3.org/2000/svg" width="89" height="89" viewBox="0 0 89 89">
  <g id="Grupo_1103339" data-name="Grupo 1103339" transform="translate(-1196.781 -3823)">
    <circle id="Elipse_11647" data-name="Elipse 11647" cx="44.5" cy="44.5" r="44.5" transform="translate(1196.781 3823)" fill="#aecd9e"/>
    <g id="cohete" transform="translate(1211.781 3838)">
      <circle id="Elipse_11647-2" data-name="Elipse 11647" cx="15" cy="15" r="15" transform="translate(27.55 1.55)" fill="#ffc729"/>
      <circle id="Elipse_11648" data-name="Elipse 11648" cx="11" cy="11" r="11" transform="translate(31.55 5.55)" fill="#fcd770"/>
      <g id="Grupo_1101574" data-name="Grupo 1101574" transform="translate(3.763 25.866)">
        <path id="Trazado_891294" data-name="Trazado 891294" d="M7.14,29.543a1.8,1.8,0,0,1,.543,1.3A1.842,1.842,0,1,1,5.842,29,1.8,1.8,0,0,1,7.14,29.543Z" transform="translate(-4 -28.079)" fill="#ff826e"/>
        <path id="Trazado_891295" data-name="Trazado 891295" d="M15.14,28.543a1.8,1.8,0,0,1,.543,1.3A1.842,1.842,0,1,1,13.842,28,1.8,1.8,0,0,1,15.14,28.543Z" transform="translate(-4.632 -28)" fill="#ff826e"/>
        <path id="Trazado_891296" data-name="Trazado 891296" d="M34.14,56.543a1.8,1.8,0,0,1,.543,1.3A1.842,1.842,0,1,1,32.842,56,1.8,1.8,0,0,1,34.14,56.543Z" transform="translate(-6.134 -30.213)" fill="#ff826e"/>
        <path id="Trazado_891297" data-name="Trazado 891297" d="M35.14,48.543a1.8,1.8,0,0,1,.543,1.3A1.842,1.842,0,1,1,33.842,48,1.8,1.8,0,0,1,35.14,48.543Z" transform="translate(-6.213 -29.581)" fill="#ff826e"/>
      </g>
      <path id="Trazado_891298" data-name="Trazado 891298" d="M13.052,53.684,11.21,61.052h-.921l-.921-3.684L2.921,61.052H2v-.921l3.684-6.447L2,52.763v-.921L9.368,50Z" transform="translate(-0.079 -3.873)" fill="#aab2bd"/>
      <path id="Trazado_891299" data-name="Trazado 891299" d="M24.856,49.41l-2.238,6.714a5.513,5.513,0,0,1-4.154,3.665L17,60.084V52.891a28.894,28.894,0,0,0,7.856-3.481Z" transform="translate(-1.265 -3.826)" fill="#ff826e"/>
      <path id="Trazado_891300" data-name="Trazado 891300" d="M6.96,40.708l6.714-2.238a28.894,28.894,0,0,0-3.481,7.856H3l.295-1.464A5.513,5.513,0,0,1,6.96,40.708Z" transform="translate(-0.158 -2.962)" fill="#ff826e"/>
      <path id="Trazado_891301" data-name="Trazado 891301" d="M24.3,47.508a28.894,28.894,0,0,1-7.856,3.481.905.905,0,0,1-.147.046l-2.616.7L10,48.051l.7-2.616a.905.905,0,0,1,.046-.147A28.879,28.879,0,0,1,30.059,25.34a13.829,13.829,0,0,0,1.2,1.934,10.767,10.767,0,0,0,.709.893,4.016,4.016,0,0,0,.378.424q.387.414.8.8a4.017,4.017,0,0,0,.424.378,10.765,10.765,0,0,0,.893.709,13.829,13.829,0,0,0,1.934,1.2,28.088,28.088,0,0,1-1.9,4.66,28.839,28.839,0,0,1-5.268,7.22A28.619,28.619,0,0,1,24.3,47.508Z" transform="translate(-0.711 -1.924)" fill="#e6e9ed"/>
      <circle id="Elipse_11649" data-name="Elipse 11649" cx="2" cy="2" r="2" transform="translate(15.55 39.55)" fill="#69d6f4"/>
      <circle id="Elipse_11650" data-name="Elipse 11650" cx="4.5" cy="4.5" r="4.5" transform="translate(20.55 29.55)" fill="#69d6f4"/>
      <path id="Trazado_891302" data-name="Trazado 891302" d="M35.694,24.3l-.092.018c-.037.009-.064.009-.1.018a27.013,27.013,0,0,0-3.721.893,16.079,16.079,0,0,0,1.2,1.934c.221.3.46.6.709.893.12.138.249.285.378.424q.387.414.8.8c.138.129.285.258.424.378.295.249.589.488.893.709a16.079,16.079,0,0,0,1.934,1.2,27.014,27.014,0,0,0,.893-3.721c.009-.037.009-.064.018-.1l.018-.092A22.092,22.092,0,0,0,39.35,24,22.092,22.092,0,0,0,35.694,24.3Z" transform="translate(-2.433 -1.818)" fill="#ff826e"/>
      <path id="Trazado_891303" data-name="Trazado 891303" d="M45.684,21.893a1.844,1.844,0,0,1-1.842-1.842H42A3.68,3.68,0,0,0,44.763,23.6v1.973H46.6V23.735h2.763V20.052a3.688,3.688,0,0,0-3.684-3.684,1.844,1.844,0,0,1-1.842-1.842V12.684h1.842a1.844,1.844,0,0,1,1.842,1.842h1.842A3.68,3.68,0,0,0,46.6,10.973V9H44.763v1.842H42v3.684a3.688,3.688,0,0,0,3.684,3.684,1.844,1.844,0,0,1,1.842,1.842v1.842Z" transform="translate(-3.241 -0.632)"/>
      <path id="Trazado_891304" data-name="Trazado 891304" d="M53,17h1.842v1.842H53Z" transform="translate(-4.11 -1.265)"/>
      <path id="Trazado_891305" data-name="Trazado 891305" d="M37,17h1.842v1.842H37Z" transform="translate(-2.845 -1.265)"/>
      <path id="Trazado_891306" data-name="Trazado 891306" d="M56.945,16.972a11.973,11.973,0,1,0-23.553,3.05l1.782-.468a10.12,10.12,0,1,1,7.265,7.229l-.46,1.785a11.985,11.985,0,0,0,14.966-11.6Z" transform="translate(-2.529 -0.316)"/>
      <path id="Trazado_891307" data-name="Trazado 891307" d="M44.656,1A15.668,15.668,0,0,0,29.528,20.7l1.78-.475a13.8,13.8,0,1,1,9.91,9.815l-.456,1.785A15.658,15.658,0,1,0,44.656,1Z" transform="translate(-2.213)"/>
      <path id="Trazado_891308" data-name="Trazado 891308" d="M26.526,42.052A5.526,5.526,0,1,0,21,36.526,5.531,5.531,0,0,0,26.526,42.052Zm0-9.21a3.684,3.684,0,1,1-3.684,3.684A3.688,3.688,0,0,1,26.526,32.842Z" transform="translate(-1.581 -2.371)"/>
      <path id="Trazado_891309" data-name="Trazado 891309" d="M18.763,47.526A2.763,2.763,0,1,0,16,44.763,2.766,2.766,0,0,0,18.763,47.526Zm0-3.684a.921.921,0,1,1-.921.921A.922.922,0,0,1,18.763,43.842Z" transform="translate(-1.186 -3.241)"/>
      <path id="Trazado_891310" data-name="Trazado 891310" d="M52.373,35.293,33.946,53.72a2.718,2.718,0,0,0-1.183-.277,2.763,2.763,0,1,0,2.763,2.763,2.718,2.718,0,0,0-.277-1.183L53.675,36.6ZM32.763,57.126a.921.921,0,1,1,.921-.921A.922.922,0,0,1,32.763,57.126Z" transform="translate(-2.292 -2.71)"/>
      <path id="Trazado_891311" data-name="Trazado 891311" d="M45.084,36.293,34.946,46.431a2.718,2.718,0,0,0-1.183-.277,2.763,2.763,0,1,0,2.763,2.763,2.718,2.718,0,0,0-.277-1.183L46.387,37.6ZM33.763,49.838a.921.921,0,1,1,.921-.921A.922.922,0,0,1,33.763,49.838Z" transform="translate(-2.371 -2.79)"/>
      <path id="Trazado_891312" data-name="Trazado 891312" d="M5.763,31.968a2.766,2.766,0,0,0,2.763-2.763,2.718,2.718,0,0,0-.277-1.183L26.675,9.6l-1.3-1.3L6.946,26.72a2.718,2.718,0,0,0-1.183-.277,2.763,2.763,0,1,0,0,5.526Zm0-3.684a.921.921,0,1,1-.921.921A.922.922,0,0,1,5.763,28.284Z" transform="translate(-0.158 -0.576)"/>
      <path id="Trazado_891313" data-name="Trazado 891313" d="M25.084,16.293,14.946,26.431a2.718,2.718,0,0,0-1.183-.277,2.763,2.763,0,1,0,2.763,2.763,2.718,2.718,0,0,0-.277-1.183L26.387,17.6ZM13.763,29.838a.921.921,0,1,1,.921-.921A.922.922,0,0,1,13.763,29.838Z" transform="translate(-0.79 -1.209)"/>
      <path id="Trazado_891314" data-name="Trazado 891314" d="M29.172,44.02a29.687,29.687,0,0,0,8.336-16.2l.016-.092a23.234,23.234,0,0,0,.315-3.809V23h-.921a23.2,23.2,0,0,0-3.81.316l-.092.016A29.724,29.724,0,0,0,12.933,36.473L6.514,38.611a6.462,6.462,0,0,0-4.282,4.852l-.513,2.561H8.83L8.54,47.1,1,48.989v2.36l3.2.8L1,57.752v2.087H3.087l5.6-3.2.8,3.2h2.36l1.885-7.54,1.079-.29V59.12l2.561-.513a6.459,6.459,0,0,0,4.853-4.282l2.14-6.419a29.792,29.792,0,0,0,4.8-3.886Zm4.146-18.872.092-.016a21.583,21.583,0,0,1,2.565-.27,21.347,21.347,0,0,1-.269,2.566l-.016.092c-.146.877-.345,1.737-.57,2.587a14.024,14.024,0,0,1-4.389-4.389c.851-.225,1.71-.424,2.587-.57Zm-15.2,7.821a27.843,27.843,0,0,1,10.793-6.712,15.857,15.857,0,0,0,5.668,5.668,27.842,27.842,0,0,1-6.712,10.794,28.041,28.041,0,0,1-12.526,7.24l-2.1.564L10.315,47.59l.565-2.1a28.064,28.064,0,0,1,7.242-12.525ZM4.036,43.823A4.619,4.619,0,0,1,7.1,40.356l4.428-1.475a29.818,29.818,0,0,0-2.168,5.3H3.965ZM10.67,56.962l-.783-3.131L3.168,57.671l3.839-6.719-3.131-.783,5.13-1.283,2.947,2.947Zm9.81-3.221A4.614,4.614,0,0,1,17.015,56.8l-.358.072v-5.39a29.79,29.79,0,0,0,5.3-2.168Z" transform="translate(0 -1.739)"/>
    </g>
  </g>
</svg>
