<svg xmlns="http://www.w3.org/2000/svg" xmlns:xlink="http://www.w3.org/1999/xlink" width="295" height="276.777" viewBox="0 0 295 276.777">
  <defs>
    <clipPath id="clip-path">
      <rect id="Rectángulo_402548" data-name="Rectángulo 402548" width="234.361" height="267.588" fill="none"/>
    </clipPath>
    <clipPath id="clip-path-3">
      <rect id="Rectángulo_402536" data-name="Rectángulo 402536" width="64.672" height="30.763" transform="translate(25.721 179.202)" fill="none"/>
    </clipPath>
    <clipPath id="clip-path-4">
      <rect id="Rectángulo_402537" data-name="Rectángulo 402537" width="12.861" height="5.036" transform="translate(25.828 206.834)" fill="none"/>
    </clipPath>
    <clipPath id="clip-path-5">
      <rect id="Rectángulo_402538" data-name="Rectángulo 402538" width="5.152" height="2.305" transform="translate(39.142 185.45)" fill="none"/>
    </clipPath>
    <clipPath id="clip-path-6">
      <rect id="Rectángulo_402539" data-name="Rectángulo 402539" width="21.631" height="11.793" transform="translate(61.495 201.966)" fill="none"/>
    </clipPath>
    <clipPath id="clip-path-7">
      <rect id="Rectángulo_402540" data-name="Rectángulo 402540" width="21.059" height="11.481" transform="translate(140.317 195.034)" fill="none"/>
    </clipPath>
    <clipPath id="clip-path-8">
      <rect id="Rectángulo_402541" data-name="Rectángulo 402541" width="12.521" height="4.902" transform="translate(204.621 203.638)" fill="none"/>
    </clipPath>
    <clipPath id="clip-path-9">
      <rect id="Rectángulo_402542" data-name="Rectángulo 402542" width="45.434" height="21.612" transform="translate(180.717 69.592)" fill="none"/>
    </clipPath>
    <clipPath id="clip-path-10">
      <rect id="Rectángulo_402543" data-name="Rectángulo 402543" width="12.521" height="4.902" transform="translate(111.643 32.659)" fill="none"/>
    </clipPath>
    <clipPath id="clip-path-11">
      <rect id="Rectángulo_402544" data-name="Rectángulo 402544" width="21.059" height="11.481" transform="translate(47.077 78.867)" fill="none"/>
    </clipPath>
    <clipPath id="clip-path-12">
      <rect id="Rectángulo_402545" data-name="Rectángulo 402545" width="21.059" height="11.48" transform="translate(76.299 92.719)" fill="none"/>
    </clipPath>
    <clipPath id="clip-path-13">
      <rect id="Rectángulo_402546" data-name="Rectángulo 402546" width="42.898" height="20.594" transform="translate(138.672 100.224)" fill="none"/>
    </clipPath>
  </defs>
  <g id="Grupo_1103373" data-name="Grupo 1103373" transform="translate(-180 -5018.223)">
    <path id="Trazado_876484" data-name="Trazado 876484" d="M0,0H295V246H0Z" transform="translate(180 5049)" fill="#b8dcf3"/>
    <g id="Grupo_1102013" data-name="Grupo 1102013" transform="translate(210.319 5018.223)">
      <g id="Grupo_1102012" data-name="Grupo 1102012" clip-path="url(#clip-path)">
        <g id="Grupo_1102011" data-name="Grupo 1102011">
          <g id="Grupo_1102010" data-name="Grupo 1102010" clip-path="url(#clip-path)">
            <path id="Trazado_893721" data-name="Trazado 893721" d="M196.845,12S177.583,3.162,162.4,26.868" fill="none" stroke="#fff" stroke-miterlimit="10" stroke-width="1.054"/>
            <path id="Trazado_893722" data-name="Trazado 893722" d="M163.581,25.689a1.667,1.667,0,1,0,0,2.357,1.669,1.669,0,0,0,0-2.357" fill="#fff"/>
            <path id="Trazado_893723" data-name="Trazado 893723" d="M37.027,22.663s19.261-8.837,34.442,14.869" fill="none" stroke="#fff" stroke-miterlimit="10" stroke-width="1.054"/>
            <path id="Trazado_893724" data-name="Trazado 893724" d="M70.291,36.353a1.667,1.667,0,1,1,0,2.357,1.669,1.669,0,0,1,0-2.357" fill="#fff"/>
            <path id="Trazado_893725" data-name="Trazado 893725" d="M117.181,267.588,9.663,216.5V205.233l107.518,51.084Z" fill="#005c6e"/>
            <path id="Trazado_893726" data-name="Trazado 893726" d="M117.181,267.588,224.7,216.5V205.233L117.181,256.317Z" fill="#064457"/>
            <path id="Trazado_893727" data-name="Trazado 893727" d="M234.361,93.621,224.7,98.7V216.5l9.662-5.081Z" fill="#064457"/>
            <path id="Trazado_893728" data-name="Trazado 893728" d="M234.361,93.621,224.7,98.7,117.18,47.618v-9.79Z" fill="#064457"/>
            <path id="Trazado_893729" data-name="Trazado 893729" d="M0,93.621,9.663,98.7V216.5L0,211.423Z" fill="#005c6e"/>
            <path id="Trazado_893730" data-name="Trazado 893730" d="M0,93.621,9.663,98.7,117.181,47.618v-9.79Z" fill="#064457"/>
            <path id="Trazado_893731" data-name="Trazado 893731" d="M117.181,154.149,9.663,205.234l107.518,51.083L224.7,205.234Z" fill="#e8f2fa"/>
            <path id="Trazado_893732" data-name="Trazado 893732" d="M117.181,47.618V154.149L224.7,205.233V98.7Z" fill="#fcb248"/>
            <path id="Trazado_893733" data-name="Trazado 893733" d="M117.181,47.618V154.149L9.663,205.233V98.7Z" fill="#ffca4a"/>
            <path id="Trazado_893734" data-name="Trazado 893734" d="M117.44,159.147l11.527,5.476L103.8,176.6l-11.526-5.476Z" fill="#b8dfee"/>
            <path id="Trazado_893735" data-name="Trazado 893735" d="M102.854,172.714v2.342c0,.249.424.452.946.452s.947-.2.947-.452v-2.351a2.345,2.345,0,0,1-1.893.009" fill="#a8aaa6"/>
            <path id="Trazado_893736" data-name="Trazado 893736" d="M93.655,168.619v2.062c0,.249.424.451.947.451s.945-.2.945-.451v-1.616a2.3,2.3,0,0,1-1.892-.446" fill="#a8aaa6"/>
            <path id="Trazado_893737" data-name="Trazado 893737" d="M126.133,163.224a2.223,2.223,0,0,1-.383-.147v1.1c0,.25.423.451.946.451s.946-.2.946-.451v-1.121a2.238,2.238,0,0,1-1.509.171" fill="#a8aaa6"/>
            <path id="Trazado_893738" data-name="Trazado 893738" d="M117.44,155.586l11.527,5.476L103.8,173.04l-11.526-5.476Z" fill="#f37240"/>
            <path id="Trazado_893739" data-name="Trazado 893739" d="M103.8,174.652l25.167-11.977v-1.612L103.8,173.041Z" fill="#f15d3d"/>
            <path id="Trazado_893740" data-name="Trazado 893740" d="M103.8,174.652l-11.526-5.476v-1.611l11.526,5.476Z" fill="#f0493b"/>
            <path id="Trazado_893741" data-name="Trazado 893741" d="M102.854,165.639v-3.463c0-.25.424-.453.946-.453s.947.2.947.453v3.447a3.177,3.177,0,0,1-1.893.016" fill="#a8aaa6"/>
            <path id="Trazado_893742" data-name="Trazado 893742" d="M104.747,165.623v5.871c0,.25-.424.453-.947.453s-.946-.2-.946-.453v-5.855a3.177,3.177,0,0,0,1.893-.016" fill="#bdbfb8"/>
            <path id="Trazado_893743" data-name="Trazado 893743" d="M95.547,167.119c0,.25-.423.452-.946.452s-.946-.2-.946-.452v-6.244a5.047,5.047,0,0,0,1.892.8Z" fill="#bdbfb8"/>
            <path id="Trazado_893744" data-name="Trazado 893744" d="M94.6,157.456c.523,0,.946.2.946.452v3.77a5.075,5.075,0,0,1-1.893-.8v-2.967c0-.249.424-.452.947-.452" fill="#a8aaa6"/>
            <path id="Trazado_893745" data-name="Trazado 893745" d="M125.749,154.758v-3.464c0-.249.423-.452.947-.452s.945.2.945.452v3.447a3.174,3.174,0,0,1-1.892.017" fill="#a8aaa6"/>
            <path id="Trazado_893746" data-name="Trazado 893746" d="M127.642,154.74v5.872c0,.249-.424.452-.946.452s-.946-.2-.946-.452v-5.855a3.174,3.174,0,0,0,1.892-.017" fill="#bdbfb8"/>
            <path id="Trazado_893747" data-name="Trazado 893747" d="M117.44,145.184l11.527,5.476L103.8,162.638l-11.526-5.476Z" fill="#f37240"/>
            <path id="Trazado_893748" data-name="Trazado 893748" d="M103.8,164.25l25.167-11.978v-1.611L103.8,162.639Z" fill="#f15d3d"/>
            <path id="Trazado_893749" data-name="Trazado 893749" d="M103.8,164.25l-11.526-5.476v-1.611l11.526,5.476Z" fill="#f0493b"/>
            <path id="Trazado_893750" data-name="Trazado 893750" d="M102.854,155.518v-3.463c0-.25.424-.454.946-.454s.947.2.947.454V155.5a3.177,3.177,0,0,1-1.893.017" fill="#a8aaa6"/>
            <path id="Trazado_893751" data-name="Trazado 893751" d="M104.747,155.5v5.872c0,.249-.424.452-.947.452s-.946-.2-.946-.452v-5.855a3.177,3.177,0,0,0,1.893-.017" fill="#bdbfb8"/>
            <path id="Trazado_893752" data-name="Trazado 893752" d="M95.547,157c0,.25-.423.452-.946.452s-.946-.2-.946-.452v-6.244a5.063,5.063,0,0,0,1.892.8Z" fill="#bdbfb8"/>
            <path id="Trazado_893753" data-name="Trazado 893753" d="M94.6,147.334c.523,0,.946.2.946.453v3.77a5.075,5.075,0,0,1-1.893-.8v-2.967c0-.249.424-.453.947-.453" fill="#a8aaa6"/>
            <path id="Trazado_893754" data-name="Trazado 893754" d="M125.749,144.636v-3.464c0-.25.423-.452.947-.452s.945.2.945.452v3.448a3.166,3.166,0,0,1-1.892.016" fill="#a8aaa6"/>
            <path id="Trazado_893755" data-name="Trazado 893755" d="M127.642,144.619v5.871c0,.25-.424.452-.946.452s-.946-.2-.946-.452v-5.855a3.166,3.166,0,0,0,1.892-.016" fill="#bdbfb8"/>
            <path id="Trazado_893756" data-name="Trazado 893756" d="M117.44,135.064l11.527,5.476L103.8,152.517l-11.526-5.475Z" fill="#f37240"/>
            <path id="Trazado_893757" data-name="Trazado 893757" d="M103.8,154.129l25.167-11.978V140.54L103.8,152.517Z" fill="#f15d3d"/>
            <path id="Trazado_893758" data-name="Trazado 893758" d="M103.8,154.129l-11.526-5.476v-1.611l11.526,5.475Z" fill="#f0493b"/>
            <path id="Trazado_893759" data-name="Trazado 893759" d="M101.213,144.215l-5.184,2.463,6.832,3.189,5.185-2.463Z" fill="#b8dfee"/>
            <path id="Trazado_893760" data-name="Trazado 893760" d="M102.03,144.215l-5.185,2.463,6.832,3.189,5.185-2.463Z" fill="#fff"/>
            <path id="Trazado_893761" data-name="Trazado 893761" d="M117.4,136.97l-5.184,2.464,6.832,3.189,5.184-2.464Z" fill="#ffca4a"/>
            <path id="Trazado_893762" data-name="Trazado 893762" d="M119.049,143.348l-6.832-3.189v-.724l6.832,3.189Z" fill="#fcb248"/>
            <path id="Trazado_893763" data-name="Trazado 893763" d="M119.049,143.348l5.184-2.463v-.726l-5.184,2.465Z" fill="#e8f2fa"/>
            <path id="Trazado_893764" data-name="Trazado 893764" d="M117.4,135.968l-5.184,2.463,6.832,3.189,5.184-2.463Z" fill="#43ba82"/>
            <path id="Trazado_893765" data-name="Trazado 893765" d="M119.049,142.344l-6.832-3.188v-.725l6.832,3.189Z" fill="#369d6e"/>
            <path id="Trazado_893766" data-name="Trazado 893766" d="M119.049,142.344l5.184-2.463v-.725l-5.184,2.464Z" fill="#e8f2fa"/>
            <path id="Trazado_893767" data-name="Trazado 893767" d="M117.4,135.014l-5.184,2.463,6.832,3.189,5.184-2.463Z" fill="#064457"/>
            <path id="Trazado_893768" data-name="Trazado 893768" d="M119.049,141.391l-6.832-3.188v-.725l6.832,3.189Z" fill="#003849"/>
            <path id="Trazado_893769" data-name="Trazado 893769" d="M119.049,141.391l5.184-2.463V138.2l-5.184,2.464Z" fill="#e8f2fa"/>
            <path id="Trazado_893770" data-name="Trazado 893770" d="M109.8,140.76l-5.184,2.463,6.832,3.189,5.185-2.463Z" fill="#43ba82"/>
            <path id="Trazado_893771" data-name="Trazado 893771" d="M111.444,147.137l-6.833-3.189v-.725l6.833,3.189Z" fill="#369d6e"/>
            <path id="Trazado_893772" data-name="Trazado 893772" d="M111.444,147.137l5.184-2.464v-.725l-5.184,2.464Z" fill="#e8f2fa"/>
            <path id="Trazado_893773" data-name="Trazado 893773" d="M109.8,139.871l-5.184,2.463,6.832,3.19,5.185-2.464Z" fill="#064457"/>
            <path id="Trazado_893774" data-name="Trazado 893774" d="M111.444,146.247l-6.833-3.188v-.725l6.833,3.19Z" fill="#003849"/>
            <path id="Trazado_893775" data-name="Trazado 893775" d="M111.444,146.247l5.184-2.462v-.726l-5.184,2.465Z" fill="#e8f2fa"/>
            <path id="Trazado_893776" data-name="Trazado 893776" d="M109.8,138.917l-5.184,2.464,6.832,3.189,5.185-2.463Z" fill="#ffca4a"/>
            <path id="Trazado_893777" data-name="Trazado 893777" d="M111.444,145.294l-6.833-3.188v-.725l6.833,3.189Z" fill="#fcb248"/>
            <path id="Trazado_893778" data-name="Trazado 893778" d="M111.444,145.294l5.184-2.463v-.725l-5.184,2.464Z" fill="#e8f2fa"/>
            <g id="Grupo_1101979" data-name="Grupo 1101979" style="mix-blend-mode: multiply;isolation: isolate">
              <g id="Grupo_1101978" data-name="Grupo 1101978">
                <g id="Grupo_1101977" data-name="Grupo 1101977" clip-path="url(#clip-path-3)">
                  <path id="Trazado_893779" data-name="Trazado 893779" d="M70.078,179.2l20.316,9.654L46.037,209.965l-20.315-9.652Z" fill="#b8dfee"/>
                </g>
              </g>
            </g>
            <path id="Trazado_893780" data-name="Trazado 893780" d="M44.368,197.448v-6.1c0-.439.747-.8,1.668-.8s1.668.358,1.668.8v6.075a5.587,5.587,0,0,1-3.336.03" fill="#00394a"/>
            <path id="Trazado_893781" data-name="Trazado 893781" d="M47.7,197.418v10.349c0,.441-.746.8-1.668.8s-1.668-.357-1.668-.8V197.448a5.587,5.587,0,0,0,3.336-.03" fill="#064457"/>
            <path id="Trazado_893782" data-name="Trazado 893782" d="M31.491,200.057c0,.44-.747.8-1.667.8s-1.669-.356-1.669-.8V189.052a8.924,8.924,0,0,0,3.336,1.415Z" fill="#064457"/>
            <path id="Trazado_893783" data-name="Trazado 893783" d="M29.824,183.024c.921,0,1.667.357,1.667.8v6.645a8.918,8.918,0,0,1-3.335-1.414v-5.231c0-.44.746-.8,1.668-.8" fill="#00394a"/>
            <path id="Trazado_893784" data-name="Trazado 893784" d="M84.722,178.268v-6.105c0-.439.745-.8,1.668-.8s1.667.357,1.667.8v6.076a5.591,5.591,0,0,1-3.335.029" fill="#00394a"/>
            <path id="Trazado_893785" data-name="Trazado 893785" d="M88.057,178.24v10.349c0,.44-.746.8-1.667.8s-1.668-.357-1.668-.8v-10.32a5.591,5.591,0,0,0,3.335-.029" fill="#064457"/>
            <path id="Trazado_893786" data-name="Trazado 893786" d="M46.036,192.16l-20.315-9.653,15.934-7.583c6.2,3.435,12.383,6.9,18.6,10.47Z" fill="#43ba82"/>
            <path id="Trazado_893787" data-name="Trazado 893787" d="M90.393,171.049l-30.14,14.345c-6.215-3.568-12.4-7.035-18.6-10.47L70.077,161.4Z" fill="#00b483"/>
            <path id="Trazado_893788" data-name="Trazado 893788" d="M46.036,195l44.357-21.111v-2.84L46.036,192.16Z" fill="#005c6e"/>
            <path id="Trazado_893789" data-name="Trazado 893789" d="M46.036,195l-20.315-9.653v-2.84l20.315,9.653Z" fill="#064457"/>
            <g id="Grupo_1101982" data-name="Grupo 1101982" style="mix-blend-mode: multiply;isolation: isolate">
              <g id="Grupo_1101981" data-name="Grupo 1101981">
                <g id="Grupo_1101980" data-name="Grupo 1101980" clip-path="url(#clip-path-4)">
                  <path id="Trazado_893790" data-name="Trazado 893790" d="M25.828,209.352c0,1.391,2.879,2.518,6.431,2.518s6.43-1.127,6.43-2.518-2.879-2.518-6.43-2.518-6.431,1.128-6.431,2.518" fill="#b8dfee"/>
                </g>
              </g>
            </g>
            <path id="Trazado_893791" data-name="Trazado 893791" d="M26.91,197.3c0-1.723,2.909-3.121,6.5-3.121s6.5,1.4,6.5,3.121a1.527,1.527,0,0,1-.038.331l-1.257,11.039c0,1.379-2.33,2.5-5.2,2.5s-5.2-1.117-5.2-2.5l-1.257-11.038a1.544,1.544,0,0,1-.038-.332" fill="#ffca4a"/>
            <path id="Trazado_893792" data-name="Trazado 893792" d="M27.835,197.3c0,1.477,2.5,2.674,5.573,2.674s5.574-1.2,5.574-2.674-2.495-2.676-5.574-2.676-5.573,1.2-5.573,2.676" fill="#c17634"/>
            <g id="Grupo_1101985" data-name="Grupo 1101985" style="mix-blend-mode: multiply;isolation: isolate">
              <g id="Grupo_1101984" data-name="Grupo 1101984">
                <g id="Grupo_1101983" data-name="Grupo 1101983" clip-path="url(#clip-path-5)">
                  <path id="Trazado_893793" data-name="Trazado 893793" d="M39.142,186.6c0,.637,1.153,1.152,2.576,1.152s2.576-.515,2.576-1.152-1.153-1.152-2.576-1.152-2.576.516-2.576,1.152" fill="#cfd8c8"/>
                </g>
              </g>
            </g>
            <path id="Trazado_893794" data-name="Trazado 893794" d="M40.721,183.4s-.9-.583-1.43.14-.422,2.76,1.46,2.584l-.174-.754s-.663.364-.932-.527.363-1.388,1.133-.854Z" fill="#e8f2fa"/>
            <path id="Trazado_893795" data-name="Trazado 893795" d="M42.2,181.849c1.156,0,2.092.449,2.092,1v3.618c0,.552-.936,1-2.092,1s-2.093-.447-2.093-1v-3.618c0-.551.937-1,2.093-1" fill="#fff"/>
            <path id="Trazado_893796" data-name="Trazado 893796" d="M42.2,182.131c.956,0,1.73.281,1.73.627v.033c0,.347-.774.627-1.73.627s-1.732-.28-1.732-.627v-.033c0-.346.775-.627,1.732-.627" fill="#bdbfb8"/>
            <path id="Trazado_893797" data-name="Trazado 893797" d="M52.837,177.573,49.2,175.844l7.647-3.378,4.109,1.508Z" fill="#00394a"/>
            <path id="Trazado_893798" data-name="Trazado 893798" d="M49.2,175.844l7.647-3.378,1.186-9.966-4.817,1.953Z" fill="#064457"/>
            <path id="Trazado_893799" data-name="Trazado 893799" d="M42.483,174.5c0,.97.786,1.375,1.754.91l19.011-9.046a3.227,3.227,0,0,0,1.755-2.6V151.617c0-.97-.784-1.377-1.755-.909l-19.011,9.047a3.228,3.228,0,0,0-1.754,2.6Z" fill="#888b88"/>
            <path id="Trazado_893800" data-name="Trazado 893800" d="M44.737,159.966l19.008-9.047c.971-.468,1.756-.059,1.756.909v12.149a3.228,3.228,0,0,1-1.756,2.6l-4.267,2.03-7.951,3.784-6.79,3.231a1.992,1.992,0,0,1-.5.167.993.993,0,0,1-1.256-1.075V162.566a3.227,3.227,0,0,1,1.755-2.6" fill="#bdbfb8"/>
            <path id="Trazado_893801" data-name="Trazado 893801" d="M44.41,161.975l19.662-9.421v10.465L44.41,172.107Z" fill="#fff"/>
            <path id="Trazado_893802" data-name="Trazado 893802" d="M52.1,181.091v-.506l17.187-3.446v.5l-11.963,6.083Z" fill="#888b88"/>
            <path id="Trazado_893803" data-name="Trazado 893803" d="M52.1,180.585l11.794-5.917,5.393,2.471-11.963,6.083Z" fill="#bdbfb8"/>
            <path id="Trazado_893804" data-name="Trazado 893804" d="M47.782,183.471c-.079-.462.124-.887.774-1.18,2.374-1.069,4.292,1.2,4.292,1.2a1.489,1.489,0,0,1,.538,1.359c-1.6,1.428-3.78.189-5.6-1.376" fill="#bdbfb8"/>
            <path id="Trazado_893805" data-name="Trazado 893805" d="M53.386,184.847a1.966,1.966,0,0,1-1.99,1.289c-1.2.046-3.4-1.439-3.614-2.665,1.824,1.565,4,2.8,5.6,1.376" fill="#888b88"/>
            <g id="Grupo_1101988" data-name="Grupo 1101988" style="mix-blend-mode: multiply;isolation: isolate">
              <g id="Grupo_1101987" data-name="Grupo 1101987">
                <g id="Grupo_1101986" data-name="Grupo 1101986" clip-path="url(#clip-path-6)">
                  <path id="Trazado_893806" data-name="Trazado 893806" d="M61.495,207.862c0,3.257,4.843,5.9,10.815,5.9s10.816-2.64,10.816-5.9-4.843-5.9-10.816-5.9-10.815,2.639-10.815,5.9" fill="#b8dfee"/>
                </g>
              </g>
            </g>
            <path id="Trazado_893807" data-name="Trazado 893807" d="M77.972,206.628a1.582,1.582,0,0,0-1.41-2.832l-10.29,5.127a1.581,1.581,0,1,0,1.41,2.83Z" fill="#002635"/>
            <path id="Trazado_893808" data-name="Trazado 893808" d="M67.959,203.712a1.582,1.582,0,0,0-1.464,2.8l10.19,5.322a1.582,1.582,0,1,0,1.464-2.805Z" fill="#002635"/>
            <path id="Trazado_893809" data-name="Trazado 893809" d="M70.589,207.2a1.581,1.581,0,1,0,3.162.015l.054-11.5a1.581,1.581,0,1,0-3.162-.016Z" fill="#002635"/>
            <path id="Trazado_893810" data-name="Trazado 893810" d="M64.613,199.353l.1-.022c-2.872-8.04.451-12.92.451-12.92,4.217-1.931,6.181,9.035,4.174,13.9a6.317,6.317,0,0,1-4.725-.961" fill="#001221"/>
            <path id="Trazado_893811" data-name="Trazado 893811" d="M64.613,199.353a6.317,6.317,0,0,0,4.725.961,4.616,4.616,0,0,1-.935,1.5c-1.3,1.314-5.521.635-6.211-1.236-.229-.62,1.933-1.123,2.421-1.228" fill="#995624"/>
            <path id="Trazado_893812" data-name="Trazado 893812" d="M58.442,201.988l.1-.022c-2.873-8.04.451-12.92.451-12.92,4.216-1.931,6.181,9.035,4.173,13.9a6.323,6.323,0,0,1-4.725-.961" fill="#001221"/>
            <path id="Trazado_893813" data-name="Trazado 893813" d="M58.442,201.988a6.323,6.323,0,0,0,4.725.961,4.631,4.631,0,0,1-.934,1.5c-1.3,1.314-5.521.634-6.211-1.236-.229-.62,1.933-1.123,2.42-1.228" fill="#995624"/>
            <path id="Trazado_893814" data-name="Trazado 893814" d="M70.062,201.882c-3.28-.387-9.6-3.505-10.03-5.8-.4-2.106-.58-2.173.789-3.756.726-.839,22.134-1.134,22.361-.716.41.757,1.706,1.69.361,4.225-2.054,3.866-10.2,6.432-13.481,6.044" fill="#00394a"/>
            <path id="Trazado_893815" data-name="Trazado 893815" d="M70.062,200.03s-10-3.62-10.03-6.3,11.881-7.53,14.231-7.206,10.625,4.424,9.28,6.959c-2.054,3.866-9.526,7.188-13.481,6.551" fill="#064457"/>
            <path id="Trazado_893816" data-name="Trazado 893816" d="M71.081,175.2a10.063,10.063,0,0,1,7.646-.869,5.837,5.837,0,0,1-7.646.869" fill="#fbbf96"/>
            <path id="Trazado_893817" data-name="Trazado 893817" d="M67.059,188.918s-.424-10.128,3.132-13.12a5.759,5.759,0,0,1,.89-.6,5.836,5.836,0,0,0,7.646-.87c2.005.724,3.58,2.471,3.732,5.89.24,5.411.147,9.8-1.669,12.813-5.735,1.895-11.965,1.832-14.025-4.35.189.143.294.237.294.237" fill="#9aaf85"/>
            <path id="Trazado_893818" data-name="Trazado 893818" d="M58.994,189.046c2.92-3.6,6.7-1.173,7.77-.364,2.06,6.182,8.291,6.244,14.026,4.349-1.422,2.359-3.9,3.866-8.106,4.347-5.5.629-15.873-5.636-13.69-8.332" fill="#001221"/>
            <path id="Trazado_893819" data-name="Trazado 893819" d="M72.6,186.924c.841-1.59,8.44-6.458,11.141-6.3,1.059-.033,1.553-.008,2.231,1.336.66,1.307.268,5.167-1.063,7.57s-7.042,6.243-10.652,5.753c-2.023-.276-2.293-.865-2.531-1.556-.958-2.078.122-5.373.874-6.8" fill="#00394a"/>
            <path id="Trazado_893820" data-name="Trazado 893820" d="M76.979,200.564s1.914-.958,1.808-4.37,0-6.436,0-6.436-.11-2.122,1.343-2.3,1.242.815,1.372,2.3a27.678,27.678,0,0,1-.563,8.77c-.573,1.89-2.948,2.172-3.964,2.036" fill="#002635"/>
            <path id="Trazado_893821" data-name="Trazado 893821" d="M65.444,182.6c1.332-3.058,3.443-6.972,5.385-6.532,3.142.713,1.679,4.742,1.679,4.742a33.3,33.3,0,0,1-1.844,4.469c-1.267,2.522-3.131,5.285-5.4,5.91a7.171,7.171,0,0,1-1.662-4.155c.125-.312,1.071-2.67,1.839-4.434" fill="#c1dbac"/>
            <path id="Trazado_893822" data-name="Trazado 893822" d="M55.389,185.587c1.142-1.182,5.737.487,7.5,1.19a10.287,10.287,0,0,0-.689,4.212c-6.456-1.417-7.388-4.807-6.814-5.4" fill="#fed9b1"/>
            <path id="Trazado_893823" data-name="Trazado 893823" d="M62.892,186.778c.433.173.7.288.7.288l.014-.035a7.168,7.168,0,0,0,1.661,4.155,3.446,3.446,0,0,1-1.44.1c-.578-.085-1.115-.185-1.622-.3a10.286,10.286,0,0,1,.688-4.212" fill="#fff"/>
            <path id="Trazado_893824" data-name="Trazado 893824" d="M56.546,184.944s-3.381-2.534-5.613-1.386.564,3.245,5.072,3.568c3.153.227.541-2.182.541-2.182" fill="#fed9b1"/>
            <path id="Trazado_893825" data-name="Trazado 893825" d="M79.025,172.863s2.643-6.1-1.411-9.622-11.161,3.268-6.8,10.48c2.225,3.674,7.5,1.714,8.207-.858" fill="#fed9b1"/>
            <path id="Trazado_893826" data-name="Trazado 893826" d="M78.6,173.731s-4.211,2.832-7.349.6l-.856.834a6.657,6.657,0,0,0,6.3.868c2.122-.913,2.355-1.574,2.355-1.574Z" fill="#c1dbac"/>
            <path id="Trazado_893827" data-name="Trazado 893827" d="M72.337,170.571a1.087,1.087,0,0,1,1.264-1.136c1.264.168,1.643,2.355.547,3.031s-.252,2.63,1.138,2.608,2.9-.027,3.892-1.92,1.91-6.626-.359-9.07c0,0,.511-1.347-2.1-2.316s-5.808,1.884-6.59.732c-.513-.756-3.364,4.113,2.082,4.744,0,0-1.089.973-.861,1.772s.794,1.2.511,2.032c0,0,.434.745.476-.477" fill="#001221"/>
            <path id="Trazado_893828" data-name="Trazado 893828" d="M61.433,162.472l-5.117-1.985.882,2.834-6.155-1.948,1.028,2.859-4.291-1.5" fill="none" stroke="#d95437" stroke-miterlimit="10" stroke-width="0.527"/>
            <path id="Trazado_893829" data-name="Trazado 893829" d="M48.215,164.2l-.7-1.5,1.509-.709" fill="none" stroke="#d95437" stroke-miterlimit="10" stroke-width="0.527"/>
            <line id="Línea_616" data-name="Línea 616" y1="1.758" x2="3.805" transform="translate(45.839 168.811)" fill="none" stroke="#a7a9ac" stroke-miterlimit="10" stroke-width="0.263"/>
            <line id="Línea_617" data-name="Línea 617" y1="1.758" x2="3.805" transform="translate(45.839 168.137)" fill="none" stroke="#a7a9ac" stroke-miterlimit="10" stroke-width="0.263"/>
            <line id="Línea_618" data-name="Línea 618" y1="1.758" x2="3.805" transform="translate(45.839 167.464)" fill="none" stroke="#a7a9ac" stroke-miterlimit="10" stroke-width="0.263"/>
            <line id="Línea_619" data-name="Línea 619" y1="1.76" x2="3.805" transform="translate(45.839 166.789)" fill="none" stroke="#a7a9ac" stroke-miterlimit="10" stroke-width="0.263"/>
            <line id="Línea_620" data-name="Línea 620" y1="1.758" x2="3.805" transform="translate(45.839 166.117)" fill="none" stroke="#a7a9ac" stroke-miterlimit="10" stroke-width="0.263"/>
            <line id="Línea_621" data-name="Línea 621" y1="1.758" x2="3.805" transform="translate(59.207 157.136)" fill="none" stroke="#a7a9ac" stroke-miterlimit="10" stroke-width="0.263"/>
            <line id="Línea_622" data-name="Línea 622" y1="1.757" x2="3.805" transform="translate(59.207 156.463)" fill="none" stroke="#a7a9ac" stroke-miterlimit="10" stroke-width="0.263"/>
            <line id="Línea_623" data-name="Línea 623" y1="1.757" x2="3.805" transform="translate(59.207 155.79)" fill="none" stroke="#a7a9ac" stroke-miterlimit="10" stroke-width="0.263"/>
            <line id="Línea_624" data-name="Línea 624" y1="1.758" x2="3.805" transform="translate(59.207 155.116)" fill="none" stroke="#a7a9ac" stroke-miterlimit="10" stroke-width="0.263"/>
            <line id="Línea_625" data-name="Línea 625" y1="1.758" x2="3.805" transform="translate(59.207 154.443)" fill="none" stroke="#a7a9ac" stroke-miterlimit="10" stroke-width="0.263"/>
            <path id="Trazado_893830" data-name="Trazado 893830" d="M61.237,158.624l1.775-.85v.944l-1.775.821Z" fill="#d95437"/>
            <path id="Trazado_893831" data-name="Trazado 893831" d="M61.237,159.506l1.775-.851v.945l-1.775.821Z" fill="#f37240"/>
            <path id="Trazado_893832" data-name="Trazado 893832" d="M155.219,173.654,134.9,183.307l44.357,21.11,20.315-9.652Z" fill="#b8dfee"/>
            <path id="Trazado_893833" data-name="Trazado 893833" d="M180.928,191.9v-6.106c0-.439-.746-.8-1.668-.8s-1.668.357-1.668.8v6.076a5.6,5.6,0,0,0,3.336.03" fill="#00394a"/>
            <path id="Trazado_893834" data-name="Trazado 893834" d="M177.592,191.87v10.348c0,.441.746.8,1.668.8s1.668-.356,1.668-.8V191.9a5.6,5.6,0,0,1-3.336-.03" fill="#064457"/>
            <path id="Trazado_893835" data-name="Trazado 893835" d="M193.806,194.508c0,.44.746.795,1.668.795s1.668-.355,1.668-.795v-11a8.913,8.913,0,0,1-3.336,1.414Z" fill="#064457"/>
            <path id="Trazado_893836" data-name="Trazado 893836" d="M195.473,177.476c-.922,0-1.668.357-1.668.8v6.644a8.9,8.9,0,0,0,3.336-1.413v-5.231c0-.44-.746-.8-1.668-.8" fill="#00394a"/>
            <path id="Trazado_893837" data-name="Trazado 893837" d="M140.575,172.72v-6.1c0-.439-.746-.8-1.668-.8s-1.668.357-1.668.8v6.076a5.594,5.594,0,0,0,3.336.029" fill="#00394a"/>
            <path id="Trazado_893838" data-name="Trazado 893838" d="M137.239,172.691v10.348c0,.44.747.8,1.667.8s1.669-.357,1.669-.8V172.72a5.594,5.594,0,0,1-3.336-.029" fill="#064457"/>
            <path id="Trazado_893839" data-name="Trazado 893839" d="M155.219,155.847,134.9,165.5l44.357,21.111,20.315-9.652Z" fill="#43ba82"/>
            <path id="Trazado_893840" data-name="Trazado 893840" d="M179.26,189.451,134.9,168.341V165.5l44.357,21.111Z" fill="#005c6e"/>
            <path id="Trazado_893841" data-name="Trazado 893841" d="M179.26,189.451l20.315-9.653v-2.839l-20.315,9.652Z" fill="#064457"/>
            <path id="Trazado_893842" data-name="Trazado 893842" d="M173.192,173.019l3.634-1.731-7.646-3.378-4.108,1.509Z" fill="#00394a"/>
            <path id="Trazado_893843" data-name="Trazado 893843" d="M172.81,159.9l-4.817-1.953,1.187,9.965,7.646,3.379Z" fill="#064457"/>
            <path id="Trazado_893844" data-name="Trazado 893844" d="M183.546,169.949c0,.969-.786,1.375-1.754.909l-19.011-9.046a3.227,3.227,0,0,1-1.755-2.6V147.061c0-.97.784-1.379,1.755-.91l19.011,9.047a3.229,3.229,0,0,1,1.754,2.6Z" fill="#888b88"/>
            <path id="Trazado_893845" data-name="Trazado 893845" d="M181.291,155.41l-19.008-9.047c-.971-.469-1.756-.06-1.756.909v12.149a3.231,3.231,0,0,0,1.756,2.6l4.267,2.03,7.952,3.785,6.789,3.231a2,2,0,0,0,.5.166.991.991,0,0,0,1.256-1.075V158.01a3.224,3.224,0,0,0-1.755-2.6" fill="#bdbfb8"/>
            <path id="Trazado_893846" data-name="Trazado 893846" d="M181.618,157.418,161.956,148v10.465l19.662,9.09Z" fill="#fff"/>
            <path id="Trazado_893847" data-name="Trazado 893847" d="M169.325,175.116v-.506l-17.187-3.447v.506l11.964,6.083Z" fill="#888b88"/>
            <path id="Trazado_893848" data-name="Trazado 893848" d="M169.325,174.609l-11.794-5.917-5.393,2.47,11.964,6.084Z" fill="#bdbfb8"/>
            <path id="Trazado_893849" data-name="Trazado 893849" d="M173.642,177.5c.079-.462-.124-.888-.774-1.18-2.374-1.069-4.291,1.2-4.291,1.2a1.484,1.484,0,0,0-.539,1.357c1.6,1.429,3.78.19,5.6-1.376" fill="#bdbfb8"/>
            <path id="Trazado_893850" data-name="Trazado 893850" d="M168.038,178.871a1.967,1.967,0,0,0,1.99,1.289c1.2.046,3.4-1.439,3.614-2.665-1.824,1.566-4,2.805-5.6,1.376" fill="#888b88"/>
            <g id="Grupo_1101991" data-name="Grupo 1101991" style="mix-blend-mode: multiply;isolation: isolate">
              <g id="Grupo_1101990" data-name="Grupo 1101990">
                <g id="Grupo_1101989" data-name="Grupo 1101989" clip-path="url(#clip-path-7)">
                  <path id="Trazado_893851" data-name="Trazado 893851" d="M161.376,200.775c0,3.17-4.715,5.741-10.53,5.741s-10.529-2.571-10.529-5.741,4.714-5.741,10.529-5.741,10.53,2.571,10.53,5.741" fill="#b8dfee"/>
                </g>
              </g>
            </g>
            <path id="Trazado_893852" data-name="Trazado 893852" d="M145.335,199.574a1.54,1.54,0,0,1,1.373-2.757l10.018,4.99a1.54,1.54,0,1,1-1.374,2.757Z" fill="#002635"/>
            <path id="Trazado_893853" data-name="Trazado 893853" d="M155.083,196.735a1.54,1.54,0,0,1,1.426,2.73l-9.922,5.182a1.54,1.54,0,1,1-1.424-2.731Z" fill="#002635"/>
            <path id="Trazado_893854" data-name="Trazado 893854" d="M152.524,200.127a1.54,1.54,0,1,1-3.08.015l-.053-11.191a1.54,1.54,0,1,1,3.08-.016Z" fill="#002635"/>
            <path id="Trazado_893855" data-name="Trazado 893855" d="M158.34,192.49l-.1-.02c2.8-7.828-.439-12.58-.439-12.58-4.1-1.878-6.017,8.8-4.063,13.536a6.148,6.148,0,0,0,4.6-.936" fill="#001221"/>
            <path id="Trazado_893856" data-name="Trazado 893856" d="M158.34,192.49a6.148,6.148,0,0,1-4.6.936,4.518,4.518,0,0,0,.91,1.465c1.266,1.279,5.375.616,6.047-1.205.222-.6-1.882-1.093-2.357-1.2" fill="#002635"/>
            <path id="Trazado_893857" data-name="Trazado 893857" d="M162.311,195.94h0c2.8-7.828,1.5-13.484,1.5-13.484-4.105-1.879-6.017,8.8-4.062,13.536,1.552.284,1.166.9,2.562-.052" fill="#fed9b1"/>
            <path id="Trazado_893858" data-name="Trazado 893858" d="M162.311,195.94c-1.4.95-1.01.336-2.562.052a4.5,4.5,0,0,0,.909,1.464c1.267,1.28,4.991,2.377,5.663.555.223-.6-3.535-1.969-4.01-2.071" fill="#002635"/>
            <path id="Trazado_893859" data-name="Trazado 893859" d="M153.035,194.953c3.194-.378,9.346-3.412,9.765-5.644.385-2.051.565-2.115-.768-3.657-.708-.817-21.548-1.1-21.769-.7-.4.736-1.662,1.644-.352,4.111,2,3.765,9.931,6.263,13.124,5.886" fill="#00394a"/>
            <path id="Trazado_893860" data-name="Trazado 893860" d="M153.035,193.15s9.738-3.525,9.765-6.138-11.566-7.331-13.854-7.016-10.345,4.307-9.035,6.776c2,3.763,9.273,7,13.124,6.378" fill="#064457"/>
            <path id="Trazado_893861" data-name="Trazado 893861" d="M152.044,168.974a9.806,9.806,0,0,0-7.444-.846,5.682,5.682,0,0,0,7.444.846" fill="#fbbf96"/>
            <path id="Trazado_893862" data-name="Trazado 893862" d="M155.96,182.332s.413-9.859-3.049-12.773a5.559,5.559,0,0,0-.867-.585,5.682,5.682,0,0,1-7.444-.846c-3.584,2.45-3.372,8.844-3.327,7.838.234-5.267-.449,7.44,1.318,10.37,5.585,1.845,11.65,1.784,13.656-4.234-.184.138-.287.23-.287.23" fill="#002635"/>
            <path id="Trazado_893863" data-name="Trazado 893863" d="M154.693,186.921c1.4-.93,3.621-3.126,2.5-5.439,1.572-.893,4.36-1.816,6.62.973,2.127,2.625-7.968,8.726-13.327,8.113a11.672,11.672,0,0,1-6.119-2.206,12.4,12.4,0,0,0,10.329-1.441" fill="#002635"/>
            <path id="Trazado_893864" data-name="Trazado 893864" d="M154.693,186.921a12.4,12.4,0,0,1-10.329,1.441,7.618,7.618,0,0,1-1.774-2.026c5.586,1.844,11.65,1.784,13.656-4.235a8.632,8.632,0,0,1,.944-.619c1.124,2.313-1.1,4.509-2.5,5.439" fill="#f37240"/>
            <path id="Trazado_893865" data-name="Trazado 893865" d="M150.563,180.39c-.818-1.548-8.216-6.287-10.846-6.139-1.031-.032-1.512-.007-2.172,1.3-.642,1.273-.261,5.028,1.034,7.37s6.857,6.077,10.371,5.6c1.97-.268,2.232-.843,2.464-1.515.933-2.022-.118-5.23-.851-6.618" fill="#00394a"/>
            <path id="Trazado_893866" data-name="Trazado 893866" d="M146.3,193.669s-1.864-.932-1.761-4.254-.005-6.265-.005-6.265.108-2.066-1.307-2.238-1.208.793-1.336,2.238a27.01,27.01,0,0,0,.549,8.537c.558,1.84,2.871,2.115,3.86,1.982" fill="#002635"/>
            <path id="Trazado_893867" data-name="Trazado 893867" d="M152.289,169.818c2.052-.464,3.614,6.155,3.7,6.36a19.226,19.226,0,0,0,3.344,4.35s6.6-2.872,7.985-1.438c.6.623-.5,3.9-8.214,5.036-2.842.415-5.171-2.38-6.657-5.339a32.528,32.528,0,0,1-1.795-4.352s-1.425-3.921,1.634-4.617" fill="#fed9b1"/>
            <path id="Trazado_893868" data-name="Trazado 893868" d="M166.193,178.463s3.293-2.467,5.466-1.35-.55,3.16-4.939,3.475c-3.07.22-.527-2.125-.527-2.125" fill="#fed9b1"/>
            <path id="Trazado_893869" data-name="Trazado 893869" d="M144.31,166.7s-2.572-5.94,1.373-9.368,10.867,3.183,6.617,10.205c-2.165,3.574-7.305,1.667-7.99-.837" fill="#fed9b1"/>
            <path id="Trazado_893870" data-name="Trazado 893870" d="M150.589,164.314a16.267,16.267,0,0,1-1.839,5.9c-1.457,2.287-2.176,3.783-5.265,4.24,0,0-2.331-2.815-1.7-10.145.547-6.367,3.528-7.645,6.538-7.913,0,0,3.688.066,4.924,2.988s.987,4.361.987,4.361l-1.263-1.315s.124,1.438.6,1.553c0,0-1.963.215-2.287-1.348l-.079,2.021Z" fill="#845e36"/>
            <g id="Grupo_1101994" data-name="Grupo 1101994" style="mix-blend-mode: multiply;isolation: isolate">
              <g id="Grupo_1101993" data-name="Grupo 1101993">
                <g id="Grupo_1101992" data-name="Grupo 1101992" clip-path="url(#clip-path-8)">
                  <path id="Trazado_893871" data-name="Trazado 893871" d="M217.142,206.089c0,1.354-2.8,2.451-6.261,2.451s-6.259-1.1-6.259-2.451,2.8-2.451,6.259-2.451,6.261,1.1,6.261,2.451" fill="#b8dfee"/>
                </g>
              </g>
            </g>
            <path id="Trazado_893872" data-name="Trazado 893872" d="M216.089,194.353c0,1.677-2.833,3.036-6.328,3.036s-6.326-1.359-6.326-3.036,2.832-3.037,6.326-3.037,6.328,1.36,6.328,3.037" fill="#f37240"/>
            <path id="Trazado_893873" data-name="Trazado 893873" d="M208.508,194.353h-5.074l1.261,11.071c0,1.342,2.269,2.431,5.065,2.431s5.068-1.089,5.068-2.431l1.26-11.071Z" fill="#f37240"/>
            <path id="Trazado_893874" data-name="Trazado 893874" d="M214.753,195.376a1.537,1.537,0,0,0,.435-1.023c0-1.438-2.43-2.6-5.428-2.6s-5.425,1.166-5.425,2.6a1.642,1.642,0,0,0,.588,1.175c2.677-2.094,6.646-1.95,9.83-.152" fill="#d95437"/>
            <path id="Trazado_893875" data-name="Trazado 893875" d="M214.753,195.376c-3.184-1.8-7.153-1.942-9.83.152a7.41,7.41,0,0,0,4.837,1.429c2.243,0,4.164-.652,4.993-1.581" fill="#863f2d"/>
            <path id="Trazado_893876" data-name="Trazado 893876" d="M200.736,192.2c1.238-.223,2.458-.556,3.679-.865a3.079,3.079,0,0,1,4.089,2.139,10.825,10.825,0,0,1,.5,2.11c.063.453.074.892.093,1.351,0,0,.48.019.753.02s.819-.037.819-.037a20.039,20.039,0,0,1,.708-6.53,3.406,3.406,0,0,1,2.5-2.543,9.266,9.266,0,0,1,1.622-.255,5.948,5.948,0,0,0,3.479-1.2c.566-.459,1.119-.935,1.7-1.369.613-.458,1.249-.885,1.888-1.3a2.751,2.751,0,0,1,.578-.215c.006-.04.014-.081.02-.123a9.457,9.457,0,0,0-1.37-.618,11.209,11.209,0,0,0-5.222-.157c-2.667.542-4.645,1.918-5.27,4.762-.289,1.316-.6,2.627-.9,3.9,0-.049-.017-.143-.019-.238-.027-1.924-.087-3.848-.064-5.772a41.029,41.029,0,0,1,.242-4.519,31.863,31.863,0,0,0,.394-4.914,12.005,12.005,0,0,0-.995-4.461c-.051-.118-.119-.228-.205-.389-.089.2-.16.331-.207.47a15.1,15.1,0,0,0-.862,4.544,14.289,14.289,0,0,0,.459,4.525,7.074,7.074,0,0,1,.268,1.743c.058,1.537.065,3.077.091,4.615a1.764,1.764,0,0,1,0,.206,1.143,1.143,0,0,1-.034.149,9.069,9.069,0,0,0-3.1-5.756,7.647,7.647,0,0,1-2.305-3.872c-.06-.244-.116-.488-.193-.812-.077.153-.118.222-.148.294a7.528,7.528,0,0,0-.447,3.678,5.255,5.255,0,0,0,1.021,2.865,9.926,9.926,0,0,0,2.792,2.592,3.908,3.908,0,0,1,1.732,2.215,13.524,13.524,0,0,1,.568,4.657c-.127-.257-.216-.524-.32-.785a6.063,6.063,0,0,0-2.584-3.2,10.52,10.52,0,0,0-5.257-1.436,8.422,8.422,0,0,0-5.957,2.182c-.15.136-.31.26-.464.389v.082a6.365,6.365,0,0,0,5.929,1.882" fill="#43ba82"/>
            <path id="Trazado_893877" data-name="Trazado 893877" d="M117.181,149.755,0,94.2V82.926l117.181,55.558Z" fill="#005c6e"/>
            <path id="Trazado_893878" data-name="Trazado 893878" d="M117.181,149.755,234.362,94.129V82.858L117.181,138.484Z" fill="#064457"/>
            <path id="Trazado_893879" data-name="Trazado 893879" d="M117.2,27.271.039,82.926,117.18,138.484,234.361,82.816Z" fill="#e8f2fa"/>
            <path id="Trazado_893880" data-name="Trazado 893880" d="M105.686,189.38,83.811,199.772l47.76,22.733,21.878-10.393Z" fill="#888b88"/>
            <path id="Trazado_893881" data-name="Trazado 893881" d="M111.333,193.309c-5.916,3.555-12.858,5.235-19.051,9.254l5.745,2.735c6.155-3.155,11.873-7.621,18.439-9.546Z" fill="#a8aaa6"/>
            <path id="Trazado_893882" data-name="Trazado 893882" d="M107.231,191.357,87.968,200.51l2.077.988a100.73,100.73,0,0,1,18.77-9.388Z" fill="#a8aaa6"/>
            <path id="Trazado_893883" data-name="Trazado 893883" d="M137.3,205.667c-4.32,4.2-9.835,6.94-13.338,11.974l1.522.725c5.949-2.812,11.307-8.234,17.606-9.942Z" fill="#a8aaa6"/>
            <path id="Trazado_893884" data-name="Trazado 893884" d="M149.292,211.375l-3.535-1.681c-5.795,3.443-11.975,5.732-16.632,10.407l.9.428Z" fill="#a8aaa6"/>
            <path id="Trazado_893885" data-name="Trazado 893885" d="M134.827,204.491l-5.728-2.726c-3.443,5.016-9.989,6.58-12.835,12.213l1.965.935a4.792,4.792,0,0,0,1.364-.4c4.8-3.926,9.6-8.193,15.234-10.017" fill="#a8aaa6"/>
            <path id="Trazado_893886" data-name="Trazado 893886" d="M125.455,200.031c-4.476,3.826-11.19,4.783-15.114,9.579a1.757,1.757,0,0,0-.658,1.236l3.615,1.721c5.405-3.337,9.968-7.518,15.088-11.141Z" fill="#a8aaa6"/>
            <path id="Trazado_893887" data-name="Trazado 893887" d="M118.434,196.69c-5.567,3.6-14.524,5.125-17.462,10.01l5.254,2.5a106.963,106.963,0,0,1,16.7-10.373Z" fill="#a8aaa6"/>
            <path id="Trazado_893888" data-name="Trazado 893888" d="M108.815,192.11a100.73,100.73,0,0,0-18.77,9.388l2.237,1.065c6.193-4.019,13.135-5.7,19.051-9.254Z" fill="#bdbfb8"/>
            <path id="Trazado_893889" data-name="Trazado 893889" d="M137.3,205.667l-2.472-1.176c-5.637,1.824-10.436,6.091-15.234,10.017a4.824,4.824,0,0,1-1.364.4l5.732,2.728c3.5-5.034,9.018-7.778,13.338-11.974" fill="#bdbfb8"/>
            <path id="Trazado_893890" data-name="Trazado 893890" d="M143.089,208.424c-6.3,1.708-11.657,7.131-17.606,9.943l3.643,1.734c4.656-4.675,10.837-6.964,16.631-10.407Z" fill="#bdbfb8"/>
            <path id="Trazado_893891" data-name="Trazado 893891" d="M129.1,201.766l-.713-.34c-5.12,3.623-9.683,7.8-15.087,11.141l2.966,1.412c2.845-5.633,9.391-7.2,12.834-12.213" fill="#bdbfb8"/>
            <path id="Trazado_893892" data-name="Trazado 893892" d="M110.341,209.609c3.923-4.8,10.638-5.753,15.114-9.579l-2.528-1.2a106.949,106.949,0,0,0-16.7,10.372l3.457,1.646a1.757,1.757,0,0,1,.658-1.237" fill="#bdbfb8"/>
            <path id="Trazado_893893" data-name="Trazado 893893" d="M118.434,196.69l-1.968-.938c-6.566,1.925-12.284,6.39-18.439,9.546l2.945,1.4c2.938-4.885,11.895-6.414,17.462-10.01" fill="#bdbfb8"/>
            <text id="_9O_" data-name="9O%" transform="translate(167.856 156.519)" fill="#f37240" font-size="4" font-family="SegoeUI, Segoe UI"><tspan x="0" y="0">9O%</tspan></text>
            <text id="LOREM_IPSUM" data-name="LOREM IPSUM" transform="translate(167.904 157.597)" fill="#d95437" font-size="1" font-family="SegoeUI, Segoe UI"><tspan x="0" y="0" letter-spacing="-0.038em">L</tspan><tspan y="0">OREM IPSUM</tspan></text>
            <line id="Línea_626" data-name="Línea 626" x1="12.913" y1="5.944" transform="translate(167.459 160.063)" fill="none" stroke="#a7a9ac" stroke-miterlimit="10" stroke-width="0.263"/>
            <line id="Línea_627" data-name="Línea 627" x1="12.913" y1="5.944" transform="translate(167.459 159.389)" fill="none" stroke="#a7a9ac" stroke-miterlimit="10" stroke-width="0.263"/>
            <line id="Línea_628" data-name="Línea 628" x1="12.913" y1="5.944" transform="translate(167.459 158.716)" fill="none" stroke="#a7a9ac" stroke-miterlimit="10" stroke-width="0.263"/>
            <line id="Línea_629" data-name="Línea 629" x1="3.805" y1="1.758" transform="translate(176.567 162.23)" fill="none" stroke="#a7a9ac" stroke-miterlimit="10" stroke-width="0.263"/>
            <line id="Línea_630" data-name="Línea 630" x1="3.805" y1="1.758" transform="translate(176.567 161.556)" fill="none" stroke="#a7a9ac" stroke-miterlimit="10" stroke-width="0.263"/>
            <line id="Línea_631" data-name="Línea 631" x1="3.805" y1="1.758" transform="translate(163.2 152.575)" fill="none" stroke="#a7a9ac" stroke-miterlimit="10" stroke-width="0.263"/>
            <line id="Línea_632" data-name="Línea 632" x1="3.805" y1="1.757" transform="translate(163.2 151.902)" fill="none" stroke="#a7a9ac" stroke-miterlimit="10" stroke-width="0.263"/>
            <line id="Línea_633" data-name="Línea 633" x1="3.805" y1="1.757" transform="translate(163.2 151.229)" fill="none" stroke="#a7a9ac" stroke-miterlimit="10" stroke-width="0.263"/>
            <line id="Línea_634" data-name="Línea 634" x1="17.728" y1="8.286" transform="translate(163.2 150.555)" fill="none" stroke="#a7a9ac" stroke-miterlimit="10" stroke-width="0.263"/>
            <line id="Línea_635" data-name="Línea 635" x1="17.728" y1="8.286" transform="translate(163.2 149.882)" fill="none" stroke="#a7a9ac" stroke-miterlimit="10" stroke-width="0.263"/>
            <g id="Grupo_1101997" data-name="Grupo 1101997" style="mix-blend-mode: multiply;isolation: isolate">
              <g id="Grupo_1101996" data-name="Grupo 1101996">
                <g id="Grupo_1101995" data-name="Grupo 1101995" clip-path="url(#clip-path-9)">
                  <path id="Trazado_893894" data-name="Trazado 893894" d="M194.99,69.592l-14.274,6.78L211.878,91.2l14.273-6.781Z" fill="#b8dfee"/>
                </g>
              </g>
            </g>
            <path id="Trazado_893895" data-name="Trazado 893895" d="M213.051,86.908v2.9c0,.309-.524.559-1.172.559s-1.172-.25-1.172-.559V86.9a2.9,2.9,0,0,0,2.344.01" fill="#c17634"/>
            <path id="Trazado_893896" data-name="Trazado 893896" d="M224.44,81.838V84.39c0,.309-.524.56-1.172.56s-1.171-.251-1.171-.56v-2a2.857,2.857,0,0,0,2.343-.552" fill="#c17634"/>
            <path id="Trazado_893897" data-name="Trazado 893897" d="M184.227,75.158a2.713,2.713,0,0,0,.474-.182v1.358c0,.309-.524.559-1.172.559s-1.172-.25-1.172-.559V74.947a2.8,2.8,0,0,0,1.87.211" fill="#c17634"/>
            <path id="Trazado_893898" data-name="Trazado 893898" d="M194.99,43.654l-14.274,6.781,31.162,14.829,14.273-6.779Z" fill="#ffca4a"/>
            <path id="Trazado_893899" data-name="Trazado 893899" d="M211.879,89.308l-31.162-14.83V50.436l31.162,14.828Z" fill="#e79e42"/>
            <path id="Trazado_893900" data-name="Trazado 893900" d="M211.879,89.308l14.273-6.78V58.486l-14.273,6.778Z" fill="#fcb248"/>
            <path id="Trazado_893901" data-name="Trazado 893901" d="M210.475,71.855,182.122,58.364V52.922l28.353,13.492Z" fill="#ffca4a"/>
            <path id="Trazado_893902" data-name="Trazado 893902" d="M182.368,60.795l27.86,13.258V86.509l-27.86-13.26Zm-.246-.39v13L210.475,86.9v-13Z" fill="#ffca4a"/>
            <path id="Trazado_893903" data-name="Trazado 893903" d="M182.122,58.387l5.782-2.712-5.782-2.753Z" fill="#c17634"/>
            <path id="Trazado_893904" data-name="Trazado 893904" d="M214.138,56.187l5.048,2.4-6.652,3.1-5.048-2.4Z" fill="#b8dfee"/>
            <path id="Trazado_893905" data-name="Trazado 893905" d="M213.344,56.187l5.048,2.4-6.652,3.1-5.048-2.4Z" fill="#fff"/>
            <path id="Trazado_893906" data-name="Trazado 893906" d="M198.379,49.134l5.047,2.4-6.652,3.1-5.046-2.4Z" fill="#ffca4a"/>
            <path id="Trazado_893907" data-name="Trazado 893907" d="M196.774,55.342l6.652-3.1v-.706l-6.652,3.105Z" fill="#fcb248"/>
            <path id="Trazado_893908" data-name="Trazado 893908" d="M196.774,55.342l-5.046-2.4v-.706l5.046,2.4Z" fill="#e8f2fa"/>
            <path id="Trazado_893909" data-name="Trazado 893909" d="M198.379,48.158l5.047,2.4-6.652,3.1-5.046-2.4Z" fill="#43ba82"/>
            <path id="Trazado_893910" data-name="Trazado 893910" d="M196.774,54.366l6.652-3.1v-.706l-6.652,3.105Z" fill="#369d6e"/>
            <path id="Trazado_893911" data-name="Trazado 893911" d="M196.774,54.366l-5.046-2.4v-.705l5.046,2.4Z" fill="#e8f2fa"/>
            <path id="Trazado_893912" data-name="Trazado 893912" d="M198.379,47.229l5.047,2.4-6.652,3.1-5.046-2.4Z" fill="#064457"/>
            <path id="Trazado_893913" data-name="Trazado 893913" d="M196.774,53.437l6.652-3.1v-.706l-6.652,3.105Z" fill="#003849"/>
            <path id="Trazado_893914" data-name="Trazado 893914" d="M196.774,53.437l-5.046-2.4v-.706l5.046,2.4Z" fill="#e8f2fa"/>
            <path id="Trazado_893915" data-name="Trazado 893915" d="M205.783,52.823l5.047,2.4-6.652,3.1-5.047-2.4Z" fill="#43ba82"/>
            <path id="Trazado_893916" data-name="Trazado 893916" d="M204.178,59.032l6.652-3.1v-.706l-6.652,3.1Z" fill="#369d6e"/>
            <path id="Trazado_893917" data-name="Trazado 893917" d="M204.178,59.032l-5.047-2.4v-.706l5.047,2.4Z" fill="#e8f2fa"/>
            <path id="Trazado_893918" data-name="Trazado 893918" d="M205.783,51.958l5.047,2.4-6.652,3.1-5.047-2.4Z" fill="#064457"/>
            <path id="Trazado_893919" data-name="Trazado 893919" d="M204.178,58.166l6.652-3.1v-.706l-6.652,3.105Z" fill="#003849"/>
            <path id="Trazado_893920" data-name="Trazado 893920" d="M204.178,58.166l-5.047-2.4v-.706l5.047,2.4Z" fill="#e8f2fa"/>
            <path id="Trazado_893921" data-name="Trazado 893921" d="M205.783,51.029l5.047,2.4-6.652,3.1-5.047-2.4Z" fill="#f37240"/>
            <path id="Trazado_893922" data-name="Trazado 893922" d="M204.178,57.238l6.652-3.1v-.706l-6.652,3.1Z" fill="#f0493b"/>
            <path id="Trazado_893923" data-name="Trazado 893923" d="M204.178,57.238l-5.047-2.4v-.706l5.047,2.4Z" fill="#e8f2fa"/>
            <path id="Trazado_893924" data-name="Trazado 893924" d="M154.5,52.493,142.975,57.97l25.167,11.977,11.526-5.476Z" fill="#b8dfee"/>
            <path id="Trazado_893925" data-name="Trazado 893925" d="M169.089,66.06V68.4c0,.249-.425.452-.947.452s-.947-.2-.947-.452V66.051a2.343,2.343,0,0,0,1.894.009" fill="#a8aaa6"/>
            <path id="Trazado_893926" data-name="Trazado 893926" d="M178.287,61.965v2.062c0,.249-.424.451-.947.451s-.945-.2-.945-.451V62.411a2.306,2.306,0,0,0,1.892-.446" fill="#a8aaa6"/>
            <path id="Trazado_893927" data-name="Trazado 893927" d="M145.81,56.57a2.225,2.225,0,0,0,.383-.148v1.1c0,.25-.423.451-.946.451s-.946-.2-.946-.451V56.4a2.244,2.244,0,0,0,1.509.171" fill="#a8aaa6"/>
            <path id="Trazado_893928" data-name="Trazado 893928" d="M154.5,48.932l-11.527,5.476,25.167,11.978,11.526-5.476Z" fill="#ffca4a"/>
            <path id="Trazado_893929" data-name="Trazado 893929" d="M168.142,68,142.975,56.02V54.409l25.167,11.978Z" fill="#e79e42"/>
            <path id="Trazado_893930" data-name="Trazado 893930" d="M168.142,68l11.526-5.476V60.91l-11.526,5.477Z" fill="#fcb248"/>
            <path id="Trazado_893931" data-name="Trazado 893931" d="M169.089,58.985V55.522c0-.25-.425-.453-.947-.453s-.947.2-.947.453v3.446a3.172,3.172,0,0,0,1.894.017" fill="#a8aaa6"/>
            <path id="Trazado_893932" data-name="Trazado 893932" d="M167.2,58.968V64.84c0,.25.424.452.947.452s.946-.2.946-.452V58.985a3.169,3.169,0,0,1-1.893-.017" fill="#bdbfb8"/>
            <path id="Trazado_893933" data-name="Trazado 893933" d="M176.4,60.465c0,.25.423.452.946.452s.946-.2.946-.452V54.221a5.047,5.047,0,0,1-1.892.8Z" fill="#bdbfb8"/>
            <path id="Trazado_893934" data-name="Trazado 893934" d="M177.341,50.8c-.523,0-.946.2-.946.452v3.77a5.075,5.075,0,0,0,1.893-.8V51.254c0-.249-.424-.452-.947-.452" fill="#a8aaa6"/>
            <path id="Trazado_893935" data-name="Trazado 893935" d="M146.193,48.1V44.64c0-.249-.423-.452-.947-.452s-.945.2-.945.452v3.447a3.174,3.174,0,0,0,1.892.017" fill="#a8aaa6"/>
            <path id="Trazado_893936" data-name="Trazado 893936" d="M144.3,48.087v5.872c0,.249.424.452.946.452s.946-.2.946-.452V48.1a3.174,3.174,0,0,1-1.892-.017" fill="#bdbfb8"/>
            <path id="Trazado_893937" data-name="Trazado 893937" d="M154.5,38.531l-11.527,5.476,25.167,11.978,11.526-5.476Z" fill="#ffca4a"/>
            <path id="Trazado_893938" data-name="Trazado 893938" d="M168.142,57.6,142.975,45.618V44.007l25.167,11.978Z" fill="#e79e42"/>
            <path id="Trazado_893939" data-name="Trazado 893939" d="M168.142,57.6l11.526-5.476V50.508l-11.526,5.477Z" fill="#fcb248"/>
            <path id="Trazado_893940" data-name="Trazado 893940" d="M169.089,48.864V45.4c0-.25-.425-.453-.947-.453s-.947.2-.947.453v3.446a3.173,3.173,0,0,0,1.894.018" fill="#a8aaa6"/>
            <path id="Trazado_893941" data-name="Trazado 893941" d="M167.2,48.847v5.872c0,.249.424.452.947.452s.946-.2.946-.452V48.865a3.185,3.185,0,0,1-1.893-.018" fill="#bdbfb8"/>
            <path id="Trazado_893942" data-name="Trazado 893942" d="M176.4,50.344c0,.249.423.452.946.452s.946-.2.946-.452V44.1a5.063,5.063,0,0,1-1.892.8Z" fill="#bdbfb8"/>
            <path id="Trazado_893943" data-name="Trazado 893943" d="M177.341,40.68c-.523,0-.946.2-.946.452V44.9a5.075,5.075,0,0,0,1.893-.8V41.132c0-.248-.424-.452-.947-.452" fill="#a8aaa6"/>
            <path id="Trazado_893944" data-name="Trazado 893944" d="M146.193,37.982V34.518c0-.249-.423-.452-.947-.452s-.945.2-.945.452v3.447a3.158,3.158,0,0,0,1.892.017" fill="#a8aaa6"/>
            <path id="Trazado_893945" data-name="Trazado 893945" d="M144.3,37.965v5.872c0,.25.424.452.946.452s.946-.2.946-.452V37.982a3.158,3.158,0,0,1-1.892-.017" fill="#bdbfb8"/>
            <path id="Trazado_893946" data-name="Trazado 893946" d="M154.5,28.409l-11.527,5.477,25.167,11.977,11.526-5.476Z" fill="#ffca4a"/>
            <path id="Trazado_893947" data-name="Trazado 893947" d="M168.142,47.475,142.975,35.5V33.886l25.167,11.977Z" fill="#e79e42"/>
            <path id="Trazado_893948" data-name="Trazado 893948" d="M168.142,47.475,179.668,42V40.388l-11.526,5.475Z" fill="#fcb248"/>
            <path id="Trazado_893949" data-name="Trazado 893949" d="M170.729,37.561l5.184,2.463-6.832,3.189L163.9,40.749Z" fill="#b8dfee"/>
            <path id="Trazado_893950" data-name="Trazado 893950" d="M169.913,37.561l5.185,2.463-6.832,3.189-5.185-2.464Z" fill="#fff"/>
            <path id="Trazado_893951" data-name="Trazado 893951" d="M154.541,30.316l5.184,2.464-6.832,3.189-5.184-2.464Z" fill="#ffca4a"/>
            <path id="Trazado_893952" data-name="Trazado 893952" d="M152.893,36.694l6.832-3.189V32.78l-6.832,3.19Z" fill="#fcb248"/>
            <path id="Trazado_893953" data-name="Trazado 893953" d="M152.893,36.694l-5.184-2.463V33.5l5.184,2.465Z" fill="#e8f2fa"/>
            <path id="Trazado_893954" data-name="Trazado 893954" d="M154.541,29.314l5.184,2.463-6.832,3.19L147.709,32.5Z" fill="#43ba82"/>
            <path id="Trazado_893955" data-name="Trazado 893955" d="M152.893,35.691l6.832-3.188v-.726l-6.832,3.19Z" fill="#369d6e"/>
            <path id="Trazado_893956" data-name="Trazado 893956" d="M152.893,35.691l-5.184-2.463V32.5l5.184,2.464Z" fill="#e8f2fa"/>
            <path id="Trazado_893957" data-name="Trazado 893957" d="M154.541,28.36l5.184,2.463-6.832,3.189-5.184-2.464Z" fill="#064457"/>
            <path id="Trazado_893958" data-name="Trazado 893958" d="M152.893,34.737l6.832-3.188v-.725l-6.832,3.189Z" fill="#003849"/>
            <path id="Trazado_893959" data-name="Trazado 893959" d="M152.893,34.737l-5.184-2.463v-.725l5.184,2.464Z" fill="#e8f2fa"/>
            <path id="Trazado_893960" data-name="Trazado 893960" d="M162.147,34.106l5.184,2.463L160.5,39.758,155.314,37.3Z" fill="#43ba82"/>
            <path id="Trazado_893961" data-name="Trazado 893961" d="M160.5,40.484l6.833-3.189V36.57L160.5,39.759Z" fill="#369d6e"/>
            <path id="Trazado_893962" data-name="Trazado 893962" d="M160.5,40.484l-5.184-2.464v-.725l5.184,2.464Z" fill="#e8f2fa"/>
            <path id="Trazado_893963" data-name="Trazado 893963" d="M162.147,33.217l5.184,2.463L160.5,38.87l-5.185-2.464Z" fill="#064457"/>
            <path id="Trazado_893964" data-name="Trazado 893964" d="M160.5,39.594l6.833-3.188v-.725L160.5,38.87Z" fill="#003849"/>
            <path id="Trazado_893965" data-name="Trazado 893965" d="M160.5,39.594l-5.184-2.463v-.725L160.5,38.87Z" fill="#e8f2fa"/>
            <path id="Trazado_893966" data-name="Trazado 893966" d="M162.147,32.263l5.184,2.464L160.5,37.916l-5.185-2.464Z" fill="#43ba82"/>
            <path id="Trazado_893967" data-name="Trazado 893967" d="M160.5,38.641l6.833-3.188v-.726L160.5,37.916Z" fill="#369d6e"/>
            <path id="Trazado_893968" data-name="Trazado 893968" d="M160.5,38.641l-5.184-2.463v-.725l5.184,2.463Z" fill="#e8f2fa"/>
            <g id="Grupo_1102000" data-name="Grupo 1102000" style="mix-blend-mode: multiply;isolation: isolate">
              <g id="Grupo_1101999" data-name="Grupo 1101999">
                <g id="Grupo_1101998" data-name="Grupo 1101998" clip-path="url(#clip-path-10)">
                  <path id="Trazado_893969" data-name="Trazado 893969" d="M124.164,35.11c0,1.354-2.8,2.451-6.261,2.451s-6.259-1.1-6.259-2.451,2.8-2.451,6.259-2.451,6.261,1.1,6.261,2.451" fill="#b8dfee"/>
                </g>
              </g>
            </g>
            <path id="Trazado_893970" data-name="Trazado 893970" d="M123.111,23.374c0,1.677-2.833,3.036-6.328,3.036s-6.326-1.359-6.326-3.036,2.832-3.037,6.326-3.037,6.328,1.36,6.328,3.037" fill="#ffca4a"/>
            <path id="Trazado_893971" data-name="Trazado 893971" d="M115.53,23.374h-5.074l1.261,11.071c0,1.342,2.269,2.43,5.065,2.43s5.068-1.088,5.068-2.43l1.26-11.071Z" fill="#ffca4a"/>
            <path id="Trazado_893972" data-name="Trazado 893972" d="M121.774,24.4a1.537,1.537,0,0,0,.435-1.022c0-1.439-2.429-2.605-5.427-2.605s-5.425,1.166-5.425,2.605a1.638,1.638,0,0,0,.588,1.174c2.677-2.093,6.646-1.949,9.829-.152" fill="#e79e42"/>
            <path id="Trazado_893973" data-name="Trazado 893973" d="M121.774,24.4c-3.183-1.8-7.152-1.941-9.829.152a7.4,7.4,0,0,0,4.837,1.43c2.242,0,4.164-.652,4.992-1.582" fill="#863f2d"/>
            <path id="Trazado_893974" data-name="Trazado 893974" d="M107.758,21.223c1.238-.223,2.458-.555,3.679-.865a3.08,3.08,0,0,1,4.089,2.139,10.764,10.764,0,0,1,.5,2.111c.063.453.074.892.093,1.351,0,0,.48.018.753.019s.819-.037.819-.037a20.035,20.035,0,0,1,.708-6.529,3.405,3.405,0,0,1,2.5-2.544,9.361,9.361,0,0,1,1.622-.255,5.947,5.947,0,0,0,3.479-1.2c.566-.459,1.119-.934,1.7-1.369.613-.457,1.249-.884,1.888-1.305a2.806,2.806,0,0,1,.578-.214c.006-.041.014-.082.02-.124a9.451,9.451,0,0,0-1.37-.617,11.222,11.222,0,0,0-5.222-.158c-2.667.543-4.645,1.918-5.27,4.762-.289,1.317-.6,2.627-.9,3.9,0-.048-.017-.143-.019-.237-.027-1.924-.087-3.849-.064-5.773a41.029,41.029,0,0,1,.242-4.519,31.849,31.849,0,0,0,.394-4.913,12.006,12.006,0,0,0-.995-4.462c-.051-.117-.119-.227-.205-.389-.089.2-.16.331-.207.47a15.105,15.105,0,0,0-.862,4.544,14.286,14.286,0,0,0,.459,4.525,7.074,7.074,0,0,1,.268,1.744c.058,1.537.065,3.076.091,4.614a1.767,1.767,0,0,1,0,.206,1.157,1.157,0,0,1-.034.15,9.074,9.074,0,0,0-3.1-5.757,7.639,7.639,0,0,1-2.305-3.872c-.06-.243-.116-.488-.193-.811-.077.152-.118.221-.148.293a7.531,7.531,0,0,0-.447,3.679,5.252,5.252,0,0,0,1.021,2.864,9.926,9.926,0,0,0,2.792,2.592,3.91,3.91,0,0,1,1.732,2.216,13.519,13.519,0,0,1,.568,4.657c-.127-.258-.216-.524-.32-.786a6.067,6.067,0,0,0-2.584-3.2,10.519,10.519,0,0,0-5.257-1.435,8.417,8.417,0,0,0-5.957,2.181c-.15.136-.31.26-.464.389v.083a6.367,6.367,0,0,0,5.929,1.881" fill="#43ba82"/>
            <path id="Trazado_893975" data-name="Trazado 893975" d="M123.364,49.634A8.621,8.621,0,0,1,121,47.408c.987,3.4,1.507,6.81,2.359,10.215,2.57-2.571,2.667-6.627,5.067-9.3l-.056-.029c-1.466,1.267-3.238,2.226-5.011,1.34" fill="#fff"/>
            <path id="Trazado_893976" data-name="Trazado 893976" d="M123.364,49.634c1.773.886,3.545-.073,5.011-1.34a14.019,14.019,0,0,0-1.779-.788,6.4,6.4,0,0,0-5.6-.118.073.073,0,0,1,0,.02,8.621,8.621,0,0,0,2.359,2.226" fill="#ddeaf1"/>
            <path id="Trazado_893977" data-name="Trazado 893977" d="M132.952,53.638c-.254-2.609-2.736-4.373-4.521-5.316-2.4,2.674-2.5,6.73-5.067,9.3-.853-3.411-1.373-6.823-2.364-10.235a6.363,6.363,0,0,0-3.3,5.1c-.2,3.12-.093,7.526-.093,7.526l14.155,5.333s1.587-7.59,1.188-11.708" fill="#001221"/>
            <path id="Trazado_893978" data-name="Trazado 893978" d="M122.665,54.694l.7,2.929,1-1.256-.178-6.2a3.294,3.294,0,0,1-.878-.091Z" fill="#e4663b"/>
            <path id="Trazado_893979" data-name="Trazado 893979" d="M124.687,48.392l-1.512-.237.189,1.479-.061.44a3.294,3.294,0,0,0,.878.091l-.007-.251Z" fill="#d95437"/>
            <path id="Trazado_893980" data-name="Trazado 893980" d="M129.307,45.672s2.573-5.941-1.373-9.368-10.87,3.182-6.618,10.2c2.167,3.576,7.307,1.668,7.991-.836" fill="#fed9b1"/>
            <path id="Trazado_893981" data-name="Trazado 893981" d="M93.427,36.2a8.618,8.618,0,0,1-2.358-2.226c.986,3.4,1.506,6.809,2.358,10.215,2.57-2.572,2.667-6.627,5.067-9.3l-.057-.029c-1.465,1.267-3.237,2.226-5.01,1.34" fill="#fff"/>
            <path id="Trazado_893982" data-name="Trazado 893982" d="M93.427,36.2c1.773.886,3.545-.073,5.01-1.34a14.084,14.084,0,0,0-1.778-.789,6.4,6.4,0,0,0-5.595-.117l0,.02A8.618,8.618,0,0,0,93.427,36.2" fill="#ddeaf1"/>
            <path id="Trazado_893983" data-name="Trazado 893983" d="M103.014,40.207c-.254-2.61-2.735-4.373-4.521-5.316-2.4,2.674-2.5,6.729-5.066,9.3-.854-3.412-1.373-6.823-2.364-10.235a6.365,6.365,0,0,0-3.3,5.1c-.2,3.12-.092,7.525-.092,7.525l14.153,5.334s1.587-7.59,1.188-11.708" fill="#001221"/>
            <path id="Trazado_893984" data-name="Trazado 893984" d="M92.728,41.262l.7,2.93.994-1.256-.177-6.2a3.281,3.281,0,0,1-.878-.092Z" fill="#43ba82"/>
            <path id="Trazado_893985" data-name="Trazado 893985" d="M94.75,34.96l-1.512-.237.189,1.479-.061.44a3.282,3.282,0,0,0,.877.091l-.007-.251Z" fill="#00b483"/>
            <path id="Trazado_893986" data-name="Trazado 893986" d="M99.37,32.241S101.943,26.3,98,22.873s-10.867,3.181-6.616,10.2c2.165,3.576,7.306,1.668,7.99-.835" fill="#fed9b1"/>
            <path id="Trazado_893987" data-name="Trazado 893987" d="M99.579,31.677s1.878-2.177.97-6.216-3.223-3.52-3.223-3.52-3.755-2.685-6.651.191c-2.056,2.042,0,0-1.11-.665-1.345-.808-2.645,5.5.654,6.214a14.376,14.376,0,0,0,7.107-.792,2.986,2.986,0,0,0,.2,3.233s.553-1.642,1.621-1.021.073,2.844-.784,2.576c0,0,.663,2.842,1.212,0" fill="#5c3c35"/>
            <path id="Trazado_893988" data-name="Trazado 893988" d="M79.122,57.52,49.689,71.733,114.275,102.4l29.439-14.212Z" fill="#b8dfee"/>
            <path id="Trazado_893989" data-name="Trazado 893989" d="M115.9,90.1V84.155c0-.428-.728-.775-1.626-.775s-1.624.347-1.624.775V90.07a5.454,5.454,0,0,0,3.25.029" fill="#a8aaa6"/>
            <path id="Trazado_893990" data-name="Trazado 893990" d="M112.65,90.07v10.073c0,.429.729.776,1.625.776s1.625-.347,1.625-.776V90.1a5.454,5.454,0,0,1-3.25-.029" fill="#bdbfb8"/>
            <path id="Trazado_893991" data-name="Trazado 893991" d="M138.1,87.822c0,.429.727.776,1.625.776s1.623-.347,1.623-.776V77.108a8.646,8.646,0,0,1-3.248,1.378Z" fill="#bdbfb8"/>
            <path id="Trazado_893992" data-name="Trazado 893992" d="M139.721,71.24c-.9,0-1.625.348-1.625.776v6.469a8.66,8.66,0,0,0,3.248-1.377V72.016c0-.428-.727-.776-1.623-.776" fill="#a8aaa6"/>
            <path id="Trazado_893993" data-name="Trazado 893993" d="M82.509,74.746V68.8c0-.428-.727-.776-1.625-.776s-1.623.348-1.623.776v5.915a5.456,5.456,0,0,0,3.248.029" fill="#a8aaa6"/>
            <path id="Trazado_893994" data-name="Trazado 893994" d="M79.261,74.716V84.791c0,.429.727.776,1.623.776s1.625-.347,1.625-.776V74.745a5.448,5.448,0,0,1-3.248-.029" fill="#bdbfb8"/>
            <path id="Trazado_893995" data-name="Trazado 893995" d="M104.7,72.468c0,.429.727.776,1.625.776s1.623-.347,1.623-.776V61.754a8.653,8.653,0,0,1-3.248,1.378Z" fill="#bdbfb8"/>
            <path id="Trazado_893996" data-name="Trazado 893996" d="M106.327,55.887c-.9,0-1.625.348-1.625.776v6.469a8.672,8.672,0,0,0,3.249-1.377V56.663c0-.428-.728-.776-1.624-.776" fill="#a8aaa6"/>
            <path id="Trazado_893997" data-name="Trazado 893997" d="M55.21,61.313V55.369c0-.428-.729-.776-1.625-.776s-1.623.348-1.623.776v5.915a5.448,5.448,0,0,0,3.248.029" fill="#a8aaa6"/>
            <path id="Trazado_893998" data-name="Trazado 893998" d="M51.962,61.284V71.36c0,.429.726.775,1.624.775s1.624-.346,1.624-.775V61.313a5.448,5.448,0,0,1-3.248-.029" fill="#bdbfb8"/>
            <path id="Trazado_893999" data-name="Trazado 893999" d="M79.122,40.07,49.689,54.284,114.275,84.95l29.439-14.213Z" fill="#ffca4a"/>
            <path id="Trazado_894000" data-name="Trazado 894000" d="M114.275,87.716,49.689,57.049V54.284L114.275,84.95Z" fill="#fcb248"/>
            <path id="Trazado_894001" data-name="Trazado 894001" d="M114.275,87.716,143.714,73.5V70.738L114.275,84.95Z" fill="#e79e42"/>
            <path id="Trazado_894002" data-name="Trazado 894002" d="M119.817,41.77v1.207a.5.5,0,0,0,.4.481l2.539.39a.346.346,0,0,0,.4-.359V42.67l.643.1v.82a.5.5,0,0,0,.4.482l2.537.389a.345.345,0,0,0,.4-.359V42.894a.474.474,0,0,0-.05-.21.487.487,0,0,0-.353-.272l-2.537-.389a.339.339,0,0,0-.4.29l-.656-.1a.5.5,0,0,0-.4-.412l-2.539-.389a.344.344,0,0,0-.4.358m4.291.757a.175.175,0,0,1,.206-.182l2.328.356a.254.254,0,0,1,.2.246v1.008a.175.175,0,0,1-.2.183l-2.328-.358a.252.252,0,0,1-.206-.245Zm-3.988-.611a.176.176,0,0,1,.2-.183l2.329.357a.253.253,0,0,1,.206.246v1.008a.175.175,0,0,1-.206.182l-2.329-.357a.253.253,0,0,1-.2-.245Z" fill="#d95437"/>
            <path id="Trazado_894003" data-name="Trazado 894003" d="M130.266,41.921l-3.358.556v.57l2.553-.608h.805Z" fill="#d95437"/>
            <g id="Grupo_1102003" data-name="Grupo 1102003" style="mix-blend-mode: multiply;isolation: isolate">
              <g id="Grupo_1102002" data-name="Grupo 1102002">
                <g id="Grupo_1102001" data-name="Grupo 1102001" clip-path="url(#clip-path-11)">
                  <path id="Trazado_894004" data-name="Trazado 894004" d="M68.136,84.607c0,3.171-4.716,5.741-10.529,5.741s-10.53-2.57-10.53-5.741,4.714-5.74,10.53-5.74,10.529,2.57,10.529,5.74" fill="#b8dfee"/>
                </g>
              </g>
            </g>
            <path id="Trazado_894005" data-name="Trazado 894005" d="M52.1,83.406a1.54,1.54,0,0,1,1.373-2.756l10.018,4.99A1.54,1.54,0,1,1,62.113,88.4Z" fill="#002635"/>
            <path id="Trazado_894006" data-name="Trazado 894006" d="M61.844,80.568a1.54,1.54,0,0,1,1.424,2.73l-9.92,5.182a1.54,1.54,0,0,1-1.425-2.731Z" fill="#002635"/>
            <path id="Trazado_894007" data-name="Trazado 894007" d="M59.283,83.959a1.54,1.54,0,0,1-3.079.015l-.053-11.191a1.54,1.54,0,1,1,3.08-.015Z" fill="#002635"/>
            <path id="Trazado_894008" data-name="Trazado 894008" d="M65.1,76.323c-.061-.012-.1-.021-.1-.021,2.8-7.827-.439-12.579-.439-12.579-4.105-1.879-6.018,8.8-4.064,13.536a6.146,6.146,0,0,0,4.6-.936" fill="#001221"/>
            <path id="Trazado_894009" data-name="Trazado 894009" d="M65.1,76.323a6.146,6.146,0,0,1-4.6.936,4.52,4.52,0,0,0,.911,1.464c1.267,1.279,5.375.617,6.046-1.2.224-.6-1.882-1.093-2.356-1.2" fill="#995624"/>
            <path id="Trazado_894010" data-name="Trazado 894010" d="M71.109,78.888l-.1-.021c2.8-7.828-.439-12.579-.439-12.579-4.1-1.879-6.017,8.8-4.062,13.535a6.149,6.149,0,0,0,4.6-.935" fill="#001221"/>
            <path id="Trazado_894011" data-name="Trazado 894011" d="M71.109,78.888a6.149,6.149,0,0,1-4.6.935,4.521,4.521,0,0,0,.908,1.465c1.268,1.279,5.376.617,6.047-1.205.223-.6-1.881-1.093-2.355-1.195" fill="#995624"/>
            <path id="Trazado_894012" data-name="Trazado 894012" d="M59.795,78.785c3.194-.377,9.345-3.412,9.765-5.644.385-2.051.565-2.115-.769-3.656-.707-.818-21.547-1.1-21.769-.7-.4.737-1.661,1.644-.351,4.112,2,3.764,9.931,6.263,13.124,5.885" fill="#00394a"/>
            <path id="Trazado_894013" data-name="Trazado 894013" d="M59.795,76.982s9.737-3.524,9.765-6.137-11.567-7.332-13.854-7.016S45.361,68.136,46.671,70.6c2,3.764,9.274,7,13.124,6.378" fill="#064457"/>
            <path id="Trazado_894014" data-name="Trazado 894014" d="M58.8,52.807a9.8,9.8,0,0,0-7.443-.846,5.682,5.682,0,0,0,7.443.846" fill="#fbbf96"/>
            <path id="Trazado_894015" data-name="Trazado 894015" d="M62.72,66.164s.413-9.86-3.05-12.773a5.546,5.546,0,0,0-.866-.584,5.682,5.682,0,0,1-7.444-.847c-1.952.705-3.485,2.405-3.633,5.735-.234,5.268-.144,9.544,1.625,12.473C54.936,72.014,61,71.952,63.006,65.934c-.184.138-.286.23-.286.23" fill="#9aaf85"/>
            <path id="Trazado_894016" data-name="Trazado 894016" d="M70.571,66.288c-2.843-3.509-6.525-1.142-7.565-.354-2.005,6.018-8.07,6.08-13.654,4.234,1.384,2.3,3.8,3.764,7.891,4.232,5.36.612,15.454-5.487,13.328-8.112" fill="#001221"/>
            <path id="Trazado_894017" data-name="Trazado 894017" d="M57.323,64.223c-.818-1.548-8.216-6.287-10.845-6.139-1.032-.032-1.513-.006-2.173,1.3-.642,1.273-.261,5.03,1.035,7.37s6.856,6.078,10.371,5.6c1.969-.268,2.231-.843,2.463-1.515.933-2.023-.118-5.23-.851-6.618" fill="#00394a"/>
            <path id="Trazado_894018" data-name="Trazado 894018" d="M53.061,77.5S51.2,76.57,51.3,73.248s0-6.266,0-6.266.107-2.066-1.307-2.237-1.209.793-1.336,2.237A26.98,26.98,0,0,0,49.2,75.52c.558,1.841,2.871,2.115,3.859,1.982" fill="#002635"/>
            <path id="Trazado_894019" data-name="Trazado 894019" d="M64.292,60.011c-1.3-2.977-3.352-6.788-5.243-6.359-3.059.694-1.633,4.616-1.633,4.616A32.376,32.376,0,0,0,59.21,62.62c1.234,2.455,3.049,5.145,5.255,5.753a6.977,6.977,0,0,0,1.617-4.046c-.121-.3-1.043-2.6-1.79-4.316" fill="#c1dbac"/>
            <path id="Trazado_894020" data-name="Trazado 894020" d="M74.081,62.922c-1.112-1.151-5.586.474-7.305,1.159a10.008,10.008,0,0,1,.671,4.1c6.285-1.379,7.192-4.681,6.634-5.259" fill="#fed9b1"/>
            <path id="Trazado_894021" data-name="Trazado 894021" d="M66.776,64.081c-.421.168-.68.28-.68.28l-.014-.034a6.974,6.974,0,0,1-1.617,4.045,3.367,3.367,0,0,0,1.4.1c.562-.083,1.086-.181,1.58-.289a10.008,10.008,0,0,0-.671-4.1" fill="#fff"/>
            <path id="Trazado_894022" data-name="Trazado 894022" d="M72.953,62.295s3.292-2.467,5.466-1.349-.55,3.159-4.939,3.474c-3.071.221-.527-2.125-.527-2.125" fill="#fed9b1"/>
            <path id="Trazado_894023" data-name="Trazado 894023" d="M51.07,50.534s-2.573-5.941,1.374-9.368,10.865,3.181,6.616,10.2c-2.166,3.576-7.307,1.669-7.99-.835" fill="#fed9b1"/>
            <path id="Trazado_894024" data-name="Trazado 894024" d="M51.481,51.379s4.1,2.757,7.153.582l.834.812a6.482,6.482,0,0,1-6.132.845c-2.066-.889-2.292-1.532-2.292-1.532Z" fill="#c1dbac"/>
            <path id="Trazado_894025" data-name="Trazado 894025" d="M57.581,48.3A1.059,1.059,0,0,0,56.35,47.2c-1.229.164-1.6,2.293-.533,2.951s.246,2.561-1.108,2.539-2.819-.025-3.787-1.869-1.861-6.451.348-8.829c0,0-.5-1.313,2.045-2.255s5.654,1.834,6.416.711c.5-.736,3.275,4.005-2.028,4.62,0,0,1.06.947.839,1.724s-.773,1.173-.5,1.98c0,0-.422.724-.463-.465" fill="#001221"/>
            <path id="Trazado_894026" data-name="Trazado 894026" d="M76.259,50.584l5.047,2.4-6.652,3.1-5.048-2.4Z" fill="#b8dfee"/>
            <path id="Trazado_894027" data-name="Trazado 894027" d="M75.464,50.584l5.048,2.4-6.652,3.1-5.048-2.4Z" fill="#fff"/>
            <path id="Trazado_894028" data-name="Trazado 894028" d="M122,63.614c-.412,1.133.535,2.35,2.847,2.625-.311-1.432-.477-2.815-1.455-3.77A2.42,2.42,0,0,0,122,63.614" fill="#fed9b1"/>
            <path id="Trazado_894029" data-name="Trazado 894029" d="M133.4,54.112s-.356-3.663-3-3.047c-1.634.38-1.81,4.194-1.708,7.055.064,1.77.236,3.176.236,3.176a27.021,27.021,0,0,0-3.88.629,6,6,0,0,1,1.506,4.347,17.133,17.133,0,0,0,4.075-.826c2.373-.753,2.949-4.271,3-7.191a28.907,28.907,0,0,0-.229-4.143" fill="#001221"/>
            <path id="Trazado_894030" data-name="Trazado 894030" d="M125.051,61.924c-.33.082-.653.176-.962.279a4.694,4.694,0,0,1,1.882,4.082c.192,0,.381,0,.586-.014a6,6,0,0,0-1.506-4.347" fill="#ddeaf1"/>
            <path id="Trazado_894031" data-name="Trazado 894031" d="M124.089,62.2c-.245.082-.483.169-.7.265.978.955,1.144,2.338,1.455,3.77a8.94,8.94,0,0,0,1.127.047,4.7,4.7,0,0,0-1.882-4.082" fill="#fff"/>
            <path id="Trazado_894032" data-name="Trazado 894032" d="M124.155,65.682s.37-2.4-2.494-2.567-4.116,2.036-3.12,2.942,4.542.944,5.614-.375" fill="#fed9b1"/>
            <path id="Trazado_894033" data-name="Trazado 894033" d="M111.528,57.845c-.414,1.138.537,2.359,2.858,2.636-.31-1.438-.479-2.827-1.461-3.785a2.42,2.42,0,0,0-1.4,1.149" fill="#fed9b1"/>
            <path id="Trazado_894034" data-name="Trazado 894034" d="M119.382,56.654c.423.96.864,1.886,1.357,2.788a2.773,2.773,0,0,1-.54.243,17.283,17.283,0,0,1-4.092.829,6.026,6.026,0,0,0-1.512-4.365,25.861,25.861,0,0,1,3.295-.571q.738.552,1.492,1.076" fill="#001221"/>
            <path id="Trazado_894035" data-name="Trazado 894035" d="M114.6,56.149c-.33.083-.656.177-.966.28a4.713,4.713,0,0,1,1.889,4.1c.194,0,.383,0,.589-.014a6.026,6.026,0,0,0-1.512-4.365" fill="#ddeaf1"/>
            <path id="Trazado_894036" data-name="Trazado 894036" d="M113.629,56.429c-.246.082-.485.17-.7.266.981.958,1.15,2.348,1.46,3.785a8.657,8.657,0,0,0,1.132.047,4.711,4.711,0,0,0-1.889-4.1" fill="#fff"/>
            <path id="Trazado_894037" data-name="Trazado 894037" d="M113.695,59.922s.371-2.412-2.506-2.577-4.132,2.044-3.132,2.954,4.561.948,5.638-.377" fill="#fed9b1"/>
            <path id="Trazado_894038" data-name="Trazado 894038" d="M82.038,43.033c-.414,1.137.537,2.359,2.858,2.636-.31-1.438-.479-2.827-1.461-3.785a2.42,2.42,0,0,0-1.4,1.149" fill="#fed9b1"/>
            <path id="Trazado_894039" data-name="Trazado 894039" d="M89.891,41.842c.423.96.864,1.886,1.357,2.788a2.773,2.773,0,0,1-.54.243,17.292,17.292,0,0,1-4.092.829A6.026,6.026,0,0,0,85.1,41.337a25.861,25.861,0,0,1,3.3-.571q.738.552,1.492,1.076" fill="#001221"/>
            <path id="Trazado_894040" data-name="Trazado 894040" d="M85.1,41.337c-.33.083-.656.177-.966.28a4.713,4.713,0,0,1,1.889,4.1c.194,0,.383,0,.589-.014A6.026,6.026,0,0,0,85.1,41.337" fill="#ddeaf1"/>
            <path id="Trazado_894041" data-name="Trazado 894041" d="M84.139,41.617c-.246.082-.485.17-.7.266.981.958,1.15,2.348,1.46,3.786a8.844,8.844,0,0,0,1.132.046,4.711,4.711,0,0,0-1.889-4.1" fill="#fff"/>
            <path id="Trazado_894042" data-name="Trazado 894042" d="M84.205,45.11s.371-2.412-2.505-2.577-4.133,2.045-3.133,2.954,4.561.948,5.638-.377" fill="#fed9b1"/>
            <path id="Trazado_894043" data-name="Trazado 894043" d="M109.2,66.188c0,.619,1.123,1.121,2.51,1.121s2.508-.5,2.508-1.121-1.123-1.122-2.508-1.122-2.51.5-2.51,1.122" fill="#fcb248"/>
            <path id="Trazado_894044" data-name="Trazado 894044" d="M110.734,63.072s-.88-.568-1.394.136-.41,2.687,1.423,2.516l-.17-.733s-.645.353-.909-.514.355-1.351,1.1-.832Z" fill="#e8f2fa"/>
            <path id="Trazado_894045" data-name="Trazado 894045" d="M112.175,61.561c1.126,0,2.038.437,2.038.973v3.523c0,.538-.912.973-2.038.973s-2.038-.435-2.038-.973V62.534c0-.536.912-.973,2.038-.973" fill="#fff"/>
            <path id="Trazado_894046" data-name="Trazado 894046" d="M112.175,61.834c.931,0,1.685.274,1.685.611v.032c0,.338-.754.611-1.685.611s-1.687-.273-1.687-.611v-.032c0-.337.755-.611,1.687-.611" fill="#bdbfb8"/>
            <path id="Trazado_894047" data-name="Trazado 894047" d="M85.07,53.8l2.2.878,8.141-3.734L86.671,46.96Z" fill="#fcb248"/>
            <path id="Trazado_894048" data-name="Trazado 894048" d="M83.314,45.778l-7.506,3.558,10.853,5.093,7.505-3.557Z" fill="#a8aaa6"/>
            <path id="Trazado_894049" data-name="Trazado 894049" d="M87.05,53.853c0,.494-.4.7-.894.463l-9.688-4.61a1.645,1.645,0,0,1-.894-1.325V42.19c0-.494.4-.7.894-.463l9.688,4.61a1.645,1.645,0,0,1,.894,1.324Z" fill="#888b88"/>
            <path id="Trazado_894050" data-name="Trazado 894050" d="M86.8,53.961a.508.508,0,0,1-.642.548,1.032,1.032,0,0,1-.253-.085l-9.687-4.61a1.646,1.646,0,0,1-.895-1.326V42.3c0-.494.4-.7.895-.463L85.9,46.444A1.647,1.647,0,0,1,86.8,47.77Z" fill="#bdbfb8"/>
            <g id="Grupo_1102006" data-name="Grupo 1102006" style="mix-blend-mode: multiply;isolation: isolate">
              <g id="Grupo_1102005" data-name="Grupo 1102005">
                <g id="Grupo_1102004" data-name="Grupo 1102004" clip-path="url(#clip-path-12)">
                  <path id="Trazado_894051" data-name="Trazado 894051" d="M97.358,98.458c0,3.17-4.714,5.741-10.53,5.741S76.3,101.628,76.3,98.458s4.714-5.739,10.529-5.739,10.53,2.569,10.53,5.739" fill="#b8dfee"/>
                </g>
              </g>
            </g>
            <path id="Trazado_894052" data-name="Trazado 894052" d="M81.317,97.257A1.539,1.539,0,1,1,82.69,94.5L92.708,99.49a1.54,1.54,0,1,1-1.374,2.757Z" fill="#002635"/>
            <path id="Trazado_894053" data-name="Trazado 894053" d="M91.065,94.42a1.539,1.539,0,1,1,1.425,2.729l-9.921,5.181A1.54,1.54,0,1,1,81.145,99.6Z" fill="#002635"/>
            <path id="Trazado_894054" data-name="Trazado 894054" d="M88.506,97.81a1.54,1.54,0,0,1-3.08.015l-.053-11.191a1.54,1.54,0,0,1,3.08-.015Z" fill="#002635"/>
            <path id="Trazado_894055" data-name="Trazado 894055" d="M94.323,90.175l-.1-.02c2.8-7.828-.439-12.58-.439-12.58-4.105-1.878-6.018,8.8-4.063,13.536a6.153,6.153,0,0,0,4.6-.936" fill="#001221"/>
            <path id="Trazado_894056" data-name="Trazado 894056" d="M94.323,90.175a6.153,6.153,0,0,1-4.6.936,4.528,4.528,0,0,0,.909,1.464c1.267,1.279,5.376.616,6.047-1.2.223-.6-1.881-1.094-2.356-1.2" fill="#002635"/>
            <path id="Trazado_894057" data-name="Trazado 894057" d="M98.293,93.624h0c2.8-7.828,1.5-13.484,1.5-13.484-4.1-1.879-6.017,8.8-4.062,13.536,1.552.284,1.167.9,2.562-.052" fill="#fed9b1"/>
            <path id="Trazado_894058" data-name="Trazado 894058" d="M98.293,93.624c-1.395.95-1.01.336-2.562.052a4.5,4.5,0,0,0,.909,1.463c1.267,1.28,4.991,2.376,5.663.556.223-.6-3.535-1.969-4.01-2.071" fill="#002635"/>
            <path id="Trazado_894059" data-name="Trazado 894059" d="M89.017,92.637c3.194-.377,9.345-3.412,9.765-5.644.385-2.051.565-2.115-.768-3.657-.707-.817-21.548-1.1-21.77-.7-.4.737-1.66,1.644-.351,4.111,2,3.765,9.931,6.263,13.124,5.886" fill="#00394a"/>
            <path id="Trazado_894060" data-name="Trazado 894060" d="M89.017,90.835s9.738-3.525,9.765-6.138-11.566-7.331-13.854-7.016-10.344,4.307-9.035,6.776c2,3.763,9.273,7,13.124,6.378" fill="#064457"/>
            <path id="Trazado_894061" data-name="Trazado 894061" d="M88.026,66.659a9.8,9.8,0,0,0-7.444-.846,5.683,5.683,0,0,0,7.444.846" fill="#fbbf96"/>
            <path id="Trazado_894062" data-name="Trazado 894062" d="M91.942,80.016s.413-9.859-3.05-12.773a5.5,5.5,0,0,0-.866-.584,5.683,5.683,0,0,1-7.444-.847C77,68.263,77.21,74.657,77.254,73.65c.234-5.267-.448,7.441,1.318,10.37,5.586,1.845,11.65,1.784,13.656-4.234-.183.138-.286.23-.286.23" fill="#e46674"/>
            <path id="Trazado_894063" data-name="Trazado 894063" d="M90.676,84.605c1.4-.93,3.622-3.126,2.5-5.439,1.571-.893,4.36-1.816,6.619.974,2.127,2.624-7.968,8.725-13.327,8.112a11.672,11.672,0,0,1-6.119-2.206,12.4,12.4,0,0,0,10.329-1.441" fill="#e46674"/>
            <path id="Trazado_894064" data-name="Trazado 894064" d="M90.676,84.605a12.4,12.4,0,0,1-10.329,1.441,7.587,7.587,0,0,1-1.774-2.026c5.586,1.845,11.65,1.784,13.656-4.235a8.711,8.711,0,0,1,.945-.619c1.124,2.313-1.1,4.509-2.5,5.439" fill="#43ba82"/>
            <path id="Trazado_894065" data-name="Trazado 894065" d="M86.545,78.075c-.818-1.548-8.216-6.287-10.846-6.139-1.031-.032-1.513-.007-2.172,1.3-.643,1.273-.26,5.029,1.034,7.371s6.857,6.077,10.371,5.6c1.97-.267,2.232-.842,2.464-1.514.933-2.022-.118-5.23-.851-6.618" fill="#00394a"/>
            <path id="Trazado_894066" data-name="Trazado 894066" d="M82.284,91.354s-1.864-.933-1.761-4.254-.005-6.266-.005-6.266.108-2.066-1.307-2.237S78,79.39,77.875,80.834a27.017,27.017,0,0,0,.549,8.538c.558,1.839,2.871,2.115,3.86,1.982" fill="#002635"/>
            <path id="Trazado_894067" data-name="Trazado 894067" d="M88.271,67.5c2.052-.465,3.614,6.155,3.7,6.359a19.264,19.264,0,0,0,3.345,4.351s6.6-2.872,7.984-1.439c.6.624-.5,3.9-8.214,5.036-2.841.416-5.171-2.38-6.657-5.338a32.528,32.528,0,0,1-1.795-4.352S85.212,68.2,88.271,67.5" fill="#fed9b1"/>
            <path id="Trazado_894068" data-name="Trazado 894068" d="M102.175,76.147s3.293-2.467,5.466-1.349-.55,3.159-4.938,3.474c-3.07.221-.528-2.125-.528-2.125" fill="#fed9b1"/>
            <path id="Trazado_894069" data-name="Trazado 894069" d="M80.292,64.386s-2.572-5.94,1.373-9.368,10.867,3.182,6.617,10.2c-2.165,3.575-7.305,1.668-7.99-.836" fill="#fed9b1"/>
            <path id="Trazado_894070" data-name="Trazado 894070" d="M86.6,60.639s-.758,5.644,1.937,5.992a10.948,10.948,0,0,1-5.306,2.415,5.809,5.809,0,0,1-6-2.953,3.232,3.232,0,0,0,1.337-3.338c-.388-2.315-.721-8.131,4.175-8.777,0,0,4.346-1.606,6.867,1.776,2.083,2.792,1.162,5.064,1.162,5.064a4.341,4.341,0,0,1-4.175-.179" fill="#002635"/>
            <path id="Trazado_894071" data-name="Trazado 894071" d="M86.887,62.378s-.369-.9-1.105-.373-.642,2.537,1.4,2.167Z" fill="#fed9b1"/>
            <path id="Trazado_894072" data-name="Trazado 894072" d="M86.6,61.918s.209,1.83,1.162,2.168a2.131,2.131,0,0,1-.273-1.809,1.166,1.166,0,0,0-.552-1.758s-1.075.264-.337,1.4" fill="#002635"/>
            <path id="Trazado_894073" data-name="Trazado 894073" d="M86.026,61.22s1.691-.668,1.738-1.339-3.315,1.5-1.738,1.339" fill="#43ba82"/>
            <path id="Trazado_894074" data-name="Trazado 894074" d="M91.98,49.855c-.412,1.133.535,2.35,2.847,2.625-.311-1.432-.477-2.815-1.455-3.77a2.42,2.42,0,0,0-1.392,1.145" fill="#fed9b1"/>
            <path id="Trazado_894075" data-name="Trazado 894075" d="M103.387,40.353s-.356-3.663-3-3.047c-1.634.38-1.81,4.194-1.708,7.055.064,1.77.236,3.176.236,3.176a27.021,27.021,0,0,0-3.88.629,6,6,0,0,1,1.506,4.347,17.175,17.175,0,0,0,4.075-.825c2.373-.754,2.949-4.272,3-7.192a28.907,28.907,0,0,0-.229-4.143" fill="#001221"/>
            <path id="Trazado_894076" data-name="Trazado 894076" d="M95.034,48.166c-.33.082-.653.176-.962.279a4.694,4.694,0,0,1,1.882,4.082c.192,0,.381,0,.586-.014a6,6,0,0,0-1.506-4.347" fill="#ddeaf1"/>
            <path id="Trazado_894077" data-name="Trazado 894077" d="M94.072,48.445c-.245.082-.483.169-.7.265.978.955,1.144,2.338,1.455,3.77a8.94,8.94,0,0,0,1.127.047,4.7,4.7,0,0,0-1.882-4.082" fill="#fff"/>
            <path id="Trazado_894078" data-name="Trazado 894078" d="M94.137,51.924s.37-2.4-2.494-2.567-4.116,2.036-3.12,2.942,4.542.944,5.614-.375" fill="#fed9b1"/>
            <path id="Trazado_894079" data-name="Trazado 894079" d="M124.482,131.361c0,1.65-3.6,2.988-8.033,2.988s-8.032-1.338-8.032-2.988,3.6-2.988,8.032-2.988,8.033,1.338,8.033,2.988" fill="#00394a"/>
            <path id="Trazado_894080" data-name="Trazado 894080" d="M117.181,130.69a.587.587,0,1,1-1.173,0V76.284a.586.586,0,1,1,1.173,0Z" fill="#002635"/>
            <path id="Trazado_894081" data-name="Trazado 894081" d="M122.885,85.765l-1.224-10.746c0-1.343-2.269-2.431-5.066-2.431s-5.068,1.088-5.068,2.431L110.3,85.765a1.477,1.477,0,0,0-.037.324c0,1.677,2.833,3.037,6.328,3.037s6.327-1.36,6.327-3.037a1.533,1.533,0,0,0-.037-.324" fill="#f37240"/>
            <path id="Trazado_894082" data-name="Trazado 894082" d="M121.1,75.2a1.365,1.365,0,0,0-.489-.976A6.153,6.153,0,0,0,116.6,73.04a5.861,5.861,0,0,0-4.148,1.315,1.273,1.273,0,0,0-.362.849c0,.935,1.237,1.728,2.966,2.031a1.579,1.579,0,0,1-.06-.409,1.6,1.6,0,0,1,3.206,0,1.586,1.586,0,0,1-.059.41c1.728-.3,2.965-1.1,2.965-2.032" fill="#00394a"/>
            <path id="Trazado_894083" data-name="Trazado 894083" d="M116.594,75.223a1.6,1.6,0,0,0-1.6,1.6,1.579,1.579,0,0,0,.06.409,9.051,9.051,0,0,0,3.086,0,1.587,1.587,0,0,0,.06-.41,1.6,1.6,0,0,0-1.6-1.6" fill="#ffca4a"/>
            <g id="Grupo_1102009" data-name="Grupo 1102009" style="mix-blend-mode: multiply;isolation: isolate">
              <g id="Grupo_1102008" data-name="Grupo 1102008">
                <g id="Grupo_1102007" data-name="Grupo 1102007" clip-path="url(#clip-path-13)">
                  <path id="Trazado_894084" data-name="Trazado 894084" d="M169.833,100.224l11.737,5.762-31.162,14.832-11.736-5.763Z" fill="#b8dfee"/>
                </g>
              </g>
            </g>
            <path id="Trazado_894085" data-name="Trazado 894085" d="M149.236,116.522v2.9c0,.308.524.558,1.172.558s1.172-.25,1.172-.558v-2.91a2.9,2.9,0,0,1-2.344.01" fill="#c17634"/>
            <path id="Trazado_894086" data-name="Trazado 894086" d="M141.011,113.034v2.551c0,.31.524.56,1.172.56s1.171-.25,1.171-.56v-2a2.861,2.861,0,0,1-2.343-.552" fill="#c17634"/>
            <path id="Trazado_894087" data-name="Trazado 894087" d="M178.061,104.772a2.674,2.674,0,0,1-.476-.182v1.358c0,.309.524.558,1.172.558s1.172-.249,1.172-.558v-1.387a2.791,2.791,0,0,1-1.868.211" fill="#c17634"/>
            <path id="Trazado_894088" data-name="Trazado 894088" d="M170.461,85.394l11.11,5.2L150.409,105.42l-11.109-5.2Z" fill="#ffca4a"/>
            <path id="Trazado_894089" data-name="Trazado 894089" d="M150.408,118.921l31.162-14.83v-13.5L150.408,105.42Z" fill="#e79e42"/>
            <path id="Trazado_894090" data-name="Trazado 894090" d="M150.408,118.921l-11.109-5.2v-13.5l11.109,5.2Z" fill="#fcb248"/>
            <path id="Trazado_894091" data-name="Trazado 894091" d="M165.641,90.207l5.769,2.7-16.183,7.7-5.768-2.7Z" fill="#064457"/>
            <path id="Trazado_894092" data-name="Trazado 894092" d="M146.6,99.356c0,1.171.948,1.661,2.118,1.1l22.964-10.926a3.9,3.9,0,0,0,2.12-3.143V71.71c0-1.171-.948-1.663-2.12-1.1L148.714,81.54a3.9,3.9,0,0,0-2.118,3.142Z" fill="#064457"/>
            <path id="Trazado_894093" data-name="Trazado 894093" d="M172.279,70.869,149.318,81.8a3.9,3.9,0,0,0-2.12,3.14V99.614a1.2,1.2,0,0,0,1.517,1.3,2.417,2.417,0,0,0,.6-.2l8.2-3.9,9.6-4.57,5.155-2.452a3.9,3.9,0,0,0,2.12-3.144V71.967c0-1.172-.947-1.664-2.12-1.1" fill="#005c6e"/>
            <line id="Línea_636" data-name="Línea 636" y1="3.321" x2="7.19" transform="translate(153.167 93.145)" fill="none" stroke="#064457" stroke-miterlimit="10" stroke-width="0.263"/>
            <line id="Línea_637" data-name="Línea 637" y1="3.323" x2="7.19" transform="translate(153.167 91.87)" fill="none" stroke="#064457" stroke-miterlimit="10" stroke-width="0.263"/>
            <line id="Línea_638" data-name="Línea 638" y1="3.323" x2="7.19" transform="translate(153.167 90.599)" fill="none" stroke="#064457" stroke-miterlimit="10" stroke-width="0.263"/>
            <line id="Línea_639" data-name="Línea 639" y1="3.324" x2="7.19" transform="translate(153.167 89.327)" fill="none" stroke="#064457" stroke-miterlimit="10" stroke-width="0.263"/>
            <line id="Línea_640" data-name="Línea 640" y1="3.323" x2="7.19" transform="translate(153.167 88.054)" fill="none" stroke="#064457" stroke-miterlimit="10" stroke-width="0.263"/>
            <line id="Línea_641" data-name="Línea 641" y1="3.323" x2="7.19" transform="translate(162.639 88.938)" fill="none" stroke="#064457" stroke-miterlimit="10" stroke-width="0.263"/>
            <line id="Línea_642" data-name="Línea 642" y1="3.323" x2="7.19" transform="translate(162.639 87.664)" fill="none" stroke="#064457" stroke-miterlimit="10" stroke-width="0.263"/>
            <line id="Línea_643" data-name="Línea 643" y1="3.323" x2="7.19" transform="translate(162.639 86.393)" fill="none" stroke="#064457" stroke-miterlimit="10" stroke-width="0.263"/>
            <line id="Línea_644" data-name="Línea 644" y1="3.324" x2="7.19" transform="translate(162.639 85.12)" fill="none" stroke="#064457" stroke-miterlimit="10" stroke-width="0.263"/>
            <line id="Línea_645" data-name="Línea 645" y1="3.323" x2="7.19" transform="translate(162.639 83.847)" fill="none" stroke="#064457" stroke-miterlimit="10" stroke-width="0.263"/>
            <path id="Trazado_894094" data-name="Trazado 894094" d="M25.711,150.774v8.793l25.737-12.188.085-8.895Z" fill="#fcb248"/>
            <path id="Trazado_894095" data-name="Trazado 894095" d="M37.537,156.393l-11.826-5.619,9.276-4.415c3.61,2,7.208,4.018,10.826,6.1Z" fill="#f37240"/>
            <path id="Trazado_894096" data-name="Trazado 894096" d="M63.359,144.1l-17.546,8.351c-3.618-2.077-7.216-4.1-10.826-6.1l16.545-7.874Z" fill="#f37240"/>
            <path id="Trazado_894097" data-name="Trazado 894097" d="M37.537,158.046l25.822-12.29V144.1L37.537,156.392Z" fill="#f15d3d"/>
            <path id="Trazado_894098" data-name="Trazado 894098" d="M37.537,158.046l-11.826-5.619v-1.654l11.826,5.619Z" fill="#f0493b"/>
            <path id="Trazado_894099" data-name="Trazado 894099" d="M25.711,136.1v8.793L51.448,132.7l.085-8.894Z" fill="#fcb248"/>
            <path id="Trazado_894100" data-name="Trazado 894100" d="M37.537,141.717,25.711,136.1l9.276-4.414c3.61,2,7.208,4.018,10.826,6.094Z" fill="#f37240"/>
            <path id="Trazado_894101" data-name="Trazado 894101" d="M63.359,129.427l-17.546,8.351c-3.618-2.076-7.216-4.1-10.826-6.094l16.545-7.875Z" fill="#f37240"/>
            <path id="Trazado_894102" data-name="Trazado 894102" d="M37.537,143.37l25.822-12.29v-1.653L37.537,141.716Z" fill="#f15d3d"/>
            <path id="Trazado_894103" data-name="Trazado 894103" d="M37.537,143.37l-11.826-5.619V136.1l11.826,5.619Z" fill="#f0493b"/>
            <path id="Trazado_894104" data-name="Trazado 894104" d="M35.086,148.425l-5.048,2.4,6.652,3.105,5.048-2.4Z" fill="#b8dfee"/>
            <path id="Trazado_894105" data-name="Trazado 894105" d="M35.88,148.425l-5.048,2.4,6.652,3.105,5.048-2.4Z" fill="#fff"/>
            <path id="Trazado_894106" data-name="Trazado 894106" d="M50.845,141.371l-5.047,2.4,6.652,3.106,5.046-2.4Z" fill="#ffca4a"/>
            <path id="Trazado_894107" data-name="Trazado 894107" d="M52.45,147.58l-6.652-3.1v-.706l6.652,3.105Z" fill="#fcb248"/>
            <path id="Trazado_894108" data-name="Trazado 894108" d="M52.45,147.58l5.046-2.4v-.706l-5.046,2.4Z" fill="#e8f2fa"/>
            <path id="Trazado_894109" data-name="Trazado 894109" d="M50.845,140.395l-5.047,2.4L52.45,145.9l5.046-2.4Z" fill="#43ba82"/>
            <path id="Trazado_894110" data-name="Trazado 894110" d="M52.45,146.6,45.8,143.5v-.707l6.652,3.1Z" fill="#369d6e"/>
            <path id="Trazado_894111" data-name="Trazado 894111" d="M52.45,146.6l5.046-2.4V143.5l-5.046,2.4Z" fill="#e8f2fa"/>
            <path id="Trazado_894112" data-name="Trazado 894112" d="M50.845,139.466l-5.047,2.4,6.652,3.105,5.046-2.4Z" fill="#064457"/>
            <path id="Trazado_894113" data-name="Trazado 894113" d="M52.45,145.675l-6.652-3.1v-.706l6.652,3.1Z" fill="#003849"/>
            <path id="Trazado_894114" data-name="Trazado 894114" d="M52.45,145.675l5.046-2.4v-.706l-5.046,2.4Z" fill="#e8f2fa"/>
            <path id="Trazado_894115" data-name="Trazado 894115" d="M43.441,145.061l-5.047,2.4,6.652,3.106,5.047-2.4Z" fill="#43ba82"/>
            <path id="Trazado_894116" data-name="Trazado 894116" d="M45.046,151.27l-6.652-3.1v-.707l6.652,3.1Z" fill="#369d6e"/>
            <path id="Trazado_894117" data-name="Trazado 894117" d="M45.046,151.27l5.047-2.4v-.7l-5.047,2.4Z" fill="#e8f2fa"/>
            <path id="Trazado_894118" data-name="Trazado 894118" d="M43.441,144.195l-5.047,2.4,6.652,3.105,5.047-2.4Z" fill="#064457"/>
            <path id="Trazado_894119" data-name="Trazado 894119" d="M45.046,150.4l-6.652-3.1v-.706l6.652,3.1Z" fill="#003849"/>
            <path id="Trazado_894120" data-name="Trazado 894120" d="M45.046,150.4l5.047-2.4V147.3l-5.047,2.4Z" fill="#e8f2fa"/>
            <path id="Trazado_894121" data-name="Trazado 894121" d="M43.441,143.266l-5.047,2.4,6.652,3.1,5.047-2.4Z" fill="#ffca4a"/>
            <path id="Trazado_894122" data-name="Trazado 894122" d="M45.046,149.475l-6.652-3.1v-.707l6.652,3.1Z" fill="#fcb248"/>
            <path id="Trazado_894123" data-name="Trazado 894123" d="M45.046,149.475l5.047-2.4v-.706l-5.047,2.4Z" fill="#e8f2fa"/>
            <path id="Trazado_894124" data-name="Trazado 894124" d="M48.058,132.461c0,.759-1.378,1.376-3.076,1.376s-3.076-.617-3.076-1.376,1.378-1.377,3.076-1.377,3.076.617,3.076,1.377" fill="#f15d3d"/>
            <path id="Trazado_894125" data-name="Trazado 894125" d="M44.406,126.786c-1.38,0-2.5.536-2.5,1.195V132.3c0,.66,1.119,1.193,2.5,1.193s2.5-.533,2.5-1.193v-4.319c0-.659-1.119-1.195-2.5-1.195" fill="#467087"/>
            <path id="Trazado_894126" data-name="Trazado 894126" d="M46.315,128.2a.391.391,0,0,0,.158-.286v-.039c0-.414-.926-.75-2.068-.75s-2.066.336-2.066.75v.039a.249.249,0,0,0,.018.063,5.8,5.8,0,0,1,3.958.223" fill="#315a6e"/>
            <path id="Trazado_894127" data-name="Trazado 894127" d="M42.357,127.974c.09.385.967.686,2.049.686a3.238,3.238,0,0,0,1.909-.463,5.8,5.8,0,0,0-3.958-.223" fill="#c16d33"/>
            <path id="Trazado_894128" data-name="Trazado 894128" d="M44.387,128.008a3.692,3.692,0,0,0-1.569-3.319,3.97,3.97,0,0,0,1.569,3.319" fill="#369d6e"/>
            <path id="Trazado_894129" data-name="Trazado 894129" d="M44.407,128.008a6.206,6.206,0,0,0,.185-6.169,6.672,6.672,0,0,0-.185,6.169" fill="#43ba82"/>
            <path id="Trazado_894130" data-name="Trazado 894130" d="M103.533,236.884,92.006,242.36l25.167,11.977,11.527-5.476Z" fill="#b8dfee"/>
            <path id="Trazado_894131" data-name="Trazado 894131" d="M118.119,250.451v2.342c0,.249-.424.452-.946.452s-.947-.2-.947-.452v-2.351a2.345,2.345,0,0,0,1.893.009" fill="#a8aaa6"/>
            <path id="Trazado_894132" data-name="Trazado 894132" d="M127.32,246.355v2.062c0,.249-.424.451-.948.451s-.945-.2-.945-.451V246.8a2.3,2.3,0,0,0,1.893-.446" fill="#a8aaa6"/>
            <path id="Trazado_894133" data-name="Trazado 894133" d="M94.84,240.961a2.234,2.234,0,0,0,.384-.147v1.1c0,.25-.423.451-.947.451s-.945-.2-.945-.451V240.79a2.236,2.236,0,0,0,1.508.171" fill="#a8aaa6"/>
            <path id="Trazado_894134" data-name="Trazado 894134" d="M103.533,233.323,92.006,238.8l25.167,11.978L128.7,245.3Z" fill="#f37240"/>
            <path id="Trazado_894135" data-name="Trazado 894135" d="M117.173,252.388,92.006,240.411V238.8l25.167,11.978Z" fill="#f15d3d"/>
            <path id="Trazado_894136" data-name="Trazado 894136" d="M117.173,252.388l11.527-5.476V245.3l-11.527,5.476Z" fill="#f0493b"/>
            <path id="Trazado_894137" data-name="Trazado 894137" d="M118.119,243.376v-3.463c0-.251-.424-.453-.946-.453s-.947.2-.947.453v3.447a3.177,3.177,0,0,0,1.893.016" fill="#a8aaa6"/>
            <path id="Trazado_894138" data-name="Trazado 894138" d="M116.226,243.359v5.871c0,.25.424.453.947.453s.946-.2.946-.453v-5.855a3.177,3.177,0,0,1-1.893-.016" fill="#bdbfb8"/>
            <path id="Trazado_894139" data-name="Trazado 894139" d="M125.427,244.855c0,.25.423.452.946.452s.946-.2.946-.452v-6.244a5.07,5.07,0,0,1-1.892.8Z" fill="#bdbfb8"/>
            <path id="Trazado_894140" data-name="Trazado 894140" d="M126.373,235.192c-.523,0-.946.2-.946.452v3.77a5.075,5.075,0,0,0,1.893-.8v-2.967c0-.249-.424-.452-.947-.452" fill="#a8aaa6"/>
            <path id="Trazado_894141" data-name="Trazado 894141" d="M95.224,232.494v-3.465c0-.249-.423-.451-.947-.451s-.945.2-.945.451v3.447a3.166,3.166,0,0,0,1.892.018" fill="#a8aaa6"/>
            <path id="Trazado_894142" data-name="Trazado 894142" d="M93.332,232.477v5.872c0,.249.424.452.946.452s.946-.2.946-.452v-5.854a3.182,3.182,0,0,1-1.892-.018" fill="#bdbfb8"/>
            <path id="Trazado_894143" data-name="Trazado 894143" d="M103.533,222.921,92.006,228.4l25.167,11.978L128.7,234.9Z" fill="#f37240"/>
            <path id="Trazado_894144" data-name="Trazado 894144" d="M117.173,241.987,92.006,230.009V228.4l25.167,11.978Z" fill="#f15d3d"/>
            <path id="Trazado_894145" data-name="Trazado 894145" d="M117.173,241.987l11.527-5.476V234.9l-11.527,5.476Z" fill="#f0493b"/>
            <path id="Trazado_894146" data-name="Trazado 894146" d="M118.119,233.255v-3.463c0-.25-.424-.454-.946-.454s-.947.2-.947.454v3.446a3.177,3.177,0,0,0,1.893.017" fill="#a8aaa6"/>
            <path id="Trazado_894147" data-name="Trazado 894147" d="M116.226,233.237v5.872c0,.249.424.452.947.452s.946-.2.946-.452v-5.855a3.177,3.177,0,0,1-1.893-.017" fill="#bdbfb8"/>
            <path id="Trazado_894148" data-name="Trazado 894148" d="M125.427,234.734c0,.25.423.452.946.452s.946-.2.946-.452V228.49a5.054,5.054,0,0,1-1.892.8Z" fill="#bdbfb8"/>
            <path id="Trazado_894149" data-name="Trazado 894149" d="M126.373,225.071c-.523,0-.946.2-.946.453v3.77a5.075,5.075,0,0,0,1.893-.8v-2.967c0-.249-.424-.453-.947-.453" fill="#a8aaa6"/>
            <path id="Trazado_894150" data-name="Trazado 894150" d="M95.224,222.373V218.91c0-.25-.423-.453-.947-.453s-.945.2-.945.453v3.447a3.166,3.166,0,0,0,1.892.016" fill="#a8aaa6"/>
            <path id="Trazado_894151" data-name="Trazado 894151" d="M93.332,222.356v5.871c0,.25.424.452.946.452s.946-.2.946-.452v-5.855a3.166,3.166,0,0,1-1.892-.016" fill="#bdbfb8"/>
            <path id="Trazado_894152" data-name="Trazado 894152" d="M103.533,212.8l-11.527,5.476,25.167,11.977,11.527-5.475Z" fill="#f37240"/>
            <path id="Trazado_894153" data-name="Trazado 894153" d="M117.173,231.866,92.006,219.888v-1.611l25.167,11.977Z" fill="#f15d3d"/>
            <path id="Trazado_894154" data-name="Trazado 894154" d="M117.173,231.866,128.7,226.39v-1.611l-11.527,5.475Z" fill="#f0493b"/>
            <path id="Trazado_894155" data-name="Trazado 894155" d="M119.761,221.952l5.185,2.463-6.834,3.189-5.185-2.463Z" fill="#b8dfee"/>
            <path id="Trazado_894156" data-name="Trazado 894156" d="M118.944,221.952l5.186,2.463L117.3,227.6l-5.185-2.463Z" fill="#fff"/>
            <path id="Trazado_894157" data-name="Trazado 894157" d="M103.572,214.707l5.184,2.464-6.832,3.189L96.74,217.9Z" fill="#ffca4a"/>
            <path id="Trazado_894158" data-name="Trazado 894158" d="M101.924,221.084l6.832-3.189v-.724l-6.832,3.189Z" fill="#fcb248"/>
            <path id="Trazado_894159" data-name="Trazado 894159" d="M101.924,221.084l-5.184-2.463V217.9l5.184,2.465Z" fill="#e8f2fa"/>
            <path id="Trazado_894160" data-name="Trazado 894160" d="M103.572,213.7l5.184,2.463-6.832,3.189-5.184-2.463Z" fill="#43ba82"/>
            <path id="Trazado_894161" data-name="Trazado 894161" d="M101.924,220.081l6.832-3.188v-.725l-6.832,3.189Z" fill="#369d6e"/>
            <path id="Trazado_894162" data-name="Trazado 894162" d="M101.924,220.081l-5.184-2.463v-.725l5.184,2.464Z" fill="#e8f2fa"/>
            <path id="Trazado_894163" data-name="Trazado 894163" d="M103.572,212.751l5.184,2.463-6.832,3.189L96.74,215.94Z" fill="#064457"/>
            <path id="Trazado_894164" data-name="Trazado 894164" d="M101.924,219.127l6.832-3.188v-.725l-6.832,3.189Z" fill="#003849"/>
            <path id="Trazado_894165" data-name="Trazado 894165" d="M101.924,219.127l-5.184-2.463v-.725l5.184,2.464Z" fill="#e8f2fa"/>
            <path id="Trazado_894166" data-name="Trazado 894166" d="M111.177,218.5l5.184,2.463-6.832,3.189-5.185-2.463Z" fill="#43ba82"/>
            <path id="Trazado_894167" data-name="Trazado 894167" d="M109.529,224.874l6.833-3.189v-.725l-6.833,3.189Z" fill="#369d6e"/>
            <path id="Trazado_894168" data-name="Trazado 894168" d="M109.529,224.874l-5.184-2.464v-.725l5.184,2.464Z" fill="#e8f2fa"/>
            <path id="Trazado_894169" data-name="Trazado 894169" d="M111.177,217.607l5.184,2.463-6.832,3.19-5.185-2.464Z" fill="#064457"/>
            <path id="Trazado_894170" data-name="Trazado 894170" d="M109.529,223.984l6.833-3.188v-.725l-6.833,3.19Z" fill="#003849"/>
            <path id="Trazado_894171" data-name="Trazado 894171" d="M109.529,223.984l-5.184-2.462V220.8l5.184,2.465Z" fill="#e8f2fa"/>
            <path id="Trazado_894172" data-name="Trazado 894172" d="M111.177,216.654l5.184,2.464-6.832,3.189-5.185-2.463Z" fill="#ffca4a"/>
            <path id="Trazado_894173" data-name="Trazado 894173" d="M109.529,223.031l6.833-3.188v-.725l-6.833,3.189Z" fill="#fcb248"/>
            <path id="Trazado_894174" data-name="Trazado 894174" d="M109.529,223.031l-5.184-2.463v-.725l5.184,2.464Z" fill="#e8f2fa"/>
          </g>
        </g>
      </g>
    </g>
  </g>
</svg>
