<svg id="Grupo_1102138" data-name="Grupo 1102138" xmlns="http://www.w3.org/2000/svg" xmlns:xlink="http://www.w3.org/1999/xlink" width="366.544" height="321.418" viewBox="0 0 366.544 321.418">
  <defs>
    <clipPath id="clip-path">
      <rect id="Rectángulo_402642" data-name="Rectángulo 402642" width="366.544" height="321.418" fill="none"/>
    </clipPath>
    <clipPath id="clip-path-3">
      <rect id="Rectángulo_402627" data-name="Rectángulo 402627" width="24.275" height="30.863" fill="none"/>
    </clipPath>
    <clipPath id="clip-path-4">
      <rect id="Rectángulo_402628" data-name="Rectángulo 402628" width="34.736" height="44.414" fill="none"/>
    </clipPath>
    <clipPath id="clip-path-5">
      <rect id="Rectángulo_402633" data-name="Rectángulo 402633" width="206.527" height="100.345" fill="none"/>
    </clipPath>
    <clipPath id="clip-path-6">
      <rect id="Rectángulo_402634" data-name="Rectángulo 402634" width="9.4" height="2.002" fill="none"/>
    </clipPath>
    <clipPath id="clip-path-7">
      <rect id="Rectángulo_402635" data-name="Rectángulo 402635" width="30.142" height="76.947" fill="none"/>
    </clipPath>
  </defs>
  <g id="Grupo_1102137" data-name="Grupo 1102137" clip-path="url(#clip-path)">
    <g id="Grupo_1102136" data-name="Grupo 1102136">
      <g id="Grupo_1102135" data-name="Grupo 1102135" clip-path="url(#clip-path)">
        <path id="Trazado_894575" data-name="Trazado 894575" d="M121.432,144.716c14.341-11.286,18.444-32.259,9.168-46.846S99.995,84.825,85.652,96.114s-16.281,28.053-7,42.634,28.433,17.258,42.78,5.969" transform="translate(7.917 9.47)" fill="#f5ecdf"/>
        <path id="Trazado_894576" data-name="Trazado 894576" d="M290.9,313.569c53.142,0,79.49-71.77,41.486-113.082q-.715-.776-1.447-1.555c-11.687-12.441-6.6-34.331-3.58-50.73a.937.937,0,0,0-.149-.141,100.869,100.869,0,0,0-4.71-42.916C306.409,57.671,258.785,33.708,216.111,51.6c-44.008,18.444-50.558,61.349-50.672,61.36-5.132,25.021-21.059,46.808-44.284,56.534-23.57,9.881-39.212,4.62-58.632,12.763a93.092,93.092,0,0,0-19.894,11.414C-5.4,229.683,18.8,313.569,76.721,313.569Z" transform="translate(1.848 4.955)" fill="#f5ecdf"/>
        <path id="Trazado_894577" data-name="Trazado 894577" d="M35.393,276.017l-7.028-.182a49.061,49.061,0,0,1-8.024-18.181l5.5-.385-5.973-2.093a61.836,61.836,0,0,1-.94-11.094,59.031,59.031,0,0,1,19.831,5.966l.484,4.682.931-3.9a37.823,37.823,0,0,1,15.69,15.836l-1.775,7.563,3.064-4.833a38.133,38.133,0,0,1,2.578,10.426c.274,7.472,0,12,0,12H48.266a47.2,47.2,0,0,1-18.379-14.036Z" transform="translate(2.054 26.48)" fill="#abd17e"/>
        <path id="Trazado_894578" data-name="Trazado 894578" d="M53.719,281.943a26.288,26.288,0,0,1,3.64-11.054l1.684,3.55-.551-5.168a30.073,30.073,0,0,1,12.883-9.749l.329,3.186.875-3.66a41.719,41.719,0,0,1,10.107-2.468A40.076,40.076,0,0,1,80.27,270.96l-2.918.931,2.477.243a33.88,33.88,0,0,1-8.818,12.478l-5.74.314,3.722,1.365a30.348,30.348,0,0,1-7.134,4.177H53.719s-.186-3.226,0-8.524" transform="translate(5.819 27.836)" fill="#bdd796"/>
        <g id="Grupo_1102122" data-name="Grupo 1102122" transform="translate(61.201 287.44)" opacity="0.21" style="mix-blend-mode: screen;isolation: isolate">
          <g id="Grupo_1102121" data-name="Grupo 1102121">
            <g id="Grupo_1102120" data-name="Grupo 1102120" clip-path="url(#clip-path-3)">
              <path id="Trazado_894579" data-name="Trazado 894579" d="M73.944,264.961c1.795-1.7,5.542-5.653,5.542-5.653a64.055,64.055,0,0,0-6.194,4.591c-14.84,14.026-17.94,25.585-18.082,26.109l.582.163h.636c.415-1.406,3.979-12.316,17.515-25.21" transform="translate(-55.212 -259.308)" fill="#fff"/>
            </g>
          </g>
        </g>
        <g id="Grupo_1102125" data-name="Grupo 1102125" transform="translate(24.185 273.89)" opacity="0.21" style="mix-blend-mode: screen;isolation: isolate">
          <g id="Grupo_1102124" data-name="Grupo 1102124">
            <g id="Grupo_1102123" data-name="Grupo 1102123" clip-path="url(#clip-path-4)">
              <path id="Trazado_894580" data-name="Trazado 894580" d="M55.25,291.5h1.3c-1.112-3.751-7.963-24.239-28.865-40.813a54.7,54.7,0,0,0-5.871-3.6s3.241,3.114,4.9,4.428C46.886,267.42,53.874,287.027,55.25,291.5" transform="translate(-21.818 -247.084)" fill="#fff"/>
            </g>
          </g>
        </g>
        <path id="Trazado_894581" data-name="Trazado 894581" d="M83.494,282.408s3.2,2.382,5.587,2.793,5.259.329,5.5,1.725-.246,1.767-.246,1.767H75.829a1.446,1.446,0,0,1-1.383-1.028,10.289,10.289,0,0,1-.235-5.463c.862-3.369,9.284.205,9.284.205" transform="translate(8.022 30.459)" fill="#242e23"/>
        <path id="Trazado_894582" data-name="Trazado 894582" d="M51.416,282.353A15.645,15.645,0,0,1,52.805,287a1.518,1.518,0,0,1-1.533,1.637H42.485a1.534,1.534,0,0,1-1.52-1.738,13.118,13.118,0,0,1,1.331-4.547c1.4-2.465,9.12,0,9.12,0" transform="translate(4.443 30.513)" fill="#242e23"/>
        <path id="Trazado_894583" data-name="Trazado 894583" d="M99.97,174.591,83.594,190.256l-.219-7.231L92.9,168.895Z" transform="translate(9.045 18.323)" fill="#fda78e"/>
        <path id="Trazado_894584" data-name="Trazado 894584" d="M43.2,181.634s-.246,11.667,7.559,20.786A89.449,89.449,0,0,0,52.568,190.1l-.41-8.873Z" transform="translate(4.687 19.661)" fill="#fda78e"/>
        <path id="Trazado_894585" data-name="Trazado 894585" d="M77.215,114.355s.164,5.305-2.875,5.787a62.944,62.944,0,0,1-9.284.161,26.273,26.273,0,0,1-5.916-15.112c-.493-9.165,6.49-11.094,11.338-11.5s9.942-.482,11.339-3.859c0,0,4.6,10.772-1.808,14.55-1.315.483-1.972,5.225-1.972,5.225s-1.766-2.21-3-.562-.37,5.466,2.177,5.305" transform="translate(6.413 9.746)" fill="#232d22"/>
        <path id="Trazado_894586" data-name="Trazado 894586" d="M80.817,101.856a6.453,6.453,0,0,1-1.478,1.227c-1.316.481-1.973,5.224-1.973,5.224s-1.766-2.21-3-.562-.369,5.466,2.177,5.305c0,0,.164,5.305-2.875,5.787a54.961,54.961,0,0,1-8.38.2v6.8H75.723V122.3c6.327,0,6.654-7.557,6.408-11.576a70.751,70.751,0,0,0-1.315-8.863" transform="translate(7.083 11.05)" fill="#fda78e"/>
        <path id="Trazado_894587" data-name="Trazado 894587" d="M51.784,131.342s-6.9,8.873-8.654,28.81,0,27.387,0,27.387h8.063Z" transform="translate(4.595 14.249)" fill="#4b89dc"/>
        <path id="Trazado_894588" data-name="Trazado 894588" d="M88.831,183.076s.438,95.031-1.534,110.147c0,0-3.833,1.534-10.187,0a334.424,334.424,0,0,1-2.577-56.9c-4.272-19.06-5.091-28.433-5.091-28.433s-7.394,31.877-9.695,40.586C58.1,258.991,51.7,293,51.7,293s-3.451,1.315-9.531,0c0,0,4.6-47.981,6.244-58.99S51.2,183.076,51.2,183.076Z" transform="translate(4.574 19.862)" fill="#194866"/>
        <path id="Trazado_894589" data-name="Trazado 894589" d="M77.347,123.486h1.506l.267,1.274a3.644,3.644,0,0,0,2.433,2.727c3.063,1,8.844,3.145,11.321,5.858,3.451,3.78,13.474,22.922,16.6,29.906s-.575,12.9-5.915,16.267L95.5,174.26s-.41-1.972,2.136-3.2l.767-.52L89.1,154.049l-1.151,35.493s-12.883,1.179-19.079,1.179-18.549-1.179-18.549-1.179l.6-57.348A36.817,36.817,0,0,1,62.3,127.274a3.636,3.636,0,0,0,2.71-3.055l.1-.733H77.347Z" transform="translate(5.459 13.397)" fill="#579ce9"/>
        <path id="Trazado_894590" data-name="Trazado 894590" d="M262.817,285.65c-.824-1.284.726-2.356-1.137-4.366-1.192-1.3-3.538-1.124-4.534-2.816-1.86-3.169-4.615-2.807-4.615-2.807s-2.745-.362-4.6,2.807c-1,1.692-2.387,1.426-3.577,2.728-1.851,2.027-.205,3.347-1.036,4.631-.815,1.293-2.613.849-2.613,3.179h23.665c0-2.33-.735-2.064-1.55-3.357" transform="translate(26.113 29.905)" fill="#abd17e"/>
        <path id="Trazado_894591" data-name="Trazado 894591" d="M250.865,283.175c-1.811-2.833,1.593-5.163-2.5-9.608-2.622-2.851-7.779-2.434-9.984-6.208-4.1-6.968-10.147-6.18-10.147-6.18s-6.048-.788-10.147,6.18c-2.206,3.773-5.248,3.163-7.865,6.014-4.081,4.445-.464,7.349-2.271,10.2s-5.755,1.877-5.755,7H254.27c0-5.127-1.582-4.551-3.405-7.4" transform="translate(21.936 28.332)" fill="#abd17e"/>
        <path id="Trazado_894592" data-name="Trazado 894592" d="M227.548,284.48c-1.306-2.029,1.116-3.685-1.789-6.863-1.86-2.02-5.538-1.736-7.123-4.42-2.905-4.949-7.226-4.374-7.226-4.374s-4.316-.575-7.221,4.374c-1.576,2.684-3.741,2.259-5.6,4.3-2.92,3.161-.315,5.233-1.621,7.261s-4.091,1.346-4.091,4.995h37.093c0-3.649-1.134-3.241-2.418-5.269" transform="translate(20.924 29.162)" fill="#bdd796"/>
        <path id="Trazado_894593" data-name="Trazado 894593" d="M252.676,286.179c-.615-.948.541-1.736-.845-3.224-.881-.964-2.609-.832-3.366-2.081a3.828,3.828,0,0,0-6.822,0c-.735,1.248-1.758,1.045-2.639,2.01-1.386,1.5-.151,2.48-.766,3.417-.62.975-1.931.646-1.931,2.366h17.515c0-1.719-.535-1.524-1.146-2.489" transform="translate(25.637 30.244)" fill="#bdd796"/>
        <path id="Trazado_894594" data-name="Trazado 894594" d="M277.236,1.986s10.81-5,21.022,5.46c11.49,11.77,19.149,4.9,19.149,4.9s-4.341,14.312-17.873,10.451c-8.895-2.537-17.788-1.883-22.3,2.919Z" transform="translate(30.077 0.086)" fill="#ffd35a"/>
        <path id="Trazado_894595" data-name="Trazado 894595" d="M41.428,57.746A20.714,20.714,0,1,1,20.714,37.033,20.713,20.713,0,0,1,41.428,57.746" transform="translate(0 4.018)" fill="#ffd35a"/>
        <path id="Trazado_894596" data-name="Trazado 894596" d="M33.158,57.009A13.182,13.182,0,1,1,19.977,43.828,13.181,13.181,0,0,1,33.158,57.009" transform="translate(0.737 4.755)" fill="#fff"/>
        <path id="Trazado_894597" data-name="Trazado 894597" d="M105.639,57.746A20.713,20.713,0,1,1,84.926,37.033a20.713,20.713,0,0,1,20.713,20.713" transform="translate(6.966 4.018)" fill="#ffd35a"/>
        <path id="Trazado_894598" data-name="Trazado 894598" d="M97.37,57.009A13.181,13.181,0,1,1,84.189,43.828,13.181,13.181,0,0,1,97.37,57.009" transform="translate(7.704 4.755)" fill="#fff"/>
        <path id="Trazado_894599" data-name="Trazado 894599" d="M169.853,57.746a20.714,20.714,0,1,1-20.713-20.713,20.713,20.713,0,0,1,20.713,20.713" transform="translate(13.933 4.018)" fill="#ffd35a"/>
        <path id="Trazado_894600" data-name="Trazado 894600" d="M161.583,57.009A13.182,13.182,0,1,1,148.4,43.828a13.181,13.181,0,0,1,13.181,13.181" transform="translate(14.67 4.755)" fill="#fff"/>
        <path id="Trazado_894601" data-name="Trazado 894601" d="M234.065,57.746a20.713,20.713,0,1,1-20.713-20.713,20.713,20.713,0,0,1,20.713,20.713" transform="translate(20.899 4.018)" fill="#ffd35a"/>
        <path id="Trazado_894602" data-name="Trazado 894602" d="M225.8,57.009a13.181,13.181,0,1,1-13.181-13.181A13.181,13.181,0,0,1,225.8,57.009" transform="translate(21.636 4.755)" fill="#fff"/>
        <path id="Trazado_894603" data-name="Trazado 894603" d="M298.279,57.746a20.714,20.714,0,1,1-20.713-20.713,20.713,20.713,0,0,1,20.713,20.713" transform="translate(27.865 4.018)" fill="#ffd35a"/>
        <path id="Trazado_894604" data-name="Trazado 894604" d="M290.009,57.009a13.182,13.182,0,1,1-13.181-13.181,13.181,13.181,0,0,1,13.181,13.181" transform="translate(28.603 4.755)" fill="#fff"/>
        <rect id="Rectángulo_402629" data-name="Rectángulo 402629" width="32.765" height="6.403" transform="translate(40.11 58.563)" fill="#ffd35a"/>
        <rect id="Rectángulo_402630" data-name="Rectángulo 402630" width="32.765" height="6.403" transform="translate(111.665 58.563)" fill="#ffd35a"/>
        <rect id="Rectángulo_402631" data-name="Rectángulo 402631" width="32.765" height="6.403" transform="translate(182.844 58.563)" fill="#ffd35a"/>
        <rect id="Rectángulo_402632" data-name="Rectángulo 402632" width="32.765" height="6.403" transform="translate(253.647 58.563)" fill="#ffd35a"/>
        <path id="Trazado_894605" data-name="Trazado 894605" d="M34.723,36.857s-11.2,12.822-15.023,17.2l-6.935-7.429a3.628,3.628,0,1,0-5.3,4.954l9.649,10.364a3.615,3.615,0,0,0,5.392-.083l17.7-20.206a3.643,3.643,0,0,0-5.484-4.8" transform="translate(0.703 3.865)" fill="#266e8e"/>
        <path id="Trazado_894606" data-name="Trazado 894606" d="M99.275,36.857s-11.2,12.822-15.023,17.2c-2.826-3.026-6.934-7.429-6.934-7.429a3.628,3.628,0,1,0-5.3,4.954l9.649,10.364a3.615,3.615,0,0,0,5.392-.083l17.7-20.206a3.643,3.643,0,0,0-5.485-4.8" transform="translate(7.706 3.865)" fill="#266e8e"/>
        <path id="Trazado_894607" data-name="Trazado 894607" d="M275.936,64.526h0a1.757,1.757,0,0,1-1.757-1.758V1.758a1.758,1.758,0,1,1,3.515,0v61.01a1.758,1.758,0,0,1-1.758,1.758" transform="translate(29.745)" fill="#efa34b"/>
        <path id="Trazado_894608" data-name="Trazado 894608" d="M251.128,277.571l-.442,5.712h-5.117l.457-6.02Z" transform="translate(26.641 30.08)" fill="#fff"/>
        <path id="Trazado_894609" data-name="Trazado 894609" d="M252.584,280.957a3.326,3.326,0,0,1,1.361,2.862v4.138H233.391s-.366-2.446,2.453-2.446,7.762-1.958,8.686-2.893c1.186-1.215,2.032-1.661,2.941-1.661Z" transform="translate(25.319 30.481)" fill="#242e23"/>
        <path id="Trazado_894610" data-name="Trazado 894610" d="M241.7,185.836l2.26,103.245s5.357,1.043,8.9,0c2.985-15.5,3.373-51.1,7.635-73.583s7.367-27.109,7.367-37.2-26.161,7.533-26.161,7.533" transform="translate(26.222 19.006)" fill="#19405a"/>
        <path id="Trazado_894611" data-name="Trazado 894611" d="M282.252,277.9l1.292,5.7h-5.107l-1.372-6.011Z" transform="translate(30.058 30.115)" fill="#fff"/>
        <path id="Trazado_894612" data-name="Trazado 894612" d="M284.488,281.284a3.339,3.339,0,0,1,1.362,2.851v4.149H265.3s-.378-2.435,2.448-2.435,7.772-1.969,8.687-2.9c1.192-1.2,2.036-1.661,2.942-1.661Z" transform="translate(28.78 30.516)" fill="#242e23"/>
        <path id="Trazado_894613" data-name="Trazado 894613" d="M286.683,287.305a13.882,13.882,0,0,1-8.342.469s-22.307-78.977-25.247-89.916c17.471-1.96,21.716-1.8,21.716-1.8Z" transform="translate(27.458 21.27)" fill="#194866"/>
        <path id="Trazado_894614" data-name="Trazado 894614" d="M250.407,135.467s-8.729-3.522-13.1-5.564c-4.357-2.055-12.645-30.163-12.645-30.163a7.865,7.865,0,0,0-6.188,1.935s6.368,30.6,13.655,39.069c7.272,8.469,30.535,20.853,34.365,18.363,3.8-2.49-16.086-23.641-16.086-23.641" transform="translate(23.702 10.815)" fill="#4b89dc"/>
        <path id="Trazado_894615" data-name="Trazado 894615" d="M212.219,94.292c-.384,1.469,1.756,3.309,4.8,4.107,3.023.8,5.81.255,6.2-1.192s-1.772-3.309-4.794-4.118c-3.047-.786-5.831-.244-6.208,1.2" transform="translate(23.019 10.06)" fill="#fda4a4"/>
        <path id="Trazado_894616" data-name="Trazado 894616" d="M140.932,56.35l31.835,3.88s173.338,77.758,178.488,80.1c-1.5,3.305-5.917,13.04-7.419,16.366C338.684,154.353,165.362,76.6,165.362,76.6Z" transform="translate(15.29 6.113)" fill="#f4a301"/>
        <path id="Trazado_894617" data-name="Trazado 894617" d="M172.767,60.23l-7.4,16.369L140.932,56.35Z" transform="translate(15.29 6.113)" fill="#ffc9b0"/>
        <path id="Trazado_894618" data-name="Trazado 894618" d="M140.932,56.35l11.339,1.387-2.636,5.828Z" transform="translate(15.29 6.113)" fill="#666"/>
        <path id="Trazado_894619" data-name="Trazado 894619" d="M326.353,149.561c-1.133-.52-10.457-4.7-24.275-10.912l7.008-16.544c14.041,6.3,23.544,10.569,24.686,11.09-1.5,3.305-5.917,13.04-7.419,16.366" transform="translate(32.772 13.247)" fill="#f19b81"/>
        <path id="Trazado_894620" data-name="Trazado 894620" d="M305.555,140.2q-3.274-1.472-6.908-3.106c2.257-4.976,5.313-11.721,7.426-16.362q3.64,1.629,6.91,3.1c-2.2,4.847-5.26,11.58-7.428,16.372" transform="translate(32.4 13.098)" fill="#e5e3f8"/>
        <g id="Grupo_1102128" data-name="Grupo 1102128" transform="translate(156.222 62.463)" opacity="0.3" style="mix-blend-mode: multiply;isolation: isolate">
          <g id="Grupo_1102127" data-name="Grupo 1102127">
            <g id="Grupo_1102126" data-name="Grupo 1102126" clip-path="url(#clip-path-5)">
              <path id="Trazado_894621" data-name="Trazado 894621" d="M140.932,56.35,347.458,148.7c-1.448,3.2-2.887,6.364-3.623,8-.152-.068-.473-.221-.895-.4l-15.787-7.1c-1.418-.638-2.92-1.314-4.488-2.01-.875-.4-1.858-.838-2.773-1.247C271.159,124.06,165.362,76.6,165.362,76.6L149.635,63.565Z" transform="translate(-140.932 -56.35)" fill="#b2b2b2"/>
            </g>
          </g>
        </g>
        <path id="Trazado_894622" data-name="Trazado 894622" d="M252.713,129.812s-7.309,7.266-9.974,26.343c-2.527,17.917-2.91,44.866-2.91,44.866a40.014,40.014,0,0,0,37.4,2.16c-2.693-27.172-.2-48.218-.978-60.389-.788-12.2-14.7-13.363-23.535-12.98" transform="translate(26.019 14.077)" fill="#579ce9"/>
        <path id="Trazado_894623" data-name="Trazado 894623" d="M274.636,124.582a8.935,8.935,0,0,1-1.535,1.727h.077l-2.608,1.381c-5.372,12.7-7.175,6.446-7.175,6.446-3.607,1.919-4.528-1.381-5.449-2.8h-.038a1.709,1.709,0,0,0-.307-.421l-.192-.115c-2.8-1.189-1.919-3.032-1.842-7.943.076-4.949,4.26-11.894,4.26-11.894,1.189-1.228,4.949,1.112,7.559,2.571s1.5,2.609,1.5,2.609c1.956.422,2.915,3.991,1.649,6.369-1.266,2.418-1.419,4.374-.614,2.839a13.21,13.21,0,0,1,2.494-3.031c1.958-1.651,4.145-.653,2.226,2.264" transform="translate(27.705 12.001)" fill="#fda78e"/>
        <g id="Grupo_1102131" data-name="Grupo 1102131" transform="translate(285.305 141.725)" opacity="0.4" style="mix-blend-mode: multiply;isolation: isolate">
          <g id="Grupo_1102130" data-name="Grupo 1102130">
            <g id="Grupo_1102129" data-name="Grupo 1102129" clip-path="url(#clip-path-6)">
              <path id="Trazado_894624" data-name="Trazado 894624" d="M266.782,127.854c-4.413,2.456-7.329,2.187-9.055,1.612h-.039a1.707,1.707,0,0,0-.307-.422c.461.269,2.648,1.459,9.4-1.189" transform="translate(-257.382 -127.854)" fill="#f19b81"/>
            </g>
          </g>
        </g>
        <path id="Trazado_894625" data-name="Trazado 894625" d="M268.719,117.128c1.937.427,2.916,3.979,1.644,6.363s-1.447,4.372-.605,2.83a13.015,13.015,0,0,1,2.494-3.022c1.24-1.042,3.3-.522,2.41,1.937.4-.235,9.432-5.128,3.957-11.618,0,0,1.026-6.129-3.511-8.172s-12.6-.8-14.98-3.064c-3.554-3.383-4.611,5.373-.356,9.459a22.186,22.186,0,0,0,8.947,5.287" transform="translate(27.881 11.025)" fill="#211d3e"/>
        <path id="Trazado_894626" data-name="Trazado 894626" d="M227.709,89.4c-.947,1-.021,3.425,2.054,5.4,2.1,1.966,4.548,2.766,5.506,1.766s.037-3.415-2.048-5.4c-2.1-1.969-4.558-2.767-5.511-1.756" transform="translate(24.664 9.651)" fill="#fda78e"/>
        <g id="Grupo_1102134" data-name="Grupo 1102134" transform="translate(273.104 143.908)" opacity="0.79" style="mix-blend-mode: multiply;isolation: isolate">
          <g id="Grupo_1102133" data-name="Grupo 1102133">
            <g id="Grupo_1102132" data-name="Grupo 1102132" clip-path="url(#clip-path-7)">
              <path id="Trazado_894627" data-name="Trazado 894627" d="M268.771,194.715c0-6.129,1.022-24.853.851-35.578a15.563,15.563,0,0,0-3.916-10.2c-8.515-2.84-15.108-6.308-19.332-9.543,2.735-6.628,5.507-9.459,5.6-9.566,8.719.406,20.167,2.629,22.907,10.183h.059a13.237,13.237,0,0,1,.6,2.778c.78,12.171-1.715,33.216.978,60.389a40.881,40.881,0,0,1-18.576,3.553c8.092-1.979,10.831-6.117,10.831-12.012" transform="translate(-246.375 -129.824)" fill="#d2dbea"/>
            </g>
          </g>
        </g>
        <path id="Trazado_894628" data-name="Trazado 894628" d="M277.121,146.491c.527-5.245-3.926-8.65-13.357-12.448s-16.113-6.161-18.731-12.321-7.6-24.1-7.6-24.1a6.777,6.777,0,0,0-5.119.788s1.325,19.4,6.431,32.227,24.391,18.374,32.605,20.959c5.3,1.659,5.766-5.107,5.766-5.107" transform="translate(25.204 10.57)" fill="#579ce9"/>
        <path id="Trazado_894629" data-name="Trazado 894629" d="M255.38,142s4.772,25.7,30.724,32.735l3.189,4.179L283.9,181s-27.052-10.337-30.35-39.807Z" transform="translate(27.508 15.318)" fill="#194866"/>
        <path id="Trazado_894630" data-name="Trazado 894630" d="M317.358,290.271H33.974a1.586,1.586,0,1,1,0-3.171H317.358a1.586,1.586,0,1,1,0,3.171" transform="translate(3.514 31.147)" fill="#bfb6a5"/>
        <rect id="Rectángulo_402636" data-name="Rectángulo 402636" width="24.678" height="6.165" transform="translate(175.178 245.049)" fill="#e2ceb3"/>
        <rect id="Rectángulo_402637" data-name="Rectángulo 402637" width="47.236" height="6.17" transform="translate(175.178 253.351)" fill="#e2ceb3"/>
        <rect id="Rectángulo_402638" data-name="Rectángulo 402638" width="44.386" height="6.16" transform="translate(175.178 261.655)" fill="#e2ceb3"/>
        <rect id="Rectángulo_402639" data-name="Rectángulo 402639" width="31.122" height="6.165" transform="translate(175.178 269.956)" fill="#e2ceb3"/>
        <rect id="Rectángulo_402640" data-name="Rectángulo 402640" width="15.306" height="6.165" transform="translate(175.178 278.257)" fill="#e2ceb3"/>
        <path id="Trazado_894631" data-name="Trazado 894631" d="M109.188,241.2a24.346,24.346,0,0,0,23.11,24.3v-4.87a19.467,19.467,0,0,1,0-38.865V216.9a24.342,24.342,0,0,0-23.11,24.295" transform="translate(11.846 23.532)" fill="#e2ceb3"/>
        <path id="Trazado_894632" data-name="Trazado 894632" d="M146.994,222.791a24.284,24.284,0,0,0-15.034-5.9v4.842a19.377,19.377,0,0,1,11.576,4.513Z" transform="translate(14.316 23.53)" fill="#e2ceb3"/>
        <path id="Trazado_894633" data-name="Trazado 894633" d="M148.548,223.533l-3.412,3.412a19.471,19.471,0,0,1-13.176,33.012V264.8a24.325,24.325,0,0,0,16.587-41.267" transform="translate(14.316 24.251)" fill="#e2ceb3"/>
        <path id="Trazado_894634" data-name="Trazado 894634" d="M207.718,174.545a32.384,32.384,0,1,1-32.384-32.385,32.384,32.384,0,0,1,32.384,32.385" transform="translate(15.508 15.423)" fill="#e2ceb3"/>
        <path id="Trazado_894635" data-name="Trazado 894635" d="M201.974,174.033a27.152,27.152,0,1,1-27.152-27.152,27.152,27.152,0,0,1,27.152,27.152" transform="translate(16.02 15.935)" fill="#fdf8f3"/>
        <path id="Trazado_894636" data-name="Trazado 894636" d="M195.233,173.432a21.013,21.013,0,1,1-21.012-21.013,21.013,21.013,0,0,1,21.012,21.013" transform="translate(16.621 16.536)" fill="#e2ceb3"/>
        <path id="Trazado_894637" data-name="Trazado 894637" d="M188.551,172.837a14.926,14.926,0,1,1-14.927-14.927,14.927,14.927,0,0,1,14.927,14.927" transform="translate(17.217 17.131)" fill="#fdf8f3"/>
        <path id="Trazado_894638" data-name="Trazado 894638" d="M181.15,172.177a8.186,8.186,0,1,1-8.185-8.185,8.184,8.184,0,0,1,8.185,8.185" transform="translate(17.877 17.791)" fill="#e2ceb3"/>
        <path id="Trazado_894639" data-name="Trazado 894639" d="M175.591,171.682a3.122,3.122,0,1,1-3.123-3.123,3.122,3.122,0,0,1,3.123,3.123" transform="translate(18.372 18.287)" fill="#fdf8f3"/>
        <path id="Trazado_894640" data-name="Trazado 894640" d="M200.191,151.749l-7.608,1.7,9.13-9.13,7.608-1.7Z" transform="translate(20.893 15.473)" fill="#ffd35a"/>
        <path id="Trazado_894641" data-name="Trazado 894641" d="M193.009,145.145l-1.7,7.608,9.128-9.13,1.7-7.608Z" transform="translate(20.755 14.756)" fill="#ffd35a"/>
        <path id="Trazado_894642" data-name="Trazado 894642" d="M171.8,175.084h0a1.012,1.012,0,0,1,0-1.432l30.79-30.789,1.431,1.431-30.789,30.79a1.012,1.012,0,0,1-1.432,0" transform="translate(18.606 15.499)" fill="#efa34b"/>
        <path id="Trazado_894643" data-name="Trazado 894643" d="M13.318,164.907a1.035,1.035,0,0,0-1.033,1.038,1.025,1.025,0,0,0,1.033,1.029H23.637a1.026,1.026,0,0,0,1.031-1.029,1.036,1.036,0,0,0-1.031-1.038Z" transform="translate(1.333 17.891)" fill="#e2ceb3"/>
        <path id="Trazado_894644" data-name="Trazado 894644" d="M26.616,164.907a1.039,1.039,0,0,0-1.033,1.038,1.029,1.029,0,0,0,1.033,1.029h1.892a1.026,1.026,0,0,0,1.031-1.029,1.036,1.036,0,0,0-1.031-1.038Z" transform="translate(2.775 17.891)" fill="#e2ceb3"/>
        <path id="Trazado_894645" data-name="Trazado 894645" d="M297.35,233.31a1.035,1.035,0,0,0-1.033,1.038,1.025,1.025,0,0,0,1.033,1.029h10.319a1.026,1.026,0,0,0,1.031-1.029,1.036,1.036,0,0,0-1.031-1.038Z" transform="translate(32.147 25.311)" fill="#e2ceb3"/>
        <path id="Trazado_894646" data-name="Trazado 894646" d="M310.647,233.31a1.039,1.039,0,0,0-1.033,1.038,1.029,1.029,0,0,0,1.033,1.029h1.892a1.026,1.026,0,0,0,1.031-1.029,1.036,1.036,0,0,0-1.031-1.038Z" transform="translate(33.59 25.311)" fill="#e2ceb3"/>
        <path id="Trazado_894647" data-name="Trazado 894647" d="M143.34,95.3h-2.828V92.465a1.1,1.1,0,0,0-2.209,0V95.3h-2.831a1.1,1.1,0,0,0,0,2.207H138.3v2.826a1.1,1.1,0,1,0,2.209,0V97.507h2.828a1.1,1.1,0,1,0,0-2.207" transform="translate(14.578 9.912)" fill="#e2ceb3"/>
        <path id="Trazado_894648" data-name="Trazado 894648" d="M318.2,167.506H315.37v-2.836a1.1,1.1,0,0,0-2.209,0v2.836H310.33a1.1,1.1,0,0,0,0,2.207h2.831v2.826a1.1,1.1,0,1,0,2.209,0v-2.826H318.2a1.1,1.1,0,1,0,0-2.207" transform="translate(33.548 17.745)" fill="#e2ceb3"/>
        <path id="Trazado_894649" data-name="Trazado 894649" d="M27.2,106.551a5.978,5.978,0,1,0,5.978-5.981,5.984,5.984,0,0,0-5.978,5.981m2.293,0a3.684,3.684,0,1,1,3.685,3.685,3.691,3.691,0,0,1-3.685-3.685" transform="translate(2.951 10.911)" fill="#e2ceb3"/>
        <path id="Trazado_894650" data-name="Trazado 894650" d="M300.812,87.978A5.978,5.978,0,1,0,306.79,82a5.984,5.984,0,0,0-5.978,5.981m2.293,0a3.684,3.684,0,1,1,3.685,3.685,3.691,3.691,0,0,1-3.685-3.685" transform="translate(32.635 8.896)" fill="#e2ceb3"/>
      </g>
    </g>
  </g>
</svg>
