<svg id="Grupo_1101833" data-name="Grupo 1101833" xmlns="http://www.w3.org/2000/svg" xmlns:xlink="http://www.w3.org/1999/xlink" width="338.234" height="290.302" viewBox="0 0 338.234 290.302">
  <defs>
    <clipPath id="clip-path">
      <rect id="Rectángulo_402419" data-name="Rectángulo 402419" width="338.234" height="290.302" fill="none"/>
    </clipPath>
    <clipPath id="clip-path-4">
      <rect id="Rectángulo_402398" data-name="Rectángulo 402398" width="326.188" height="61.657" fill="none"/>
    </clipPath>
    <clipPath id="clip-path-5">
      <rect id="Rectángulo_402399" data-name="Rectángulo 402399" width="68.29" height="68.29" fill="none"/>
    </clipPath>
    <clipPath id="clip-path-6">
      <rect id="Rectángulo_402400" data-name="Rectángulo 402400" width="67.866" height="67.867" fill="none"/>
    </clipPath>
    <clipPath id="clip-path-7">
      <rect id="Rectángulo_402401" data-name="Rectángulo 402401" width="87.689" height="87.689" fill="none"/>
    </clipPath>
    <clipPath id="clip-path-9">
      <rect id="Rectángulo_402403" data-name="Rectángulo 402403" width="27.169" height="63.52" fill="none"/>
    </clipPath>
    <clipPath id="clip-path-11">
      <rect id="Rectángulo_402405" data-name="Rectángulo 402405" width="17.235" height="19.514" fill="none"/>
    </clipPath>
    <clipPath id="clip-path-13">
      <rect id="Rectángulo_402407" data-name="Rectángulo 402407" width="120.808" height="84.521" fill="none"/>
    </clipPath>
    <clipPath id="clip-path-14">
      <rect id="Rectángulo_402408" data-name="Rectángulo 402408" width="10.753" height="13.459" fill="none"/>
    </clipPath>
    <clipPath id="clip-path-15">
      <rect id="Rectángulo_402409" data-name="Rectángulo 402409" width="10.481" height="13.404" fill="none"/>
    </clipPath>
    <clipPath id="clip-path-16">
      <rect id="Rectángulo_402410" data-name="Rectángulo 402410" width="7.56" height="56.088" fill="none"/>
    </clipPath>
  </defs>
  <g id="Grupo_1101832" data-name="Grupo 1101832" clip-path="url(#clip-path)">
    <g id="Grupo_1101807" data-name="Grupo 1101807">
      <g id="Grupo_1101806" data-name="Grupo 1101806" clip-path="url(#clip-path)">
        <g id="Grupo_1101793" data-name="Grupo 1101793" opacity="0.6" style="mix-blend-mode: multiply;isolation: isolate">
          <g id="Grupo_1101792" data-name="Grupo 1101792">
            <g id="Grupo_1101791" data-name="Grupo 1101791" clip-path="url(#clip-path)">
              <path id="Trazado_892669" data-name="Trazado 892669" d="M265.778,11.321C209.655-3.63,155.568-2.282,98.872,6.742,68.37,11.6,31.769,18.3,16.1,55.08c-10.979,25.773,1.972,32.8,8.954,53.6,6.794,20.232-7.268,33.069-14.983,48.644C1.863,173.9-3.429,199.513,2.59,218.089c23.628,72.905,125.707,75.437,177.962,70.753,45.58-4.086,134.9-.86,154.372-65.889,10.332-34.507-6.831-69.891-6.785-104.7.03-22.625,4.744-44.988-5.923-65.606-12.778-24.7-33.87-35.314-56.438-41.326" transform="translate(0 0)" fill="#d7e6ce"/>
            </g>
          </g>
        </g>
        <g id="Grupo_1101796" data-name="Grupo 1101796" transform="translate(6.786 228.643)" opacity="0.6" style="mix-blend-mode: multiply;isolation: isolate">
          <g id="Grupo_1101795" data-name="Grupo 1101795">
            <g id="Grupo_1101794" data-name="Grupo 1101794" clip-path="url(#clip-path-4)">
              <path id="Trazado_892670" data-name="Trazado 892670" d="M11.816,398.1c29.672,62.581,124.163,64.644,173.766,60.2,44.208-3.962,129.554-1.05,152.422-60.2Z" transform="translate(-11.816 -398.101)" fill="#5d9e39"/>
            </g>
          </g>
        </g>
        <g id="Grupo_1101799" data-name="Grupo 1101799" transform="translate(114.154 83.374)" opacity="0.6" style="mix-blend-mode: multiply;isolation: isolate">
          <g id="Grupo_1101798" data-name="Grupo 1101798">
            <g id="Grupo_1101797" data-name="Grupo 1101797" clip-path="url(#clip-path-5)">
              <path id="Trazado_892671" data-name="Trazado 892671" d="M267.049,183.429v-8.236h-6.586c-.115-.732-.264-1.452-.435-2.164l6.148-2.427-3.024-7.66-6.222,2.456a27.924,27.924,0,0,0-1.717-2.572l4.748-4.748-5.824-5.823-4.792,4.792q-1.039-.759-2.146-1.423l2.6-6.268-7.606-3.159-2.615,6.3c-.839-.206-1.691-.376-2.558-.5v-6.825h-8.236v6.825c-.7.1-1.4.24-2.085.4l-2.506-6.347-7.66,3.024,2.495,6.319a27.946,27.946,0,0,0-2.566,1.664l-4.792-4.792-5.824,5.823,4.748,4.748q-.784,1.04-1.468,2.154l-6.179-2.566-3.158,7.606,6.1,2.534q-.337,1.3-.548,2.639h-6.585v8.236h6.505q.154,1.12.4,2.211l-6.029,2.379,3.026,7.661,5.956-2.352a28.047,28.047,0,0,0,1.744,2.706l-4.509,4.509,5.824,5.824,4.465-4.465q1.1.83,2.284,1.551l-2.414,5.812,7.607,3.159,2.4-5.783a27.745,27.745,0,0,0,2.772.555v6.259h8.236V207.2c.775-.115,1.536-.266,2.289-.443l2.3,5.829,7.66-3.025L246.96,203.7a28.163,28.163,0,0,0,2.711-1.8l4.464,4.465,5.824-5.824-4.51-4.509q.8-1.1,1.5-2.28l5.91,2.454,3.158-7.606-5.98-2.483q.315-1.322.505-2.69ZM232.9,195.44a16.129,16.129,0,1,1,16.128-16.129A16.129,16.129,0,0,1,232.9,195.44" transform="translate(-198.759 -145.166)" fill="#ebf3e7"/>
            </g>
          </g>
        </g>
        <g id="Grupo_1101802" data-name="Grupo 1101802" transform="translate(39.325 26.172)" opacity="0.6" style="mix-blend-mode: multiply;isolation: isolate">
          <g id="Grupo_1101801" data-name="Grupo 1101801">
            <g id="Grupo_1101800" data-name="Grupo 1101800" clip-path="url(#clip-path-6)">
              <path id="Trazado_892672" data-name="Trazado 892672" d="M136.337,83.866V75.14H132.9a30.586,30.586,0,0,0-.625-3.182l3.18-1.3-3.314-8.072-3.193,1.311a30.877,30.877,0,0,0-1.9-2.856l2.442-2.441-6.171-6.17-2.445,2.446a30.692,30.692,0,0,0-2.688-1.8l1.335-3.193-8.051-3.364L110.13,49.7a30.7,30.7,0,0,0-3.363-.664V45.57H98.042v3.468a30.559,30.559,0,0,0-3.174.619l-1.314-3.2-8.072,3.313,1.315,3.2a30.982,30.982,0,0,0-2.857,1.9l-2.445-2.446-6.17,6.17,2.441,2.441a30.873,30.873,0,0,0-1.806,2.687l-3.181-1.33-3.365,8.051,3.169,1.324a30.565,30.565,0,0,0-.672,3.372H68.471v8.726H71.9a30.7,30.7,0,0,0,.619,3.188l-3.165,1.3,3.314,8.072,3.162-1.3A30.806,30.806,0,0,0,77.737,98l-2.413,2.413,6.17,6.17,2.408-2.408a31.259,31.259,0,0,0,2.7,1.815l-1.312,3.141,8.051,3.364,1.309-3.132a30.905,30.905,0,0,0,3.389.671v3.4h8.725v-3.4a30.927,30.927,0,0,0,3.2-.625l1.29,3.142,8.072-3.313-1.294-3.151a30.937,30.937,0,0,0,2.872-1.912l2.408,2.408,6.171-6.17L127.07,98a30.769,30.769,0,0,0,1.808-2.7l3.153,1.318,3.364-8.05-3.153-1.318a30.768,30.768,0,0,0,.664-3.379ZM102.4,98.474a18.938,18.938,0,1,1,18.938-18.938A18.938,18.938,0,0,1,102.4,98.474" transform="translate(-68.471 -45.569)" fill="#d7e6ce"/>
            </g>
          </g>
        </g>
        <g id="Grupo_1101805" data-name="Grupo 1101805" transform="translate(216.258 28.338)" opacity="0.6" style="mix-blend-mode: multiply;isolation: isolate">
          <g id="Grupo_1101804" data-name="Grupo 1101804">
            <g id="Grupo_1101803" data-name="Grupo 1101803" clip-path="url(#clip-path-7)">
              <path id="Trazado_892673" data-name="Trazado 892673" d="M464.225,98.822V87.548h-4.444a39.732,39.732,0,0,0-.808-4.112l4.107-1.686L458.8,71.32l-4.125,1.693a39.942,39.942,0,0,0-2.459-3.691l3.154-3.155L447.4,58.2l-3.16,3.159a39.933,39.933,0,0,0-3.474-2.325l1.724-4.126-10.4-4.347-1.724,4.122a39.7,39.7,0,0,0-4.345-.859V49.34H414.744v4.48a39.722,39.722,0,0,0-4.1.8l-1.7-4.137-10.43,4.282,1.7,4.14a39.76,39.76,0,0,0-3.692,2.45l-3.16-3.159-7.972,7.972,3.154,3.155a39.975,39.975,0,0,0-2.334,3.472L382.1,71.076l-4.347,10.4,4.1,1.711a39.373,39.373,0,0,0-.868,4.358h-4.445V98.822h4.433a39.6,39.6,0,0,0,.8,4.119l-4.089,1.679,4.281,10.43,4.086-1.678a40.069,40.069,0,0,0,2.462,3.712l-3.117,3.117,7.972,7.972,3.113-3.112a39.749,39.749,0,0,0,3.492,2.346l-1.7,4.058,10.4,4.348,1.692-4.047a39.588,39.588,0,0,0,4.377.867v4.4h11.274v-4.4a39.672,39.672,0,0,0,4.132-.807l1.666,4.06,10.43-4.281-1.671-4.072a39.87,39.87,0,0,0,3.71-2.471l3.113,3.112,7.972-7.972-3.117-3.117a39.805,39.805,0,0,0,2.336-3.493l4.073,1.7,4.348-10.4-4.075-1.7a39.531,39.531,0,0,0,.858-4.366ZM420.381,117.7a24.47,24.47,0,1,1,24.47-24.47,24.47,24.47,0,0,1-24.47,24.47" transform="translate(-376.537 -49.34)" fill="#aecf9d"/>
            </g>
          </g>
        </g>
      </g>
    </g>
    <path id="Trazado_892674" data-name="Trazado 892674" d="M336.544,362.3l-38.465,16.862H181.951V281.511H318.532Z" transform="translate(-77.45 -119.829)" fill="#95b1dd"/>
    <path id="Trazado_892675" data-name="Trazado 892675" d="M181.951,421.03v17.522H298.078l38.465-16.862-.147-.66Z" transform="translate(-77.45 -179.218)" fill="#718cc6"/>
    <path id="Trazado_892676" data-name="Trazado 892676" d="M282.919,379.164H146.336l19.991-97.653H302.91Z" transform="translate(-62.29 -119.829)" fill="#fff"/>
    <g id="Grupo_1101812" data-name="Grupo 1101812">
      <g id="Grupo_1101811" data-name="Grupo 1101811" clip-path="url(#clip-path)">
        <g id="Grupo_1101810" data-name="Grupo 1101810" transform="translate(164.051 183.359)" opacity="0.7">
          <g id="Grupo_1101809" data-name="Grupo 1101809">
            <g id="Grupo_1101808" data-name="Grupo 1101808" clip-path="url(#clip-path-9)">
              <path id="Trazado_892677" data-name="Trazado 892677" d="M299.044,382.775l13.76-63.511-13.736-.009-13.433,63.52Z" transform="translate(-285.636 -319.255)" fill="#9a6ea3"/>
            </g>
          </g>
        </g>
      </g>
    </g>
    <path id="Trazado_892678" data-name="Trazado 892678" d="M331.1,376.7,347.15,304.99l-13.774-.01L317.7,376.7Z" transform="translate(-135.233 -129.819)" fill="#f2b966"/>
    <path id="Trazado_892679" data-name="Trazado 892679" d="M267.362,394.018,277.5,345.675l-13.664-.006-9.883,48.349Z" transform="translate(-108.097 -147.139)" fill="#95b1dd"/>
    <g id="Grupo_1101817" data-name="Grupo 1101817">
      <g id="Grupo_1101816" data-name="Grupo 1101816" clip-path="url(#clip-path)">
        <g id="Grupo_1101815" data-name="Grupo 1101815" transform="translate(108.804 227.365)" opacity="0.7">
          <g id="Grupo_1101814" data-name="Grupo 1101814">
            <g id="Grupo_1101813" data-name="Grupo 1101813" clip-path="url(#clip-path-11)">
              <path id="Trazado_892680" data-name="Trazado 892680" d="M202.869,415.389l3.81-19.512-13.525,0-3.71,19.514Z" transform="translate(-189.444 -395.875)" fill="#4a60a0"/>
            </g>
          </g>
        </g>
      </g>
    </g>
    <path id="Trazado_892681" data-name="Trazado 892681" d="M234.028,404.383l6.948-34.36-13.6,0-6.77,34.364Z" transform="translate(-93.906 -157.504)" fill="#ffda87"/>
    <g id="Grupo_1101831" data-name="Grupo 1101831">
      <g id="Grupo_1101830" data-name="Grupo 1101830" clip-path="url(#clip-path)">
        <g id="Grupo_1101820" data-name="Grupo 1101820" transform="translate(93.119 168.54)" opacity="0.7">
          <g id="Grupo_1101819" data-name="Grupo 1101819">
            <g id="Grupo_1101818" data-name="Grupo 1101818" clip-path="url(#clip-path-13)">
              <path id="Trazado_892682" data-name="Trazado 892682" d="M281.921,377.973H163.155a1.021,1.021,0,0,1-1-1.233l17.484-82.477a1.021,1.021,0,1,1,2,.423l-17.224,81.245H281.921a1.021,1.021,0,1,1,0,2.042" transform="translate(-162.134 -293.452)" fill="#4a60a0"/>
            </g>
          </g>
        </g>
        <path id="Trazado_892683" data-name="Trazado 892683" d="M458.22,150.35a10.3,10.3,0,0,1,.54,4.691c-.411,3.247-.457,3.109,1.18,5.529,1.237,1.829,2.219,3.166,2.571,5.429.569,3.653-.648,7.422-1.374,10.963-1.207,5.882,4.671,7.013,4.643,12.537-.037,7.127-7.9,14.429-15.462,10.864-3.337-1.573-7.239-8.667-9.232-11.838-5.171-8.222-8.917-19.043-11.3-28.429-.929-3.665-.082-7.082,1.477-10.339.891-1.861.557-3.769,1.623-5.593,1.155-1.977,2.13-3.76,4.144-5.015,4.262-2.656,11.093-1.435,14.558,1.961,2.553,2.5,5.4,5.677,6.628,9.24" transform="translate(-182.782 -58.617)" fill="#4a60a0"/>
        <path id="Trazado_892684" data-name="Trazado 892684" d="M405.661,179.554c1.164-.138,4.513-1.083,4.85-2.78.282-1.423-.249-1.907-.248-1.906-2.492-3.187-5.1-6.286-7.844-9.26-.868-.941-2.585-3.558-3.8-3.934-1.535-.473-3.57,1.091-4.833,1.784.95.487,1.583,2.369,2.146,3.312.791,1.323,1.611,2.628,2.481,3.9a70.071,70.071,0,0,0,7.252,8.883" transform="translate(-167.619 -68.782)" fill="#edb9c1"/>
        <path id="Trazado_892685" data-name="Trazado 892685" d="M420.56,182.8c-.889-.5-4.071-2.852-6.224-4.538.131.467-4.313,5.436-6.513,7.5a49.448,49.448,0,0,0,7.871,6.111c6.6,4.091,15.863,7.6,18.066,3.46,1.944-3.659-5.33-8.137-13.2-12.536" transform="translate(-173.596 -75.879)" fill="#acd9f4"/>
        <path id="Trazado_892686" data-name="Trazado 892686" d="M459.677,165.669c-.289,1.447-2.384,3.381-2.912,2.142a7.555,7.555,0,0,1-.319-3.871c.289-1.447.048-1.633,1.367-1.369a2.563,2.563,0,0,1,1.865,3.1" transform="translate(-194.242 -69.158)" fill="#edb9c1"/>
        <path id="Trazado_892687" data-name="Trazado 892687" d="M450.96,175.8c-.222-2.918-8.776,2.506-8.776,2.506l.915,11.132s.089-.447,4.3-.347c2.563.06,4.739-.063,4.611-2.458-.079-1.48-.968-9.823-1.046-10.833" transform="translate(-188.222 -74.464)" fill="#edb9c1"/>
        <path id="Trazado_892688" data-name="Trazado 892688" d="M451.088,178.612c-1.21,3.91-4.685,6.728-8.322,6.439l-.582-6.747s8.554-5.425,8.776-2.507c.024.309.125,1.307.253,2.583a.666.666,0,0,0-.125.231" transform="translate(-188.222 -74.464)" fill="#e89a8e"/>
        <path id="Trazado_892689" data-name="Trazado 892689" d="M437.105,168.781c2.824,1.34,7.37-.3,8.924-2.891a8.105,8.105,0,0,0,1.181-4.911c-.136-1.979-.713-3.741-.866-5.727a12.286,12.286,0,0,0-.4-2.546,7.146,7.146,0,0,0-2.264-3.433,10.746,10.746,0,0,0-3.738-1.558,9.832,9.832,0,0,0-3.5-.759c-.807.049-1.219.636-1.765,1.187-2.964,2.991-3.543,8.331-2.7,12.3.627,2.956,2.219,6.957,5.125,8.336" transform="translate(-183.729 -62.551)" fill="#edb9c1"/>
        <path id="Trazado_892690" data-name="Trazado 892690" d="M436.675,300.41c.267,5.561,1.932,9.215,3.14,12.379,6.293,16.486,10.855,32.118,13.52,36.605,2.915,4.907,11.511-3.912,11.511-3.912s-11.861-49.139-14.6-52.3-13.792,2.766-13.577,7.224" transform="translate(-185.876 -124.42)" fill="#edb9c1"/>
        <path id="Trazado_892691" data-name="Trazado 892691" d="M436.675,300.608c.267,5.561,1.931,9.215,3.14,12.379,6.293,16.486,10.855,32.119,13.52,36.605,2.915,4.907,12.233-1.917,12.233-1.917s-10.528-50.835-13.262-53.993-15.846,2.468-15.632,6.926" transform="translate(-185.876 -124.619)" fill="#43558c"/>
        <path id="Trazado_892692" data-name="Trazado 892692" d="M468.37,397.311s2.174,7.057,19.215,28.069c2.279,2.81,3.189-1.255,3.189-1.255s-13.279-31.352-15.546-34.366-6.858,7.552-6.858,7.552" transform="translate(-199.369 -165.676)" fill="#edb9c1"/>
        <path id="Trazado_892693" data-name="Trazado 892693" d="M472.765,413.214c-5.991-10.868-8.106-24.907-8.106-24.907s10.263-4.49,12.527-1.474c1.143,1.522,5.273,10.567,9.137,19.307-3.007,1.494-13.53,7.061-13.558,7.074" transform="translate(-197.789 -164.218)" fill="#43558c"/>
        <path id="Trazado_892694" data-name="Trazado 892694" d="M427.99,300.5c-3.114,4.614-3.967,8.537-4.893,11.8-4.824,16.973-7.255,30-7.8,35.19-.6,5.676,8.293,5.983,8.293,5.983S443.492,307,443.191,302.833s-12.7-6.037-15.2-2.338" transform="translate(-176.763 -127.066)" fill="#edb9c1"/>
        <path id="Trazado_892695" data-name="Trazado 892695" d="M415.553,402.269s-1.217,7.544,5.36,33.786c.879,3.51,3.629-.02,3.629-.02s1.126-29.289.346-32.977-9.335-.789-9.335-.789" transform="translate(-176.849 -170.771)" fill="#edb9c1"/>
        <path id="Trazado_892696" data-name="Trazado 892696" d="M410.995,420.066c-2.157-16.106,1.106-32.718,1.106-32.718s9.831.29,10.611,3.979c.439,2.077,3.86,20.437,3.979,28.739Z" transform="translate(-174.632 -164.881)" fill="#4a60a0"/>
        <path id="Trazado_892697" data-name="Trazado 892697" d="M414.852,327.924a200.111,200.111,0,0,1,5.081-21.457c2.368-8.007,4.371-15.03,7.655-22.688.843-1.966-.271-10.321,1.014-11.173,2.994-1.985,10.648.437,14.73,1.243a6.891,6.891,0,0,1,2.432,1.216c1.371.863,3.183,5.521,3.648,7.074a16.992,16.992,0,0,1-1.938,13.078c-1.8,2.873-3.5,5.81-5.154,8.771-1.422,2.543-3.181,4.812-4.641,7.369-3.254,5.7-5.371,11.9-7.747,18.028-.8,2.074-5.907,11.907-5.93,13.345-.126,7.611-6.928-3.2-9.263-3.885-1.345-.392-1.266-.642-1.185-2.09.062-1.107.222-2.205.387-3.3q.417-2.771.911-5.532" transform="translate(-176.019 -115.715)" fill="#4a60a0"/>
        <path id="Trazado_892698" data-name="Trazado 892698" d="M437.147,242c-.659-13.171-3.22-32.549-1.56-34.423,2.923-3.3,3.06-10.5,5.174-13.148,3.162-3.953,5.894-5.809,9.847-.088,1.34,1.94,3,13.569,3.312,15.021.7,3.219.967,19.257,1.762,32.175Z" transform="translate(-185.18 -81.185)" fill="#edb9c1"/>
        <path id="Trazado_892699" data-name="Trazado 892699" d="M436.272,242.944c-.683-9.646-1.332-17.625-2.17-23.326-.253-1.728-.779-3.4-1.066-5.1-.265-1.575.482-3.742,1.115-5.164.646-1.449,1.324-2.9,1.938-4.363.605-1.441,1.076-2.933,1.548-4.421.147-.463.93-3.835,1.4-3.875.051,0,1.814-.155,2.51-.3a11.661,11.661,0,0,0,3.516-1.409c.3-.179,2.682-2.121,2.755-2.043,3.848,4.047,6.051,9.9,6.668,15.087.223,1.875-.113,30.53.562,34.559Z" transform="translate(-184.305 -82.125)" fill="#fff"/>
        <path id="Trazado_892700" data-name="Trazado 892700" d="M441.59,225.336c-.175-5.856,0-11.785,1.734-17.428a59.627,59.627,0,0,1,6.36-13.673,14.98,14.98,0,0,1,1.773-1.3c3.848,4.047,6.051,9.9,6.667,15.087.223,1.875,4.271,36.388,4.946,40.418l-18.422,3.538c-.987-6.106-2.876-20.5-3.058-26.642" transform="translate(-187.947 -82.125)" fill="#acd9f4"/>
        <path id="Trazado_892701" data-name="Trazado 892701" d="M443.623,138.807a11.314,11.314,0,0,0-1.375,1.3,8.847,8.847,0,0,0-2.595,3.7,16.245,16.245,0,0,0-.516,3.1,5.081,5.081,0,0,0,1.978,4.641,7.987,7.987,0,0,0,3.765,1.475,4.915,4.915,0,0,1,2.2.748c.423.33.486.928.886,1.229,1.37,1.031,1.363-1.172,1.492-1.878q-.1.556.237-.832c.489-2.027.479-3.682,1.656-5.446,1.034-1.548,1.44-4.366.357-6-1.223-1.841-4.642-2.4-6.659-2.417a2.416,2.416,0,0,0-1.421.373" transform="translate(-186.916 -58.926)" fill="#4a60a0"/>
        <path id="Trazado_892702" data-name="Trazado 892702" d="M408.089,463.088c1.038-.152,1.361-.009,2.4-.179a10.6,10.6,0,0,0,2.963-.988A20.5,20.5,0,0,0,416.5,459.9a2.537,2.537,0,0,1,.3-.206,3.817,3.817,0,0,0,3.712-.032.547.547,0,0,0,.288-.249.681.681,0,0,1,.118.119,2.317,2.317,0,0,1,.341,1.107,24.8,24.8,0,0,1,.29,4.272c-.2.968-5.474,2.123-7.2,2.23a26.522,26.522,0,0,1-6.407-.13c-2.243-.363-1.606-3.671.151-3.926" transform="translate(-173.032 -195.557)" fill="#3c4c7f"/>
        <path id="Trazado_892703" data-name="Trazado 892703" d="M487,453.857c.921-.5,1.273-.481,2.189-1a10.623,10.623,0,0,0,2.434-1.957,20.5,20.5,0,0,0,2.154-2.953,2.63,2.63,0,0,1,.211-.3,3.818,3.818,0,0,0,3.47-1.319.551.551,0,0,0,.184-.334.686.686,0,0,1,.152.071,2.33,2.33,0,0,1,.7.92,24.858,24.858,0,0,1,1.758,3.9c.148.978-4.394,3.894-5.979,4.6a26.562,26.562,0,0,1-6.052,2.106c-2.228.439-2.782-2.883-1.224-3.734" transform="translate(-206.922 -189.844)" fill="#3c4c7f"/>
        <path id="Trazado_892704" data-name="Trazado 892704" d="M430.945,149.942a18,18,0,0,1,2.416-7.016,10.948,10.948,0,0,1,4.126-3.815,6.97,6.97,0,0,1,3.156-.8c1.19,2.347-1.039,5.658-2.091,7.791-.713,1.447-1.952,1.813-3,2.833a23.447,23.447,0,0,0-2.031,2.632,14.576,14.576,0,0,0-2.089,2.713c-.959-.441-.628-3.521-.487-4.34" transform="translate(-183.365 -58.866)" fill="#4a60a0"/>
        <path id="Trazado_892705" data-name="Trazado 892705" d="M383.929,155.832c1.315-1.194,3.18-1.794,4.711-.639,1.285.97.624,2.652.076,3.838-.921,1.99-1.79,2.663-4.143,2.238-3.334-.6-2.591-3.67-.644-5.437" transform="translate(-162.719 -65.796)" fill="#edb9c1"/>
        <path id="Trazado_892706" data-name="Trazado 892706" d="M353.767,195.767c-1.855,11.912-14.121,25.006-14.121,25.006s-7.411-16.772-5.556-28.684,7.311-15.226,12.274-14.453,9.259,6.218,7.4,18.131" transform="translate(-142.083 -75.568)" fill="#fab80e"/>
        <path id="Trazado_892707" data-name="Trazado 892707" d="M354.385,190.427c-1.3,8.382-9.937,17.6-9.937,17.6s-5.216-11.8-3.911-20.185,5.144-10.714,8.637-10.17,6.515,4.376,5.21,12.758" transform="translate(-144.866 -75.596)" fill="#f59e17"/>
        <path id="Trazado_892708" data-name="Trazado 892708" d="M322.475,107.74a139.62,139.62,0,0,0-15.139,30.881s-5.141,13.314,21.536,8.161c0,0,5.578-25.313-6.4-39.042" transform="translate(-130.653 -45.861)" fill="#ffda87"/>
        <path id="Trazado_892709" data-name="Trazado 892709" d="M322.661,107.739s-1.8,2.641-4.289,7a31.208,31.208,0,0,1,1.273,12.1c-.395,4.324-1.685,9.085-5.082,12.046a21.586,21.586,0,0,1-7.187,3.956c1,3.379,5.448,7.082,21.683,3.947,0,0,5.578-25.313-6.4-39.042" transform="translate(-130.839 -45.861)" fill="#fac280"/>
        <path id="Trazado_892710" data-name="Trazado 892710" d="M383.609,118.074a139.634,139.634,0,0,1,5.032,34.022s.85,14.246-23,1.226c0,0,2.383-25.811,17.966-35.247" transform="translate(-155.642 -50.26)" fill="#ffda87"/>
        <path id="Trazado_892711" data-name="Trazado 892711" d="M383.609,118.074s.911,3.063,1.959,7.968a31.2,31.2,0,0,0-4.892,11.139c-.939,4.238-1.159,9.166,1.179,13.02a21.6,21.6,0,0,0,5.643,5.954c-1.977,2.916-7.343,5.091-21.856-2.833,0,0,2.383-25.811,17.966-35.247" transform="translate(-155.642 -50.26)" fill="#fac280"/>
        <path id="Trazado_892712" data-name="Trazado 892712" d="M370.291,78.807c-3.684,23.658-15.24,40.376-24.422,38.947S330.2,97.2,333.883,73.547s22.78-41.862,25.327-41.465c2.845.443,14.766,23.068,11.081,46.726" transform="translate(-141.675 -13.653)" fill="#304560"/>
        <path id="Trazado_892713" data-name="Trazado 892713" d="M352.8,115.611c-9.182-1.43-15.67-20.55-11.986-44.207,2.668-17.132,13.416-31.4,20.111-37.821-.71-.915-1.306-1.438-1.714-1.5-2.547-.4-21.643,17.807-25.326,41.465s2.8,42.778,11.986,44.207c2.278.355,4.7-.409,7.118-2.119-.063-.008-.126-.014-.188-.024" transform="translate(-141.675 -13.653)" fill="#3766a9"/>
        <path id="Trazado_892714" data-name="Trazado 892714" d="M356.335,179.644a1.92,1.92,0,0,1-2.192,1.6l-8.987-1.4a1.92,1.92,0,0,1,.592-3.794l8.986,1.4a1.92,1.92,0,0,1,1.6,2.192" transform="translate(-146.229 -74.929)" fill="#566db1"/>
        <path id="Trazado_892715" data-name="Trazado 892715" d="M377.166,50.852c-2.945-10.915-7.588-18.517-9.224-18.771-1.454-.227-8.3,5.611-14.6,15.062,0,0,2.591,2.091,11.727,3.514s12.091.2,12.091.2" transform="translate(-150.408 -13.653)" fill="#ffda87"/>
        <path id="Trazado_892716" data-name="Trazado 892716" d="M369.4,33.27a3.124,3.124,0,0,0-1.463-1.188c-1.454-.226-8.3,5.611-14.595,15.063a14.356,14.356,0,0,0,4.3,1.869A64.709,64.709,0,0,1,369.4,33.27" transform="translate(-150.407 -13.653)" fill="#fac280"/>
        <path id="Trazado_892717" data-name="Trazado 892717" d="M371.242,84.866a9.4,9.4,0,1,1-7.84-10.732,9.4,9.4,0,0,1,7.84,10.732" transform="translate(-150.071 -31.508)" fill="#566db1"/>
        <path id="Trazado_892718" data-name="Trazado 892718" d="M370.862,85.771a7.858,7.858,0,1,1-6.555-8.973,7.858,7.858,0,0,1,6.555,8.973" transform="translate(-151.213 -32.65)" fill="#c3e6fa"/>
        <path id="Trazado_892719" data-name="Trazado 892719" d="M370.862,85.771a7.858,7.858,0,1,1-6.555-8.973,7.858,7.858,0,0,1,6.555,8.973" transform="translate(-151.213 -32.65)" fill="#c3e6fa"/>
        <path id="Trazado_892720" data-name="Trazado 892720" d="M370.937,89.438a8.145,8.145,0,0,1-.084.817,7.857,7.857,0,0,1-15.6-.665,7.858,7.858,0,1,0,15.686-.152" transform="translate(-151.213 -38.071)" fill="#0099d6"/>
        <g id="Grupo_1101823" data-name="Grupo 1101823" transform="translate(208.064 44.187)" opacity="0.7">
          <g id="Grupo_1101822" data-name="Grupo 1101822">
            <g id="Grupo_1101821" data-name="Grupo 1101821" clip-path="url(#clip-path-14)">
              <path id="Trazado_892721" data-name="Trazado 892721" d="M364.657,76.936a7.871,7.871,0,0,0-2.388.865q4.594,6.3,9.185,12.594a7.849,7.849,0,0,0,1.567-2.035q-4.171-5.72-8.365-11.424" transform="translate(-362.269 -76.936)" fill="#fff"/>
            </g>
          </g>
        </g>
        <g id="Grupo_1101826" data-name="Grupo 1101826" transform="translate(205.463 45.993)" opacity="0.7">
          <g id="Grupo_1101825" data-name="Grupo 1101825">
            <g id="Grupo_1101824" data-name="Grupo 1101824" clip-path="url(#clip-path-15)">
              <path id="Trazado_892722" data-name="Trazado 892722" d="M359,80.081a7.865,7.865,0,0,0-1.263,1.391q4.416,6,8.809,12.013a7.859,7.859,0,0,0,1.672-.765Q363.607,86.4,359,80.081" transform="translate(-357.74 -80.081)" fill="#fff"/>
            </g>
          </g>
        </g>
        <path id="Trazado_892723" data-name="Trazado 892723" d="M358.237,141.254c-1.907,12.243-5.129,21.906-7.2,21.584s-2.2-10.507-.292-22.75,5.128-21.906,7.2-21.584,2.2,10.507.293,22.75" transform="translate(-148.727 -50.44)" fill="#ffda87"/>
        <g id="Grupo_1101829" data-name="Grupo 1101829" transform="translate(219.169 24.111)" opacity="0.8">
          <g id="Grupo_1101828" data-name="Grupo 1101828">
            <g id="Grupo_1101827" data-name="Grupo 1101827" clip-path="url(#clip-path-16)">
              <path id="Trazado_892724" data-name="Trazado 892724" d="M383.617,42.57l.075.152.213.449c.176.386.425.951.715,1.674a56.644,56.644,0,0,1,2.012,6.094c.182.638.338,1.309.515,2,.154.7.334,1.412.475,2.157.318,1.481.569,3.059.811,4.692.213,1.636.412,3.331.525,5.059.028.431.064.865.087,1.3s.037.872.056,1.309c.049.874.043,1.753.06,2.632s-.018,1.756-.025,2.632c-.028.874-.074,1.744-.109,2.607q-.1,1.292-.188,2.56-.133,1.264-.261,2.492c-.1.816-.218,1.616-.324,2.4s-.253,1.544-.372,2.288-.263,1.462-.406,2.157-.262,1.368-.419,2.006c-.307,1.278-.561,2.455-.856,3.481s-.507,1.931-.744,2.66l-.7,2.3a.56.56,0,0,1-1.073-.317l.005-.018.654-2.286c.221-.724.427-1.62.687-2.64s.5-2.184.782-3.449c.144-.631.246-1.3.378-1.984s.26-1.4.361-2.131.238-1.485.326-2.258.181-1.563.275-2.366q.105-1.208.212-2.453.069-1.246.141-2.518c.018-.848.049-1.7.06-2.56-.009-.858.006-1.72-.022-2.58s-.041-1.721-.105-2.576q-.04-.642-.078-1.28c-.03-.426-.073-.848-.109-1.27-.141-1.688-.365-3.339-.6-4.932-.264-1.589-.537-3.122-.872-4.559-.15-.722-.339-1.414-.5-2.088-.184-.668-.346-1.318-.534-1.932a54.564,54.564,0,0,0-2.045-5.839c-.288-.684-.532-1.21-.7-1.563s-.256-.51-.262-.521l-.009-.018a1.061,1.061,0,0,1,1.884-.978.109.109,0,0,0,.009.017" transform="translate(-381.605 -41.981)" fill="#fff"/>
            </g>
          </g>
        </g>
        <path id="Trazado_892725" data-name="Trazado 892725" d="M407.04,197.291c-.4.3-2.95,4.334-1.3,5.39,6.417,4.1,12.322,5.548,19.755,6.425,3.215.38,9.481,1.8,12.237-.462,2.674-2.194-.169-2.767-2.044-3.314a66.37,66.37,0,0,0-11.95-2.232c-4.141-.453-8.563-3.27-12.4-4.981,0,0-3.05-1.36-4.3-.825" transform="translate(-172.475 -83.927)" fill="#edb9c1"/>
        <path id="Trazado_892726" data-name="Trazado 892726" d="M396.073,194.411c1.114-.361,4.215-1.94,4.216-3.671,0-1.451-.615-1.822-.614-1.821a133.2,133.2,0,0,0-16.935-12.563c-4.962-3.035-3.231,2.239-3.231,2.239,4.312,4.856,7.979,9.788,16.563,15.815" transform="translate(-161.419 -74.668)" fill="#edb9c1"/>
        <path id="Trazado_892727" data-name="Trazado 892727" d="M413.118,199.786c3.886.635,8.748,2.126,10.291,2.246,8.989.7,17.47,1.722,17.236,5.859-.265,4.686-10.15,5.374-17.854,4.421-6.7-.829-11.01-2.788-17.744-4.994a16.867,16.867,0,0,1,8.072-7.531" transform="translate(-172.414 -85.042)" fill="#fff"/>
        <path id="Trazado_892728" data-name="Trazado 892728" d="M373.165,163.692a4.561,4.561,0,0,0-.485-.561.814.814,0,0,0-1.4.815,2.216,2.216,0,0,0,.274.718,8.959,8.959,0,0,0,.965,1.11,2.158,2.158,0,0,1,.345.571,24.112,24.112,0,0,1-4.707-3.746c-.234-.268-.5-.569-.86-.571a1.215,1.215,0,0,0-.791.442q-.646.632-1.262,1.293a1.755,1.755,0,0,0-.141,2.89c1.37,1.569,2.764,3.388,4.636,4.329,1.485.746,2.8,1.789,4.332,2.462a27.581,27.581,0,0,0,2.645-1.961,2.193,2.193,0,0,0-.235-1.079,18.137,18.137,0,0,0-.2-2.349c-.585-1.61-2.077-3.021-3.114-4.362" transform="translate(-155.116 -68.97)" fill="#edb9c1"/>
        <path id="Trazado_892729" data-name="Trazado 892729" d="M287.808,243.734l5.474,4.139-17.976,23.971-14.847-11.915a1.8,1.8,0,0,0-2.526.433l-16.9,20.891L219.789,260a1.45,1.45,0,0,0-1.286-.387,2.234,2.234,0,0,0-1.336.817l-14.582,17.85c-2.7,3.3-5.622,6.591-8.2,10.128-.694,1.487-.716,2.061-.555,2.776.288,1.291,1.747,1.358,2.854-.01l21.62-26.709,21.29,21.6a1.8,1.8,0,0,0,2.715-.376l17.076-21.307L274.34,276.53a1.82,1.82,0,0,0,2.632-.468L296.235,250.1l6.005,4.539,1.817-20.009Z" transform="translate(-82.471 -99.876)" fill="#566db1"/>
        <path id="Trazado_892730" data-name="Trazado 892730" d="M185.793,190.988c-8.625-10.485-11.477-9.9-17.023-13.941-8.122-5.912-21.671-8.359-20.919-1.915.369,3.158,29.768,18.422,34.725,21.751,1.43-1.291,1.759-4.07,3.217-5.894" transform="translate(-62.923 -72.923)" fill="#edb9c1"/>
        <path id="Trazado_892731" data-name="Trazado 892731" d="M181.567,196.893c-4.241-2.69-21.521-13.331-23.243-14.219-10.031-5.172-14.6-7.2-13.162-12.739,1.632-6.279,13.483-1.4,22.025,3.433,5.641,3.193,8.436,5.043,17.248,12.631,2.01,2.865.939,10.845-2.868,10.894" transform="translate(-61.679 -71.069)" fill="#ee948d"/>
        <path id="Trazado_892732" data-name="Trazado 892732" d="M128.723,107.863a9.513,9.513,0,0,0-5.863,1.1,11.245,11.245,0,0,1-2.367.96c-3.1.83-3.8,5.471-3.557,8.145a23.346,23.346,0,0,0,1.139,4.326c1.082,3.69,4.1,7.43,8.3,7.244a9.957,9.957,0,0,0,7.084-3.689c4.134-5.248,3.03-16.8-4.732-18.088" transform="translate(-49.757 -45.869)" fill="#4a60a0"/>
        <path id="Trazado_892733" data-name="Trazado 892733" d="M206.4,197.209c-1.3-.381-4.957-2.108-5.016-4.116-.05-1.683.651-2.134.65-2.133a154.673,154.673,0,0,1,19.22-15.15c5.654-3.691,3.825,2.487,3.825,2.487-4.837,5.781-8.924,11.628-18.679,18.912" transform="translate(-85.722 -74.335)" fill="#edb9c1"/>
        <path id="Trazado_892734" data-name="Trazado 892734" d="M238.234,168.434c-.835,1.828-1.544,3.731-1.095,4.186l.091.091.377-.316s-.266.417.148-.123l.114-.1a1.37,1.37,0,0,0,.353,1.538c1.57,1.361,3.621-.864,4.723-1.849a16.5,16.5,0,0,0,2.341-2.749c.814-1.142.884-3.981-.62-4.665-1.543-.7-1.734,1.825-2.982,1.261-.69-.313-.477-2.713-1.641-.922-.2.41-1.056,2-1.81,3.645" transform="translate(-100.883 -69.865)" fill="#edb9c1"/>
        <path id="Trazado_892735" data-name="Trazado 892735" d="M219.677,177.932c-5.515,3.69-12.5,8.177-18.928,14.052-.351,2.463.272.83.322,2.513.059,2.008,3.517,6.6,4.822,6.982,8.826-6.59,13.232-14.412,17.532-19.665Z" transform="translate(-85.406 -75.739)" fill="#ee948d"/>
        <path id="Trazado_892736" data-name="Trazado 892736" d="M234.089,183.99c.573-.763,1.135-1.492,1.7-2.176l-3.749-3.882c-.763.511-1.552,1.052-2.359,1.616Z" transform="translate(-97.766 -75.739)" fill="#fff"/>
        <path id="Trazado_892737" data-name="Trazado 892737" d="M78.108,297.653v8.817h1.8V299.78h11.3v6.689h1.8v-8.817Z" transform="translate(-33.248 -126.7)" fill="#f9d890"/>
        <path id="Trazado_892738" data-name="Trazado 892738" d="M147.619,383.758s-3.7,9.463,3.931,39.923c.611,2.438,2.511,2.284,3.527,1.5a2.117,2.117,0,0,0,.685-1.521s3.6-34.7,2.691-38.984-10.834-.915-10.834-.915" transform="translate(-62.454 -162.817)" fill="#edb9c1"/>
        <path id="Trazado_892739" data-name="Trazado 892739" d="M152.273,262.715H134.584c0,.079,0,.158,0,.233q.018,5.079.083,10.157c.116,8.562-.075,6.361.422,14.911.423,7.272,5.739,40.321,6.5,42.081.774,1.788.405,5.038,1.946,6.391,2.449,2.15,7.239,3.29,9.3.6,1.389-1.814.762-11.119,1.014-13.432.215-1.965.207-3.979.3-5.815.361-7.382-.139-14.782-.169-22.166-.043-10.349-.072-20.339-1.7-32.963" transform="translate(-57.288 -111.829)" fill="#415580"/>
        <path id="Trazado_892740" data-name="Trazado 892740" d="M168.811,456.48c-1.206-.176-1.579-.009-2.787-.206a12.322,12.322,0,0,1-3.439-1.148,23.847,23.847,0,0,1-3.535-2.344,2.967,2.967,0,0,0-.351-.239,4.43,4.43,0,0,1-4.308-.036.637.637,0,0,1-.334-.289.764.764,0,0,0-.137.138,2.693,2.693,0,0,0-.395,1.285,28.876,28.876,0,0,0-.338,4.958c.234,1.125,6.354,2.464,8.362,2.589a30.83,30.83,0,0,0,7.435-.151c2.6-.421,1.864-4.26-.175-4.558" transform="translate(-65.189 -192.493)" fill="#3c4c7f"/>
        <path id="Trazado_892741" data-name="Trazado 892741" d="M123.714,134.249c.715,1.556,3.6,3.175,3.865,1.636a8.763,8.763,0,0,0-.681-4.457c-.715-1.556-.492-1.832-1.911-1.179a2.974,2.974,0,0,0-1.273,4" transform="translate(-52.529 -55.302)" fill="#edb9c1"/>
        <path id="Trazado_892742" data-name="Trazado 892742" d="M130.177,141.892c.258-3.386,10.186,2.909,10.186,2.909L139.3,157.723s-.1-.519-4.985-.4c-2.976.07-4.828,1.006-4.68-1.774.092-1.718.451-12.482.541-13.653" transform="translate(-55.178 -59.973)" fill="#edb9c1"/>
        <path id="Trazado_892743" data-name="Trazado 892743" d="M130.32,145.16c1.4,4.538,5.437,7.81,9.66,7.473l.675-7.831s-9.929-6.3-10.186-2.909c-.028.359.037-.7-.114.781.06.073-.069,2.378-.036,2.486" transform="translate(-55.47 -59.973)" fill="#e89a8e"/>
        <path id="Trazado_892744" data-name="Trazado 892744" d="M141.589,132.5c-2.827,2.273-8.4,1.644-10.854-.864a9.418,9.418,0,0,1-2.655-5.228c-.378-2.27-.2-4.415-.562-6.7a14.267,14.267,0,0,1-.237-2.981,8.29,8.29,0,0,1,1.633-4.484c.957-1.285,2.46-1.938,3.8-2.765a11.419,11.419,0,0,1,3.749-1.8c.925-.161,1.547.389,2.312.865,4.151,2.58,6.24,8.454,6.357,13.163.087,3.507-.635,8.452-3.545,10.792" transform="translate(-54.174 -45.824)" fill="#edb9c1"/>
        <path id="Trazado_892745" data-name="Trazado 892745" d="M129.544,129.717c1.431,1.1,2.671,2.591,4.22,3.522,2.053,1.233,3.8,1.362,5.817.015a7.438,7.438,0,0,1,5.731-1.233c-.118,3.329-.988,7.377-3.537,9.426-2.827,2.273-8.4,1.644-10.854-.864a9.42,9.42,0,0,1-2.655-5.228c-.378-2.267-.2-4.407-.56-6.688a6.836,6.836,0,0,1,1.838,1.05" transform="translate(-54.36 -54.769)" fill="#4a60a0"/>
        <path id="Trazado_892746" data-name="Trazado 892746" d="M119.151,381.648s3.7,9.463-3.931,39.923c-.611,2.438-2.51,2.284-3.528,1.5a2.117,2.117,0,0,1-.685-1.521s-1.833-35.33-.928-39.611,9.072-.288,9.072-.288" transform="translate(-46.75 -161.734)" fill="#edb9c1"/>
        <path id="Trazado_892747" data-name="Trazado 892747" d="M108.277,262.715a8.377,8.377,0,0,0-.743,2.28c-1.52,11.553-1.5,19.224-1.541,29.656-.03,7.384.782,30.236,1.231,38.818.176,3.379,7.691,5.773,10.14,3.622a11.649,11.649,0,0,0,3.395-4.3c.762-1.761,3.529-41.066,3.952-48.339.5-8.55.472-3.812.588-12.375q.064-4.681.078-9.363Z" transform="translate(-45.117 -111.829)" fill="#415580"/>
        <path id="Trazado_892748" data-name="Trazado 892748" d="M138.863,219.106c.766-15.288,3.738-37.78,1.81-39.955-3.391-3.829,1.415-.948-1.04-4.016-3.67-4.588-15.084-9.378-19.672-2.737-1.555,2.251-.2,7.139-.567,8.825-.813,3.736-1.122,22.351-2.043,37.346Z" transform="translate(-49.952 -71.991)" fill="#edb9c1"/>
        <path id="Trazado_892749" data-name="Trazado 892749" d="M131.332,164.584a18.1,18.1,0,0,0-2.776-.71c-1.162,1.052-2.582-.473-4.312-.542-1.8-.072-3.919,1.269-5.122.334a1.668,1.668,0,0,1-.18-.171q-1.33.072-2.7.191a18.585,18.585,0,0,0-6.738,1.926c-6.3,3.886-5.3,12.144-5.168,14.365.354,5.9.915,52.6-.152,58.979h38.305c.648-.564-.913-52.229-1.367-59.739-.609-10.032-4.881-12.908-9.785-14.632" transform="translate(-44.345 -69.523)" fill="#ee948d"/>
        <path id="Trazado_892750" data-name="Trazado 892750" d="M81.971,239.612c1.19-.657,4.989-2.032,6.455-.659,1.229,1.15,1.055,1.967,1.055,1.964a154.549,154.549,0,0,1-2.8,24.314c-1.365,6.612-4.46.96-4.46.96-.692-7.506-1.961-14.526-.253-26.58" transform="translate(-34.529 -101.464)" fill="#edb9c1"/>
        <path id="Trazado_892751" data-name="Trazado 892751" d="M86.014,213.31c-.6-.063-3.678-1.23-3.422-3.808,1.6-16.143,4.471-20.548,7.16-27.414,3.663-9.354,10.7-17.653,15.453-13.24,4.2,3.9-6.573,12.35-11.058,26.411a96.557,96.557,0,0,1-6.308,16.34,2.228,2.228,0,0,1-1.824,1.711" transform="translate(-35.15 -71.354)" fill="#edb9c1"/>
        <path id="Trazado_892752" data-name="Trazado 892752" d="M88.153,211.254c2.127-4.55,9.364-26.294,10.336-27.97,5.671-9.757,9.294-11.437,5.1-15.333-4.756-4.413-12.414,4.861-16.929,13.577-3.926,7.579-5.495,14.069-7.624,26.078-.152,3.5,5.887,5.655,9.121,3.648" transform="translate(-33.64 -71.007)" fill="#ee948d"/>
        <path id="Trazado_892753" data-name="Trazado 892753" d="M125.221,457.138c-1.206-.176-1.579-.009-2.787-.207A12.292,12.292,0,0,1,119,455.783a23.767,23.767,0,0,1-3.536-2.344,2.948,2.948,0,0,0-.35-.238,4.432,4.432,0,0,1-4.309-.037.636.636,0,0,1-.333-.289.822.822,0,0,0-.138.138,2.708,2.708,0,0,0-.4,1.285,28.822,28.822,0,0,0-.337,4.959c.234,1.124,6.354,2.464,8.361,2.589a30.8,30.8,0,0,0,7.436-.151c2.6-.421,1.864-4.259-.174-4.557" transform="translate(-46.635 -192.773)" fill="#3c4c7f"/>
        <path id="Trazado_892754" data-name="Trazado 892754" d="M156.386,423.682c.982-10.139,2.479-35.855,1.811-39.009-.906-4.282-10.834-.915-10.834-.915s-4.43,9.484,3.436,39.7Z" transform="translate(-62.198 -162.817)" fill="#415580"/>
        <path id="Trazado_892755" data-name="Trazado 892755" d="M115.476,421.2c6.321-27.292,6.612-43,6.612-43s-14.046-5.187-13.681,2.736c.154,3.332.476,29.809,1.125,40.4Z" transform="translate(-46.142 -160.276)" fill="#415580"/>
        <rect id="Rectángulo_402411" data-name="Rectángulo 402411" width="32.834" height="28.844" transform="translate(37.412 179.16)" fill="#4a60a0"/>
        <rect id="Rectángulo_402412" data-name="Rectángulo 402412" width="32.834" height="28.844" transform="translate(35.588 179.16)" fill="#687aaf"/>
        <rect id="Rectángulo_402413" data-name="Rectángulo 402413" width="32.834" height="13.187" transform="translate(35.588 179.16)" fill="#8093c6"/>
        <path id="Trazado_892756" data-name="Trazado 892756" d="M87.218,288.417a6.771,6.771,0,0,0-1.523-3.96h-.129c-.014.161-.028.325-.043.49,0,0-.107-.484-.015.191-.005.049-.009.1-.013.149a1.37,1.37,0,0,0-1.339-.833c-2.073.154-1.94,3.178-2.018,4.655a16.45,16.45,0,0,0,.3,3.6c.23,1.35,1.207,1.935,2.284,2.734.432.049,3.139.241,2.852-.868-.049-.19-.921-.519-1.089-.789-.681-1.09-.222-2.234-.315-3.379.368.6.418,1.7,1.171,1.987.725.276.115-2.963-.125-3.974" transform="translate(-34.958 -121.08)" fill="#edb9c1"/>
        <path id="Trazado_892757" data-name="Trazado 892757" d="M88.742,334.447a1.064,1.064,0,0,1-1.064,1.065H84.334a1.064,1.064,0,0,1,0-2.128h3.344a1.063,1.063,0,0,1,1.064,1.064" transform="translate(-35.445 -141.91)" fill="#f9d890"/>
        <path id="Trazado_892758" data-name="Trazado 892758" d="M85.919,262.977a163.145,163.145,0,0,0,2.736-23.637A17.338,17.338,0,0,1,87.28,238.1c-1.466-1.373-7.163-2.156-8.353-1.5-1.544,10.905.9,19.545,1.6,26.3Z" transform="translate(-33.382 -100.613)" fill="#ee948d"/>
        <path id="Trazado_892759" data-name="Trazado 892759" d="M81.471,277.8c.137.944.258,1.856.349,2.736l5.4.076c.176-.9.348-1.842.516-2.812Z" transform="translate(-34.679 -118.251)" fill="#fff"/>
        <path id="Trazado_892760" data-name="Trazado 892760" d="M127.245,157.378l4.94,3.42-3.724,5.7-5.624-5.245s1.824-3.648,4.408-3.876" transform="translate(-52.287 -66.99)" fill="#fff"/>
        <path id="Trazado_892761" data-name="Trazado 892761" d="M139.115,161.756l2.584,5.7,5.623-4.028s-1.064-3.42-3.42-3.8Z" transform="translate(-59.216 -67.948)" fill="#fff"/>
        <path id="Trazado_892762" data-name="Trazado 892762" d="M140.919,102.654c-.122-1.645-1.115-1.665-2.533-1.451a39.546,39.546,0,0,1-4.164.681,21.511,21.511,0,0,1-4.478-.484,12.659,12.659,0,0,0-7.75,1.51c-3.594,1.879-5.781,8.108-5.129,12.2.215,1.352.743,1.034,1.775,1.935a5.878,5.878,0,0,0,1.688,1.137,4.528,4.528,0,0,0,1.8-.117c.224-.308.848.252,1.038.512.307.423.494,1.257,1.2,1.045.637-.191.857-1,.922-1.569.138-1.208-.03-2.417.011-3.626.087-2.487,2.37-2.489,4.333-2.85,3.364-.621,6.456-1.1,9.265-3.326,1.552-1.233,2.162-3.687,2.021-5.595" transform="translate(-49.696 -43.038)" fill="#4a60a0"/>
        <rect id="Rectángulo_402414" data-name="Rectángulo 402414" width="7.663" height="97.548" transform="matrix(0.818, -0.575, 0.575, 0.818, 96.879, 41.171)" fill="#ffda87"/>
        <rect id="Rectángulo_402415" data-name="Rectángulo 402415" width="1.326" height="97.547" transform="matrix(0.818, -0.575, 0.575, 0.818, 102.065, 37.528)" fill="#fff7c8"/>
        <rect id="Rectángulo_402416" data-name="Rectángulo 402416" width="2.515" height="97.547" transform="translate(96.454 41.47) rotate(-35.085)" fill="#fcc65d"/>
        <path id="Trazado_892763" data-name="Trazado 892763" d="M171.243,57.392h0L165.6,52.925l-5.639-4.467,2.289,6.819,2.29,6.82h0c.1.138,1.676-.8,3.525-2.1s3.271-2.465,3.173-2.6Z" transform="translate(-68.092 -20.627)" fill="#f6e0c7"/>
        <path id="Trazado_892764" data-name="Trazado 892764" d="M164.765,52.242l-4.8-3.784,1.972,5.876a4.328,4.328,0,0,0,2.827-2.092" transform="translate(-68.092 -20.627)" fill="#38322b"/>
        <rect id="Rectángulo_402417" data-name="Rectángulo 402417" width="8.252" height="2.358" transform="translate(151.493 119.945) rotate(-35.082)" fill="#696868"/>
        <path id="Trazado_892765" data-name="Trazado 892765" d="M274.511,206.259h0l-1.626-2.317-6.753,4.743,1.722,2.452c.033.052.063.1.1.154a4.14,4.14,0,1,0,6.775-4.759c-.067-.1-.14-.187-.214-.275" transform="translate(-113.283 -86.811)" fill="#e5665e"/>
        <path id="Trazado_892766" data-name="Trazado 892766" d="M247.02,159.605c-1.512-1.536-3.609-1.89-4.986-.009-2.487,3.393.876,6.262,4.144,6.86a2.549,2.549,0,0,0,2.918-2.173c.375-1.761-.915-3.5-2.076-4.677" transform="translate(-102.658 -67.39)" fill="#edb9c1"/>
      </g>
    </g>
  </g>
</svg>
