<svg xmlns="http://www.w3.org/2000/svg" width="744.844" height="171.816" viewBox="0 0 744.844 171.816">
  <g id="Grupo_1103376" data-name="Grupo 1103376" transform="translate(-641.456 -7044.179)">
    <path id="Trazado_894558" data-name="Trazado 894558" d="M638.629,125.546V72.652c0-4.818-4.722-8.724-10.548-8.724H64.144c-5.825,0-10.548,3.906-10.548,8.724v52.894" transform="translate(652.972 7057.916)" fill="none" stroke="#ffc263" stroke-miterlimit="10" stroke-width="1.18"/>
    <path id="Trazado_894559" data-name="Trazado 894559" d="M411.311,40.559H211.148a6.528,6.528,0,0,1-6.528-6.528V6.528A6.528,6.528,0,0,1,211.148,0H411.311a6.527,6.527,0,0,1,6.528,6.528v27.5a6.527,6.527,0,0,1-6.528,6.528" transform="translate(685.423 7044.179)" fill="#32759f"/>
    <path id="Trazado_905488" data-name="Trazado 905488" d="M0,0H744.844V171.816H0Z" transform="translate(641.456 7044.179)" fill="none"/>
    <path id="Trazado_905482" data-name="Trazado 905482" d="M6.405-1.859H3.117L2.543,0H-.021L3.63-9.953H5.886L9.563,0H6.986ZM3.691-3.712h2.14L4.758-7.164ZM14.055-2.078a.532.532,0,0,0-.308-.472,4.679,4.679,0,0,0-1.169-.369,5.33,5.33,0,0,1-1.422-.5,2.382,2.382,0,0,1-.854-.755A1.8,1.8,0,0,1,10.008-5.2a2.044,2.044,0,0,1,.841-1.678,3.464,3.464,0,0,1,2.2-.66A3.837,3.837,0,0,1,15.4-6.87a2.074,2.074,0,0,1,.889,1.743H13.979q0-.889-.937-.889a.928.928,0,0,0-.608.2.624.624,0,0,0-.246.5.573.573,0,0,0,.3.5,2.842,2.842,0,0,0,.96.314,8.3,8.3,0,0,1,1.159.294,2.105,2.105,0,0,1,1.668,2.058,1.937,1.937,0,0,1-.9,1.647A3.942,3.942,0,0,1,13.05.137a4.023,4.023,0,0,1-1.7-.342,2.835,2.835,0,0,1-1.162-.93,2.105,2.105,0,0,1-.417-1.237h2.153a.89.89,0,0,0,.342.749,1.406,1.406,0,0,0,.841.236,1.106,1.106,0,0,0,.708-.191A.612.612,0,0,0,14.055-2.078ZM21.52,0A2.6,2.6,0,0,1,21.3-.663a2.142,2.142,0,0,1-1.777.8A2.624,2.624,0,0,1,17.746-.5a2.013,2.013,0,0,1-.731-1.589A2.069,2.069,0,0,1,17.9-3.9a4.527,4.527,0,0,1,2.584-.615H21.2V-4.91q0-1.023-.882-1.023a.721.721,0,0,0-.82.811h-2.3A2.065,2.065,0,0,1,18.1-6.864a3.835,3.835,0,0,1,2.328-.669,3.363,3.363,0,0,1,2.235.69,2.4,2.4,0,0,1,.841,1.894v3.274a3.353,3.353,0,0,0,.314,1.559V0ZM20.077-1.5a1.285,1.285,0,0,0,.714-.185,1.157,1.157,0,0,0,.407-.417V-3.288h-.67q-1.2,0-1.2,1.08a.659.659,0,0,0,.212.509A.767.767,0,0,0,20.077-1.5ZM26.961-7.4l.075.868a2.543,2.543,0,0,1,2.112-1,1.872,1.872,0,0,1,1.894,1.114,2.462,2.462,0,0,1,2.174-1.114q2.249,0,2.311,2.721V0H33.216V-4.669a1.41,1.41,0,0,0-.191-.827.815.815,0,0,0-.7-.26,1.091,1.091,0,0,0-1.019.608l.007.1V0H29V-4.655A1.482,1.482,0,0,0,28.82-5.5a.812.812,0,0,0-.7-.26,1.1,1.1,0,0,0-1.012.608V0H24.8V-7.4Zm16.748,3.76a4.508,4.508,0,0,1-.752,2.8,2.519,2.519,0,0,1-2.119.978,2.186,2.186,0,0,1-1.818-.9l-.1.759H36.859V-10.5h2.3v3.7a2.109,2.109,0,0,1,1.661-.731,2.519,2.519,0,0,1,2.133.991,4.531,4.531,0,0,1,.752,2.789ZM41.4-3.784A3.007,3.007,0,0,0,41.115-5.3a.956.956,0,0,0-.872-.454,1.1,1.1,0,0,0-1.08.594v2.935a1.109,1.109,0,0,0,1.094.587.978.978,0,0,0,1.032-.792A5.685,5.685,0,0,0,41.4-3.784ZM47.154,0H44.844V-10.5h2.311Zm5,.137A3.8,3.8,0,0,1,49.4-.878a3.506,3.506,0,0,1-1.053-2.642v-.191a4.542,4.542,0,0,1,.42-2,3.076,3.076,0,0,1,1.227-1.343,3.7,3.7,0,0,1,1.914-.475,3.2,3.2,0,0,1,2.461.967,3.8,3.8,0,0,1,.9,2.7v.9h-4.58a1.66,1.66,0,0,0,.54.978,1.607,1.607,0,0,0,1.08.355,2.07,2.07,0,0,0,1.709-.766L55.07-1.162a2.943,2.943,0,0,1-1.22.947A4.123,4.123,0,0,1,52.151.137Zm-.26-5.893q-1.012,0-1.2,1.34h2.324v-.178a1.141,1.141,0,0,0-.28-.858A1.115,1.115,0,0,0,51.892-5.756ZM60.361,0a2.6,2.6,0,0,1-.219-.663,2.142,2.142,0,0,1-1.777.8A2.624,2.624,0,0,1,56.588-.5a2.013,2.013,0,0,1-.731-1.589A2.069,2.069,0,0,1,56.745-3.9a4.527,4.527,0,0,1,2.584-.615h.711V-4.91q0-1.023-.882-1.023a.721.721,0,0,0-.82.811h-2.3a2.065,2.065,0,0,1,.913-1.741,3.835,3.835,0,0,1,2.328-.669,3.363,3.363,0,0,1,2.235.69,2.4,2.4,0,0,1,.841,1.894v3.274a3.353,3.353,0,0,0,.314,1.559V0ZM58.919-1.5a1.285,1.285,0,0,0,.714-.185,1.157,1.157,0,0,0,.407-.417V-3.288h-.67q-1.2,0-1.2,1.08a.659.659,0,0,0,.212.509A.767.767,0,0,0,58.919-1.5Zm7.9-2.249a4.518,4.518,0,0,1,.759-2.769A2.5,2.5,0,0,1,69.7-7.533a2.124,2.124,0,0,1,1.668.779V-10.5h2.311V0H71.606L71.49-.793a2.181,2.181,0,0,1-1.8.93A2.493,2.493,0,0,1,67.594-.875,4.661,4.661,0,0,1,66.821-3.753Zm2.3.144q0,1.969,1.148,1.969a1.134,1.134,0,0,0,1.094-.643V-5.1a1.1,1.1,0,0,0-1.08-.656q-1.066,0-1.155,1.723ZM78.565.137A3.8,3.8,0,0,1,75.811-.878a3.506,3.506,0,0,1-1.053-2.642v-.191a4.542,4.542,0,0,1,.42-2,3.076,3.076,0,0,1,1.227-1.343,3.7,3.7,0,0,1,1.914-.475,3.2,3.2,0,0,1,2.461.967,3.8,3.8,0,0,1,.9,2.7v.9H77.1a1.66,1.66,0,0,0,.54.978,1.607,1.607,0,0,0,1.08.355,2.07,2.07,0,0,0,1.709-.766l1.053,1.244a2.943,2.943,0,0,1-1.22.947A4.124,4.124,0,0,1,78.565.137Zm-.26-5.893q-1.012,0-1.2,1.34h2.324v-.178a1.141,1.141,0,0,0-.28-.858A1.115,1.115,0,0,0,78.306-5.756Zm13.549,3.9H88.566L87.992,0H85.429l3.65-9.953h2.256L95.013,0H92.436ZM89.141-3.712h2.14L90.207-7.164Zm9.618,2.071a1.025,1.025,0,0,0,.752-.263.965.965,0,0,0,.26-.735h2.16a2.557,2.557,0,0,1-.872,2,3.242,3.242,0,0,1-2.246.779A3.282,3.282,0,0,1,96.271-.875a3.986,3.986,0,0,1-.93-2.8v-.1a4.505,4.505,0,0,1,.414-1.979,3.011,3.011,0,0,1,1.193-1.319,3.557,3.557,0,0,1,1.846-.461,3.2,3.2,0,0,1,2.29.8,2.837,2.837,0,0,1,.848,2.167h-2.16a1.265,1.265,0,0,0-.28-.882.967.967,0,0,0-.752-.308q-.9,0-1.046,1.142a8.056,8.056,0,0,0-.048,1,3.164,3.164,0,0,0,.267,1.545A.923.923,0,0,0,98.759-1.641Zm7.273,0a1.025,1.025,0,0,0,.752-.263.965.965,0,0,0,.26-.735h2.16a2.557,2.557,0,0,1-.872,2,3.242,3.242,0,0,1-2.246.779,3.282,3.282,0,0,1-2.543-1.012,3.986,3.986,0,0,1-.93-2.8v-.1a4.505,4.505,0,0,1,.414-1.979,3.011,3.011,0,0,1,1.193-1.319,3.557,3.557,0,0,1,1.846-.461,3.2,3.2,0,0,1,2.29.8,2.837,2.837,0,0,1,.848,2.167h-2.16a1.265,1.265,0,0,0-.28-.882.967.967,0,0,0-.752-.308q-.9,0-1.046,1.142a8.056,8.056,0,0,0-.048,1,3.164,3.164,0,0,0,.267,1.545A.923.923,0,0,0,106.032-1.641ZM112.608,0H110.3V-7.4h2.311Zm-2.447-9.311a1.037,1.037,0,0,1,.355-.812,1.336,1.336,0,0,1,.923-.316,1.336,1.336,0,0,1,.923.316,1.037,1.037,0,0,1,.355.812,1.037,1.037,0,0,1-.355.812,1.336,1.336,0,0,1-.923.316,1.336,1.336,0,0,1-.923-.316A1.037,1.037,0,0,1,110.161-9.311Zm3.575,5.544a4.366,4.366,0,0,1,.431-1.972,3.08,3.08,0,0,1,1.237-1.33,3.726,3.726,0,0,1,1.894-.465A3.4,3.4,0,0,1,119.916-6.5a3.948,3.948,0,0,1,.957,2.8v.082a3.83,3.83,0,0,1-.96,2.745,3.41,3.41,0,0,1-2.6,1.015,3.449,3.449,0,0,1-2.536-.947,3.7,3.7,0,0,1-1.032-2.567Zm2.3.144a2.752,2.752,0,0,0,.321,1.5,1.07,1.07,0,0,0,.95.479q1.23,0,1.258-1.894v-.232q0-1.989-1.271-1.989-1.155,0-1.251,1.716ZM124-7.4l.075.868a2.508,2.508,0,0,1,2.112-1,2.11,2.11,0,0,1,1.726.69,3.287,3.287,0,0,1,.591,2.078V0H126.2V-4.669a1.248,1.248,0,0,0-.226-.824,1.044,1.044,0,0,0-.82-.263,1.1,1.1,0,0,0-1,.533V0h-2.3V-7.4Zm8.21,7.4H129.9V-7.4h2.311Zm-2.447-9.311a1.037,1.037,0,0,1,.355-.812,1.336,1.336,0,0,1,.923-.316,1.336,1.336,0,0,1,.923.316,1.037,1.037,0,0,1,.355.812,1.037,1.037,0,0,1-.355.812,1.336,1.336,0,0,1-.923.316,1.336,1.336,0,0,1-.923-.316A1.037,1.037,0,0,1,129.767-9.311ZM137.5-2.078a.532.532,0,0,0-.308-.472,4.679,4.679,0,0,0-1.169-.369,5.33,5.33,0,0,1-1.422-.5,2.382,2.382,0,0,1-.854-.755,1.8,1.8,0,0,1-.294-1.019,2.044,2.044,0,0,1,.841-1.678,3.464,3.464,0,0,1,2.2-.66,3.837,3.837,0,0,1,2.352.663,2.074,2.074,0,0,1,.889,1.743H137.43q0-.889-.937-.889a.928.928,0,0,0-.608.2.624.624,0,0,0-.246.5.573.573,0,0,0,.3.5,2.842,2.842,0,0,0,.96.314,8.3,8.3,0,0,1,1.159.294,2.105,2.105,0,0,1,1.668,2.058,1.937,1.937,0,0,1-.9,1.647A3.942,3.942,0,0,1,136.5.137a4.023,4.023,0,0,1-1.7-.342,2.835,2.835,0,0,1-1.162-.93,2.105,2.105,0,0,1-.417-1.237h2.153a.89.89,0,0,0,.342.749,1.406,1.406,0,0,0,.841.236,1.106,1.106,0,0,0,.708-.191A.612.612,0,0,0,137.5-2.078Zm5.981-7.157V-7.4H144.7v1.6h-1.217v3.384a.864.864,0,0,0,.15.581.807.807,0,0,0,.595.164,3.38,3.38,0,0,0,.574-.041V-.062a4.252,4.252,0,0,1-1.3.2,2.413,2.413,0,0,1-1.757-.561,2.3,2.3,0,0,1-.567-1.7V-5.8h-.943V-7.4h.943V-9.235ZM149.775,0a2.6,2.6,0,0,1-.219-.663,2.142,2.142,0,0,1-1.777.8A2.624,2.624,0,0,1,146-.5a2.013,2.013,0,0,1-.731-1.589,2.069,2.069,0,0,1,.889-1.818,4.527,4.527,0,0,1,2.584-.615h.711V-4.91q0-1.023-.882-1.023a.721.721,0,0,0-.82.811h-2.3a2.065,2.065,0,0,1,.913-1.741,3.835,3.835,0,0,1,2.328-.669,3.363,3.363,0,0,1,2.235.69,2.4,2.4,0,0,1,.841,1.894v3.274a3.353,3.353,0,0,0,.314,1.559V0Zm-1.442-1.5a1.285,1.285,0,0,0,.714-.185,1.157,1.157,0,0,0,.407-.417V-3.288h-.67q-1.2,0-1.2,1.08a.659.659,0,0,0,.212.509A.767.767,0,0,0,148.333-1.5Zm8.579-.574a.532.532,0,0,0-.308-.472,4.679,4.679,0,0,0-1.169-.369,5.33,5.33,0,0,1-1.422-.5,2.382,2.382,0,0,1-.854-.755,1.8,1.8,0,0,1-.294-1.019,2.044,2.044,0,0,1,.841-1.678,3.464,3.464,0,0,1,2.2-.66,3.837,3.837,0,0,1,2.352.663,2.074,2.074,0,0,1,.889,1.743h-2.311q0-.889-.937-.889a.928.928,0,0,0-.608.2.624.624,0,0,0-.246.5.573.573,0,0,0,.3.5,2.842,2.842,0,0,0,.96.314,8.3,8.3,0,0,1,1.159.294,2.105,2.105,0,0,1,1.668,2.058,1.937,1.937,0,0,1-.9,1.647,3.942,3.942,0,0,1-2.328.636,4.023,4.023,0,0,1-1.7-.342,2.835,2.835,0,0,1-1.162-.93,2.105,2.105,0,0,1-.417-1.237h2.153a.89.89,0,0,0,.342.749,1.406,1.406,0,0,0,.841.236,1.106,1.106,0,0,0,.708-.191A.612.612,0,0,0,156.912-2.078Z" transform="translate(914.628 7067.744)" fill="#fff"/>
    <path id="Trazado_894560" data-name="Trazado 894560" d="M411.311,87.794H211.148a6.528,6.528,0,0,1-6.528-6.528v-27.5a6.528,6.528,0,0,1,6.528-6.528H411.311a6.527,6.527,0,0,1,6.528,6.528v27.5a6.527,6.527,0,0,1-6.528,6.528" transform="translate(685.423 7054.329)" fill="#ffc263"/>
    <path id="Trazado_905489" data-name="Trazado 905489" d="M0,0H744.844V171.816H0Z" transform="translate(641.456 7044.179)" fill="none"/>
    <path id="Trazado_905483" data-name="Trazado 905483" d="M8.764-1.258A3.56,3.56,0,0,1,7.2-.229,6.556,6.556,0,0,1,4.956.137,4.442,4.442,0,0,1,2.69-.427a3.762,3.762,0,0,1-1.5-1.637A5.762,5.762,0,0,1,.643-4.587v-.677a6.119,6.119,0,0,1,.5-2.581A3.717,3.717,0,0,1,2.594-9.512a4.174,4.174,0,0,1,2.218-.578,4.157,4.157,0,0,1,2.769.844A3.608,3.608,0,0,1,8.764-6.788h-2a1.985,1.985,0,0,0-.6-1.251,1.932,1.932,0,0,0-1.289-.4,1.818,1.818,0,0,0-1.593.786,4.134,4.134,0,0,0-.554,2.338v.636a3.935,3.935,0,0,0,.595,2.365,2.037,2.037,0,0,0,1.743.8A2.275,2.275,0,0,0,6.713-2V-3.719H4.847V-5.229H8.764ZM13.7.137a3.631,3.631,0,0,1-2.649-1,3.548,3.548,0,0,1-1.022-2.659v-.191A4.468,4.468,0,0,1,10.459-5.7a3.161,3.161,0,0,1,1.22-1.354,3.425,3.425,0,0,1,1.8-.475,3.07,3.07,0,0,1,2.389.957,3.889,3.889,0,0,1,.872,2.714v.807h-4.71a1.835,1.835,0,0,0,.578,1.162,1.746,1.746,0,0,0,1.22.438,2.132,2.132,0,0,0,1.784-.827L16.584-1.2a2.966,2.966,0,0,1-1.2.981A3.947,3.947,0,0,1,13.7.137ZM13.474-5.94a1.234,1.234,0,0,0-.954.4,2.062,2.062,0,0,0-.468,1.14H14.8V-4.56a1.471,1.471,0,0,0-.355-1.02A1.274,1.274,0,0,0,13.474-5.94Zm8.545.4a5.367,5.367,0,0,0-.711-.055,1.447,1.447,0,0,0-1.47.759V0H17.862V-7.4h1.866l.055.882a1.831,1.831,0,0,1,1.647-1.019,2.07,2.07,0,0,1,.615.089Zm4.1,5.681a3.631,3.631,0,0,1-2.649-1,3.548,3.548,0,0,1-1.022-2.659v-.191A4.468,4.468,0,0,1,22.877-5.7,3.161,3.161,0,0,1,24.1-7.058a3.425,3.425,0,0,1,1.8-.475,3.07,3.07,0,0,1,2.389.957,3.889,3.889,0,0,1,.872,2.714v.807h-4.71a1.835,1.835,0,0,0,.578,1.162,1.746,1.746,0,0,0,1.22.438,2.132,2.132,0,0,0,1.784-.827L29-1.2a2.966,2.966,0,0,1-1.2.981A3.947,3.947,0,0,1,26.117.137ZM25.892-5.94a1.234,1.234,0,0,0-.954.4A2.062,2.062,0,0,0,24.47-4.4h2.748V-4.56a1.471,1.471,0,0,0-.355-1.02A1.274,1.274,0,0,0,25.892-5.94ZM32.1-7.4l.062.854a2.582,2.582,0,0,1,2.126-.991,2.146,2.146,0,0,1,1.75.69,3.221,3.221,0,0,1,.588,2.064V0H34.648V-4.741a1.287,1.287,0,0,0-.273-.915,1.222,1.222,0,0,0-.909-.284,1.359,1.359,0,0,0-1.251.713V0H30.239V-7.4Zm9.1,5.94a1.3,1.3,0,0,0,.889-.3,1.054,1.054,0,0,0,.355-.8h1.853a2.534,2.534,0,0,1-.41,1.377,2.706,2.706,0,0,1-1.1.971,3.455,3.455,0,0,1-1.548.345,3.211,3.211,0,0,1-2.5-1.008,3.99,3.99,0,0,1-.916-2.786v-.13a3.944,3.944,0,0,1,.909-2.728,3.174,3.174,0,0,1,2.5-1.019,3.111,3.111,0,0,1,2.225.79,2.8,2.8,0,0,1,.851,2.1H42.441a1.358,1.358,0,0,0-.355-.938,1.185,1.185,0,0,0-.9-.361,1.19,1.19,0,0,0-1.042.5A2.916,2.916,0,0,0,39.789-3.8V-3.6a2.953,2.953,0,0,0,.349,1.643A1.2,1.2,0,0,0,41.2-1.456ZM47.507,0H45.524V-7.4h1.982Zm-2.1-9.311a.973.973,0,0,1,.3-.731,1.117,1.117,0,0,1,.81-.287,1.12,1.12,0,0,1,.807.287.967.967,0,0,1,.3.731.97.97,0,0,1-.3.738,1.122,1.122,0,0,1-.8.287,1.122,1.122,0,0,1-.8-.287A.97.97,0,0,1,45.408-9.311ZM53.42,0a2.194,2.194,0,0,1-.2-.663,2.39,2.39,0,0,1-1.866.8,2.626,2.626,0,0,1-1.8-.629,2.023,2.023,0,0,1-.714-1.586,2.09,2.09,0,0,1,.872-1.8,4.3,4.3,0,0,1,2.519-.636h.909v-.424a1.219,1.219,0,0,0-.263-.82,1.035,1.035,0,0,0-.831-.308,1.177,1.177,0,0,0-.783.239.813.813,0,0,0-.284.656H49a1.984,1.984,0,0,1,.4-1.189,2.621,2.621,0,0,1,1.121-.858,4.086,4.086,0,0,1,1.627-.311,3.228,3.228,0,0,1,2.17.687,2.4,2.4,0,0,1,.8,1.931v3.206a3.536,3.536,0,0,0,.294,1.593V0ZM51.786-1.374a1.7,1.7,0,0,0,.807-.195,1.28,1.28,0,0,0,.547-.523V-3.363H52.4q-1.483,0-1.579,1.025l-.007.116a.791.791,0,0,0,.26.608A1.009,1.009,0,0,0,51.786-1.374Zm16.345.116A3.56,3.56,0,0,1,66.565-.229a6.556,6.556,0,0,1-2.242.366,4.442,4.442,0,0,1-2.266-.564,3.762,3.762,0,0,1-1.5-1.637,5.762,5.762,0,0,1-.543-2.522v-.677a6.119,6.119,0,0,1,.5-2.581,3.717,3.717,0,0,1,1.449-1.668,4.174,4.174,0,0,1,2.218-.578,4.157,4.157,0,0,1,2.769.844,3.608,3.608,0,0,1,1.183,2.458h-2a1.985,1.985,0,0,0-.6-1.251,1.932,1.932,0,0,0-1.289-.4,1.818,1.818,0,0,0-1.593.786,4.134,4.134,0,0,0-.554,2.338v.636a3.935,3.935,0,0,0,.595,2.365,2.037,2.037,0,0,0,1.743.8A2.275,2.275,0,0,0,66.08-2V-3.719H64.214V-5.229h3.917ZM73.066.137a3.631,3.631,0,0,1-2.649-1A3.548,3.548,0,0,1,69.4-3.521v-.191A4.468,4.468,0,0,1,69.826-5.7a3.161,3.161,0,0,1,1.22-1.354,3.425,3.425,0,0,1,1.8-.475,3.07,3.07,0,0,1,2.389.957,3.889,3.889,0,0,1,.872,2.714v.807H71.4a1.835,1.835,0,0,0,.578,1.162,1.746,1.746,0,0,0,1.22.438,2.132,2.132,0,0,0,1.784-.827L75.951-1.2a2.966,2.966,0,0,1-1.2.981A3.947,3.947,0,0,1,73.066.137ZM72.841-5.94a1.234,1.234,0,0,0-.954.4,2.062,2.062,0,0,0-.468,1.14h2.748V-4.56a1.471,1.471,0,0,0-.355-1.02A1.274,1.274,0,0,0,72.841-5.94ZM79.048-7.4l.062.854a2.582,2.582,0,0,1,2.126-.991,2.146,2.146,0,0,1,1.75.69,3.221,3.221,0,0,1,.588,2.064V0H81.6V-4.741a1.287,1.287,0,0,0-.273-.915,1.222,1.222,0,0,0-.909-.284,1.359,1.359,0,0,0-1.251.713V0H77.188V-7.4ZM88.475.137a3.631,3.631,0,0,1-2.649-1A3.548,3.548,0,0,1,84.8-3.521v-.191A4.468,4.468,0,0,1,85.234-5.7a3.161,3.161,0,0,1,1.22-1.354,3.425,3.425,0,0,1,1.8-.475,3.07,3.07,0,0,1,2.389.957,3.889,3.889,0,0,1,.872,2.714v.807h-4.71a1.835,1.835,0,0,0,.578,1.162,1.746,1.746,0,0,0,1.22.438,2.132,2.132,0,0,0,1.784-.827L91.359-1.2a2.966,2.966,0,0,1-1.2.981A3.947,3.947,0,0,1,88.475.137ZM88.249-5.94a1.234,1.234,0,0,0-.954.4,2.062,2.062,0,0,0-.468,1.14h2.748V-4.56a1.471,1.471,0,0,0-.355-1.02A1.274,1.274,0,0,0,88.249-5.94Zm8.545.4a5.367,5.367,0,0,0-.711-.055,1.447,1.447,0,0,0-1.47.759V0H92.638V-7.4H94.5l.055.882a1.831,1.831,0,0,1,1.647-1.019,2.07,2.07,0,0,1,.615.089ZM101.825,0a2.194,2.194,0,0,1-.2-.663,2.39,2.39,0,0,1-1.866.8,2.626,2.626,0,0,1-1.8-.629,2.023,2.023,0,0,1-.714-1.586,2.09,2.09,0,0,1,.872-1.8,4.3,4.3,0,0,1,2.519-.636h.909v-.424a1.219,1.219,0,0,0-.263-.82,1.035,1.035,0,0,0-.831-.308,1.177,1.177,0,0,0-.783.239.813.813,0,0,0-.284.656H97.409a1.985,1.985,0,0,1,.4-1.189,2.621,2.621,0,0,1,1.121-.858,4.086,4.086,0,0,1,1.627-.311,3.228,3.228,0,0,1,2.17.687,2.4,2.4,0,0,1,.8,1.931v3.206a3.536,3.536,0,0,0,.294,1.593V0Zm-1.634-1.374A1.7,1.7,0,0,0,101-1.569a1.28,1.28,0,0,0,.547-.523V-3.363h-.738q-1.483,0-1.579,1.025l-.007.116a.791.791,0,0,0,.26.608A1.009,1.009,0,0,0,100.191-1.374ZM107.13,0h-1.982V-10.5h1.982Z" transform="translate(941.105 7125.129)" fill="#1d445b"/>
    <path id="Trazado_894561" data-name="Trazado 894561" d="M167.623,148.6H6.528A6.527,6.527,0,0,1,0,142.073v-27.5a6.527,6.527,0,0,1,6.528-6.528h161.1a6.527,6.527,0,0,1,6.528,6.528v27.5a6.527,6.527,0,0,1-6.528,6.528" transform="translate(641.456 7067.395)" fill="#ffc263"/>
    <path id="Trazado_905490" data-name="Trazado 905490" d="M0,0H744.844V171.816H0Z" transform="translate(641.456 7044.179)" fill="none"/>
    <path id="Trazado_905484" data-name="Trazado 905484" d="M8.764-1.258A3.56,3.56,0,0,1,7.2-.229,6.556,6.556,0,0,1,4.956.137,4.442,4.442,0,0,1,2.69-.427a3.762,3.762,0,0,1-1.5-1.637A5.762,5.762,0,0,1,.643-4.587v-.677a6.119,6.119,0,0,1,.5-2.581A3.717,3.717,0,0,1,2.594-9.512a4.174,4.174,0,0,1,2.218-.578,4.157,4.157,0,0,1,2.769.844A3.608,3.608,0,0,1,8.764-6.788h-2a1.985,1.985,0,0,0-.6-1.251,1.932,1.932,0,0,0-1.289-.4,1.818,1.818,0,0,0-1.593.786,4.134,4.134,0,0,0-.554,2.338v.636a3.935,3.935,0,0,0,.595,2.365,2.037,2.037,0,0,0,1.743.8A2.275,2.275,0,0,0,6.713-2V-3.719H4.847V-5.229H8.764ZM13.7.137a3.631,3.631,0,0,1-2.649-1,3.548,3.548,0,0,1-1.022-2.659v-.191A4.468,4.468,0,0,1,10.459-5.7a3.161,3.161,0,0,1,1.22-1.354,3.425,3.425,0,0,1,1.8-.475,3.07,3.07,0,0,1,2.389.957,3.889,3.889,0,0,1,.872,2.714v.807h-4.71a1.835,1.835,0,0,0,.578,1.162,1.746,1.746,0,0,0,1.22.438,2.132,2.132,0,0,0,1.784-.827L16.584-1.2a2.966,2.966,0,0,1-1.2.981A3.947,3.947,0,0,1,13.7.137ZM13.474-5.94a1.234,1.234,0,0,0-.954.4,2.062,2.062,0,0,0-.468,1.14H14.8V-4.56a1.471,1.471,0,0,0-.355-1.02A1.274,1.274,0,0,0,13.474-5.94Zm8.545.4a5.367,5.367,0,0,0-.711-.055,1.447,1.447,0,0,0-1.47.759V0H17.862V-7.4h1.866l.055.882a1.831,1.831,0,0,1,1.647-1.019,2.07,2.07,0,0,1,.615.089Zm4.1,5.681a3.631,3.631,0,0,1-2.649-1,3.548,3.548,0,0,1-1.022-2.659v-.191A4.468,4.468,0,0,1,22.877-5.7,3.161,3.161,0,0,1,24.1-7.058a3.425,3.425,0,0,1,1.8-.475,3.07,3.07,0,0,1,2.389.957,3.889,3.889,0,0,1,.872,2.714v.807h-4.71a1.835,1.835,0,0,0,.578,1.162,1.746,1.746,0,0,0,1.22.438,2.132,2.132,0,0,0,1.784-.827L29-1.2a2.966,2.966,0,0,1-1.2.981A3.947,3.947,0,0,1,26.117.137ZM25.892-5.94a1.234,1.234,0,0,0-.954.4A2.062,2.062,0,0,0,24.47-4.4h2.748V-4.56a1.471,1.471,0,0,0-.355-1.02A1.274,1.274,0,0,0,25.892-5.94ZM32.1-7.4l.062.854a2.582,2.582,0,0,1,2.126-.991,2.146,2.146,0,0,1,1.75.69,3.221,3.221,0,0,1,.588,2.064V0H34.648V-4.741a1.287,1.287,0,0,0-.273-.915,1.222,1.222,0,0,0-.909-.284,1.359,1.359,0,0,0-1.251.713V0H30.239V-7.4Zm9.1,5.94a1.3,1.3,0,0,0,.889-.3,1.054,1.054,0,0,0,.355-.8h1.853a2.534,2.534,0,0,1-.41,1.377,2.706,2.706,0,0,1-1.1.971,3.455,3.455,0,0,1-1.548.345,3.211,3.211,0,0,1-2.5-1.008,3.99,3.99,0,0,1-.916-2.786v-.13a3.944,3.944,0,0,1,.909-2.728,3.174,3.174,0,0,1,2.5-1.019,3.111,3.111,0,0,1,2.225.79,2.8,2.8,0,0,1,.851,2.1H42.441a1.358,1.358,0,0,0-.355-.938,1.185,1.185,0,0,0-.9-.361,1.19,1.19,0,0,0-1.042.5A2.916,2.916,0,0,0,39.789-3.8V-3.6a2.953,2.953,0,0,0,.349,1.643A1.2,1.2,0,0,0,41.2-1.456ZM47.507,0H45.524V-7.4h1.982Zm-2.1-9.311a.973.973,0,0,1,.3-.731,1.117,1.117,0,0,1,.81-.287,1.12,1.12,0,0,1,.807.287.967.967,0,0,1,.3.731.97.97,0,0,1-.3.738,1.122,1.122,0,0,1-.8.287,1.122,1.122,0,0,1-.8-.287A.97.97,0,0,1,45.408-9.311ZM53.42,0a2.194,2.194,0,0,1-.2-.663,2.39,2.39,0,0,1-1.866.8,2.626,2.626,0,0,1-1.8-.629,2.023,2.023,0,0,1-.714-1.586,2.09,2.09,0,0,1,.872-1.8,4.3,4.3,0,0,1,2.519-.636h.909v-.424a1.219,1.219,0,0,0-.263-.82,1.035,1.035,0,0,0-.831-.308,1.177,1.177,0,0,0-.783.239.813.813,0,0,0-.284.656H49a1.984,1.984,0,0,1,.4-1.189,2.621,2.621,0,0,1,1.121-.858,4.086,4.086,0,0,1,1.627-.311,3.228,3.228,0,0,1,2.17.687,2.4,2.4,0,0,1,.8,1.931v3.206a3.536,3.536,0,0,0,.294,1.593V0ZM51.786-1.374a1.7,1.7,0,0,0,.807-.195,1.28,1.28,0,0,0,.547-.523V-3.363H52.4q-1.483,0-1.579,1.025l-.007.116a.791.791,0,0,0,.26.608A1.009,1.009,0,0,0,51.786-1.374Zm8.032-2.379a4.457,4.457,0,0,1,.776-2.755,2.517,2.517,0,0,1,2.123-1.025,2.265,2.265,0,0,1,1.784.807V-10.5h1.982V0H64.7l-.1-.786a2.325,2.325,0,0,1-1.9.923,2.511,2.511,0,0,1-2.1-1.029A4.6,4.6,0,0,1,59.818-3.753Zm1.976.141a2.936,2.936,0,0,0,.362,1.6,1.179,1.179,0,0,0,1.053.556A1.321,1.321,0,0,0,64.5-2.232V-5.164a1.3,1.3,0,0,0-1.278-.776Q61.794-5.94,61.794-3.612ZM71.419.137a3.631,3.631,0,0,1-2.649-1,3.548,3.548,0,0,1-1.022-2.659v-.191A4.468,4.468,0,0,1,68.179-5.7,3.161,3.161,0,0,1,69.4-7.058a3.425,3.425,0,0,1,1.8-.475,3.07,3.07,0,0,1,2.389.957,3.889,3.889,0,0,1,.872,2.714v.807h-4.71a1.835,1.835,0,0,0,.578,1.162,1.746,1.746,0,0,0,1.22.438,2.132,2.132,0,0,0,1.784-.827L74.3-1.2a2.966,2.966,0,0,1-1.2.981A3.947,3.947,0,0,1,71.419.137ZM71.193-5.94a1.234,1.234,0,0,0-.954.4,2.062,2.062,0,0,0-.468,1.14H72.52V-4.56a1.471,1.471,0,0,0-.355-1.02A1.274,1.274,0,0,0,71.193-5.94ZM82.876-2.468l2.256-7.485h2.283L83.949,0H81.81L78.357-9.953h2.276Zm8.169,2.6a3.631,3.631,0,0,1-2.649-1,3.548,3.548,0,0,1-1.022-2.659v-.191A4.468,4.468,0,0,1,87.8-5.7a3.161,3.161,0,0,1,1.22-1.354,3.425,3.425,0,0,1,1.8-.475,3.07,3.07,0,0,1,2.389.957,3.889,3.889,0,0,1,.872,2.714v.807h-4.71a1.835,1.835,0,0,0,.578,1.162,1.746,1.746,0,0,0,1.22.438,2.132,2.132,0,0,0,1.784-.827L93.93-1.2a2.966,2.966,0,0,1-1.2.981A3.947,3.947,0,0,1,91.045.137ZM90.82-5.94a1.234,1.234,0,0,0-.954.4A2.062,2.062,0,0,0,89.4-4.4h2.748V-4.56a1.471,1.471,0,0,0-.355-1.02A1.274,1.274,0,0,0,90.82-5.94ZM97.027-7.4l.062.854a2.582,2.582,0,0,1,2.126-.991,2.146,2.146,0,0,1,1.75.69,3.221,3.221,0,0,1,.588,2.064V0H99.576V-4.741a1.287,1.287,0,0,0-.273-.915,1.222,1.222,0,0,0-.909-.284,1.359,1.359,0,0,0-1.251.713V0H95.167V-7.4Zm8.388-1.818V-7.4h1.265v1.449h-1.265v3.691a.881.881,0,0,0,.157.588.79.79,0,0,0,.6.178,3.15,3.15,0,0,0,.581-.048v1.5a4.067,4.067,0,0,1-1.2.178,1.886,1.886,0,0,1-2.119-2.1V-5.947h-1.08V-7.4h1.08V-9.215ZM112.066,0a2.194,2.194,0,0,1-.2-.663,2.39,2.39,0,0,1-1.866.8,2.626,2.626,0,0,1-1.8-.629,2.023,2.023,0,0,1-.714-1.586,2.09,2.09,0,0,1,.872-1.8,4.3,4.3,0,0,1,2.519-.636h.909v-.424a1.219,1.219,0,0,0-.263-.82,1.035,1.035,0,0,0-.831-.308,1.177,1.177,0,0,0-.783.239.813.813,0,0,0-.284.656H107.65a1.985,1.985,0,0,1,.4-1.189,2.621,2.621,0,0,1,1.121-.858,4.086,4.086,0,0,1,1.627-.311,3.228,3.228,0,0,1,2.17.687,2.4,2.4,0,0,1,.8,1.931v3.206a3.536,3.536,0,0,0,.294,1.593V0Zm-1.634-1.374a1.7,1.7,0,0,0,.807-.195,1.28,1.28,0,0,0,.547-.523V-3.363h-.738q-1.483,0-1.579,1.025l-.007.116a.791.791,0,0,0,.26.608A1.009,1.009,0,0,0,110.432-1.374Zm8.859-.67a.637.637,0,0,0-.359-.571,4.077,4.077,0,0,0-1.152-.373q-2.639-.554-2.639-2.242a2.032,2.032,0,0,1,.817-1.644,3.3,3.3,0,0,1,2.136-.66,3.547,3.547,0,0,1,2.252.663,2.09,2.09,0,0,1,.844,1.723h-1.976a.956.956,0,0,0-.273-.7,1.157,1.157,0,0,0-.854-.277,1.182,1.182,0,0,0-.772.226.712.712,0,0,0-.273.574.609.609,0,0,0,.311.53,3.2,3.2,0,0,0,1.049.349,8.571,8.571,0,0,1,1.244.332,2.044,2.044,0,0,1,1.565,1.989,1.929,1.929,0,0,1-.868,1.637A3.745,3.745,0,0,1,118.1.137a3.912,3.912,0,0,1-1.651-.332A2.77,2.77,0,0,1,115.32-1.1a2.113,2.113,0,0,1-.41-1.248h1.873a1.031,1.031,0,0,0,.39.807,1.546,1.546,0,0,0,.971.28A1.43,1.43,0,0,0,119-1.48.67.67,0,0,0,119.291-2.044Z" transform="translate(669.396 7199.001)" fill="#1d445b"/>
    <path id="Trazado_894562" data-name="Trazado 894562" d="M320.024,148.6h-161.1a6.527,6.527,0,0,1-6.528-6.528v-27.5a6.527,6.527,0,0,1,6.528-6.528h161.1a6.527,6.527,0,0,1,6.528,6.528v27.5a6.527,6.527,0,0,1-6.528,6.528" transform="translate(674.203 7067.395)" fill="#ffc263"/>
    <path id="Trazado_905491" data-name="Trazado 905491" d="M0,0H744.844V171.816H0Z" transform="translate(641.456 7044.179)" fill="none"/>
    <path id="Trazado_905485" data-name="Trazado 905485" d="M8.764-1.258A3.56,3.56,0,0,1,7.2-.229,6.556,6.556,0,0,1,4.956.137,4.442,4.442,0,0,1,2.69-.427a3.762,3.762,0,0,1-1.5-1.637A5.762,5.762,0,0,1,.643-4.587v-.677a6.119,6.119,0,0,1,.5-2.581A3.717,3.717,0,0,1,2.594-9.512a4.174,4.174,0,0,1,2.218-.578,4.157,4.157,0,0,1,2.769.844A3.608,3.608,0,0,1,8.764-6.788h-2a1.985,1.985,0,0,0-.6-1.251,1.932,1.932,0,0,0-1.289-.4,1.818,1.818,0,0,0-1.593.786,4.134,4.134,0,0,0-.554,2.338v.636a3.935,3.935,0,0,0,.595,2.365,2.037,2.037,0,0,0,1.743.8A2.275,2.275,0,0,0,6.713-2V-3.719H4.847V-5.229H8.764ZM13.7.137a3.631,3.631,0,0,1-2.649-1,3.548,3.548,0,0,1-1.022-2.659v-.191A4.468,4.468,0,0,1,10.459-5.7a3.161,3.161,0,0,1,1.22-1.354,3.425,3.425,0,0,1,1.8-.475,3.07,3.07,0,0,1,2.389.957,3.889,3.889,0,0,1,.872,2.714v.807h-4.71a1.835,1.835,0,0,0,.578,1.162,1.746,1.746,0,0,0,1.22.438,2.132,2.132,0,0,0,1.784-.827L16.584-1.2a2.966,2.966,0,0,1-1.2.981A3.947,3.947,0,0,1,13.7.137ZM13.474-5.94a1.234,1.234,0,0,0-.954.4,2.062,2.062,0,0,0-.468,1.14H14.8V-4.56a1.471,1.471,0,0,0-.355-1.02A1.274,1.274,0,0,0,13.474-5.94Zm8.545.4a5.367,5.367,0,0,0-.711-.055,1.447,1.447,0,0,0-1.47.759V0H17.862V-7.4h1.866l.055.882a1.831,1.831,0,0,1,1.647-1.019,2.07,2.07,0,0,1,.615.089Zm4.1,5.681a3.631,3.631,0,0,1-2.649-1,3.548,3.548,0,0,1-1.022-2.659v-.191A4.468,4.468,0,0,1,22.877-5.7,3.161,3.161,0,0,1,24.1-7.058a3.425,3.425,0,0,1,1.8-.475,3.07,3.07,0,0,1,2.389.957,3.889,3.889,0,0,1,.872,2.714v.807h-4.71a1.835,1.835,0,0,0,.578,1.162,1.746,1.746,0,0,0,1.22.438,2.132,2.132,0,0,0,1.784-.827L29-1.2a2.966,2.966,0,0,1-1.2.981A3.947,3.947,0,0,1,26.117.137ZM25.892-5.94a1.234,1.234,0,0,0-.954.4A2.062,2.062,0,0,0,24.47-4.4h2.748V-4.56a1.471,1.471,0,0,0-.355-1.02A1.274,1.274,0,0,0,25.892-5.94ZM32.1-7.4l.062.854a2.582,2.582,0,0,1,2.126-.991,2.146,2.146,0,0,1,1.75.69,3.221,3.221,0,0,1,.588,2.064V0H34.648V-4.741a1.287,1.287,0,0,0-.273-.915,1.222,1.222,0,0,0-.909-.284,1.359,1.359,0,0,0-1.251.713V0H30.239V-7.4Zm9.1,5.94a1.3,1.3,0,0,0,.889-.3,1.054,1.054,0,0,0,.355-.8h1.853a2.534,2.534,0,0,1-.41,1.377,2.706,2.706,0,0,1-1.1.971,3.455,3.455,0,0,1-1.548.345,3.211,3.211,0,0,1-2.5-1.008,3.99,3.99,0,0,1-.916-2.786v-.13a3.944,3.944,0,0,1,.909-2.728,3.174,3.174,0,0,1,2.5-1.019,3.111,3.111,0,0,1,2.225.79,2.8,2.8,0,0,1,.851,2.1H42.441a1.358,1.358,0,0,0-.355-.938,1.185,1.185,0,0,0-.9-.361,1.19,1.19,0,0,0-1.042.5A2.916,2.916,0,0,0,39.789-3.8V-3.6a2.953,2.953,0,0,0,.349,1.643A1.2,1.2,0,0,0,41.2-1.456ZM47.507,0H45.524V-7.4h1.982Zm-2.1-9.311a.973.973,0,0,1,.3-.731,1.117,1.117,0,0,1,.81-.287,1.12,1.12,0,0,1,.807.287.967.967,0,0,1,.3.731.97.97,0,0,1-.3.738,1.122,1.122,0,0,1-.8.287,1.122,1.122,0,0,1-.8-.287A.97.97,0,0,1,45.408-9.311ZM53.42,0a2.194,2.194,0,0,1-.2-.663,2.39,2.39,0,0,1-1.866.8,2.626,2.626,0,0,1-1.8-.629,2.023,2.023,0,0,1-.714-1.586,2.09,2.09,0,0,1,.872-1.8,4.3,4.3,0,0,1,2.519-.636h.909v-.424a1.219,1.219,0,0,0-.263-.82,1.035,1.035,0,0,0-.831-.308,1.177,1.177,0,0,0-.783.239.813.813,0,0,0-.284.656H49a1.984,1.984,0,0,1,.4-1.189,2.621,2.621,0,0,1,1.121-.858,4.086,4.086,0,0,1,1.627-.311,3.228,3.228,0,0,1,2.17.687,2.4,2.4,0,0,1,.8,1.931v3.206a3.536,3.536,0,0,0,.294,1.593V0ZM51.786-1.374a1.7,1.7,0,0,0,.807-.195,1.28,1.28,0,0,0,.547-.523V-3.363H52.4q-1.483,0-1.579,1.025l-.007.116a.791.791,0,0,0,.26.608A1.009,1.009,0,0,0,51.786-1.374ZM66.244-4.067H62.307V0H60.256V-9.953h6.48v1.661h-4.43v2.57h3.937ZM69.881,0H67.9V-7.4h1.982Zm-2.1-9.311a.973.973,0,0,1,.3-.731,1.117,1.117,0,0,1,.81-.287,1.12,1.12,0,0,1,.807.287.967.967,0,0,1,.3.731.97.97,0,0,1-.3.738,1.122,1.122,0,0,1-.8.287,1.122,1.122,0,0,1-.8-.287A.97.97,0,0,1,67.782-9.311ZM73.326-7.4l.062.854a2.582,2.582,0,0,1,2.126-.991,2.146,2.146,0,0,1,1.75.69,3.221,3.221,0,0,1,.588,2.064V0H75.876V-4.741a1.287,1.287,0,0,0-.273-.915,1.222,1.222,0,0,0-.909-.284,1.359,1.359,0,0,0-1.251.713V0H71.467V-7.4ZM83.635,0a2.194,2.194,0,0,1-.2-.663,2.39,2.39,0,0,1-1.866.8,2.626,2.626,0,0,1-1.8-.629,2.023,2.023,0,0,1-.714-1.586,2.09,2.09,0,0,1,.872-1.8,4.3,4.3,0,0,1,2.519-.636h.909v-.424a1.219,1.219,0,0,0-.263-.82,1.035,1.035,0,0,0-.831-.308,1.177,1.177,0,0,0-.783.239.813.813,0,0,0-.284.656H79.219a1.985,1.985,0,0,1,.4-1.189,2.621,2.621,0,0,1,1.121-.858,4.086,4.086,0,0,1,1.627-.311,3.228,3.228,0,0,1,2.17.687,2.4,2.4,0,0,1,.8,1.931v3.206a3.536,3.536,0,0,0,.294,1.593V0ZM82-1.374a1.7,1.7,0,0,0,.807-.195,1.28,1.28,0,0,0,.547-.523V-3.363h-.738q-1.483,0-1.579,1.025l-.007.116a.791.791,0,0,0,.26.608A1.009,1.009,0,0,0,82-1.374ZM88.673-7.4l.062.854a2.582,2.582,0,0,1,2.126-.991,2.146,2.146,0,0,1,1.75.69A3.221,3.221,0,0,1,93.2-4.778V0H91.223V-4.741a1.287,1.287,0,0,0-.273-.915,1.222,1.222,0,0,0-.909-.284,1.359,1.359,0,0,0-1.251.713V0H86.813V-7.4Zm9.1,5.94a1.3,1.3,0,0,0,.889-.3,1.054,1.054,0,0,0,.355-.8h1.853a2.534,2.534,0,0,1-.41,1.377,2.706,2.706,0,0,1-1.1.971,3.455,3.455,0,0,1-1.548.345A3.211,3.211,0,0,1,95.3-.872a3.99,3.99,0,0,1-.916-2.786v-.13A3.944,3.944,0,0,1,95.3-6.515a3.174,3.174,0,0,1,2.5-1.019,3.111,3.111,0,0,1,2.225.79,2.8,2.8,0,0,1,.851,2.1H99.016a1.358,1.358,0,0,0-.355-.938,1.185,1.185,0,0,0-.9-.361,1.19,1.19,0,0,0-1.042.5A2.916,2.916,0,0,0,96.363-3.8V-3.6a2.953,2.953,0,0,0,.349,1.643A1.2,1.2,0,0,0,97.771-1.456ZM104.081,0H102.1V-7.4h1.982Zm-2.1-9.311a.973.973,0,0,1,.3-.731,1.117,1.117,0,0,1,.81-.287,1.12,1.12,0,0,1,.807.287.967.967,0,0,1,.3.731.97.97,0,0,1-.3.738,1.122,1.122,0,0,1-.8.287,1.122,1.122,0,0,1-.8-.287A.97.97,0,0,1,101.982-9.311Zm7.13,9.447a3.631,3.631,0,0,1-2.649-1,3.548,3.548,0,0,1-1.022-2.659v-.191a4.468,4.468,0,0,1,.431-1.993,3.161,3.161,0,0,1,1.22-1.354,3.425,3.425,0,0,1,1.8-.475,3.07,3.07,0,0,1,2.389.957,3.889,3.889,0,0,1,.872,2.714v.807h-4.71a1.835,1.835,0,0,0,.578,1.162,1.746,1.746,0,0,0,1.22.438,2.132,2.132,0,0,0,1.784-.827L112-1.2a2.966,2.966,0,0,1-1.2.981A3.947,3.947,0,0,1,109.112.137Zm-.226-6.077a1.234,1.234,0,0,0-.954.4,2.062,2.062,0,0,0-.468,1.14h2.748V-4.56a1.471,1.471,0,0,0-.355-1.02A1.274,1.274,0,0,0,108.887-5.94Zm8.545.4a5.367,5.367,0,0,0-.711-.055,1.447,1.447,0,0,0-1.47.759V0h-1.976V-7.4h1.866l.055.882a1.831,1.831,0,0,1,1.647-1.019,2.07,2.07,0,0,1,.615.089ZM122.463,0a2.194,2.194,0,0,1-.2-.663,2.39,2.39,0,0,1-1.866.8,2.626,2.626,0,0,1-1.8-.629,2.023,2.023,0,0,1-.714-1.586,2.09,2.09,0,0,1,.872-1.8,4.3,4.3,0,0,1,2.519-.636h.909v-.424a1.219,1.219,0,0,0-.263-.82,1.035,1.035,0,0,0-.831-.308,1.177,1.177,0,0,0-.783.239.813.813,0,0,0-.284.656h-1.976a1.985,1.985,0,0,1,.4-1.189,2.621,2.621,0,0,1,1.121-.858,4.086,4.086,0,0,1,1.627-.311,3.228,3.228,0,0,1,2.17.687,2.4,2.4,0,0,1,.8,1.931v3.206a3.536,3.536,0,0,0,.294,1.593V0Zm-1.634-1.374a1.7,1.7,0,0,0,.807-.195,1.28,1.28,0,0,0,.547-.523V-3.363h-.738q-1.483,0-1.579,1.025l-.007.116a.791.791,0,0,0,.26.608A1.009,1.009,0,0,0,120.829-1.374Z" transform="translate(854.542 7199.001)" fill="#1d445b"/>
    <path id="Trazado_894563" data-name="Trazado 894563" d="M473.425,148.6h-161.1a6.527,6.527,0,0,1-6.527-6.528v-27.5a6.527,6.527,0,0,1,6.527-6.528h161.1a6.527,6.527,0,0,1,6.528,6.528v27.5a6.527,6.527,0,0,1-6.528,6.528" transform="translate(707.165 7067.395)" fill="#ffc263"/>
    <path id="Trazado_905492" data-name="Trazado 905492" d="M0,0H744.844V171.816H0Z" transform="translate(641.456 7044.179)" fill="none"/>
    <path id="Trazado_905486" data-name="Trazado 905486" d="M8.764-1.258A3.56,3.56,0,0,1,7.2-.229,6.556,6.556,0,0,1,4.956.137,4.442,4.442,0,0,1,2.69-.427a3.762,3.762,0,0,1-1.5-1.637A5.762,5.762,0,0,1,.643-4.587v-.677a6.119,6.119,0,0,1,.5-2.581A3.717,3.717,0,0,1,2.594-9.512a4.174,4.174,0,0,1,2.218-.578,4.157,4.157,0,0,1,2.769.844A3.608,3.608,0,0,1,8.764-6.788h-2a1.985,1.985,0,0,0-.6-1.251,1.932,1.932,0,0,0-1.289-.4,1.818,1.818,0,0,0-1.593.786,4.134,4.134,0,0,0-.554,2.338v.636a3.935,3.935,0,0,0,.595,2.365,2.037,2.037,0,0,0,1.743.8A2.275,2.275,0,0,0,6.713-2V-3.719H4.847V-5.229H8.764ZM13.7.137a3.631,3.631,0,0,1-2.649-1,3.548,3.548,0,0,1-1.022-2.659v-.191A4.468,4.468,0,0,1,10.459-5.7a3.161,3.161,0,0,1,1.22-1.354,3.425,3.425,0,0,1,1.8-.475,3.07,3.07,0,0,1,2.389.957,3.889,3.889,0,0,1,.872,2.714v.807h-4.71a1.835,1.835,0,0,0,.578,1.162,1.746,1.746,0,0,0,1.22.438,2.132,2.132,0,0,0,1.784-.827L16.584-1.2a2.966,2.966,0,0,1-1.2.981A3.947,3.947,0,0,1,13.7.137ZM13.474-5.94a1.234,1.234,0,0,0-.954.4,2.062,2.062,0,0,0-.468,1.14H14.8V-4.56a1.471,1.471,0,0,0-.355-1.02A1.274,1.274,0,0,0,13.474-5.94Zm8.545.4a5.367,5.367,0,0,0-.711-.055,1.447,1.447,0,0,0-1.47.759V0H17.862V-7.4h1.866l.055.882a1.831,1.831,0,0,1,1.647-1.019,2.07,2.07,0,0,1,.615.089Zm4.1,5.681a3.631,3.631,0,0,1-2.649-1,3.548,3.548,0,0,1-1.022-2.659v-.191A4.468,4.468,0,0,1,22.877-5.7,3.161,3.161,0,0,1,24.1-7.058a3.425,3.425,0,0,1,1.8-.475,3.07,3.07,0,0,1,2.389.957,3.889,3.889,0,0,1,.872,2.714v.807h-4.71a1.835,1.835,0,0,0,.578,1.162,1.746,1.746,0,0,0,1.22.438,2.132,2.132,0,0,0,1.784-.827L29-1.2a2.966,2.966,0,0,1-1.2.981A3.947,3.947,0,0,1,26.117.137ZM25.892-5.94a1.234,1.234,0,0,0-.954.4A2.062,2.062,0,0,0,24.47-4.4h2.748V-4.56a1.471,1.471,0,0,0-.355-1.02A1.274,1.274,0,0,0,25.892-5.94ZM32.1-7.4l.062.854a2.582,2.582,0,0,1,2.126-.991,2.146,2.146,0,0,1,1.75.69,3.221,3.221,0,0,1,.588,2.064V0H34.648V-4.741a1.287,1.287,0,0,0-.273-.915,1.222,1.222,0,0,0-.909-.284,1.359,1.359,0,0,0-1.251.713V0H30.239V-7.4Zm9.1,5.94a1.3,1.3,0,0,0,.889-.3,1.054,1.054,0,0,0,.355-.8h1.853a2.534,2.534,0,0,1-.41,1.377,2.706,2.706,0,0,1-1.1.971,3.455,3.455,0,0,1-1.548.345,3.211,3.211,0,0,1-2.5-1.008,3.99,3.99,0,0,1-.916-2.786v-.13a3.944,3.944,0,0,1,.909-2.728,3.174,3.174,0,0,1,2.5-1.019,3.111,3.111,0,0,1,2.225.79,2.8,2.8,0,0,1,.851,2.1H42.441a1.358,1.358,0,0,0-.355-.938,1.185,1.185,0,0,0-.9-.361,1.19,1.19,0,0,0-1.042.5A2.916,2.916,0,0,0,39.789-3.8V-3.6a2.953,2.953,0,0,0,.349,1.643A1.2,1.2,0,0,0,41.2-1.456ZM47.507,0H45.524V-7.4h1.982Zm-2.1-9.311a.973.973,0,0,1,.3-.731,1.117,1.117,0,0,1,.81-.287,1.12,1.12,0,0,1,.807.287.967.967,0,0,1,.3.731.97.97,0,0,1-.3.738,1.122,1.122,0,0,1-.8.287,1.122,1.122,0,0,1-.8-.287A.97.97,0,0,1,45.408-9.311ZM53.42,0a2.194,2.194,0,0,1-.2-.663,2.39,2.39,0,0,1-1.866.8,2.626,2.626,0,0,1-1.8-.629,2.023,2.023,0,0,1-.714-1.586,2.09,2.09,0,0,1,.872-1.8,4.3,4.3,0,0,1,2.519-.636h.909v-.424a1.219,1.219,0,0,0-.263-.82,1.035,1.035,0,0,0-.831-.308,1.177,1.177,0,0,0-.783.239.813.813,0,0,0-.284.656H49a1.984,1.984,0,0,1,.4-1.189,2.621,2.621,0,0,1,1.121-.858,4.086,4.086,0,0,1,1.627-.311,3.228,3.228,0,0,1,2.17.687,2.4,2.4,0,0,1,.8,1.931v3.206a3.536,3.536,0,0,0,.294,1.593V0ZM51.786-1.374a1.7,1.7,0,0,0,.807-.195,1.28,1.28,0,0,0,.547-.523V-3.363H52.4q-1.483,0-1.579,1.025l-.007.116a.791.791,0,0,0,.26.608A1.009,1.009,0,0,0,51.786-1.374Zm8.032-2.379a4.457,4.457,0,0,1,.776-2.755,2.517,2.517,0,0,1,2.123-1.025,2.265,2.265,0,0,1,1.784.807V-10.5h1.982V0H64.7l-.1-.786a2.325,2.325,0,0,1-1.9.923,2.511,2.511,0,0,1-2.1-1.029A4.6,4.6,0,0,1,59.818-3.753Zm1.976.141a2.936,2.936,0,0,0,.362,1.6,1.179,1.179,0,0,0,1.053.556A1.321,1.321,0,0,0,64.5-2.232V-5.164a1.3,1.3,0,0,0-1.278-.776Q61.794-5.94,61.794-3.612ZM71.419.137a3.631,3.631,0,0,1-2.649-1,3.548,3.548,0,0,1-1.022-2.659v-.191A4.468,4.468,0,0,1,68.179-5.7,3.161,3.161,0,0,1,69.4-7.058a3.425,3.425,0,0,1,1.8-.475,3.07,3.07,0,0,1,2.389.957,3.889,3.889,0,0,1,.872,2.714v.807h-4.71a1.835,1.835,0,0,0,.578,1.162,1.746,1.746,0,0,0,1.22.438,2.132,2.132,0,0,0,1.784-.827L74.3-1.2a2.966,2.966,0,0,1-1.2.981A3.947,3.947,0,0,1,71.419.137ZM71.193-5.94a1.234,1.234,0,0,0-.954.4,2.062,2.062,0,0,0-.468,1.14H72.52V-4.56a1.471,1.471,0,0,0-.355-1.02A1.274,1.274,0,0,0,71.193-5.94Zm11.689,2.3H81.249V0H79.2V-9.953h3.7a4.181,4.181,0,0,1,2.721.786,2.713,2.713,0,0,1,.957,2.222,3.062,3.062,0,0,1-.441,1.7A3.007,3.007,0,0,1,84.8-4.163L86.95-.1V0h-2.2ZM81.249-5.3H82.9A1.694,1.694,0,0,0,84.1-5.7a1.4,1.4,0,0,0,.424-1.083,1.5,1.5,0,0,0-.4-1.107,1.662,1.662,0,0,0-1.227-.4H81.249ZM91.407.137a3.631,3.631,0,0,1-2.649-1,3.548,3.548,0,0,1-1.022-2.659v-.191A4.468,4.468,0,0,1,88.167-5.7a3.161,3.161,0,0,1,1.22-1.354,3.425,3.425,0,0,1,1.8-.475,3.07,3.07,0,0,1,2.389.957,3.889,3.889,0,0,1,.872,2.714v.807h-4.71a1.835,1.835,0,0,0,.578,1.162,1.746,1.746,0,0,0,1.22.438,2.132,2.132,0,0,0,1.784-.827L94.292-1.2a2.966,2.966,0,0,1-1.2.981A3.947,3.947,0,0,1,91.407.137ZM91.182-5.94a1.234,1.234,0,0,0-.954.4A2.062,2.062,0,0,0,89.76-4.4h2.748V-4.56a1.471,1.471,0,0,0-.355-1.02A1.274,1.274,0,0,0,91.182-5.94Zm7.465,4.484a1.3,1.3,0,0,0,.889-.3,1.054,1.054,0,0,0,.355-.8h1.853a2.534,2.534,0,0,1-.41,1.377,2.706,2.706,0,0,1-1.1.971,3.455,3.455,0,0,1-1.548.345,3.211,3.211,0,0,1-2.5-1.008,3.99,3.99,0,0,1-.916-2.786v-.13a3.944,3.944,0,0,1,.909-2.728,3.174,3.174,0,0,1,2.5-1.019,3.111,3.111,0,0,1,2.225.79,2.8,2.8,0,0,1,.851,2.1H99.891a1.358,1.358,0,0,0-.355-.938,1.185,1.185,0,0,0-.9-.361,1.19,1.19,0,0,0-1.042.5A2.916,2.916,0,0,0,97.238-3.8V-3.6a2.953,2.953,0,0,0,.349,1.643A1.2,1.2,0,0,0,98.646-1.456Zm8.654.7a2.477,2.477,0,0,1-2.023.889,2.337,2.337,0,0,1-1.815-.684,2.918,2.918,0,0,1-.639-2V-7.4H104.8v4.784q0,1.157,1.053,1.157a1.426,1.426,0,0,0,1.381-.7V-7.4h1.982V0h-1.859Zm7.561-4.792a5.367,5.367,0,0,0-.711-.055,1.447,1.447,0,0,0-1.47.759V0h-1.976V-7.4h1.866l.055.882a1.831,1.831,0,0,1,1.647-1.019,2.07,2.07,0,0,1,.615.089Zm4.956,3.5a.637.637,0,0,0-.359-.571,4.077,4.077,0,0,0-1.152-.373q-2.639-.554-2.639-2.242a2.032,2.032,0,0,1,.817-1.644,3.3,3.3,0,0,1,2.136-.66,3.547,3.547,0,0,1,2.252.663,2.09,2.09,0,0,1,.844,1.723h-1.976a.956.956,0,0,0-.273-.7,1.157,1.157,0,0,0-.854-.277,1.182,1.182,0,0,0-.772.226.712.712,0,0,0-.273.574.609.609,0,0,0,.311.53,3.2,3.2,0,0,0,1.049.349,8.571,8.571,0,0,1,1.244.332,2.044,2.044,0,0,1,1.565,1.989,1.929,1.929,0,0,1-.868,1.637,3.745,3.745,0,0,1-2.242.625,3.912,3.912,0,0,1-1.651-.332,2.77,2.77,0,0,1-1.131-.909,2.113,2.113,0,0,1-.41-1.248h1.873a1.031,1.031,0,0,0,.39.807,1.546,1.546,0,0,0,.971.28,1.43,1.43,0,0,0,.858-.215A.67.67,0,0,0,119.817-2.044ZM122.7-3.767a4.387,4.387,0,0,1,.424-1.962,3.1,3.1,0,0,1,1.22-1.333,3.56,3.56,0,0,1,1.849-.472,3.368,3.368,0,0,1,2.444.916A3.676,3.676,0,0,1,129.7-4.129l.014.506a3.866,3.866,0,0,1-.95,2.731,3.3,3.3,0,0,1-2.55,1.029,3.319,3.319,0,0,1-2.553-1.025,3.934,3.934,0,0,1-.954-2.789Zm1.976.14a2.765,2.765,0,0,0,.4,1.612,1.308,1.308,0,0,0,1.135.558,1.311,1.311,0,0,0,1.121-.551,3.025,3.025,0,0,0,.4-1.763,2.737,2.737,0,0,0-.4-1.6A1.311,1.311,0,0,0,126.2-5.94a1.29,1.29,0,0,0-1.121.565A3.076,3.076,0,0,0,124.678-3.626Zm10.254,1.582a.637.637,0,0,0-.359-.571,4.077,4.077,0,0,0-1.152-.373q-2.639-.554-2.639-2.242a2.032,2.032,0,0,1,.817-1.644,3.3,3.3,0,0,1,2.136-.66,3.547,3.547,0,0,1,2.252.663,2.09,2.09,0,0,1,.844,1.723h-1.976a.956.956,0,0,0-.273-.7,1.157,1.157,0,0,0-.854-.277,1.182,1.182,0,0,0-.772.226.712.712,0,0,0-.273.574.609.609,0,0,0,.311.53,3.2,3.2,0,0,0,1.049.349,8.571,8.571,0,0,1,1.244.332,2.044,2.044,0,0,1,1.565,1.989,1.929,1.929,0,0,1-.868,1.637,3.745,3.745,0,0,1-2.242.625,3.912,3.912,0,0,1-1.651-.332A2.77,2.77,0,0,1,130.96-1.1a2.113,2.113,0,0,1-.41-1.248h1.873a1.031,1.031,0,0,0,.39.807,1.546,1.546,0,0,0,.971.28,1.43,1.43,0,0,0,.858-.215A.67.67,0,0,0,134.932-2.044Z" transform="translate(1029.671 7199.001)" fill="#1d445b"/>
    <path id="Trazado_894564" data-name="Trazado 894564" d="M639.128,148.6H467.4a6.732,6.732,0,0,1-6.732-6.732v-27.1a6.732,6.732,0,0,1,6.732-6.732H639.128a6.732,6.732,0,0,1,6.732,6.732v27.1a6.732,6.732,0,0,1-6.732,6.732" transform="translate(740.44 7067.395)" fill="#ffc263"/>
    <path id="Trazado_905493" data-name="Trazado 905493" d="M0,0H744.844V171.816H0Z" transform="translate(641.456 7044.179)" fill="none"/>
    <path id="Trazado_905487" data-name="Trazado 905487" d="M12.25-1.258A3.56,3.56,0,0,1,10.685-.229,6.556,6.556,0,0,1,8.442.137,4.442,4.442,0,0,1,6.176-.427a3.762,3.762,0,0,1-1.5-1.637,5.762,5.762,0,0,1-.543-2.522v-.677a6.119,6.119,0,0,1,.5-2.581A3.717,3.717,0,0,1,6.081-9.512,4.174,4.174,0,0,1,8.3-10.09a4.157,4.157,0,0,1,2.769.844A3.608,3.608,0,0,1,12.25-6.788h-2a1.985,1.985,0,0,0-.6-1.251,1.932,1.932,0,0,0-1.289-.4,1.818,1.818,0,0,0-1.593.786,4.134,4.134,0,0,0-.554,2.338v.636a3.935,3.935,0,0,0,.595,2.365,2.037,2.037,0,0,0,1.743.8A2.275,2.275,0,0,0,10.2-2V-3.719H8.333V-5.229H12.25ZM17.186.137a3.631,3.631,0,0,1-2.649-1,3.548,3.548,0,0,1-1.022-2.659v-.191A4.468,4.468,0,0,1,13.945-5.7a3.161,3.161,0,0,1,1.22-1.354,3.425,3.425,0,0,1,1.8-.475,3.07,3.07,0,0,1,2.389.957,3.889,3.889,0,0,1,.872,2.714v.807h-4.71A1.835,1.835,0,0,0,16.1-1.894a1.746,1.746,0,0,0,1.22.438A2.132,2.132,0,0,0,19.1-2.283L20.07-1.2a2.966,2.966,0,0,1-1.2.981A3.947,3.947,0,0,1,17.186.137ZM16.96-5.94a1.234,1.234,0,0,0-.954.4,2.062,2.062,0,0,0-.468,1.14h2.748V-4.56a1.471,1.471,0,0,0-.355-1.02A1.274,1.274,0,0,0,16.96-5.94Zm8.545.4a5.367,5.367,0,0,0-.711-.055,1.447,1.447,0,0,0-1.47.759V0H21.349V-7.4h1.866l.055.882a1.831,1.831,0,0,1,1.647-1.019,2.07,2.07,0,0,1,.615.089ZM29.6.137a3.631,3.631,0,0,1-2.649-1,3.548,3.548,0,0,1-1.022-2.659v-.191A4.468,4.468,0,0,1,26.363-5.7a3.161,3.161,0,0,1,1.22-1.354,3.425,3.425,0,0,1,1.8-.475,3.07,3.07,0,0,1,2.389.957,3.889,3.889,0,0,1,.872,2.714v.807h-4.71a1.835,1.835,0,0,0,.578,1.162,1.746,1.746,0,0,0,1.22.438,2.132,2.132,0,0,0,1.784-.827L32.488-1.2a2.966,2.966,0,0,1-1.2.981A3.947,3.947,0,0,1,29.6.137ZM29.378-5.94a1.234,1.234,0,0,0-.954.4,2.062,2.062,0,0,0-.468,1.14H30.7V-4.56a1.471,1.471,0,0,0-.355-1.02A1.274,1.274,0,0,0,29.378-5.94ZM35.585-7.4l.062.854a2.582,2.582,0,0,1,2.126-.991,2.146,2.146,0,0,1,1.75.69,3.221,3.221,0,0,1,.588,2.064V0H38.135V-4.741a1.287,1.287,0,0,0-.273-.915,1.222,1.222,0,0,0-.909-.284,1.359,1.359,0,0,0-1.251.713V0H33.726V-7.4Zm9.1,5.94a1.3,1.3,0,0,0,.889-.3,1.054,1.054,0,0,0,.355-.8H47.78a2.534,2.534,0,0,1-.41,1.377,2.706,2.706,0,0,1-1.1.971,3.455,3.455,0,0,1-1.548.345,3.211,3.211,0,0,1-2.5-1.008A3.99,3.99,0,0,1,41.3-3.657v-.13a3.944,3.944,0,0,1,.909-2.728,3.174,3.174,0,0,1,2.5-1.019,3.111,3.111,0,0,1,2.225.79,2.8,2.8,0,0,1,.851,2.1H45.928a1.358,1.358,0,0,0-.355-.938,1.185,1.185,0,0,0-.9-.361,1.19,1.19,0,0,0-1.042.5A2.916,2.916,0,0,0,43.275-3.8V-3.6a2.953,2.953,0,0,0,.349,1.643A1.2,1.2,0,0,0,44.684-1.456ZM50.993,0H49.011V-7.4h1.982Zm-2.1-9.311a.973.973,0,0,1,.3-.731,1.117,1.117,0,0,1,.81-.287,1.12,1.12,0,0,1,.807.287.967.967,0,0,1,.3.731.97.97,0,0,1-.3.738,1.122,1.122,0,0,1-.8.287,1.122,1.122,0,0,1-.8-.287A.97.97,0,0,1,48.895-9.311ZM56.906,0a2.194,2.194,0,0,1-.2-.663,2.39,2.39,0,0,1-1.866.8,2.626,2.626,0,0,1-1.8-.629,2.023,2.023,0,0,1-.714-1.586,2.09,2.09,0,0,1,.872-1.8,4.3,4.3,0,0,1,2.519-.636h.909v-.424a1.219,1.219,0,0,0-.263-.82,1.035,1.035,0,0,0-.831-.308,1.177,1.177,0,0,0-.783.239.813.813,0,0,0-.284.656H52.49a1.984,1.984,0,0,1,.4-1.189,2.621,2.621,0,0,1,1.121-.858,4.086,4.086,0,0,1,1.627-.311,3.228,3.228,0,0,1,2.17.687,2.4,2.4,0,0,1,.8,1.931v3.206A3.536,3.536,0,0,0,58.9-.116V0ZM55.272-1.374a1.7,1.7,0,0,0,.807-.195,1.28,1.28,0,0,0,.547-.523V-3.363h-.738q-1.483,0-1.579,1.025l-.007.116a.791.791,0,0,0,.26.608A1.009,1.009,0,0,0,55.272-1.374Zm14.089-.677h-3.6L65.082,0H62.9l3.705-9.953h1.9L72.232,0H70.052ZM66.319-3.712h2.488L67.557-7.437Zm6.405-.041A4.457,4.457,0,0,1,73.5-6.508a2.517,2.517,0,0,1,2.123-1.025,2.265,2.265,0,0,1,1.784.807V-10.5H79.39V0H77.605l-.1-.786a2.325,2.325,0,0,1-1.9.923,2.511,2.511,0,0,1-2.1-1.029A4.6,4.6,0,0,1,72.725-3.753Zm1.976.141a2.936,2.936,0,0,0,.362,1.6,1.179,1.179,0,0,0,1.053.556,1.321,1.321,0,0,0,1.292-.776V-5.164a1.3,1.3,0,0,0-1.278-.776Q74.7-5.94,74.7-3.612ZM82.773-7.4l.062.827a2.6,2.6,0,0,1,2.126-.964,1.973,1.973,0,0,1,1.962,1.128,2.54,2.54,0,0,1,2.222-1.128,2.206,2.206,0,0,1,1.791.7,3.221,3.221,0,0,1,.588,2.109V0H89.541V-4.728a1.414,1.414,0,0,0-.246-.922,1.089,1.089,0,0,0-.868-.291,1.233,1.233,0,0,0-1.23.85L87.2,0H85.228V-4.721a1.4,1.4,0,0,0-.253-.932,1.1,1.1,0,0,0-.861-.288,1.28,1.28,0,0,0-1.217.7V0H80.921V-7.4ZM95.126,0H93.144V-7.4h1.982Zm-2.1-9.311a.973.973,0,0,1,.3-.731,1.117,1.117,0,0,1,.81-.287,1.12,1.12,0,0,1,.807.287.967.967,0,0,1,.3.731.97.97,0,0,1-.3.738,1.122,1.122,0,0,1-.8.287,1.122,1.122,0,0,1-.8-.287A.97.97,0,0,1,93.027-9.311ZM98.571-7.4l.062.854a2.582,2.582,0,0,1,2.126-.991,2.146,2.146,0,0,1,1.75.69,3.221,3.221,0,0,1,.588,2.064V0h-1.976V-4.741a1.287,1.287,0,0,0-.273-.915,1.222,1.222,0,0,0-.909-.284,1.359,1.359,0,0,0-1.251.713V0H96.712V-7.4ZM106.679,0H104.7V-7.4h1.982Zm-2.1-9.311a.973.973,0,0,1,.3-.731,1.117,1.117,0,0,1,.81-.287,1.12,1.12,0,0,1,.807.287.967.967,0,0,1,.3.731.97.97,0,0,1-.3.738,1.122,1.122,0,0,1-.8.287,1.122,1.122,0,0,1-.8-.287A.97.97,0,0,1,104.58-9.311Zm7.731,7.267a.637.637,0,0,0-.359-.571,4.077,4.077,0,0,0-1.152-.373q-2.639-.554-2.639-2.242a2.032,2.032,0,0,1,.817-1.644,3.3,3.3,0,0,1,2.136-.66,3.547,3.547,0,0,1,2.252.663,2.09,2.09,0,0,1,.844,1.723h-1.976a.956.956,0,0,0-.273-.7,1.157,1.157,0,0,0-.854-.277,1.182,1.182,0,0,0-.772.226.712.712,0,0,0-.273.574.609.609,0,0,0,.311.53,3.2,3.2,0,0,0,1.049.349,8.571,8.571,0,0,1,1.244.332,2.044,2.044,0,0,1,1.565,1.989,1.929,1.929,0,0,1-.868,1.637,3.745,3.745,0,0,1-2.242.625,3.912,3.912,0,0,1-1.651-.332A2.77,2.77,0,0,1,108.34-1.1a2.113,2.113,0,0,1-.41-1.248H109.8a1.031,1.031,0,0,0,.39.807,1.546,1.546,0,0,0,.971.28,1.43,1.43,0,0,0,.858-.215A.67.67,0,0,0,112.312-2.044Zm5.558-7.171V-7.4h1.265v1.449h-1.265v3.691a.881.881,0,0,0,.157.588.79.79,0,0,0,.6.178,3.15,3.15,0,0,0,.581-.048v1.5a4.067,4.067,0,0,1-1.2.178,1.886,1.886,0,0,1-2.119-2.1V-5.947h-1.08V-7.4h1.08V-9.215Zm6.521,3.671a5.367,5.367,0,0,0-.711-.055,1.447,1.447,0,0,0-1.47.759V0h-1.976V-7.4H122.1l.055.882A1.831,1.831,0,0,1,123.8-7.533a2.07,2.07,0,0,1,.615.089ZM129.422,0a2.194,2.194,0,0,1-.2-.663,2.39,2.39,0,0,1-1.866.8,2.626,2.626,0,0,1-1.8-.629,2.023,2.023,0,0,1-.714-1.586,2.09,2.09,0,0,1,.872-1.8,4.3,4.3,0,0,1,2.519-.636h.909v-.424a1.219,1.219,0,0,0-.263-.82,1.035,1.035,0,0,0-.831-.308,1.177,1.177,0,0,0-.783.239.813.813,0,0,0-.284.656h-1.976a1.985,1.985,0,0,1,.4-1.189,2.621,2.621,0,0,1,1.121-.858,4.086,4.086,0,0,1,1.627-.311,3.228,3.228,0,0,1,2.17.687,2.4,2.4,0,0,1,.8,1.931v3.206a3.536,3.536,0,0,0,.294,1.593V0Zm-1.634-1.374a1.7,1.7,0,0,0,.807-.195,1.28,1.28,0,0,0,.547-.523V-3.363H128.4q-1.483,0-1.579,1.025l-.007.116a.791.791,0,0,0,.26.608A1.009,1.009,0,0,0,127.788-1.374Zm7.219-7.841V-7.4h1.265v1.449h-1.265v3.691a.881.881,0,0,0,.157.588.79.79,0,0,0,.6.178,3.151,3.151,0,0,0,.581-.048v1.5a4.067,4.067,0,0,1-1.2.178,1.886,1.886,0,0,1-2.119-2.1V-5.947h-1.08V-7.4h1.08V-9.215ZM139.457,0h-1.982V-7.4h1.982Zm-2.1-9.311a.973.973,0,0,1,.3-.731,1.117,1.117,0,0,1,.81-.287,1.12,1.12,0,0,1,.807.287.967.967,0,0,1,.3.731.97.97,0,0,1-.3.738,1.122,1.122,0,0,1-.8.287,1.122,1.122,0,0,1-.8-.287A.97.97,0,0,1,137.358-9.311Zm6.494,6.9L145.227-7.4h2.064L144.8,0h-1.887l-2.5-7.4h2.064ZM152.273,0a2.194,2.194,0,0,1-.2-.663,2.39,2.39,0,0,1-1.866.8,2.626,2.626,0,0,1-1.8-.629,2.023,2.023,0,0,1-.714-1.586,2.09,2.09,0,0,1,.872-1.8,4.3,4.3,0,0,1,2.519-.636h.909v-.424a1.219,1.219,0,0,0-.263-.82,1.035,1.035,0,0,0-.831-.308,1.177,1.177,0,0,0-.783.239.813.813,0,0,0-.284.656h-1.976a1.984,1.984,0,0,1,.4-1.189,2.621,2.621,0,0,1,1.121-.858A4.086,4.086,0,0,1,151-7.533a3.228,3.228,0,0,1,2.17.687,2.4,2.4,0,0,1,.8,1.931v3.206a3.536,3.536,0,0,0,.294,1.593V0Zm-1.634-1.374a1.7,1.7,0,0,0,.807-.195,1.28,1.28,0,0,0,.547-.523V-3.363h-.738q-1.483,0-1.579,1.025l-.007.116a.791.791,0,0,0,.26.608A1.009,1.009,0,0,0,150.639-1.374Zm4.956.4a1,1,0,0,1,.318-.766,1.128,1.128,0,0,1,.8-.294,1.137,1.137,0,0,1,.8.294,1,1,0,0,1,.318.766.981.981,0,0,1-.314.755,1.142,1.142,0,0,1-.807.291,1.133,1.133,0,0,1-.8-.291A.981.981,0,0,1,155.6-.971Z" transform="translate(1209.511 7199.001)" fill="#1d445b"/>
    <path id="Trazado_905494" data-name="Trazado 905494" d="M0,44.939V0" transform="translate(913.679 7135.312)" fill="none" stroke="#ffc263" stroke-width="1.18"/>
    <path id="Trazado_905495" data-name="Trazado 905495" d="M0,44.939V0" transform="translate(996.654 7079.094)" fill="none" stroke="#ffc263" stroke-width="1.18"/>
    <path id="Trazado_905496" data-name="Trazado 905496" d="M0,44.939V0" transform="translate(1100.042 7135.312)" fill="none" stroke="#ffc263" stroke-width="1.18"/>
    <path id="Trazado_905497" data-name="Trazado 905497" d="M0,0H744.844V171.816H0Z" transform="translate(641.456 7044.179)" fill="none"/>
  </g>
</svg>
