<svg xmlns="http://www.w3.org/2000/svg" xmlns:xlink="http://www.w3.org/1999/xlink" width="472" height="320.332" viewBox="0 0 472 320.332">
  <defs>
    <clipPath id="clip-path">
      <rect id="Rectángulo_402497" data-name="Rectángulo 402497" width="422.643" height="271.248" fill="none"/>
    </clipPath>
  </defs>
  <g id="Grupo_1103368" data-name="Grupo 1103368" transform="translate(2074 8177.564)">
    <rect id="Rectángulo_402211" data-name="Rectángulo 402211" width="472" height="320.332" transform="translate(-2074 -8177.564)" fill="#d6e6ce"/>
    <g id="Grupo_1101972" data-name="Grupo 1101972" transform="translate(-2044 -8141.393)">
      <g id="Grupo_1101971" data-name="Grupo 1101971" clip-path="url(#clip-path)">
        <path id="Trazado_893508" data-name="Trazado 893508" d="M112.772,215.48c-18.889.227-36.16,2.224-54.829,2.759-9.439.271-40.423-.471-46.406,4.819C2.094,231.4,27.063,230.892,24.508,237.2c-.506,1.251-2.412,2.111-3.573,3.2-2.084,1.957-1.549,4.623.651,6.537,9.636,8.377,44.869,5.941,59.672,6.083,85.64.82,171.511,1.8,256.677-.972,18.367-.6,36.628-1.35,54.916-2.054,8.369-.321,18.844-1.159,18.878-3.037.084-4.753-15.839.237-10.571-9.25,1.693-3.048,10.435-3.653,6-8.875-4.875-5.741-16.136-10.175-26.542-11.627-10.63-1.481-21.565-1.249-32.375-1.721-19.844-.864-39.777-1.028-59.683-1.106-45.157-.175-90.316.118-135.463.573-13.436.135-26.88.362-40.324.523" transform="translate(0.761 17.362)" fill="#aecf9d"/>
        <rect id="Rectángulo_402486" data-name="Rectángulo 402486" width="1.931" height="59.166" transform="translate(16.168 78.098) rotate(-87.398)" fill="#f7f7f7"/>
        <rect id="Rectángulo_402487" data-name="Rectángulo 402487" width="1.931" height="71.472" transform="translate(31.633 23.243) rotate(-36.898)" fill="#f7f7f7"/>
        <path id="Trazado_893509" data-name="Trazado 893509" d="M230.159,110.484l.259-4.467,1.913-.1.5,3.054.911-.464-.688,3.826-1.993.368Z" transform="translate(18.644 8.58)" fill="#efbbbb"/>
        <path id="Trazado_893510" data-name="Trazado 893510" d="M255.106,127.848,240.931,126.6l-6.983-16.738-3.857,1.262,3.657,23.152,22.143,4.026Z" transform="translate(18.638 8.9)" fill="#dddae8"/>
        <path id="Trazado_893511" data-name="Trazado 893511" d="M65.9,102.434l-.649-4.443-1.921.07-.233,3.1-.951-.385,1.02,3.765,2.025.194Z" transform="translate(5.034 7.938)" fill="#efbbbb"/>
        <path id="Trazado_893512" data-name="Trazado 893512" d="M39.928,123.924l20.409-3.985,3.55-17.81,3.965.925-1.133,24.737-20.366,6.8Z" transform="translate(3.234 8.273)" fill="#353a85"/>
        <path id="Trazado_893513" data-name="Trazado 893513" d="M118.481,226.4a1.683,1.683,0,0,0-1.523-.653,1.72,1.72,0,0,0-1.279.964,3.25,3.25,0,0,0-.219,1.1c-.16,1.932-.145,6.516,2.427,7.177a1.915,1.915,0,0,0,2.265-1.462c.435-1.463-.21-5.514-1.67-7.123" transform="translate(9.348 18.285)" fill="#292949"/>
        <path id="Trazado_893514" data-name="Trazado 893514" d="M119.607,200.584l-.135,11.78c.157,5.233-.66,10.494-.5,15.728a13.217,13.217,0,0,1,.046,3.665c-.3,1.166-1.244,1.373-2.217.782-1.3-.791-1.094-2.64-1.31-3.988-.6-3.706-1.3-7.393-1.92-11.094-.3-1.814.324-4.358.188-6.193l-1.9-9.873Z" transform="translate(9.06 16.248)" fill="#b77b70"/>
        <path id="Trazado_893515" data-name="Trazado 893515" d="M106.646,183l5.127,22.775,1.089,21.508,8.13-.183,2.211-60.16-15.76.286Z" transform="translate(8.639 13.522)" fill="#dfdcee"/>
        <path id="Trazado_893516" data-name="Trazado 893516" d="M129.229,226a1.651,1.651,0,0,0-1.546-.563,1.753,1.753,0,0,0-1.233,1.04,3.3,3.3,0,0,0-.172,1.11c-.077,1.943.134,6.53,2.726,7.039a1.946,1.946,0,0,0,2.193-1.6c.371-1.49-.443-5.507-1.969-7.03" transform="translate(10.228 18.259)" fill="#292949"/>
        <path id="Trazado_893517" data-name="Trazado 893517" d="M125.043,200.931l.69,11.76c.056,3.269.492,6.512.83,9.758.315,3.016-.175,6.156,1.4,8.9.494.86,1.494,1.432,2.191.388.538-.805.218-2.149.322-3.062.421-3.728.946-7.445,1.393-11.171.219-1.827-.529-4.337-.479-6.178l1.436-9.95Z" transform="translate(10.129 16.276)" fill="#b77b70"/>
        <path id="Trazado_893518" data-name="Trazado 893518" d="M135.8,181.572l.662,22.108-3.469,22.356-8.27.248.364-24.2-4.376-20.064-1.469-13.134,13.122-1.548Z" transform="translate(9.659 13.555)" fill="#dfdcee"/>
        <path id="Trazado_893519" data-name="Trazado 893519" d="M126.631,125.513l-14.136-.337-8.2,15.243,2.913,14.278.519,17.086,20.165.275,6.634-1.077-1.761-18.257,1.01-24.386Z" transform="translate(8.449 10.14)" fill="#292949"/>
        <path id="Trazado_893520" data-name="Trazado 893520" d="M107.477,163.322l-.65,2.361,3.311,2.7,2.572-1.16.679-2.773-2.018-.783.085-.63-.551-.706Z" transform="translate(8.653 13.15)" fill="#b77b70"/>
        <path id="Trazado_893521" data-name="Trazado 893521" d="M113.384,125.676,96.116,144.624l-2.6,7.668,14.116,14.8,4.281-2.881-9.051-12.381,8.637-6.4Z" transform="translate(7.576 10.18)" fill="#292949"/>
        <path id="Trazado_893522" data-name="Trazado 893522" d="M124.463,134.512l7.364,14.72,7.939,1.578,15.306-12.935-3.412-3.87L138.1,141.6,130.9,128.1Z" transform="translate(10.082 10.377)" fill="#292949"/>
        <path id="Trazado_893523" data-name="Trazado 893523" d="M124.985,115.99c-2.131-6.2-10.311-3.874-12,1.643-1.1,3.6,1.68,8.269,5.408,9.3a3.564,3.564,0,0,1,.029.386,12.057,12.057,0,0,0,.159,1.724c.032.215,3.3-.412,3.659-.483a.492.492,0,0,0,.338-.166c.132-.2-.082-.809-.106-1.036-.029-.269-.057-.537-.085-.806a6.435,6.435,0,0,0,3.324-4.756,11.946,11.946,0,0,0-.73-5.807" transform="translate(9.133 9.096)" fill="#b77b70"/>
        <path id="Trazado_893524" data-name="Trazado 893524" d="M119.265,109.418a3.243,3.243,0,0,0-.737,1.663,2.6,2.6,0,0,0-.065,1.078c.3,1.406,1.7,1.333,2.778,1.786a7.2,7.2,0,0,1,3.222,2.774c1.166,1.856.642,4.245.169,6.293-.166.721-.5,1.794.057,2.438a2.4,2.4,0,0,0,2.564.216c.623-.307,1.133-.876,1.817-.99.723-.121,1.7.2,2.037-.467a4.712,4.712,0,0,1,.221-.579c.4-.571,1.393.1,1.957-.3a1.1,1.1,0,0,0,.227-1.193,2.824,2.824,0,0,1-.232-1.266,4.144,4.144,0,0,1,.5-.987,1.941,1.941,0,0,0-.269-2.065c-.89-1.031-2.614-.836-3.567-1.805a4.2,4.2,0,0,1-.876-1.922,3.692,3.692,0,0,0-.938-1.884c-.657-.576-1.605-.479-2.253-1.163a13.324,13.324,0,0,0-1.06-1.276,8.59,8.59,0,0,0-2.364-1.051,3.073,3.073,0,0,0-3.182.707" transform="translate(9.593 8.792)" fill="#292949"/>
        <path id="Trazado_893525" data-name="Trazado 893525" d="M115.516,119.582c-.038,2.04.975,4.244.036,6.04-.948,1.811-3.311,2.137-5.326,2.232-.331.015-4.581.383-4.6.3a13.829,13.829,0,0,0-1.39-4.116,4.531,4.531,0,0,0-3.405-2.368.873.873,0,0,0,.57-1,6.745,6.745,0,0,0-.393-1.212,2.855,2.855,0,0,1,.746-2.869c1.5-1.4,4.23-.819,5.519-2.429.8-1,.7-2.445,1.123-3.665.81-2.357,3.39-2.85,5.317-3.913a9.234,9.234,0,0,1,6.3-1.347c2.912.485,5.076,3.449,3.953,6.24-1.441,3.579-7.2,3.27-8.278,6.9a4.5,4.5,0,0,0-.173,1.2" transform="translate(8.168 8.515)" fill="#292949"/>
        <path id="Trazado_893526" data-name="Trazado 893526" d="M115.749,125.432l4.386,6.2,2.061-.169,3.437-6.286Z" transform="translate(9.376 10.14)" fill="#fff"/>
        <rect id="Rectángulo_402488" data-name="Rectángulo 402488" width="1.93" height="71.571" transform="translate(300.035 23.347) rotate(-82.409)" fill="#f7f7f7"/>
        <rect id="Rectángulo_402489" data-name="Rectángulo 402489" width="1.931" height="102.07" transform="translate(62.708 87.531) rotate(-46.832)" fill="#f7f7f7"/>
        <rect id="Rectángulo_402490" data-name="Rectángulo 402490" width="1.93" height="111.005" transform="translate(300.253 27.916) rotate(-55.858)" fill="#f7f7f7"/>
        <path id="Trazado_893527" data-name="Trazado 893527" d="M29.866,160.189a63.6,63.6,0,0,0,1.318-8.571c.152-5.325.835-22.912.835-22.912l3.3-6.727.611.007-.132-.015a4.61,4.61,0,0,0-.053-1.467c-5.763.346-11.669,3.367-13.323,8.979a7.041,7.041,0,0,0-.281,1.415c-.23,2.883.651,5.013-.182,7.908-.722,2.516-1.377,5.069-1.858,7.643-.7,3.726-1.338,7.435-1.845,11.134a114.039,114.039,0,0,0-1.069,12.241c-.013.449-.1,1.7-.155,3.2-.106,3.142-.038,7.343,1.285,7.5a1.3,1.3,0,0,0,.7-.186,46.814,46.814,0,0,0,4.542-2.85l.081-16.386Z" transform="translate(1.377 9.761)" fill="#353a85"/>
        <path id="Trazado_893528" data-name="Trazado 893528" d="M58.581,177.014c-.338-3.487-.69-6.974-1.119-10.45a128.878,128.878,0,0,0-3.991-20.569c-.752-2.565-1.622-5.094-2.49-7.622l-3.172-9.236c-1.313-3.827-3.532-6.523-7.415-7.861a14.645,14.645,0,0,0-2.176-.558,2.42,2.42,0,0,0-.045.243A1.984,1.984,0,0,1,37.791,122l2.549.024s7.191,25.129,7.455,29.461c.1,1.646.435,5.24.806,9.026l3.9.575.168,14.481c.218.063.437.124.652.182A11.232,11.232,0,0,1,56.6,177.69c1.52,1.046,2.187,1.46,1.979-.677" transform="translate(3.061 9.778)" fill="#353a85"/>
        <path id="Trazado_893529" data-name="Trazado 893529" d="M42.1,169.447l-.864.066-2.8,26.88,3.007,39.094h.028v-.59h5.017l6.363-43.534-.228-19.74c-3.042-.875-6.336-2.224-9.513-2.2-.337,0-.676.012-1.013.019" transform="translate(3.113 13.724)" fill="#353a85"/>
        <path id="Trazado_893530" data-name="Trazado 893530" d="M48.275,157.531c.588,5.992,1.27,12.465,1.27,12.465s-3.157.075-7.724.415c.338-.008.677-.016,1.014-.019,3.176-.028,6.471,1.321,9.512,2.2l-.168-14.482Z" transform="translate(3.388 12.761)" fill="#353a85"/>
        <path id="Trazado_893531" data-name="Trazado 893531" d="M41.243,230.582v2.091l5.363,2.682,2.681-2.682-2.681-2.681H46.26l-.086.59Z" transform="translate(3.341 18.63)" fill="#292949"/>
        <path id="Trazado_893532" data-name="Trazado 893532" d="M41.243,230.582h4.93l.086-.59H41.243Z" transform="translate(3.341 18.63)" fill="#292949"/>
        <path id="Trazado_893533" data-name="Trazado 893533" d="M35.461,170.146c-.122.016-.244.03-.368.045a44.021,44.021,0,0,1-6.614,1.02,21.23,21.23,0,0,0-3.739,1.331,16.379,16.379,0,0,0-1.665.927l-.016,3.413,6.088,57.957H34.14v.589h.028l5.489-38.874.023-.218-.124-1.62Z" transform="translate(1.868 13.782)" fill="#353a85"/>
        <path id="Trazado_893534" data-name="Trazado 893534" d="M28.479,172.259c-2.177.113-2.448-.29-2.448-.29s1.964-7.89,3.344-14.755l-6.218.917-.081,16.386a16.17,16.17,0,0,1,1.665-.926,21.147,21.147,0,0,1,3.739-1.332" transform="translate(1.869 12.735)" fill="#353a85"/>
        <path id="Trazado_893535" data-name="Trazado 893535" d="M34.532,170.2l4.095,24.57.124,1.62,2.8-26.881c-2.128.169-4.52.393-7.017.691" transform="translate(2.797 13.731)" fill="#353a85"/>
        <path id="Trazado_893536" data-name="Trazado 893536" d="M28.92,229.992h-.37l-2.682,2.681,2.682,2.682,5.362-2.682v-2.091h-4.93Z" transform="translate(2.095 18.63)" fill="#292949"/>
        <path id="Trazado_893537" data-name="Trazado 893537" d="M28.692,229.992l.062.59h4.93v-.59Z" transform="translate(2.324 18.63)" fill="#292949"/>
        <path id="Trazado_893538" data-name="Trazado 893538" d="M49.572,160.42c-.372-3.786-.706-7.38-.806-9.026-.264-4.332-7.455-29.461-7.455-29.461l-2.549-.024a1.006,1.006,0,0,1-.089.091.807.807,0,0,1-.273.157,1.522,1.522,0,0,1-.652.017l-2.528-.3-.61-.005L31.3,128.6s-.681,17.586-.835,22.911a63.77,63.77,0,0,1-1.317,8.572c-1.379,6.863-3.345,14.754-3.345,14.754s.271.4,2.448.29a43.981,43.981,0,0,0,6.614-1.02l.368-.044c2.5-.3,4.888-.523,7.017-.692l.864-.066c4.567-.341,7.724-.415,7.724-.415s-.682-6.473-1.27-12.465" transform="translate(2.091 9.872)" fill="#fff"/>
        <path id="Trazado_893539" data-name="Trazado 893539" d="M38.775,121.673c.33-1.418,1.9-2.056,2.74-3.314a11.039,11.039,0,0,0,1.673-4.778c0-.029.006-.058.011-.086a2.5,2.5,0,0,1-.389.171,4.636,4.636,0,0,1,.3-2.051,1.932,1.932,0,0,0,.034-.531,15.125,15.125,0,0,1-3.323-1.048c-1.853-.809-5.461-1.67-7.385-.715-1.521.755-1.054,3.164-.977,4.687a4.157,4.157,0,0,1-.041,1.171,5,5,0,0,1-.489.987,4.2,4.2,0,0,0,.9,1.668c1.218,1.377,2.459,2.054,2.788,3.607a17.632,17.632,0,0,1,4.154.231" transform="translate(2.506 8.821)" fill="#efbbbb"/>
        <path id="Trazado_893540" data-name="Trazado 893540" d="M34.4,121.972l.132.015,3.542.035a1.993,1.993,0,0,0,.383-1.042,2.15,2.15,0,0,1,.045-.243,17.641,17.641,0,0,0-4.155-.232,4.618,4.618,0,0,1,.053,1.468" transform="translate(2.782 9.759)" fill="#efbbbb"/>
        <path id="Trazado_893541" data-name="Trazado 893541" d="M37.042,122.173a1.522,1.522,0,0,0,.652-.017.8.8,0,0,0,.275-.157,1.176,1.176,0,0,0,.089-.091l-3.542-.035,2.527.3" transform="translate(2.796 9.872)" fill="#efbbbb"/>
        <path id="Trazado_893542" data-name="Trazado 893542" d="M42.3,110.933a7.376,7.376,0,0,1-.025,2.4,4.205,4.205,0,0,0,1.746-2.32,6.476,6.476,0,0,1-1.721-.077" transform="translate(3.425 8.986)" fill="#292949"/>
        <path id="Trazado_893543" data-name="Trazado 893543" d="M42.338,110.934l-.077-.014a1.932,1.932,0,0,1-.034.531,4.639,4.639,0,0,0-.3,2.051,2.5,2.5,0,0,0,.389-.171,7.376,7.376,0,0,0,.025-2.4" transform="translate(3.392 8.985)" fill="#292949"/>
        <path id="Trazado_893544" data-name="Trazado 893544" d="M31.166,112.352a4.6,4.6,0,0,1,.309-1.772,3.874,3.874,0,0,1,2.5-1.805,9.43,9.43,0,0,1,7.808.858,4.139,4.139,0,0,1,1.5,1.52,3.025,3.025,0,0,1,.133.3,6.185,6.185,0,0,1-.382-2.023,1.19,1.19,0,0,1,1.833-.513,1.887,1.887,0,0,1,.7,1.389,3.973,3.973,0,0,1-.256,1.591c-.013.038-.027.075-.04.112a3.48,3.48,0,0,0,1.033-.259c1.623-.711,2.941-3.547,2.887-5.294a2.429,2.429,0,0,0-1.068-2.041,4.949,4.949,0,0,1-1.738-1.454c-.3-.524-.341-1.174-.635-1.7-.533-.953-1.689-1.233-2.695-1.557C40.545,98.9,39.19,97.968,36.524,99c-1.894.735-4.342.833-6.1,1.907a6.139,6.139,0,0,0-1.872,1.97,11.113,11.113,0,0,0-1.046,9.581,11.894,11.894,0,0,0,.939,1.816c.7,1.142,1.457,2.547,2.7,3.106a1.319,1.319,0,0,1,.116-.376,15.062,15.062,0,0,1-.1-4.655" transform="translate(2.176 7.983)" fill="#292949"/>
        <path id="Trazado_893545" data-name="Trazado 893545" d="M31.479,114.116c-.077-1.523-.544-3.932.977-4.687,1.924-.956,5.533-.094,7.385.715a15.076,15.076,0,0,0,3.324,1.048,3.312,3.312,0,0,0-.064-.465,2.789,2.789,0,0,0-.132-.3,4.131,4.131,0,0,0-1.5-1.52,9.426,9.426,0,0,0-7.808-.858,3.874,3.874,0,0,0-2.5,1.8,4.613,4.613,0,0,0-.309,1.773,15.089,15.089,0,0,0,.1,4.654,5,5,0,0,0,.49-.987,4.2,4.2,0,0,0,.04-1.171" transform="translate(2.488 8.714)" fill="#292949"/>
        <path id="Trazado_893546" data-name="Trazado 893546" d="M44.362,109.549a1.886,1.886,0,0,0-.7-1.387,1.189,1.189,0,0,0-1.833.513A6.219,6.219,0,0,0,42.2,110.7a3.2,3.2,0,0,1,.139.479,6.569,6.569,0,0,0,1.721.077c.014-.037.028-.075.041-.113a3.97,3.97,0,0,0,.256-1.591" transform="translate(3.386 8.743)" fill="#292949"/>
        <path id="Trazado_893547" data-name="Trazado 893547" d="M42.175,110.49a3.155,3.155,0,0,1,.063.465l.077.014a3.369,3.369,0,0,0-.139-.479" transform="translate(3.416 8.95)" fill="#292949"/>
        <path id="Trazado_893548" data-name="Trazado 893548" d="M337.905,127.459l6.834-1.71,6.467,1.293-5.875,4.522Z" transform="translate(27.372 10.186)" fill="#efbbbb"/>
        <path id="Trazado_893549" data-name="Trazado 893549" d="M340.98,116.888c-1.118,1.79-.569,4.08-.076,6.043.2.8.548,1.938-.227,2.537a2.035,2.035,0,0,1-2.747-.817,4.182,4.182,0,0,1-.358-1.946c-.035-2.961-.079-7.109,1.052-9.854.906-2.2,4.948-5.344,7.352-3.006a3.107,3.107,0,0,1,.747,1.591,2.425,2.425,0,0,1,.079,1.035c-.278,1.352-1.647,1.291-2.7,1.733a6.941,6.941,0,0,0-3.122,2.685" transform="translate(27.344 8.831)" fill="#292949"/>
        <path id="Trazado_893550" data-name="Trazado 893550" d="M343.355,125.194A6.244,6.244,0,0,1,340,120.636a11.2,11.2,0,0,1,.633-5.58c2-5.963,10.061-3.788,11.794,1.5,1.511,4.606-3.745,11.1-9.073,8.64" transform="translate(27.531 9.03)" fill="#efbbbb"/>
        <path id="Trazado_893551" data-name="Trazado 893551" d="M350.959,119.735c-.163.747-.037,1.633-.17,2.412-.246,1.433-1.116,3.119-1.009,4.532a8.859,8.859,0,0,0,4.761-.72c1.364-.644,1.632-2.158,2.322-3.523a19.4,19.4,0,0,0,1.687-3.885,10.054,10.054,0,0,0-11.715-12.581c-2.851.485-4.933,3.347-3.791,6.018,1.229,2.873,5.482,3.136,7.277,5.548a4.152,4.152,0,0,1,.637,2.2" transform="translate(27.762 8.57)" fill="#292949"/>
        <path id="Trazado_893552" data-name="Trazado 893552" d="M343.127,123.724l-.175,1.692c-.027.258-.246.949-.12,1.176a.439.439,0,0,0,.331.176c.358.067,3.567.656,3.6.411a15.807,15.807,0,0,0,.182-1.957,8.529,8.529,0,0,0,.086-1.9,5.17,5.17,0,0,1-1.938.321q-.978,0-1.953-.046c-.005.043-.01.088-.014.131" transform="translate(27.767 9.989)" fill="#efbbbb"/>
        <path id="Trazado_893553" data-name="Trazado 893553" d="M321.469,167.6l-2.231-.433L317,170.34l1.274,2.254,2.613.433.963-3.214Z" transform="translate(25.678 13.541)" fill="#efbbbb"/>
        <path id="Trazado_893554" data-name="Trazado 893554" d="M342.323,130.647l-8.252.461-5.215,22.235-9.8,16.227,2.721,3.139,12.963-13.036Z" transform="translate(25.845 10.583)" fill="#292949"/>
        <path id="Trazado_893555" data-name="Trazado 893555" d="M337.508,228.443a1.919,1.919,0,0,1,1.55-1.071,2.012,2.012,0,0,1,1.673.76,3.643,3.643,0,0,1,.516,1.152c.653,2.083,1.762,7.118-.965,8.443a2.236,2.236,0,0,1-2.9-1.077c-.846-1.5-1.118-6.1.129-8.207" transform="translate(27.27 18.418)" fill="#292949"/>
        <path id="Trazado_893556" data-name="Trazado 893556" d="M342.687,198.682l-.359,13.223c.089,5.876-.942,11.77-.852,17.646a14.539,14.539,0,0,1-.011,4.115c-.36,1.3-1.453,1.521-2.561.842-1.483-.909-1.21-2.98-1.436-4.5-.622-4.169-1.361-8.322-2.013-12.486-.319-2.042.449-4.886.323-6.95l-2.015-11.114Z" transform="translate(27.036 16.094)" fill="#efbbbb"/>
        <path id="Trazado_893557" data-name="Trazado 893557" d="M346.232,228.9a1.951,1.951,0,0,1,1.714-.81,1.977,1.977,0,0,1,1.518,1.015,3.581,3.581,0,0,1,.308,1.219c.282,2.158.5,7.3-2.417,8.173a2.2,2.2,0,0,1-2.674-1.524c-.574-1.618-.043-6.2,1.551-8.074" transform="translate(27.902 18.476)" fill="#292949"/>
        <path id="Trazado_893558" data-name="Trazado 893558" d="M343.743,198.656l.76,13.206c.089,5.876,1.3,11.736,1.386,17.613a14.594,14.594,0,0,0,.135,4.113c.4,1.294,1.5,1.477,2.586.764,1.455-.955,1.119-3.016,1.3-4.54.494-4.186,1.108-8.358,1.632-12.541.257-2.051-.6-4.871-.533-6.937l1.677-11.17Z" transform="translate(27.844 16.092)" fill="#efbbbb"/>
        <path id="Trazado_893559" data-name="Trazado 893559" d="M351.416,125.923l-5.6,2.963-6.313-2.28-6.473,4.885s.67,20.362.423,27.9-.742,13.663-1.4,24.691c-.721,12.134,2.374,26.729,2.374,26.729l25.191-.382s5.129-27.617,2.491-34.777-1.069-14.285-1.158-20.143-2.551-25.5-2.551-25.5Z" transform="translate(26.889 10.2)" fill="#292949"/>
        <path id="Trazado_893560" data-name="Trazado 893560" d="M371.948,110.27l2.646.886,3.255-3.7-1.176-3.055-3.113-.945-1.711,3.938Z" transform="translate(30.121 8.38)" fill="#efbbbb"/>
        <path id="Trazado_893561" data-name="Trazado 893561" d="M351.388,139.26l17.811-5.736,8.952-23.793-5.3-1.319L362.323,126.49l-10.87,2.3Z" transform="translate(28.464 8.782)" fill="#292949"/>
        <rect id="Rectángulo_402491" data-name="Rectángulo 402491" width="104.096" height="1.931" transform="matrix(0.822, -0.57, 0.57, 0.822, 137.27, 155.876)" fill="#f7f7f7"/>
        <rect id="Rectángulo_402492" data-name="Rectángulo 402492" width="1.931" height="104.525" transform="translate(134.034 43.088) rotate(-58.191)" fill="#f7f7f7"/>
        <rect id="Rectángulo_402493" data-name="Rectángulo 402493" width="1.931" height="165.91" transform="translate(58.11 82.649) rotate(-84.579)" fill="#f7f7f7"/>
        <rect id="Rectángulo_402494" data-name="Rectángulo 402494" width="109.559" height="1.931" transform="translate(220.246 96.661) rotate(-43.185)" fill="#f7f7f7"/>
        <rect id="Rectángulo_402495" data-name="Rectángulo 402495" width="1.931" height="126.132" transform="matrix(0.546, -0.838, 0.838, 0.546, 220.377, 98.17)" fill="#f7f7f7"/>
        <rect id="Rectángulo_402496" data-name="Rectángulo 402496" width="173.203" height="1.931" transform="translate(223.337 94.081) rotate(-1.862)" fill="#f7f7f7"/>
        <path id="Trazado_893562" data-name="Trazado 893562" d="M151.832,86.729a52.225,52.225,0,1,1,52.224,52.224,52.224,52.224,0,0,1-52.224-52.224" transform="translate(12.299 2.795)" fill="#ffc263"/>
        <path id="Trazado_893563" data-name="Trazado 893563" d="M100.1,35.515a24.468,24.468,0,1,1,24.469,24.47A24.468,24.468,0,0,1,100.1,35.515" transform="translate(8.108 0.895)" fill="#4aa9e5"/>
        <path id="Trazado_893564" data-name="Trazado 893564" d="M43.289,75.921a27.8,27.8,0,0,1,27.8-27.8c15.356,0,29.24,12.448,29.24,27.8s-13.884,27.8-29.24,27.8a27.8,27.8,0,0,1-27.8-27.8" transform="translate(3.507 3.898)" fill="#338501"/>
        <path id="Trazado_893565" data-name="Trazado 893565" d="M110.614,146.563a21.941,21.941,0,1,1,21.94,21.94,21.94,21.94,0,0,1-21.94-21.94" transform="translate(8.96 10.095)" fill="#4aa9e5"/>
        <path id="Trazado_893566" data-name="Trazado 893566" d="M255.229,24.259a24.259,24.259,0,1,1,24.259,24.259,24.259,24.259,0,0,1-24.259-24.259" transform="translate(20.674)" fill="#aecf9d"/>
        <path id="Trazado_893567" data-name="Trazado 893567" d="M277.67,153.131A26.435,26.435,0,1,1,304.1,179.566a26.435,26.435,0,0,1-26.435-26.435" transform="translate(22.492 10.263)" fill="#338501"/>
        <path id="Trazado_893568" data-name="Trazado 893568" d="M335.515,84.963a29.975,29.975,0,1,1,29.975,29.975,29.976,29.976,0,0,1-29.975-29.975" transform="translate(27.178 4.454)" fill="#4aa9e5"/>
        <path id="Trazado_893569" data-name="Trazado 893569" d="M329.6,30.567a14.8,14.8,0,1,1,14.8,14.8,14.8,14.8,0,0,1-14.8-14.8" transform="translate(26.699 1.277)" fill="#ffc263"/>
        <path id="Trazado_893570" data-name="Trazado 893570" d="M17.61,22.074a14.8,14.8,0,1,1,14.8,14.8,14.8,14.8,0,0,1-14.8-14.8" transform="translate(1.426 0.589)" fill="#ffc263"/>
        <path id="Trazado_893571" data-name="Trazado 893571" d="M0,72.568A16.212,16.212,0,1,1,16.213,88.781,16.213,16.213,0,0,1,0,72.568" transform="translate(0 4.565)" fill="#aecf9d"/>
        <path id="Trazado_893572" data-name="Trazado 893572" d="M40.145,142.707a18.1,18.1,0,1,1,18.1,18.1,18.1,18.1,0,0,1-18.1-18.1" transform="translate(3.252 10.093)" fill="#aecf9d"/>
        <path id="Trazado_893573" data-name="Trazado 893573" d="M36.451,145.911l2.855-.186L40.94,143.8l.584.139-.143.724,1.813-1.206,1.758.184,1.162,2.045-.353,2.405-2.153.937-2.776-.317-3.9.424Z" transform="translate(2.953 11.621)" fill="#efbbbb"/>
        <path id="Trazado_893574" data-name="Trazado 893574" d="M39.688,146.216l-15.606.412,3.174-23.965L16.6,133.161,15,155.276l5.739,3.126,21.3-6.793Z" transform="translate(1.215 9.936)" fill="#353a85"/>
        <path id="Trazado_893575" data-name="Trazado 893575" d="M253.154,169.965v6.44l-8.586,27.905,2.147,28.98-5.366,1.072-8.586-35.418.329-10.421,3.964-21.253Z" transform="translate(18.855 13.549)" fill="#292949"/>
        <path id="Trazado_893576" data-name="Trazado 893576" d="M245.325,177.219l8.628,59.03h3.922l2.477-32.2,5.366-32.2Z" transform="translate(19.872 13.921)" fill="#292949"/>
        <path id="Trazado_893577" data-name="Trazado 893577" d="M241.664,228.881l-4.1,4.336,1.184,2.2,8.452-4.058-1.557-3.212Z" transform="translate(19.244 18.481)" fill="#292949"/>
        <path id="Trazado_893578" data-name="Trazado 893578" d="M253.752,230.657l-5.049,3.175.6,2.424,9.2-1.817-.7-3.5Z" transform="translate(20.146 18.684)" fill="#292949"/>
        <path id="Trazado_893579" data-name="Trazado 893579" d="M251.959,110.335c2.4,2.534,6.723,2.618,8.772,5.45a6.623,6.623,0,0,1,.3,6.584,5.583,5.583,0,0,1-2.069,2.443,5.349,5.349,0,0,1-1.964.655,7.579,7.579,0,0,1-2.736-.1,13.65,13.65,0,0,0-.233,2.463c-1.6-.628-3.716-.1-5.315-.732.36-.919,1.239-2.991,1.6-3.911a7.341,7.341,0,0,1-.912-1.127,8.3,8.3,0,0,1-.151-8.5,16.128,16.128,0,0,1,2.71-3.221" transform="translate(20.101 8.938)" fill="#efbbbb"/>
        <path id="Trazado_893580" data-name="Trazado 893580" d="M251.938,112.274l8.8,6.309-4,7.473,3.868.269,7.909-10.982-10.987-10.476-7.452-1.585-2.4,3.041,1.672,6.883Z" transform="translate(20.063 8.366)" fill="#292949"/>
        <path id="Trazado_893581" data-name="Trazado 893581" d="M151.831,139.8l1.156-2.158-2.629-3.369-2.765.562-1.277,2.552,1.794,1.211-.222.6.381.811Z" transform="translate(11.852 10.876)" fill="#b77b70"/>
        <path id="Trazado_893582" data-name="Trazado 893582" d="M220.8,118.9l-1.676-4.3,1.806-.8,1.8,2.688.679-.772.986,3.852-1.765,1.081Z" transform="translate(17.75 9.219)" fill="#efbbbb"/>
        <path id="Trazado_893583" data-name="Trazado 893583" d="M258.853,132.521,239.9,134.3l-15.558-16.465-3.393,2.324,12.507,21.768,25.394,4.223Z" transform="translate(17.898 9.545)" fill="#dddae8"/>
        <path id="Trazado_893584" data-name="Trazado 893584" d="M243.9,125.588l12.789-1.284a86.154,86.154,0,0,1,15.293,29.5c5,17.517-6.117,42.085-6.117,42.085s-34.542-7.052-40.209-8.164l11.18-35.033Z" transform="translate(18.279 10.069)" fill="#dddae8"/>
      </g>
    </g>
  </g>
</svg>
