<svg xmlns="http://www.w3.org/2000/svg" xmlns:xlink="http://www.w3.org/1999/xlink" width="472" height="320.332" viewBox="0 0 472 320.332">
  <defs>
    <clipPath id="clip-path">
      <rect id="Rectángulo_402535" data-name="Rectángulo 402535" width="428.516" height="288.74" fill="none"/>
    </clipPath>
  </defs>
  <g id="Grupo_1103370" data-name="Grupo 1103370" transform="translate(2074 7105.564)">
    <rect id="Rectángulo_402215" data-name="Rectángulo 402215" width="472" height="320.332" transform="translate(-2074 -7105.564)" fill="#d6e6ce"/>
    <g id="Grupo_1101976" data-name="Grupo 1101976" transform="translate(-2044 -7073.972)">
      <g id="Grupo_1101975" data-name="Grupo 1101975" clip-path="url(#clip-path)">
        <path id="Trazado_893622" data-name="Trazado 893622" d="M358.488,203.586H34.663a6.846,6.846,0,0,1-6.846-6.846V10.292a6.847,6.847,0,0,1,6.846-6.848H358.488a6.847,6.847,0,0,1,6.846,6.848V196.74a6.846,6.846,0,0,1-6.846,6.846" transform="translate(19.207 2.378)" fill="#005ca7"/>
        <rect id="Rectángulo_402520" data-name="Rectángulo 402520" width="41.012" height="42.674" transform="translate(287.992 17.113)" fill="#f0f0f0"/>
        <rect id="Rectángulo_402521" data-name="Rectángulo 402521" width="42.674" height="40.848" transform="translate(332.332 18.938)" fill="#f0f0f0"/>
        <rect id="Rectángulo_402522" data-name="Rectángulo 402522" width="41.012" height="42.398" transform="translate(287.992 62.557)" fill="#4ca1f4"/>
        <rect id="Rectángulo_402523" data-name="Rectángulo 402523" width="41.151" height="41.151" transform="translate(332.33 107.726)" fill="#4ca1f4"/>
        <rect id="Rectángulo_402524" data-name="Rectángulo 402524" width="41.844" height="41.844" transform="translate(287.161 107.726)" fill="#f0f0f0"/>
        <rect id="Rectángulo_402525" data-name="Rectángulo 402525" width="38.519" height="41.012" transform="translate(332.33 152.896)" fill="#f0f0f0"/>
        <rect id="Rectángulo_402526" data-name="Rectángulo 402526" width="42.674" height="42.674" transform="translate(219.824 17.113)" fill="#f0f0f0"/>
        <rect id="Rectángulo_402527" data-name="Rectángulo 402527" width="40.804" height="41.878" transform="translate(175.21 62.559)" fill="#f0f0f0"/>
        <rect id="Rectángulo_402528" data-name="Rectángulo 402528" width="42.674" height="42.674" transform="translate(60.209 17.113)" fill="#f0f0f0"/>
        <rect id="Rectángulo_402529" data-name="Rectángulo 402529" width="41.878" height="41.878" transform="translate(104.547 62.559)" fill="#4ba1f4"/>
        <rect id="Rectángulo_402530" data-name="Rectángulo 402530" width="41.012" height="41.012" transform="translate(60.209 107.726)" fill="#f0f0f0"/>
        <rect id="Rectángulo_402531" data-name="Rectángulo 402531" width="41.878" height="40.874" transform="translate(104.547 107.726)" fill="#ffde6a"/>
        <path id="Trazado_893623" data-name="Trazado 893623" d="M106.334,10.7h41.29s-.588,26.118-4.451,35.608l-9.335,5.751H99.753s7.135-21.2,6.581-41.359" transform="translate(68.876 7.385)" fill="#4ca1f4"/>
        <path id="Trazado_893624" data-name="Trazado 893624" d="M119.847,37.421v-5.8H129.3Z" transform="translate(82.75 21.835)" fill="#408dd1"/>
        <path id="Trazado_893625" data-name="Trazado 893625" d="M106.5,63.583h41.29S147.2,89.7,143.336,99.191L134,104.942H99.916s7.135-21.2,6.581-41.359" transform="translate(68.988 43.902)" fill="#ffde6a"/>
        <path id="Trazado_893626" data-name="Trazado 893626" d="M120.01,90.307v-5.8h9.451Z" transform="translate(82.863 58.351)" fill="#e5b839"/>
        <path id="Trazado_893627" data-name="Trazado 893627" d="M132.712,63.583H174s-.588,26.118-4.451,35.608l-9.335,5.751H126.131s7.135-21.2,6.581-41.359" transform="translate(87.089 43.902)" fill="#f0f0f0"/>
        <path id="Trazado_893628" data-name="Trazado 893628" d="M146.225,90.307v-5.8h9.451Z" transform="translate(100.963 58.351)" fill="#c7c9cc"/>
        <path id="Trazado_893629" data-name="Trazado 893629" d="M132.712,89.852H174s-.588,26.118-4.451,35.608l-9.335,5.751H126.131s7.135-21.2,6.581-41.359" transform="translate(87.089 62.039)" fill="#f0f0f0"/>
        <path id="Trazado_893630" data-name="Trazado 893630" d="M146.225,116.576v-5.8h9.451Z" transform="translate(100.963 76.489)" fill="#c7c9cc"/>
        <path id="Trazado_893631" data-name="Trazado 893631" d="M107.561,89.852h41.29s-.59,26.118-4.451,35.608l-9.335,5.751H100.98s7.135-21.2,6.581-41.359" transform="translate(69.723 62.039)" fill="#ffde6a"/>
        <path id="Trazado_893632" data-name="Trazado 893632" d="M121.074,116.576v-5.8h9.451Z" transform="translate(83.597 76.489)" fill="#e5b839"/>
        <path id="Trazado_893633" data-name="Trazado 893633" d="M172.885,90.344h41.29s-.588,26.118-4.451,35.608l-9.335,5.751H166.3s7.135-21.2,6.581-41.359" transform="translate(114.827 62.379)" fill="#f0f0f0"/>
        <path id="Trazado_893634" data-name="Trazado 893634" d="M186.449,117.177v-5.8H195.9Z" transform="translate(128.736 76.904)" fill="#c7c9cc"/>
        <path id="Trazado_893635" data-name="Trazado 893635" d="M38.141,89.852h41.29s-.588,26.118-4.451,35.608l-9.335,5.751H31.56s7.135-21.2,6.581-41.359" transform="translate(21.791 62.039)" fill="#f0f0f0"/>
        <path id="Trazado_893636" data-name="Trazado 893636" d="M51.654,116.576v-5.8h9.451Z" transform="translate(35.665 76.489)" fill="#c7c9cc"/>
        <rect id="Rectángulo_402532" data-name="Rectángulo 402532" width="75.797" height="8.106" transform="translate(177.211)" fill="#ffb758"/>
        <rect id="Rectángulo_402533" data-name="Rectángulo 402533" width="2.493" height="200.142" transform="translate(158.584 4.365)" fill="#f0f0f0"/>
        <rect id="Rectángulo_402534" data-name="Rectángulo 402534" width="2.493" height="200.142" transform="translate(273.295 4.365)" fill="#f0f0f0"/>
        <path id="Trazado_893637" data-name="Trazado 893637" d="M72.785,175.215l.059-.1a2.2,2.2,0,0,0-.8-2.992L35.4,150.962a2.2,2.2,0,0,0-2.992.8l-.061.1a2.2,2.2,0,0,0,.8,2.992l36.646,21.156a2.2,2.2,0,0,0,2.992-.8" transform="translate(22.132 104.032)" fill="#0c0442"/>
        <path id="Trazado_893638" data-name="Trazado 893638" d="M52.849,167.254a4.228,4.228,0,1,0,4.228-4.228,4.228,4.228,0,0,0-4.228,4.228" transform="translate(36.49 112.563)" fill="#919191"/>
        <path id="Trazado_893639" data-name="Trazado 893639" d="M53.741,166.638a2.72,2.72,0,1,0,2.72-2.72,2.719,2.719,0,0,0-2.72,2.72" transform="translate(37.106 113.179)" fill="#494949"/>
        <path id="Trazado_893640" data-name="Trazado 893640" d="M8.179,175.215l-.059-.1a2.2,2.2,0,0,1,.8-2.992l36.644-21.158a2.2,2.2,0,0,1,2.992.8l.061.1a2.2,2.2,0,0,1-.8,2.992L11.171,176.016a2.2,2.2,0,0,1-2.992-.8" transform="translate(5.404 104.032)" fill="#0c0442"/>
        <path id="Trazado_893641" data-name="Trazado 893641" d="M34.374,150.117h-2.52a1.2,1.2,0,0,0-1.2,1.2v21.614a1.2,1.2,0,0,0,1.2,1.2h2.52a1.2,1.2,0,0,0,1.2-1.2V151.312a1.2,1.2,0,0,0-1.2-1.2" transform="translate(21.168 103.65)" fill="#0c0442"/>
        <path id="Trazado_893642" data-name="Trazado 893642" d="M42.7,138.745H28.486a1.423,1.423,0,0,1-1.418-1.42v-2.994a1.423,1.423,0,0,1,1.418-1.42H42.7a1.424,1.424,0,0,1,1.42,1.42v2.994a1.424,1.424,0,0,1-1.42,1.42" transform="translate(18.689 91.77)" fill="#0c0442"/>
        <path id="Trazado_893643" data-name="Trazado 893643" d="M51.082,138.192H24.838a1.2,1.2,0,0,1-1.2-1.2v-7.4a1.2,1.2,0,0,1,1.2-1.2H51.082a1.2,1.2,0,0,1,1.2,1.2v7.4a1.2,1.2,0,0,1-1.2,1.2" transform="translate(16.322 88.65)" fill="#171072"/>
        <path id="Trazado_893644" data-name="Trazado 893644" d="M64.875,151.822a4.634,4.634,0,0,1-4.62,4.62H20.09a4.633,4.633,0,0,1-4.62-4.62L7.423,93.637a8.21,8.21,0,0,1,7.255-8.129,7.993,7.993,0,0,1,.926-.054h33.04a8.208,8.208,0,0,1,8.184,8.184Z" transform="translate(5.125 59.002)" fill="#0298a9"/>
        <path id="Trazado_893645" data-name="Trazado 893645" d="M24.06,156.42H20.09a4.634,4.634,0,0,1-4.622-4.62L7.422,93.614a8.211,8.211,0,0,1,7.257-8.129Z" transform="translate(5.125 59.024)" fill="#00858c"/>
        <path id="Trazado_893646" data-name="Trazado 893646" d="M52.511,91.075a8.686,8.686,0,0,1-8.66,8.66H21.891a8.686,8.686,0,0,1-8.66-8.66c0-.169.007-.338.015-.505a8.685,8.685,0,0,1,8.645-8.155H43.85a8.686,8.686,0,0,1,8.66,8.66" transform="translate(9.136 56.905)" fill="#13a3a3"/>
        <path id="Trazado_893647" data-name="Trazado 893647" d="M52.5,91.075a8.6,8.6,0,0,1-1.738,5.188H21.375A8.7,8.7,0,0,1,13.24,90.57a8.685,8.685,0,0,1,8.645-8.155H43.844a8.686,8.686,0,0,1,8.66,8.66" transform="translate(9.142 56.905)" fill="#2ed6df"/>
        <path id="Trazado_893648" data-name="Trazado 893648" d="M34.611,114.033H54.736c11.355,0,13.913,28.557-10.944,28.658" transform="translate(23.898 78.736)" fill="none" stroke="#0c0442" stroke-linecap="round" stroke-miterlimit="10" stroke-width="2.633"/>
        <path id="Trazado_893649" data-name="Trazado 893649" d="M57.891,133.707a8.583,8.583,0,0,1-.869,3.77,8.69,8.69,0,0,1-7.791,4.891H27.271a8.686,8.686,0,0,1-8.66-8.66l-3.592-29.186a8.666,8.666,0,0,1,8.66-8.66H45.637a8.685,8.685,0,0,1,8.66,8.66Z" transform="translate(10.37 66.188)" fill="#2ed6df"/>
        <path id="Trazado_893650" data-name="Trazado 893650" d="M57.022,137.2a8.69,8.69,0,0,1-7.791,4.891H27.271a8.686,8.686,0,0,1-8.66-8.66l-3.592-29.186a8.693,8.693,0,0,1,5.286-7.974c.832,10.6,4.011,31.853,16.149,37.467,4.73,2.187,12.258,3.17,20.568,3.462" transform="translate(10.37 66.469)" fill="#0cbcbc"/>
        <path id="Trazado_893651" data-name="Trazado 893651" d="M83.453,130.114v.142a3.851,3.851,0,0,1-3.841,3.839H14.81a3.853,3.853,0,0,1-3.824-3.477h70.57a3.807,3.807,0,0,0,1.9-.5" transform="translate(7.585 89.839)" fill="#0c8b8e"/>
        <path id="Trazado_893652" data-name="Trazado 893652" d="M83.46,128.288v5.736a3.807,3.807,0,0,1-1.9.5H10.993c-.012-.118-.017-.24-.017-.362v-5.878a3.851,3.851,0,0,1,3.841-3.839h64.8a3.851,3.851,0,0,1,3.841,3.839" transform="translate(7.579 85.927)" fill="#00a8b5"/>
        <path id="Trazado_893653" data-name="Trazado 893653" d="M34.311,161.506H31.861a1.166,1.166,0,0,1-1.163-1.161V136.958a1.166,1.166,0,0,1,1.163-1.161h2.449a1.164,1.164,0,0,1,1.161,1.161v23.386a1.164,1.164,0,0,1-1.161,1.161" transform="translate(21.196 93.763)" fill="#0c0442"/>
        <path id="Trazado_893654" data-name="Trazado 893654" d="M36.387,159.962H31.01a1.2,1.2,0,0,1-1.2-1.2V145.749a1.2,1.2,0,0,1,1.2-1.2h5.377a1.2,1.2,0,0,1,1.2,1.2v13.015a1.2,1.2,0,0,1-1.2,1.2" transform="translate(20.583 99.806)" fill="#0298a9"/>
        <path id="Trazado_893655" data-name="Trazado 893655" d="M38.066,167.254a4.228,4.228,0,1,1-4.228-4.228,4.228,4.228,0,0,1,4.228,4.228" transform="translate(20.445 112.563)" fill="#919191"/>
        <path id="Trazado_893656" data-name="Trazado 893656" d="M35.942,166.638a2.72,2.72,0,1,1-2.72-2.72,2.719,2.719,0,0,1,2.72,2.72" transform="translate(21.061 113.179)" fill="#494949"/>
        <path id="Trazado_893657" data-name="Trazado 893657" d="M14.789,167.254a4.228,4.228,0,1,1-4.228-4.228,4.228,4.228,0,0,1,4.228,4.228" transform="translate(4.373 112.563)" fill="#919191"/>
        <path id="Trazado_893658" data-name="Trazado 893658" d="M12.665,166.638a2.72,2.72,0,1,1-2.72-2.72,2.719,2.719,0,0,1,2.72,2.72" transform="translate(4.989 113.179)" fill="#494949"/>
        <path id="Trazado_893659" data-name="Trazado 893659" d="M74.776,98.13c.073.1,1.606,2.25.882,2.558s-2.439-2.568-4.169-3.073,3.286.516,3.286.516" transform="translate(49.111 67.302)" fill="#d8665d"/>
        <path id="Trazado_893660" data-name="Trazado 893660" d="M75.515,98.413c.073.1,1.606,2.25.882,2.558S73.958,98.4,72.229,97.9s3.286.516,3.286.516" transform="translate(49.621 67.497)" fill="#e5786a"/>
        <path id="Trazado_893661" data-name="Trazado 893661" d="M62.409,101.81s7.218.828,8.3,1.929,6.517,4.754,7.266,3.092-5.139-2.608-5.12-5.181,8.156-2.307,10.592.92,2.828-1.772-1.369-4.311a11.126,11.126,0,0,1,2.429,3.351c1.1,2.233,1.288-2.483-2.449-4.559s-10.64-.465-11.282-.536-8.038-1.675-8.038-1.675Z" transform="translate(43.091 65.483)" fill="#ed896e"/>
        <path id="Trazado_893662" data-name="Trazado 893662" d="M78.1,101.229a8,8,0,0,0-5.349-5.158,10.758,10.758,0,0,1,5.349,5.158" transform="translate(50.152 66.315)" fill="#e5786a"/>
        <path id="Trazado_893663" data-name="Trazado 893663" d="M52.687,78.819c4.118,7.22,8.03,14.736,11.8,22.147l-3.518-2.877c1.036.424,2.076.84,3.11,1.27,6.141,2.526,12.489,5.2,18.583,7.842l1.545.664a2.252,2.252,0,0,1,1.082,2.018,8.011,8.011,0,0,1-2.11,6.157,3.226,3.226,0,0,1-1.182.86,1.428,1.428,0,0,1-.909.071l-1.628-.423c-5.352-1.379-10.924-2.852-16.249-4.311-1.91-.549-4.6-1.246-6.476-1.8a5.475,5.475,0,0,1-3.068-2.211l-.448-.666C49.175,101.54,45.1,95.3,41.291,89.127c-.436-.725-1.2-1.949-1.626-2.681-4.809-8.872,7.619-16.173,13.022-7.627" transform="translate(26.638 51.795)" fill="#0d1333"/>
        <path id="Trazado_893664" data-name="Trazado 893664" d="M51.5,68.189c-.578-.183-1.4-4.2-1.552-4.2s.061,3.9-.61,4.353-4.2.487-4.809.152-.852-3.714-.852-3.714-.3,3.2-1.33,3.653a3.845,3.845,0,0,1-2.69-.243c-.365-.122-.091,4.963-2.191,5.693,0,0,3.668-.472,4.88,6.926s-8.976,8.447-10.574,5.617.913-5.572-1.964-6.165-4.794-3.929-3.334-8.084,6-1.853,5.846-6.659c-.284-8.757,6.25-12.2,16.113-10.283,7.178,1.4,7.433,12.5,7.433,12.5.122,2.086,2.975,2.032,3.31,5.016s-5.144,4.328-4.323,4.936S67.119,89.043,44.255,87.856c-5.783-.3,7.24-19.667,7.24-19.667" transform="translate(17.93 37.783)" fill="#845800"/>
        <path id="Trazado_893665" data-name="Trazado 893665" d="M41.384,76.081a14.747,14.747,0,0,1-.37,3.45c-.931,3.391-8.533,2.517-8.642-1.312-.044-1.523-.1-3.4-.144-5.109-.073-2.583-.132-4.777-.132-4.777h8.752a59.774,59.774,0,0,1,.536,7.747" transform="translate(22.162 47.182)" fill="#ef9c8b"/>
        <path id="Trazado_893666" data-name="Trazado 893666" d="M41.35,76.056a43.813,43.813,0,0,1-9.156-2.97c-.073-2.583-.132-4.777-.132-4.777h8.752a59.774,59.774,0,0,1,.536,7.747" transform="translate(22.138 47.165)" fill="#e28474"/>
        <path id="Trazado_893667" data-name="Trazado 893667" d="M50.623,74.168a12.06,12.06,0,0,1-3.7,4.549c-6.194,4.635-13.126-4.595-13.126-4.595a3.414,3.414,0,0,1-.636.1c-1.077.071-3.185-.235-3.548-3.626-.478-4.465,2.3-4.475,3.547-1.384.035.09.071.181.1.277.2.556.063-9.708,2.733-9.6,13.356.548,15.109,0,15.109,0,1.163,4,1.7,9.688-.482,14.278" transform="translate(20.407 41.351)" fill="#ffb7a4"/>
        <path id="Trazado_893668" data-name="Trazado 893668" d="M31.257,66.063s4.018,2.071,5.085-.274A7.935,7.935,0,0,0,36.95,61.5c.061.213.548,3.44,1.8,4.2s4.018.03,4.507-.274.426-4.11.578-3.942.609,3.76,2.008,3.79a9.681,9.681,0,0,0,3.471-.365c.641-.3,1.28-3.929.732-4.689S43.466,58.757,38.5,58.392s-6.028.882-6.637,2.4a20.8,20.8,0,0,0-.609,5.267" transform="translate(21.582 40.273)" fill="#845800"/>
        <path id="Trazado_893669" data-name="Trazado 893669" d="M71.385,159.252c-.362,3.088-1.146,5.922-.994,6.556s3.585,5.7,9.827,6.9,7.472-.663,6.554-1.447c-.688-.588-4.977-1.792-8.065-4.027-.612-.445-1.231-.874-1.288-1.63l.237-6.246Z" transform="translate(48.589 109.958)" fill="#ffb7a4"/>
        <path id="Trazado_893670" data-name="Trazado 893670" d="M82.2,169.181c7.233,1.175,3.112-1.085,3.112-1.085s4.962,1.222,6.062,4.522c.372,1.109-10.527,1.163-15.1.161-1.611-.353-3.1-2.382-3.386-3.236-.184,3.165-.025,3.122-.478,3.528-.855,0-2.25-.024-3.082-.024.979-6.654.441-8.364,1.493-10.412.82-1.594,4.147,5.371,11.38,6.545" transform="translate(47.87 112.131)" fill="#282828"/>
        <path id="Trazado_893671" data-name="Trazado 893671" d="M48.392,106.746l44.03,11.794.47.127A11.6,11.6,0,0,1,101.329,128c.69,4.317,1.273,8.843,1.817,13.186,2.11,17.271,3.614,34.67,4.777,52.029l.037.556c.012.184.027.37.029.556a6.948,6.948,0,0,1-1.969,4.816c-3.836,4.006-11.054,2.911-12.842-2.4-4.544-17.177-8.724-34.518-12.293-51.926-.407-2.02-.9-4.505-1.288-6.53-.385-2.089-.84-4.458-1.178-6.549l8.907,9.455-44.838-8.212a13.454,13.454,0,1,1,5.9-26.229" transform="translate(21.718 73.383)" fill="#06032d"/>
        <path id="Trazado_893672" data-name="Trazado 893672" d="M57.759,159.765c-.362,3.088-1.146,5.922-.994,6.556s3.585,5.7,9.827,6.9,7.472-.663,6.554-1.447c-.688-.588-4.977-1.792-8.065-4.027-.612-.445-1.231-.874-1.288-1.63l.237-6.246Z" transform="translate(39.181 110.312)" fill="#ffb7a4"/>
        <path id="Trazado_893673" data-name="Trazado 893673" d="M68.577,169.694c7.233,1.175,3.112-1.085,3.112-1.085s4.961,1.222,6.062,4.522c.372,1.109-10.527,1.163-15.1.161-1.611-.353-3.1-2.382-3.386-3.236-.184,3.165-.025,3.122-.478,3.528-.855,0-2.25-.024-3.082-.024.979-6.654.441-8.364,1.493-10.412.82-1.594,4.147,5.371,11.38,6.545" transform="translate(38.462 112.485)" fill="#282828"/>
        <path id="Trazado_893674" data-name="Trazado 893674" d="M44.678,109.4,85.1,117.6l.526.106A11.593,11.593,0,0,1,94.9,129.4c-.044,1.455-.115,2.909-.184,4.365-.144,2.791-.335,5.939-.526,8.723-1.2,17.087-3.012,34.188-5.158,51.184l-.068.543c-.024.183-.044.363-.078.544a6.812,6.812,0,0,1-2.843,4.285,8.061,8.061,0,0,1-10.922-1.684,6.421,6.421,0,0,1-1.28-3.587c-1.212-18-2.078-36.088-2.215-54.129-.022-2.037-.012-4.512,0-6.554.015-1.455.027-2.911.071-4.366l9.8,11.8-40.992-4.568A13.457,13.457,0,1,1,44.678,109.4" transform="translate(19.71 75.345)" fill="#0c0442"/>
        <path id="Trazado_893675" data-name="Trazado 893675" d="M44.892,135.964h0a20.344,20.344,0,0,1-20.8-20.767l.01-5.66,39.57,1.209,0,6.529c0,11.837-6.936,18.69-18.774,18.69" transform="translate(16.631 75.631)" fill="#0c0442"/>
        <path id="Trazado_893676" data-name="Trazado 893676" d="M25.2,135.665a116.256,116.256,0,0,0,2.561-26.723c-.215-10.15-8.833-23-5.146-29.118s14.8-4.294,16.756-6.654c.306.176,1.128,5.147,6.551,4.683,2.625-.227,2.576-4.287,2.576-4.287.859.372,4.672.974,8.645,1.944,4.3,1.051,4.328,2.417,6.491,6.535,3.092,5.886,4.323,13.661.517,18.566-1.131,1.5.161,31.24,1.432,35.231s-41.426,3.771-40.383-.178" transform="translate(14.983 50.521)" fill="#ededed"/>
        <path id="Trazado_893677" data-name="Trazado 893677" d="M42.336,141.492S22.1,139.717,20.527,136.87c-.8-1.462,6.616-25.682,6.616-25.682S21.81,85.35,22.094,81.543c.509-6.811,18.25-8.373,18.25-8.373s-.106,9.294-.035,15.212c.064,5.42,2.027,53.109,2.027,53.109" transform="translate(14.131 50.521)" fill="#191e44"/>
        <path id="Trazado_893678" data-name="Trazado 893678" d="M28.894,89.608l4.737-7.35-4.737-2.615,5.631-6.473s.186,9.063.358,18.073c.166,8.755.441,20.585.441,20.585Z" transform="translate(19.95 50.521)" fill="#2e376d"/>
        <path id="Trazado_893679" data-name="Trazado 893679" d="M43.08,141.375s10.931-1.564,12.5-4.41c.734-1.33-2.735-25.254-2.735-25.254s6.042-18.855.813-31.189C51,74.233,37.544,73.339,37.544,73.339Z" transform="translate(25.923 50.638)" fill="#191e44"/>
        <path id="Trazado_893680" data-name="Trazado 893680" d="M43.08,89.777l-4.737-7.35,4.737-2.615-5.536-6.473,3.122,38.372Z" transform="translate(25.923 50.638)" fill="#2e376d"/>
        <path id="Trazado_893681" data-name="Trazado 893681" d="M35.672,104.478l-10.838,1.736a.758.758,0,0,1-.871-.631l-.438-2.732a.758.758,0,0,1,.631-.871l10.838-1.738a.761.761,0,0,1,.871.631l.438,2.732a.76.76,0,0,1-.631.872" transform="translate(16.237 69.207)" fill="#07102b"/>
        <path id="Trazado_893682" data-name="Trazado 893682" d="M49.7,104.833l-8.209-.952a.76.76,0,0,1-.668-.844l.211-1.824a.76.76,0,0,1,.844-.668l8.209.952a.76.76,0,0,1,.668.844l-.211,1.824a.76.76,0,0,1-.844.668" transform="translate(28.187 69.42)" fill="#07102b"/>
        <path id="Trazado_893683" data-name="Trazado 893683" d="M66.2,99.547c.056.115,1.239,2.47.478,2.664s-2.015-2.914-3.646-3.68S66.2,99.547,66.2,99.547" transform="translate(43.288 67.9)" fill="#d8665d"/>
        <path id="Trazado_893684" data-name="Trazado 893684" d="M66.887,99.94c.056.115,1.239,2.47.478,2.664s-2.015-2.914-3.646-3.68,3.168,1.016,3.168,1.016" transform="translate(43.762 68.171)" fill="#e5786a"/>
        <path id="Trazado_893685" data-name="Trazado 893685" d="M53.851,101.259s7.005,1.929,7.906,3.185,5.709,5.7,6.7,4.174-4.676-3.369-4.262-5.908,8.415-1.023,10.324,2.539,3.068-1.315-.688-4.47a11.153,11.153,0,0,1,1.883,3.685c.749,2.377,1.657-2.255-1.718-4.882s-10.44-2.1-11.066-2.267-7.683-2.892-7.683-2.892Z" transform="translate(37.182 65.196)" fill="#ffa487"/>
        <path id="Trazado_893686" data-name="Trazado 893686" d="M69,103.121A8,8,0,0,0,64.51,97.2,10.755,10.755,0,0,1,69,103.121" transform="translate(44.469 67.084)" fill="#e5786a"/>
        <path id="Trazado_893687" data-name="Trazado 893687" d="M35.453,78.339c5.178,9.107,10.2,18.587,15.028,27.881l-5-3.217c4.219.6,9.4,1.346,13.586,1.974,6.652.987,13.721,2.086,20.362,3.134a2.94,2.94,0,0,1,2.091,1.712,6.5,6.5,0,0,1-.7,6.649,2.909,2.909,0,0,1-2.346,1.215c-8.288-.348-16.871-.739-25.151-1.182-2.274-.125-6.865-.372-9.139-.509a6.111,6.111,0,0,1-5-3.217c-4.967-7.663-10.018-15.649-14.758-23.46-.534-.9-1.5-2.487-2.029-3.4-4.76-8.872,7.671-16.129,13.047-7.583" transform="translate(14.735 51.456)" fill="#0d1333"/>
        <path id="Trazado_893688" data-name="Trazado 893688" d="M212.29,107.8a6.337,6.337,0,0,1-.9,3.376,2.67,2.67,0,0,1-2.167,1.4H36.642c-1.687,0-3.068-2.15-3.068-4.779a7.126,7.126,0,0,1,.183-1.619c.429,1.836,1.564,3.159,2.886,3.159H209.222a2.67,2.67,0,0,0,2.167-1.4,5.586,5.586,0,0,0,.718-1.756,7.126,7.126,0,0,1,.183,1.619" transform="translate(23.182 73.311)" fill="#ce6b00"/>
        <path id="Trazado_893689" data-name="Trazado 893689" d="M212.033,107.467a5.586,5.586,0,0,1-.718,1.756,2.67,2.67,0,0,1-2.167,1.4H36.568c-1.324,0-2.458-1.324-2.886-3.159a5.586,5.586,0,0,1,.718-1.756,2.673,2.673,0,0,1,2.167-1.4H209.147c1.324,0,2.458,1.32,2.886,3.159" transform="translate(23.256 72.021)" fill="#ff8b00"/>
        <path id="Trazado_893690" data-name="Trazado 893690" d="M49.011,109.45l-3.641-.815L37.894,209.905l1.821.407Z" transform="translate(26.165 75.008)" fill="#ce6b00"/>
        <path id="Trazado_893691" data-name="Trazado 893691" d="M128.331,109.45l3.641-.815,7.475,101.271-1.821.407Z" transform="translate(88.608 75.008)" fill="#ce6b00"/>
        <path id="Trazado_893692" data-name="Trazado 893692" d="M106.442,106.278H50.009a1.107,1.107,0,0,1-1.1-1.1v-2.329a1.107,1.107,0,0,1,1.1-1.1h56.433a1.107,1.107,0,0,1,1.1,1.1v2.329a1.107,1.107,0,0,1-1.1,1.1" transform="translate(33.767 70.248)" fill="#42aa46"/>
        <path id="Trazado_893693" data-name="Trazado 893693" d="M116.929,82.02l-8.364,37.2a2.194,2.194,0,0,1-2.187,2.187H69.18a2.193,2.193,0,0,1-2.187-2.187l7.879-35.04.485-2.157a2.193,2.193,0,0,1,2.187-2.187h37.2a2.193,2.193,0,0,1,2.187,2.187" transform="translate(46.256 55.122)" fill="#51cc50"/>
        <path id="Trazado_893694" data-name="Trazado 893694" d="M112.461,84.59l-7.881,35.04H69.18a2.193,2.193,0,0,1-2.187-2.187L74.872,82.4h35.4a2.193,2.193,0,0,1,2.187,2.187" transform="translate(46.256 56.896)" fill="#43c047"/>
        <path id="Trazado_893695" data-name="Trazado 893695" d="M90.5,94.783a5.236,5.236,0,1,1-5.235-5.235A5.235,5.235,0,0,1,90.5,94.783" transform="translate(55.256 61.83)" fill="#d4e14f"/>
        <line id="Línea_612" data-name="Línea 612" x1="6.513" y2="28.134" transform="translate(118.83 142.429)" fill="none" stroke="#51cc50" stroke-linecap="round" stroke-miterlimit="10" stroke-width="0.328"/>
        <line id="Línea_613" data-name="Línea 613" x1="28.878" transform="translate(83.774 173.437)" fill="none" stroke="#51cc50" stroke-linecap="round" stroke-miterlimit="10" stroke-width="0.328"/>
        <path id="Trazado_893696" data-name="Trazado 893696" d="M209.223,44.159c.734-.232,1.777-5.33,1.969-5.33s-.076,4.945.773,5.523,5.33.619,6.1.193,1.082-4.711,1.082-4.711.385,4.055,1.687,4.635,2.948-.156,3.411-.309.115,6.3,2.781,7.223c0,0-4.654-.6-6.192,8.785s11.387,10.719,13.414,7.127-1.158-7.068,2.492-7.822,6.084-4.982,4.23-10.254-7.614-2.351-7.416-8.449c.362-11.108-7.928-15.478-20.443-13.044-9.106,1.77-9.429,15.862-9.429,15.862-.154,2.647-3.775,2.58-4.2,6.365s6.529,5.489,5.486,6.261-15.566,14.4,13.441,12.9c7.337-.382-9.186-24.951-9.186-24.951" transform="translate(137.723 18.692)" fill="#845800"/>
        <path id="Trazado_893697" data-name="Trazado 893697" d="M209.695,54.141a18.593,18.593,0,0,0,.47,4.378c1.18,4.3,10.826,3.192,10.963-1.665.058-1.932.123-4.316.183-6.481.091-3.276.167-6.062.167-6.062h-11.1a75.774,75.774,0,0,0-.681,9.83" transform="translate(144.784 30.595)" fill="#ef9c8b"/>
        <path id="Trazado_893698" data-name="Trazado 893698" d="M209.695,54.141a55.564,55.564,0,0,0,11.615-3.768c.091-3.276.167-6.062.167-6.062h-11.1a75.774,75.774,0,0,0-.681,9.83" transform="translate(144.784 30.595)" fill="#e28474"/>
        <path id="Trazado_893699" data-name="Trazado 893699" d="M204.808,51.745a15.276,15.276,0,0,0,4.7,5.771c7.857,5.881,16.653-5.829,16.653-5.829a4.15,4.15,0,0,0,.8.125c1.368.091,4.042-.3,4.5-4.6.609-5.665-2.913-5.677-4.5-1.756-.046.113-.09.232-.132.352-.25.7-.081-12.317-3.469-12.178-16.947.7-19.17,0-19.17,0-1.476,5.073-2.154,12.291.612,18.115" transform="translate(140.103 23.22)" fill="#ffb7a4"/>
        <path id="Trazado_893700" data-name="Trazado 893700" d="M227.526,41.463s-5.1,2.627-6.451-.348a10.083,10.083,0,0,1-.773-5.445c-.076.27-.695,4.365-2.279,5.33s-5.1.039-5.715-.348-.541-5.212-.734-5-.773,4.769-2.549,4.808a12.3,12.3,0,0,1-4.4-.463c-.81-.387-1.621-4.983-.926-5.949s8.342-1.853,14.638-2.318,7.648,1.121,8.42,3.051.773,6.682.773,6.682" transform="translate(140.463 21.852)" fill="#845800"/>
        <path id="Trazado_893701" data-name="Trazado 893701" d="M221.526,64.92l-5.4,23.666-.164.717a7.676,7.676,0,0,1-8.731,5.844c-6.606-1.163-13.125-2.862-19.587-4.672a8.561,8.561,0,0,1-1.391-.451,3.146,3.146,0,0,1-.676-.472,3.493,3.493,0,0,1-.652-.791,6.359,6.359,0,0,1,1.334-8.226,3.068,3.068,0,0,1,1.464-.514l.718-.09c4.764-.6,9.57-1.1,14.35-1.415,1.905-.125,3.812-.23,5.717-.259l-8.893,6.561,5.4-23.666c2.923-10.841,18.577-7.293,16.512,3.768" transform="translate(127.034 37.698)" fill="#5763d3"/>
        <path id="Trazado_893702" data-name="Trazado 893702" d="M238.7,172.239h-4.928a1.244,1.244,0,0,1-1.04-.561l-.744-1.131-.059-.088a1.244,1.244,0,0,0-2.013-.091l-.142.179H209.028a3.411,3.411,0,0,1,1.312-2.286c1.709-1.165,11.9-5.4,13.566-6.082a1.235,1.235,0,0,1,.475-.095h13.747a1.245,1.245,0,0,1,1.241,1.151l.548,7.311.027.355a1.244,1.244,0,0,1-1.241,1.337" transform="translate(144.326 111.913)" fill="#282828"/>
        <path id="Trazado_893703" data-name="Trazado 893703" d="M229.819,167.09l-1.378,1.731a1.244,1.244,0,0,1-.974.47H210.215a1.246,1.246,0,0,1-1.244-1.3,6.623,6.623,0,0,1,.1-.9Z" transform="translate(144.286 115.369)" fill="#727272"/>
        <path id="Trazado_893704" data-name="Trazado 893704" d="M229.323,168.782H224.4a1.244,1.244,0,0,1-1.04-.561l-.744-1.131h7.925l.027.355a1.244,1.244,0,0,1-1.241,1.337" transform="translate(153.705 115.369)" fill="#727272"/>
        <path id="Trazado_893705" data-name="Trazado 893705" d="M221.922,172.239h-4.928a1.244,1.244,0,0,1-1.04-.561l-.744-1.131-.059-.088a1.244,1.244,0,0,0-2.013-.091l-.142.179H192.248a3.411,3.411,0,0,1,1.312-2.286c1.709-1.165,11.9-5.4,13.566-6.082a1.235,1.235,0,0,1,.475-.095h13.747a1.245,1.245,0,0,1,1.241,1.151l.548,7.311.027.355a1.244,1.244,0,0,1-1.241,1.337" transform="translate(132.74 111.913)" fill="#282828"/>
        <path id="Trazado_893706" data-name="Trazado 893706" d="M213.038,167.09l-1.378,1.731a1.244,1.244,0,0,1-.974.47H193.434a1.246,1.246,0,0,1-1.244-1.3,6.628,6.628,0,0,1,.1-.9Z" transform="translate(132.699 115.369)" fill="#727272"/>
        <path id="Trazado_893707" data-name="Trazado 893707" d="M212.543,168.782h-4.928a1.244,1.244,0,0,1-1.04-.561l-.744-1.131h7.925l.027.355a1.244,1.244,0,0,1-1.241,1.337" transform="translate(142.119 115.369)" fill="#727272"/>
        <path id="Trazado_893708" data-name="Trazado 893708" d="M220.013,207.623h16.538a1.379,1.379,0,0,0,1.379-1.4L236.2,96.13H212.876l5.759,110.164a1.378,1.378,0,0,0,1.378,1.329" transform="translate(146.983 66.374)" fill="#0c0442"/>
        <path id="Trazado_893709" data-name="Trazado 893709" d="M202.572,207.623h17.407a1.379,1.379,0,0,0,1.379-1.369L223.41,96.13H197.617l3.577,110.164a1.378,1.378,0,0,0,1.378,1.329" transform="translate(136.447 66.374)" fill="#0c0442"/>
        <path id="Trazado_893710" data-name="Trazado 893710" d="M205.063,127.07h34.306a7.457,7.457,0,0,0,7.457-7.457V95.266h-49.22v24.348a7.457,7.457,0,0,0,7.457,7.457" transform="translate(136.44 65.778)" fill="#0c0442"/>
        <path id="Trazado_893711" data-name="Trazado 893711" d="M228.575,52.377l18.353,4.309a5.56,5.56,0,0,1,4.268,5.9l-4.066,63.754s-6.745,3.452-23.579,3.452S198,127.5,198,127.5l-.876-65.776A5.559,5.559,0,0,1,201.67,55.3l17.162-2.923,4.257.74Z" transform="translate(136.049 36.164)" fill="#666ee3"/>
        <path id="Trazado_893712" data-name="Trazado 893712" d="M212.449,53.967l4.671,5.78,3.489-5.891-2.857-2.71Z" transform="translate(146.688 35.314)" fill="#c6c6c6"/>
        <path id="Trazado_893713" data-name="Trazado 893713" d="M216.109,53.794l-4.671,5.78L207.55,53.74l3.927-2.345Z" transform="translate(143.306 35.487)" fill="#c6c6c6"/>
        <path id="Trazado_893714" data-name="Trazado 893714" d="M217.354,85.369H206.4s-13,1.464-18.62,0-8.6-5.411-7.438-5.739c1.875-.526,6.032-.057,10.481.527s3.724.059,8.878.059,4.823-.644,8.043-1,9.605-.527,9.605-.527Z" transform="translate(124.351 54.335)" fill="#ffa487"/>
        <path id="Trazado_893715" data-name="Trazado 893715" d="M252.494,64.136l-5.08,34.778-.056.384a8.022,8.022,0,0,1-8.148,6.858c-1.445-.039-3.618-.134-5.092-.2-10.192-.5-20.4-1.3-30.565-2.238a12.446,12.446,0,0,1-3.829-.686,4.868,4.868,0,0,1-2.187-7.5,6.5,6.5,0,0,1,4.529-2.216c10.538-1.423,21.127-2.715,31.715-3.675,1.456-.127,3.629-.318,5.078-.414l-8.2,7.242,5.08-34.778a8.469,8.469,0,0,1,16.759,2.448" transform="translate(135.706 37.591)" fill="#5763d3"/>
        <path id="Trazado_893716" data-name="Trazado 893716" d="M183.7,84.475l50.356-4.485a2.063,2.063,0,0,0,1.866-2.233l-.01-.113a2.064,2.064,0,0,0-2.231-1.868l-50.355,4.485a2.066,2.066,0,0,0-1.868,2.233l.01.113a2.066,2.066,0,0,0,2.233,1.868" transform="translate(125.284 52.315)" fill="#42aa46"/>
        <path id="Trazado_893717" data-name="Trazado 893717" d="M167.628,62.626l10.844,33.85a2.046,2.046,0,0,0,2.213,1.851l34.541-3.077a2.047,2.047,0,0,0,1.851-2.213L206.861,61.15l-.627-1.963a2.047,2.047,0,0,0-2.213-1.851l-34.541,3.077a2.046,2.046,0,0,0-1.851,2.213" transform="translate(115.736 39.583)" fill="#51cc50"/>
        <path id="Trazado_893718" data-name="Trazado 893718" d="M170.3,64.73l10.215,31.887,32.874-2.928a2.046,2.046,0,0,0,1.851-2.211L205.021,59.589l-32.874,2.928A2.046,2.046,0,0,0,170.3,64.73" transform="translate(117.577 41.144)" fill="#43c047"/>
        <path id="Trazado_893719" data-name="Trazado 893719" d="M178.16,72.476a4.881,4.881,0,1,0,4.429-5.295,4.882,4.882,0,0,0-4.429,5.295" transform="translate(122.999 46.372)" fill="#d4e14f"/>
        <line id="Línea_614" data-name="Línea 614" x2="8.375" y2="25.587" transform="translate(318.943 103.989)" fill="none" stroke="#51cc50" stroke-linecap="round" stroke-miterlimit="10" stroke-width="0.306"/>
        <line id="Línea_615" data-name="Línea 615" y1="2.389" x2="26.818" transform="translate(333.292 129.346)" fill="none" stroke="#51cc50" stroke-linecap="round" stroke-miterlimit="10" stroke-width="0.306"/>
        <path id="Trazado_893720" data-name="Trazado 893720" d="M428.516,170.4v.083a1.961,1.961,0,0,1-1.956,1.956H1.956A1.961,1.961,0,0,1,0,170.481V170.4a1.962,1.962,0,0,1,1.956-1.956h424.6a1.962,1.962,0,0,1,1.956,1.956" transform="translate(0 116.303)" fill="#565ac5"/>
      </g>
    </g>
  </g>
</svg>
