<svg xmlns="http://www.w3.org/2000/svg" xmlns:xlink="http://www.w3.org/1999/xlink" width="89" height="89" viewBox="0 0 89 89">
  <defs>
    <clipPath id="clip-path">
      <rect id="Rectángulo_402427" data-name="Rectángulo 402427" width="63.214" height="63.188" fill="none"/>
    </clipPath>
  </defs>
  <g id="Grupo_1103359" data-name="Grupo 1103359" transform="translate(-1071.738 -1576.68)">
    <circle id="Elipse_11647" data-name="Elipse 11647" cx="44.5" cy="44.5" r="44.5" transform="translate(1071.738 1576.68)" fill="#aecd9e"/>
    <g id="Grupo_1101847" data-name="Grupo 1101847" transform="translate(1085.456 1587.059)">
      <g id="Grupo_1101846" data-name="Grupo 1101846" clip-path="url(#clip-path)">
        <path id="Trazado_892844" data-name="Trazado 892844" d="M82.335,11.26V35.583a.79.79,0,0,1-.788.788H77.791A.789.789,0,0,1,77,35.583V11.26H73.8a.644.644,0,0,1-.5-1.045l5.874-7.4a.644.644,0,0,1,1.01,0l5.874,7.4a.644.644,0,0,1-.5,1.045Z" transform="translate(-48.062 -1.688)" fill="#4eb1fc" fill-rule="evenodd"/>
        <path id="Trazado_892845" data-name="Trazado 892845" d="M80.043,37.435H77.792A.79.79,0,0,1,77,36.647V12.325H73.8a.644.644,0,0,1-.505-1.045l5.626-7.091,5.626,7.091a.644.644,0,0,1-.505,1.045H80.831V36.647A.79.79,0,0,1,80.043,37.435Z" transform="translate(-48.063 -2.752)" fill="#85caff" fill-rule="evenodd"/>
        <path id="Trazado_892846" data-name="Trazado 892846" d="M117.5,32.722H119.3V35.93a.644.644,0,0,0,1.045.5l7.4-5.873a.645.645,0,0,0,0-1.01l-7.4-5.874a.644.644,0,0,0-1.045.5v3.208h-2.071a17.333,17.333,0,0,0-17.3,17.3v4.669a.79.79,0,0,0,.788.788h3.756a.79.79,0,0,0,.788-.788V44.952A12.253,12.253,0,0,1,117.5,32.722Z" transform="translate(-65.661 -15.465)" fill="#88f288" fill-rule="evenodd"/>
        <path id="Trazado_892847" data-name="Trazado 892847" d="M117.5,33.712H119.3v3.208a.668.668,0,0,0,.012.13l6.93-5.5a.644.644,0,0,0,0-1.01l-6.93-5.5a.666.666,0,0,0-.013.13V28.38h-2.071a17.333,17.333,0,0,0-17.3,17.3v4.669a.79.79,0,0,0,.788.788h2.251a.789.789,0,0,0,.788-.788V45.941A12.253,12.253,0,0,1,115.99,33.712Z" transform="translate(-65.661 -16.454)" fill="#adffad" fill-rule="evenodd"/>
        <path id="Trazado_892848" data-name="Trazado 892848" d="M11.748,117.43v1.809h3.208a.644.644,0,0,1,.5,1.045l-5.873,7.4a.645.645,0,0,1-1.01,0l-5.874-7.4a.644.644,0,0,1,.505-1.045H6.416v-2.071a17.333,17.333,0,0,1,17.3-17.3h4.669a.79.79,0,0,1,.788.788v3.756a.79.79,0,0,1-.788.788H23.978A12.253,12.253,0,0,0,11.748,117.43Z" transform="translate(-1.684 -65.619)" fill="#b7ddf4" fill-rule="evenodd"/>
        <path id="Trazado_892849" data-name="Trazado 892849" d="M11.748,119.24h1.7a.644.644,0,0,1,.505,1.045L8.33,127.376,2.7,120.285a.644.644,0,0,1,.505-1.045H6.416V117.17a17.333,17.333,0,0,1,17.3-17.3H26.88a.79.79,0,0,1,.788.788v3.756a.789.789,0,0,1-.788.788H22.472a12.253,12.253,0,0,0-12.229,12.229v1.809Z" transform="translate(-1.684 -65.619)" fill="#5892af" fill-rule="evenodd"/>
        <path id="Trazado_892850" data-name="Trazado 892850" d="M121.59,117.43v1.809h-3.208a.644.644,0,0,0-.5,1.045l5.873,7.4a.645.645,0,0,0,1.01,0l5.874-7.4a.644.644,0,0,0-.505-1.045h-3.208v-2.071a17.333,17.333,0,0,0-17.3-17.3h-4.669a.79.79,0,0,0-.788.788v3.756a.79.79,0,0,0,.788.788h4.408A12.253,12.253,0,0,1,121.59,117.43Z" transform="translate(-68.441 -65.619)" fill="#ff8748" fill-rule="evenodd"/>
        <path id="Trazado_892851" data-name="Trazado 892851" d="M121.59,117.43v1.809h-3.208a.644.644,0,0,0-.5,1.045l5.626,7.091,5.626-7.091a.644.644,0,0,0-.5-1.045h-3.208v-2.071a17.333,17.333,0,0,0-17.3-17.3h-3.164a.79.79,0,0,0-.788.788v3.756a.79.79,0,0,0,.788.788h4.408A12.253,12.253,0,0,1,121.59,117.43Z" transform="translate(-68.441 -65.619)" fill="#ff9861" fill-rule="evenodd"/>
        <path id="Trazado_892852" data-name="Trazado 892852" d="M13.064,32.722H11.254V35.93a.644.644,0,0,1-1.045.5l-7.4-5.873a.644.644,0,0,1,0-1.01l7.4-5.874a.644.644,0,0,1,1.045.5v3.208h2.071a17.333,17.333,0,0,1,17.3,17.3v4.669a.79.79,0,0,1-.788.788H26.081a.79.79,0,0,1-.788-.788V44.952A12.253,12.253,0,0,0,13.064,32.722Z" transform="translate(-1.684 -15.465)" fill="#fcdb35" fill-rule="evenodd"/>
        <path id="Trazado_892853" data-name="Trazado 892853" d="M13.064,33.712H9.75v3.208a.668.668,0,0,1-.013.13l-6.93-5.5a.644.644,0,0,1,0-1.01l6.93-5.5a.666.666,0,0,1,.013.13V28.38H11.82a17.333,17.333,0,0,1,17.3,17.3v4.669a.79.79,0,0,1-.788.788H26.081a.79.79,0,0,1-.788-.788V45.941A12.253,12.253,0,0,0,13.064,33.712Z" transform="translate(-1.684 -16.454)" fill="#ffeb87" fill-rule="evenodd"/>
        <path id="Trazado_892854" data-name="Trazado 892854" d="M51.675,95.079a13.916,13.916,0,1,1,11.541,15.94,13.916,13.916,0,0,1-11.541-15.94" transform="translate(-33.836 -54.772)" fill="#d7ebff"/>
        <path id="Trazado_892855" data-name="Trazado 892855" d="M64.267,111.252a13.921,13.921,0,0,1,0-27.735,13.921,13.921,0,0,1,0,27.735" transform="translate(-33.882 -54.875)" fill="#edf6ff" fill-rule="evenodd"/>
        <path id="Trazado_892856" data-name="Trazado 892856" d="M73.262,127.975a9.991,9.991,0,0,1,9.865,8.413,13.889,13.889,0,0,1-19.729,0A9.991,9.991,0,0,1,73.262,127.975Z" transform="translate(-41.655 -84.085)" fill="#4eb1fc" fill-rule="evenodd"/>
        <path id="Trazado_892857" data-name="Trazado 892857" d="M81.112,139.317A13.892,13.892,0,0,1,63.4,137.635a10,10,0,0,1,5.864-7.579c.336-.055.671-.1,1-.129C77.712,129.243,80.635,135.12,81.112,139.317Z" transform="translate(-41.655 -85.332)" fill="#85caff" fill-rule="evenodd"/>
        <path id="Trazado_892858" data-name="Trazado 892858" d="M83.046,109.652a4.757,4.757,0,1,0-4.757-4.757,4.767,4.767,0,0,0,4.757,4.757" transform="translate(-51.439 -65.795)" fill="#fdb0a0" fill-rule="evenodd"/>
        <ellipse id="Elipse_11651" data-name="Elipse 11651" cx="3.558" cy="4.605" rx="3.558" ry="4.605" transform="translate(26.849 34.495)" fill="#ffcec0"/>
        <path id="Trazado_892859" data-name="Trazado 892859" d="M55.816,61.29,50.425,54.5h2.724a.88.88,0,0,0,.879-.878V51.81a13.139,13.139,0,0,0-7.887-12.02,14.657,14.657,0,0,0-1.523-4.3A16.583,16.583,0,0,1,57.6,51.549V53.62a.879.879,0,0,0,.878.878H61.2l-5.39,6.793ZM41.931,50.448a13.03,13.03,0,1,0-20.647,0,10.867,10.867,0,0,1,6.894-6.893,5.641,5.641,0,1,1,6.86,0,10.866,10.866,0,0,1,6.893,6.893ZM31.607,42.965a3.885,3.885,0,1,1,3.885-3.885,3.889,3.889,0,0,1-3.885,3.885m-8.926,9.024a9.124,9.124,0,0,1,17.852,0,13,13,0,0,1-17.852,0M11.533,44.34a13.008,13.008,0,0,0-2.346,7.47v1.81a.879.879,0,0,0,.878.878h2.724L7.4,61.29,2.008,54.5H4.733a.879.879,0,0,0,.878-.878V51.549A16.583,16.583,0,0,1,18.6,35.493a14.692,14.692,0,0,0-1.522,4.3,13.135,13.135,0,0,0-5.54,4.549ZM11.38,16.378H9.571a.879.879,0,0,0-.879.878v2.725L1.9,14.59,8.692,9.2v2.724a.878.878,0,0,0,.879.878h2.07a16.442,16.442,0,0,1,16.386,15.36,14.653,14.653,0,0,0-3.541,1.392v-.069A13.122,13.122,0,0,0,11.38,16.378ZM26.216,8.692h2.724a.878.878,0,0,1,.878.878V27.831a14.8,14.8,0,0,1,3.576,0V9.57a.878.878,0,0,1,.879-.878H37L31.607,1.9,26.216,8.692ZM51.573,12.8h2.071a.878.878,0,0,0,.878-.878V9.2l6.794,5.391-6.794,5.391V17.256a.878.878,0,0,0-.878-.878h-1.81A13.122,13.122,0,0,0,38.727,29.485v.069a14.666,14.666,0,0,0-3.541-1.392A16.442,16.442,0,0,1,51.573,12.8ZM61.689,52.741h-2.33V51.549A18.218,18.218,0,0,0,43.32,33.5a14.873,14.873,0,0,0-2.837-2.806V29.485a11.364,11.364,0,0,1,11.35-11.351h.932v2.33a1.522,1.522,0,0,0,2.468,1.193l7.4-5.874a1.522,1.522,0,0,0,0-2.385l-7.4-5.874a1.522,1.522,0,0,0-2.468,1.193v2.33H51.573A18.2,18.2,0,0,0,35.151,21.434V10.448h2.329a1.522,1.522,0,0,0,1.192-2.469L32.8.577a1.523,1.523,0,0,0-2.386,0l-5.873,7.4a1.522,1.522,0,0,0,1.193,2.469h2.33V21.434A18.2,18.2,0,0,0,11.641,11.046H10.449V8.716A1.522,1.522,0,0,0,7.98,7.524L.577,13.4a1.522,1.522,0,0,0,0,2.385l7.4,5.874a1.522,1.522,0,0,0,2.469-1.193v-2.33h.931A11.364,11.364,0,0,1,22.732,29.485v1.206A14.886,14.886,0,0,0,19.894,33.5,18.218,18.218,0,0,0,3.855,51.549v1.193H1.525A1.522,1.522,0,0,0,.333,55.21l5.874,7.4a1.522,1.522,0,0,0,2.385,0l5.874-7.4a1.521,1.521,0,0,0-1.193-2.468H10.943V51.81a11.453,11.453,0,0,1,5.894-9.945c-.009.213-.015.427-.015.643a14.785,14.785,0,0,0,29.569,0q0-.324-.014-.643a11.453,11.453,0,0,1,5.893,9.945v.931h-2.33a1.522,1.522,0,0,0-1.193,2.468l5.875,7.4a1.522,1.522,0,0,0,2.386,0l5.874-7.4a1.522,1.522,0,0,0-1.193-2.468Z" transform="translate(0 -0.001)" fill-rule="evenodd"/>
      </g>
    </g>
  </g>
</svg>
