<svg xmlns="http://www.w3.org/2000/svg" xmlns:xlink="http://www.w3.org/1999/xlink" width="89" height="89" viewBox="0 0 89 89">
  <defs>
    <clipPath id="clip-path">
      <rect id="Rectángulo_402426" data-name="Rectángulo 402426" width="68.353" height="52.403" fill="none"/>
    </clipPath>
    <clipPath id="clip-path-3">
      <rect id="Rectángulo_402421" data-name="Rectángulo 402421" width="12.356" height="7.34" fill="none"/>
    </clipPath>
    <clipPath id="clip-path-4">
      <rect id="Rectángulo_402422" data-name="Rectángulo 402422" width="12.356" height="6.219" fill="none"/>
    </clipPath>
  </defs>
  <g id="Grupo_1103358" data-name="Grupo 1103358" transform="translate(-756.238 -1576.68)">
    <circle id="Elipse_11647" data-name="Elipse 11647" cx="44.5" cy="44.5" r="44.5" transform="translate(756.238 1576.68)" fill="#aecd9e"/>
    <g id="Grupo_1101845" data-name="Grupo 1101845" transform="translate(766.823 1594.979)">
      <g id="Grupo_1101844" data-name="Grupo 1101844" clip-path="url(#clip-path)">
        <g id="Grupo_1101843" data-name="Grupo 1101843">
          <g id="Grupo_1101842" data-name="Grupo 1101842" clip-path="url(#clip-path)">
            <path id="Trazado_892796" data-name="Trazado 892796" d="M186.919,90.178v14.908a16.008,16.008,0,0,0,4.313-23.272l-3.866,6.7a3.335,3.335,0,0,0-.447,1.669" transform="translate(-144.301 -63.159)" fill="#ffe177"/>
            <path id="Trazado_892797" data-name="Trazado 892797" d="M217.561,4.743A2.9,2.9,0,0,0,213.713,5.9L212.3,8.345l.168.251,4.433,2.559.35.048L218.7,8.7a2.859,2.859,0,0,0-1.138-3.955" transform="translate(-163.895 -3.411)" fill="#ffdfcf"/>
            <path id="Trazado_892798" data-name="Trazado 892798" d="M224.56,4.746a2.866,2.866,0,0,0-3.193.376,2.859,2.859,0,0,1,.592,3.579l-.579,1,2.52,1.455.35.048L225.7,8.7a2.859,2.859,0,0,0-1.138-3.955" transform="translate(-170.894 -3.414)" fill="#ffcebf"/>
            <path id="Trazado_892799" data-name="Trazado 892799" d="M64.4,8.577l.134-.232L63.118,5.9A2.9,2.9,0,0,0,59.27,4.743,2.859,2.859,0,0,0,58.133,8.7L59.579,11.2l.384-.067Z" transform="translate(-44.582 -3.411)" fill="#ffdfcf"/>
            <path id="Trazado_892800" data-name="Trazado 892800" d="M86.807,88.507l-3.866-6.7a16.008,16.008,0,0,0,4.313,23.273V90.176a3.337,3.337,0,0,0-.447-1.669" transform="translate(-61.52 -63.158)" fill="#ffe177"/>
            <path id="Trazado_892801" data-name="Trazado 892801" d="M125.893,48.006a7.089,7.089,0,1,1-7.089,7.089,7.089,7.089,0,0,1,7.089-7.089" transform="translate(-91.716 -37.06)" fill="#ffdfcf"/>
            <path id="Trazado_892802" data-name="Trazado 892802" d="M134.476,48.426a7.087,7.087,0,0,1-4.9,12.213,7.146,7.146,0,0,1-1.157-.1,7.088,7.088,0,1,0,6.053-12.118" transform="translate(-99.142 -37.385)" fill="#ffcebf"/>
            <path id="Trazado_892803" data-name="Trazado 892803" d="M14.594,100.836a10.2,10.2,0,1,1-10.2,10.2,10.2,10.2,0,0,1,10.2-10.2" transform="translate(-3.391 -77.845)" fill="#dff6fd"/>
            <path id="Trazado_892804" data-name="Trazado 892804" d="M30.306,102.292a10.2,10.2,0,0,1-8.913,17.871,10.2,10.2,0,1,0,8.913-17.871" transform="translate(-16.515 -78.969)" fill="#c8effe"/>
            <g id="Grupo_1101838" data-name="Grupo 1101838" transform="translate(5.025 36.054)" opacity="0.6" style="mix-blend-mode: multiply;isolation: isolate">
              <g id="Grupo_1101837" data-name="Grupo 1101837">
                <g id="Grupo_1101836" data-name="Grupo 1101836" clip-path="url(#clip-path-3)">
                  <path id="Trazado_892805" data-name="Trazado 892805" d="M29.844,158.128H26.593a4.552,4.552,0,0,0-4.552,4.552v.7a10.2,10.2,0,0,0,12.356,0v-.7a4.552,4.552,0,0,0-4.552-4.552" transform="translate(-22.041 -158.128)" fill="#5d9e39"/>
                </g>
              </g>
            </g>
            <g id="Grupo_1101841" data-name="Grupo 1101841" transform="translate(5.025 37.176)" opacity="0.6" style="mix-blend-mode: multiply;isolation: isolate">
              <g id="Grupo_1101840" data-name="Grupo 1101840">
                <g id="Grupo_1101839" data-name="Grupo 1101839" clip-path="url(#clip-path-4)">
                  <path id="Trazado_892806" data-name="Trazado 892806" d="M32.834,163.048A10.2,10.2,0,0,1,22.04,167.1v.08a10.2,10.2,0,0,0,12.356,0v-.7a4.54,4.54,0,0,0-1.562-3.431" transform="translate(-22.04 -163.048)" fill="#4e822c"/>
                </g>
              </g>
            </g>
            <path id="Trazado_892807" data-name="Trazado 892807" d="M35.484,127.9a4.032,4.032,0,1,1-4.032,4.032,4.032,4.032,0,0,1,4.032-4.032" transform="translate(-24.281 -98.735)" fill="#ffcebf"/>
            <path id="Trazado_892808" data-name="Trazado 892808" d="M38.14,128.113a4.032,4.032,0,0,1-3.434,6.145,4.068,4.068,0,0,1-.63-.049,4.032,4.032,0,1,0,4.063-6.1" transform="translate(-26.307 -98.903)" fill="#ffb09e"/>
            <path id="Trazado_892809" data-name="Trazado 892809" d="M216.113,100.836a10.2,10.2,0,1,1-10.2,10.2,10.2,10.2,0,0,1,10.2-10.2" transform="translate(-158.962 -77.845)" fill="#dff6fd"/>
            <path id="Trazado_892810" data-name="Trazado 892810" d="M231.824,102.292a10.2,10.2,0,0,1-8.913,17.871,10.2,10.2,0,1,0,8.913-17.871" transform="translate(-172.086 -78.969)" fill="#c8effe"/>
            <path id="Trazado_892811" data-name="Trazado 892811" d="M231.362,158.128h-3.251a4.552,4.552,0,0,0-4.552,4.552v.7a10.2,10.2,0,0,0,12.356,0v-.7a4.552,4.552,0,0,0-4.552-4.552" transform="translate(-172.587 -122.074)" fill="#cb97e7"/>
            <path id="Trazado_892812" data-name="Trazado 892812" d="M234.353,163.048a10.2,10.2,0,0,1-10.794,4.054v.08a10.2,10.2,0,0,0,12.356,0v-.7a4.54,4.54,0,0,0-1.562-3.431" transform="translate(-172.587 -125.872)" fill="#bd80e1"/>
            <path id="Trazado_892813" data-name="Trazado 892813" d="M237,127.9a4.032,4.032,0,1,1-4.032,4.032A4.032,4.032,0,0,1,237,127.9" transform="translate(-179.853 -98.735)" fill="#c96e59"/>
            <path id="Trazado_892814" data-name="Trazado 892814" d="M239.658,128.113a4.032,4.032,0,0,1-3.434,6.145,4.075,4.075,0,0,1-.63-.049,4.032,4.032,0,1,0,4.064-6.1" transform="translate(-181.877 -98.903)" fill="#bb5d4c"/>
            <path id="Trazado_892815" data-name="Trazado 892815" d="M246.805,47.432h-3.752a.667.667,0,0,0-.578.334L240.6,51.015a.668.668,0,0,0,0,.668l1.876,3.25a.668.668,0,0,0,.578.334h3.752a.667.667,0,0,0,.578-.334l1.876-3.25a.668.668,0,0,0,0-.668l-1.876-3.249a.667.667,0,0,0-.578-.334" transform="translate(-185.672 -36.617)" fill="#05e39c"/>
            <path id="Trazado_892816" data-name="Trazado 892816" d="M262.389,51.015l-1.876-3.25a.668.668,0,0,0-.578-.334h-2.418l2.069,3.583a.668.668,0,0,1,0,.668l-2.069,3.583h2.418a.668.668,0,0,0,.578-.334l1.876-3.249a.668.668,0,0,0,0-.668" transform="translate(-198.802 -36.617)" fill="#0ed290"/>
            <path id="Trazado_892817" data-name="Trazado 892817" d="M26.807,47.432H23.055a.668.668,0,0,0-.578.334L20.6,51.015a.668.668,0,0,0,0,.668l1.876,3.25a.668.668,0,0,0,.578.334h3.752a.668.668,0,0,0,.578-.334l1.876-3.25a.669.669,0,0,0,0-.668l-1.876-3.249a.668.668,0,0,0-.578-.334" transform="translate(-15.835 -36.617)" fill="#ffe177"/>
            <path id="Trazado_892818" data-name="Trazado 892818" d="M42.39,51.015l-1.876-3.25a.668.668,0,0,0-.578-.334H37.518l2.069,3.583a.668.668,0,0,1,0,.668l-2.069,3.583h2.418a.668.668,0,0,0,.578-.334l1.876-3.249a.668.668,0,0,0,0-.668" transform="translate(-28.964 -36.617)" fill="#ffd15b"/>
            <path id="Trazado_892819" data-name="Trazado 892819" d="M99.183,21.64,91.892,34.269c.01.156.018.313.018.472A6.955,6.955,0,0,1,78,34.74c0-.159.007-.316.018-.472L70.726,21.64,65.775,24.5,75.932,42.091a3.337,3.337,0,0,1,.447,1.669V58.544a15.991,15.991,0,0,0,17.151,0V43.76a3.337,3.337,0,0,1,.447-1.669L104.134,24.5Z" transform="translate(-50.778 -16.706)" fill="#b7ddf4"/>
            <path id="Trazado_892820" data-name="Trazado 892820" d="M182.649,27.077,171.557,46.289a3.337,3.337,0,0,0-.447,1.669V64.486a15.993,15.993,0,0,0,3.738-1.745V47.957a3.337,3.337,0,0,1,.447-1.669L185.452,28.7Z" transform="translate(-132.096 -20.903)" fill="#91bace"/>
            <path id="Trazado_892821" data-name="Trazado 892821" d="M101,208.352a23.77,23.77,0,0,1-14.027-4.532,1,1,0,0,1,1.174-1.622,21.874,21.874,0,0,0,25.7,0,1,1,0,1,1,1.174,1.622A23.768,23.768,0,0,1,101,208.352" transform="translate(-66.823 -155.949)"/>
            <path id="Trazado_892822" data-name="Trazado 892822" d="M110.421,19.112a1,1,0,0,1-.358-1.936,23.96,23.96,0,0,1,17.17,0,1,1,0,1,1-.716,1.87,21.961,21.961,0,0,0-15.737,0,1,1,0,0,1-.358.067" transform="translate(-84.471 -12.031)"/>
            <path id="Trazado_892823" data-name="Trazado 892823" d="M183.528,181.476a1,1,0,0,1-1-1v-.006a1,1,0,1,1,1,1.008" transform="translate(-140.91 -138.548)"/>
            <path id="Trazado_892824" data-name="Trazado 892824" d="M205.487,87.6a14.993,14.993,0,0,0-2.8-6.7l1.606-1.2a17,17,0,0,1,3.17,7.6Z" transform="translate(-156.477 -61.532)"/>
            <path id="Trazado_892825" data-name="Trazado 892825" d="M186.223,165.948l-1.075-1.69a15.182,15.182,0,0,0,4.606-4.59l1.686,1.08a17.2,17.2,0,0,1-5.218,5.2" transform="translate(-142.933 -123.263)"/>
            <path id="Trazado_892826" data-name="Trazado 892826" d="M92.261,165.948a17.2,17.2,0,0,1-5.218-5.2l1.687-1.08a15.175,15.175,0,0,0,4.606,4.59Z" transform="translate(-67.197 -123.263)"/>
            <path id="Trazado_892827" data-name="Trazado 892827" d="M78.131,87.6l-1.98-.3a17,17,0,0,1,3.17-7.6l1.606,1.2a14.993,14.993,0,0,0-2.8,6.7" transform="translate(-58.788 -61.532)"/>
            <path id="Trazado_892828" data-name="Trazado 892828" d="M64.669,160.529h-2v-.7a3.539,3.539,0,0,0-2.709-3.449l.472-1.946a5.537,5.537,0,0,1,4.239,5.4Z" transform="translate(-46.287 -119.219)"/>
            <path id="Trazado_892829" data-name="Trazado 892829" d="M19.652,160.529h-2v-.7a5.536,5.536,0,0,1,4.239-5.4l.472,1.946a3.539,3.539,0,0,0-2.709,3.449Z" transform="translate(-13.625 -119.219)"/>
            <path id="Trazado_892830" data-name="Trazado 892830" d="M266.188,160.529h-2v-.7a3.539,3.539,0,0,0-2.709-3.449l.472-1.946a5.537,5.537,0,0,1,4.239,5.4Z" transform="translate(-201.858 -119.219)"/>
            <path id="Trazado_892831" data-name="Trazado 892831" d="M221.17,160.529h-2v-.7a5.536,5.536,0,0,1,4.24-5.4l.472,1.946a3.539,3.539,0,0,0-2.709,3.449Z" transform="translate(-169.196 -119.219)"/>
            <path id="Trazado_892832" data-name="Trazado 892832" d="M111.8,16.237a1,1,0,0,1-.421-.093l-3.028-1.407a1,1,0,0,1-.486-1.33l1.407-3.028a1,1,0,0,1,1.816.844l-.985,2.12,2.12.985a1,1,0,0,1-.423,1.91" transform="translate(-83.198 -7.565)"/>
            <path id="Trazado_892833" data-name="Trazado 892833" d="M201.021,199.933a1,1,0,0,1-.992-1.147l.34-2.313-2.313-.34a1,1,0,0,1,.292-1.981l3.3.486a1,1,0,0,1,.845,1.137l-.486,3.3a1,1,0,0,1-.989.855" transform="translate(-152.238 -149.876)"/>
            <path id="Trazado_892834" data-name="Trazado 892834" d="M11.2,118.85a11.2,11.2,0,0,1-8.98-17.9,1,1,0,0,1,1.6,1.2,9.209,9.209,0,1,0,3.229-2.711,1,1,0,1,1-.9-1.787,11.084,11.084,0,0,1,5.052-1.2,11.2,11.2,0,0,1,0,22.406" transform="translate(0 -74.454)"/>
            <path id="Trazado_892835" data-name="Trazado 892835" d="M233.612,133.571a5.033,5.033,0,1,1,5.033-5.033,5.039,5.039,0,0,1-5.033,5.033m0-8.064a3.031,3.031,0,1,0,3.03,3.03,3.034,3.034,0,0,0-3.03-3.03" transform="translate(-176.462 -95.345)"/>
            <path id="Trazado_892836" data-name="Trazado 892836" d="M212.721,118.851a11.2,11.2,0,1,1,11.2-11.2,11.216,11.216,0,0,1-11.2,11.2m0-20.4a9.2,9.2,0,1,0,9.2,9.2,9.211,9.211,0,0,0-9.2-9.2" transform="translate(-155.571 -74.455)"/>
            <path id="Trazado_892837" data-name="Trazado 892837" d="M122.5,59.8a8.09,8.09,0,1,1,8.09-8.09,8.1,8.1,0,0,1-8.09,8.09m0-14.178a6.087,6.087,0,1,0,6.087,6.087,6.095,6.095,0,0,0-6.087-6.087" transform="translate(-88.326 -33.671)"/>
            <rect id="Rectángulo_402423" data-name="Rectángulo 402423" width="2.003" height="5.717" transform="matrix(0.5, -0.866, 0.866, 0.5, 47.905, 5.801)"/>
            <rect id="Rectángulo_402424" data-name="Rectángulo 402424" width="5.717" height="2.002" transform="translate(14.496 6.925) rotate(-30.001)"/>
            <path id="Trazado_892838" data-name="Trazado 892838" d="M243.418,52.877h-3.752a1.674,1.674,0,0,1-1.445-.834l-1.876-3.25a1.673,1.673,0,0,1,0-1.669l1.876-3.249a1.673,1.673,0,0,1,1.445-.834h3.752a1.674,1.674,0,0,1,1.445.834l1.876,3.25a1.673,1.673,0,0,1,0,1.669l-1.876,3.249a1.674,1.674,0,0,1-1.445.834m-3.559-2h3.366l1.683-2.916-1.683-2.916h-3.366l-1.684,2.916Zm3.559-5.831h0Z" transform="translate(-182.285 -33.227)"/>
            <path id="Trazado_892839" data-name="Trazado 892839" d="M23.419,52.877H19.667a1.674,1.674,0,0,1-1.445-.834l-1.876-3.25a1.673,1.673,0,0,1,0-1.669l1.876-3.249a1.673,1.673,0,0,1,1.445-.834h3.752a1.674,1.674,0,0,1,1.445.834l1.876,3.25a1.673,1.673,0,0,1,0,1.669l-1.876,3.249a1.674,1.674,0,0,1-1.445.834m-3.559-2h3.366l1.683-2.916-1.683-2.916H19.86l-1.684,2.916Zm3.559-5.831h0Z" transform="translate(-12.447 -33.227)"/>
            <path id="Trazado_892840" data-name="Trazado 892840" d="M32.094,133.571a5.033,5.033,0,1,1,5.033-5.033,5.039,5.039,0,0,1-5.033,5.033m0-8.064a3.031,3.031,0,1,0,3.03,3.03,3.034,3.034,0,0,0-3.03-3.03" transform="translate(-20.891 -95.345)"/>
            <path id="Trazado_892841" data-name="Trazado 892841" d="M117.47,45.377a16.958,16.958,0,0,1-9.113-2.65,1,1,0,0,1-.464-.845v-7.3a1,1,0,1,1,2,0v6.737a14.992,14.992,0,0,0,15.148,0V27.1a4.343,4.343,0,0,1,.581-2.17l11.6-20.1a1.857,1.857,0,0,0-.74-2.57,1.909,1.909,0,0,0-2.511.772l-2.816,4.878a1,1,0,0,1-1.734-1l2.816-4.878a3.927,3.927,0,0,1,5.184-1.54,3.86,3.86,0,0,1,1.535,5.34l-11.6,20.1a2.341,2.341,0,0,0-.313,1.168V41.882a1,1,0,0,1-.464.845,16.958,16.958,0,0,1-9.112,2.65" transform="translate(-83.293 -0.044)"/>
            <path id="Trazado_892842" data-name="Trazado 892842" d="M66.787,30.868a1,1,0,0,1-1-1V27.054a2.339,2.339,0,0,0-.313-1.168l-11.6-20.1A3.859,3.859,0,0,1,55.4.448a3.88,3.88,0,0,1,5.184,1.539l8.585,14.87a1,1,0,1,1-1.734,1L58.855,2.989a1.909,1.909,0,0,0-2.511-.772,1.857,1.857,0,0,0-.74,2.57l11.6,20.1a4.343,4.343,0,0,1,.581,2.169v2.813a1,1,0,0,1-1,1" transform="translate(-41.186 0)"/>
            <path id="Trazado_892843" data-name="Trazado 892843" d="M177.449,53.61a1,1,0,0,1-.866-1.5l3.433-5.945a1,1,0,1,1,1.734,1l-3.432,5.945a1,1,0,0,1-.868.5" transform="translate(-136.218 -35.251)"/>
          </g>
        </g>
      </g>
    </g>
  </g>
</svg>
